G04 #@! TF.GenerationSoftware,KiCad,Pcbnew,6.0.11+dfsg-1~bpo11+1*
G04 #@! TF.CreationDate,2023-08-21T20:53:42+00:00*
G04 #@! TF.ProjectId,RIPPLE,52495050-4c45-42e6-9b69-6361645f7063,rev?*
G04 #@! TF.SameCoordinates,Original*
G04 #@! TF.FileFunction,Legend,Top*
G04 #@! TF.FilePolarity,Positive*
%FSLAX46Y46*%
G04 Gerber Fmt 4.6, Leading zero omitted, Abs format (unit mm)*
G04 Created by KiCad (PCBNEW 6.0.11+dfsg-1~bpo11+1) date 2023-08-21 20:53:42*
%MOMM*%
%LPD*%
G01*
G04 APERTURE LIST*
%ADD10C,0.127000*%
%ADD11C,0.100000*%
%ADD12C,0.150000*%
%ADD13C,0.120000*%
%ADD14C,0.250000*%
%ADD15R,1.700000X1.700000*%
%ADD16O,1.700000X1.700000*%
%ADD17C,1.700000*%
%ADD18R,1.600000X1.600000*%
%ADD19C,1.600000*%
%ADD20R,2.000000X1.500000*%
%ADD21R,2.000000X3.800000*%
%ADD22R,1.524000X6.754000*%
G04 APERTURE END LIST*
D10*
X124574572Y27801174D02*
X124538286Y27728603D01*
X124538286Y27619745D01*
X124574572Y27510888D01*
X124647143Y27438317D01*
X124719714Y27402031D01*
X124864857Y27365745D01*
X124973714Y27365745D01*
X125118857Y27402031D01*
X125191429Y27438317D01*
X125264000Y27510888D01*
X125300286Y27619745D01*
X125300286Y27692317D01*
X125264000Y27801174D01*
X125227714Y27837460D01*
X124973714Y27837460D01*
X124973714Y27692317D01*
X125300286Y28164031D02*
X124538286Y28164031D01*
X125300286Y28599460D01*
X124538286Y28599460D01*
X125300286Y28962317D02*
X124538286Y28962317D01*
X124538286Y29143745D01*
X124574572Y29252603D01*
X124647143Y29325174D01*
X124719714Y29361460D01*
X124864857Y29397745D01*
X124973714Y29397745D01*
X125118857Y29361460D01*
X125191429Y29325174D01*
X125264000Y29252603D01*
X125300286Y29143745D01*
X125300286Y28962317D01*
D11*
X10561333Y45939441D02*
X10561333Y45368012D01*
X10523238Y45253726D01*
X10447048Y45177536D01*
X10332762Y45139441D01*
X10256572Y45139441D01*
X11323238Y45139441D02*
X10942286Y45139441D01*
X10942286Y45939441D01*
X12047048Y45215631D02*
X12008952Y45177536D01*
X11894667Y45139441D01*
X11818476Y45139441D01*
X11704191Y45177536D01*
X11628000Y45253726D01*
X11589905Y45329917D01*
X11551810Y45482298D01*
X11551810Y45596584D01*
X11589905Y45748965D01*
X11628000Y45825155D01*
X11704191Y45901345D01*
X11818476Y45939441D01*
X11894667Y45939441D01*
X12008952Y45901345D01*
X12047048Y45863250D01*
X12618476Y45939441D02*
X12618476Y45368012D01*
X12580381Y45253726D01*
X12504191Y45177536D01*
X12389905Y45139441D01*
X12313714Y45139441D01*
X13380381Y45139441D02*
X12999429Y45139441D01*
X12999429Y45939441D01*
X14104191Y45215631D02*
X14066095Y45177536D01*
X13951810Y45139441D01*
X13875619Y45139441D01*
X13761333Y45177536D01*
X13685143Y45253726D01*
X13647048Y45329917D01*
X13608952Y45482298D01*
X13608952Y45596584D01*
X13647048Y45748965D01*
X13685143Y45825155D01*
X13761333Y45901345D01*
X13875619Y45939441D01*
X13951810Y45939441D01*
X14066095Y45901345D01*
X14104191Y45863250D01*
X14675619Y45939441D02*
X14675619Y45368012D01*
X14637524Y45253726D01*
X14561333Y45177536D01*
X14447048Y45139441D01*
X14370857Y45139441D01*
X15437524Y45139441D02*
X15056572Y45139441D01*
X15056572Y45939441D01*
X16161333Y45215631D02*
X16123238Y45177536D01*
X16008952Y45139441D01*
X15932762Y45139441D01*
X15818476Y45177536D01*
X15742286Y45253726D01*
X15704191Y45329917D01*
X15666095Y45482298D01*
X15666095Y45596584D01*
X15704191Y45748965D01*
X15742286Y45825155D01*
X15818476Y45901345D01*
X15932762Y45939441D01*
X16008952Y45939441D01*
X16123238Y45901345D01*
X16161333Y45863250D01*
X16732762Y45939441D02*
X16732762Y45368012D01*
X16694667Y45253726D01*
X16618476Y45177536D01*
X16504191Y45139441D01*
X16428000Y45139441D01*
X17494667Y45139441D02*
X17113714Y45139441D01*
X17113714Y45939441D01*
X18218476Y45215631D02*
X18180381Y45177536D01*
X18066095Y45139441D01*
X17989905Y45139441D01*
X17875619Y45177536D01*
X17799429Y45253726D01*
X17761333Y45329917D01*
X17723238Y45482298D01*
X17723238Y45596584D01*
X17761333Y45748965D01*
X17799429Y45825155D01*
X17875619Y45901345D01*
X17989905Y45939441D01*
X18066095Y45939441D01*
X18180381Y45901345D01*
X18218476Y45863250D01*
D10*
X124538286Y24862031D02*
X124538286Y25297460D01*
X125300286Y25079745D02*
X124538286Y25079745D01*
X125227714Y25986888D02*
X125264000Y25950603D01*
X125300286Y25841745D01*
X125300286Y25769174D01*
X125264000Y25660317D01*
X125191429Y25587745D01*
X125118857Y25551460D01*
X124973714Y25515174D01*
X124864857Y25515174D01*
X124719714Y25551460D01*
X124647143Y25587745D01*
X124574572Y25660317D01*
X124538286Y25769174D01*
X124538286Y25841745D01*
X124574572Y25950603D01*
X124610857Y25986888D01*
X125300286Y26313460D02*
X124538286Y26313460D01*
X125300286Y26748888D02*
X124864857Y26422317D01*
X124538286Y26748888D02*
X124973714Y26313460D01*
X124613577Y17149746D02*
X124613577Y17585175D01*
X125375577Y17367461D02*
X124613577Y17367461D01*
X125375577Y17839175D02*
X124613577Y17839175D01*
X125157863Y18093175D01*
X124613577Y18347175D01*
X125375577Y18347175D01*
X125339291Y18673746D02*
X125375577Y18782604D01*
X125375577Y18964032D01*
X125339291Y19036604D01*
X125303005Y19072889D01*
X125230434Y19109175D01*
X125157863Y19109175D01*
X125085291Y19072889D01*
X125049005Y19036604D01*
X125012720Y18964032D01*
X124976434Y18818889D01*
X124940148Y18746318D01*
X124903863Y18710032D01*
X124831291Y18673746D01*
X124758720Y18673746D01*
X124686148Y18710032D01*
X124649863Y18746318D01*
X124613577Y18818889D01*
X124613577Y19000318D01*
X124649863Y19109175D01*
X124538286Y19981603D02*
X124538286Y20417031D01*
X125300286Y20199317D02*
X124538286Y20199317D01*
X125300286Y20671031D02*
X124538286Y20671031D01*
X124538286Y20852460D01*
X124574572Y20961317D01*
X124647143Y21033888D01*
X124719714Y21070174D01*
X124864857Y21106460D01*
X124973714Y21106460D01*
X125118857Y21070174D01*
X125191429Y21033888D01*
X125264000Y20961317D01*
X125300286Y20852460D01*
X125300286Y20671031D01*
X125300286Y21433031D02*
X124538286Y21433031D01*
X124538286Y22303888D02*
X124538286Y22739317D01*
X125300286Y22521603D02*
X124538286Y22521603D01*
X125300286Y22993317D02*
X124538286Y22993317D01*
X124538286Y23174745D01*
X124574572Y23283603D01*
X124647143Y23356174D01*
X124719714Y23392460D01*
X124864857Y23428745D01*
X124973714Y23428745D01*
X125118857Y23392460D01*
X125191429Y23356174D01*
X125264000Y23283603D01*
X125300286Y23174745D01*
X125300286Y22993317D01*
X124538286Y23900460D02*
X124538286Y24045603D01*
X124574572Y24118174D01*
X124647143Y24190745D01*
X124792286Y24227031D01*
X125046286Y24227031D01*
X125191429Y24190745D01*
X125264000Y24118174D01*
X125300286Y24045603D01*
X125300286Y23900460D01*
X125264000Y23827888D01*
X125191429Y23755317D01*
X125046286Y23719031D01*
X124792286Y23719031D01*
X124647143Y23755317D01*
X124574572Y23827888D01*
X124538286Y23900460D01*
X125010000Y29724317D02*
X125010000Y30304888D01*
X125300286Y30014603D02*
X124719714Y30014603D01*
X124538286Y30595174D02*
X124538286Y31066888D01*
X124828572Y30812888D01*
X124828572Y30921745D01*
X124864857Y30994317D01*
X124901143Y31030603D01*
X124973714Y31066888D01*
X125155143Y31066888D01*
X125227714Y31030603D01*
X125264000Y30994317D01*
X125300286Y30921745D01*
X125300286Y30704031D01*
X125264000Y30631460D01*
X125227714Y30595174D01*
X125227714Y31393460D02*
X125264000Y31429745D01*
X125300286Y31393460D01*
X125264000Y31357174D01*
X125227714Y31393460D01*
X125300286Y31393460D01*
X124538286Y31683745D02*
X124538286Y32155460D01*
X124828572Y31901460D01*
X124828572Y32010317D01*
X124864857Y32082888D01*
X124901143Y32119174D01*
X124973714Y32155460D01*
X125155143Y32155460D01*
X125227714Y32119174D01*
X125264000Y32082888D01*
X125300286Y32010317D01*
X125300286Y31792603D01*
X125264000Y31720031D01*
X125227714Y31683745D01*
D12*
X60823352Y32691888D02*
X60347162Y32358555D01*
X60823352Y32120460D02*
X59823352Y32120460D01*
X59823352Y32501412D01*
X59870972Y32596650D01*
X59918591Y32644269D01*
X60013829Y32691888D01*
X60156686Y32691888D01*
X60251924Y32644269D01*
X60299543Y32596650D01*
X60347162Y32501412D01*
X60347162Y32120460D01*
X60823352Y33644269D02*
X60823352Y33072841D01*
X60823352Y33358555D02*
X59823352Y33358555D01*
X59966210Y33263317D01*
X60061448Y33168079D01*
X60109067Y33072841D01*
X59918591Y34025222D02*
X59870972Y34072841D01*
X59823352Y34168079D01*
X59823352Y34406174D01*
X59870972Y34501412D01*
X59918591Y34549031D01*
X60013829Y34596650D01*
X60109067Y34596650D01*
X60251924Y34549031D01*
X60823352Y33977603D01*
X60823352Y34596650D01*
X113916733Y24185003D02*
X113869114Y24137384D01*
X113726257Y24089765D01*
X113631019Y24089765D01*
X113488161Y24137384D01*
X113392923Y24232622D01*
X113345304Y24327860D01*
X113297685Y24518336D01*
X113297685Y24661193D01*
X113345304Y24851669D01*
X113392923Y24946907D01*
X113488161Y25042145D01*
X113631019Y25089765D01*
X113726257Y25089765D01*
X113869114Y25042145D01*
X113916733Y24994526D01*
X114250066Y25089765D02*
X114869114Y25089765D01*
X114535780Y24708812D01*
X114678638Y24708812D01*
X114773876Y24661193D01*
X114821495Y24613574D01*
X114869114Y24518336D01*
X114869114Y24280241D01*
X114821495Y24185003D01*
X114773876Y24137384D01*
X114678638Y24089765D01*
X114392923Y24089765D01*
X114297685Y24137384D01*
X114250066Y24185003D01*
X50701180Y33168079D02*
X50224990Y32834745D01*
X50701180Y32596650D02*
X49701180Y32596650D01*
X49701180Y32977603D01*
X49748800Y33072841D01*
X49796419Y33120460D01*
X49891657Y33168079D01*
X50034514Y33168079D01*
X50129752Y33120460D01*
X50177371Y33072841D01*
X50224990Y32977603D01*
X50224990Y32596650D01*
X49701180Y34025222D02*
X49701180Y33834745D01*
X49748800Y33739507D01*
X49796419Y33691888D01*
X49939276Y33596650D01*
X50129752Y33549031D01*
X50510704Y33549031D01*
X50605942Y33596650D01*
X50653561Y33644269D01*
X50701180Y33739507D01*
X50701180Y33929984D01*
X50653561Y34025222D01*
X50605942Y34072841D01*
X50510704Y34120460D01*
X50272609Y34120460D01*
X50177371Y34072841D01*
X50129752Y34025222D01*
X50082133Y33929984D01*
X50082133Y33739507D01*
X50129752Y33644269D01*
X50177371Y33596650D01*
X50272609Y33549031D01*
X55418524Y33168079D02*
X54942334Y32834745D01*
X55418524Y32596650D02*
X54418524Y32596650D01*
X54418524Y32977603D01*
X54466144Y33072841D01*
X54513763Y33120460D01*
X54609001Y33168079D01*
X54751858Y33168079D01*
X54847096Y33120460D01*
X54894715Y33072841D01*
X54942334Y32977603D01*
X54942334Y32596650D01*
X54418524Y34072841D02*
X54418524Y33596650D01*
X54894715Y33549031D01*
X54847096Y33596650D01*
X54799477Y33691888D01*
X54799477Y33929984D01*
X54847096Y34025222D01*
X54894715Y34072841D01*
X54989953Y34120460D01*
X55228048Y34120460D01*
X55323286Y34072841D01*
X55370905Y34025222D01*
X55418524Y33929984D01*
X55418524Y33691888D01*
X55370905Y33596650D01*
X55323286Y33549031D01*
X58016533Y13307403D02*
X57968914Y13259784D01*
X57826057Y13212165D01*
X57730819Y13212165D01*
X57587961Y13259784D01*
X57492723Y13355022D01*
X57445104Y13450260D01*
X57397485Y13640736D01*
X57397485Y13783593D01*
X57445104Y13974069D01*
X57492723Y14069307D01*
X57587961Y14164545D01*
X57730819Y14212165D01*
X57826057Y14212165D01*
X57968914Y14164545D01*
X58016533Y14116926D01*
X58492723Y13212165D02*
X58683200Y13212165D01*
X58778438Y13259784D01*
X58826057Y13307403D01*
X58921295Y13450260D01*
X58968914Y13640736D01*
X58968914Y14021688D01*
X58921295Y14116926D01*
X58873676Y14164545D01*
X58778438Y14212165D01*
X58587961Y14212165D01*
X58492723Y14164545D01*
X58445104Y14116926D01*
X58397485Y14021688D01*
X58397485Y13783593D01*
X58445104Y13688355D01*
X58492723Y13640736D01*
X58587961Y13593117D01*
X58778438Y13593117D01*
X58873676Y13640736D01*
X58921295Y13688355D01*
X58968914Y13783593D01*
X112982543Y9118012D02*
X112982543Y8784679D01*
X113506352Y8784679D02*
X112506352Y8784679D01*
X112506352Y9260869D01*
X112982543Y9975155D02*
X113030162Y10118012D01*
X113077781Y10165631D01*
X113173019Y10213250D01*
X113315876Y10213250D01*
X113411114Y10165631D01*
X113458733Y10118012D01*
X113506352Y10022774D01*
X113506352Y9641822D01*
X112506352Y9641822D01*
X112506352Y9975155D01*
X112553972Y10070393D01*
X112601591Y10118012D01*
X112696829Y10165631D01*
X112792067Y10165631D01*
X112887305Y10118012D01*
X112934924Y10070393D01*
X112982543Y9975155D01*
X112982543Y9641822D01*
X112506352Y10546584D02*
X112506352Y11165631D01*
X112887305Y10832298D01*
X112887305Y10975155D01*
X112934924Y11070393D01*
X112982543Y11118012D01*
X113077781Y11165631D01*
X113315876Y11165631D01*
X113411114Y11118012D01*
X113458733Y11070393D01*
X113506352Y10975155D01*
X113506352Y10689441D01*
X113458733Y10594203D01*
X113411114Y10546584D01*
X120430580Y33181479D02*
X119954390Y32848145D01*
X120430580Y32610050D02*
X119430580Y32610050D01*
X119430580Y32991003D01*
X119478200Y33086241D01*
X119525819Y33133860D01*
X119621057Y33181479D01*
X119763914Y33181479D01*
X119859152Y33133860D01*
X119906771Y33086241D01*
X119954390Y32991003D01*
X119954390Y32610050D01*
X120430580Y34133860D02*
X120430580Y33562431D01*
X120430580Y33848145D02*
X119430580Y33848145D01*
X119573438Y33752907D01*
X119668676Y33657669D01*
X119716295Y33562431D01*
X16251180Y28148879D02*
X15774990Y27815545D01*
X16251180Y27577450D02*
X15251180Y27577450D01*
X15251180Y27958403D01*
X15298800Y28053641D01*
X15346419Y28101260D01*
X15441657Y28148879D01*
X15584514Y28148879D01*
X15679752Y28101260D01*
X15727371Y28053641D01*
X15774990Y27958403D01*
X15774990Y27577450D01*
X15679752Y28720307D02*
X15632133Y28625069D01*
X15584514Y28577450D01*
X15489276Y28529831D01*
X15441657Y28529831D01*
X15346419Y28577450D01*
X15298800Y28625069D01*
X15251180Y28720307D01*
X15251180Y28910784D01*
X15298800Y29006022D01*
X15346419Y29053641D01*
X15441657Y29101260D01*
X15489276Y29101260D01*
X15584514Y29053641D01*
X15632133Y29006022D01*
X15679752Y28910784D01*
X15679752Y28720307D01*
X15727371Y28625069D01*
X15774990Y28577450D01*
X15870228Y28529831D01*
X16060704Y28529831D01*
X16155942Y28577450D01*
X16203561Y28625069D01*
X16251180Y28720307D01*
X16251180Y28910784D01*
X16203561Y29006022D01*
X16155942Y29053641D01*
X16060704Y29101260D01*
X15870228Y29101260D01*
X15774990Y29053641D01*
X15727371Y29006022D01*
X15679752Y28910784D01*
X110245180Y33181479D02*
X109768990Y32848145D01*
X110245180Y32610050D02*
X109245180Y32610050D01*
X109245180Y32991003D01*
X109292800Y33086241D01*
X109340419Y33133860D01*
X109435657Y33181479D01*
X109578514Y33181479D01*
X109673752Y33133860D01*
X109721371Y33086241D01*
X109768990Y32991003D01*
X109768990Y32610050D01*
X109578514Y34038622D02*
X110245180Y34038622D01*
X109197561Y33800526D02*
X109911847Y33562431D01*
X109911847Y34181479D01*
X37867238Y10589174D02*
X37533905Y10589174D01*
X37533905Y10065365D02*
X37533905Y11065365D01*
X38010095Y11065365D01*
X38724381Y10589174D02*
X38867238Y10541555D01*
X38914857Y10493936D01*
X38962476Y10398698D01*
X38962476Y10255841D01*
X38914857Y10160603D01*
X38867238Y10112984D01*
X38772000Y10065365D01*
X38391048Y10065365D01*
X38391048Y11065365D01*
X38724381Y11065365D01*
X38819619Y11017745D01*
X38867238Y10970126D01*
X38914857Y10874888D01*
X38914857Y10779650D01*
X38867238Y10684412D01*
X38819619Y10636793D01*
X38724381Y10589174D01*
X38391048Y10589174D01*
X39914857Y10065365D02*
X39343429Y10065365D01*
X39629143Y10065365D02*
X39629143Y11065365D01*
X39533905Y10922507D01*
X39438667Y10827269D01*
X39343429Y10779650D01*
X29501152Y17764641D02*
X30310676Y17764641D01*
X30405914Y17812260D01*
X30453533Y17859879D01*
X30501152Y17955117D01*
X30501152Y18145593D01*
X30453533Y18240831D01*
X30405914Y18288450D01*
X30310676Y18336069D01*
X29501152Y18336069D01*
X29501152Y19240831D02*
X29501152Y19050355D01*
X29548772Y18955117D01*
X29596391Y18907498D01*
X29739248Y18812260D01*
X29929724Y18764641D01*
X30310676Y18764641D01*
X30405914Y18812260D01*
X30453533Y18859879D01*
X30501152Y18955117D01*
X30501152Y19145593D01*
X30453533Y19240831D01*
X30405914Y19288450D01*
X30310676Y19336069D01*
X30072581Y19336069D01*
X29977343Y19288450D01*
X29929724Y19240831D01*
X29882105Y19145593D01*
X29882105Y18955117D01*
X29929724Y18859879D01*
X29977343Y18812260D01*
X30072581Y18764641D01*
X117788980Y33181479D02*
X117312790Y32848145D01*
X117788980Y32610050D02*
X116788980Y32610050D01*
X116788980Y32991003D01*
X116836600Y33086241D01*
X116884219Y33133860D01*
X116979457Y33181479D01*
X117122314Y33181479D01*
X117217552Y33133860D01*
X117265171Y33086241D01*
X117312790Y32991003D01*
X117312790Y32610050D01*
X116884219Y33562431D02*
X116836600Y33610050D01*
X116788980Y33705288D01*
X116788980Y33943384D01*
X116836600Y34038622D01*
X116884219Y34086241D01*
X116979457Y34133860D01*
X117074695Y34133860D01*
X117217552Y34086241D01*
X117788980Y33514812D01*
X117788980Y34133860D01*
X67038774Y32691888D02*
X66562584Y32358555D01*
X67038774Y32120460D02*
X66038774Y32120460D01*
X66038774Y32501412D01*
X66086394Y32596650D01*
X66134013Y32644269D01*
X66229251Y32691888D01*
X66372108Y32691888D01*
X66467346Y32644269D01*
X66514965Y32596650D01*
X66562584Y32501412D01*
X66562584Y32120460D01*
X67038774Y33644269D02*
X67038774Y33072841D01*
X67038774Y33358555D02*
X66038774Y33358555D01*
X66181632Y33263317D01*
X66276870Y33168079D01*
X66324489Y33072841D01*
X66038774Y33977603D02*
X66038774Y34596650D01*
X66419727Y34263317D01*
X66419727Y34406174D01*
X66467346Y34501412D01*
X66514965Y34549031D01*
X66610203Y34596650D01*
X66848298Y34596650D01*
X66943536Y34549031D01*
X66991155Y34501412D01*
X67038774Y34406174D01*
X67038774Y34120460D01*
X66991155Y34025222D01*
X66943536Y33977603D01*
X72645398Y21168123D02*
X73217818Y20595703D01*
X73318833Y20562031D01*
X73386177Y20562031D01*
X73487192Y20595703D01*
X73621879Y20730390D01*
X73655551Y20831405D01*
X73655551Y20898749D01*
X73621879Y20999764D01*
X73049459Y21572184D01*
X73318833Y21841558D02*
X73756566Y22279290D01*
X73790238Y21774214D01*
X73891253Y21875229D01*
X73992268Y21908901D01*
X74059612Y21908901D01*
X74160627Y21875229D01*
X74328986Y21706871D01*
X74362658Y21605855D01*
X74362658Y21538512D01*
X74328986Y21437497D01*
X74126955Y21235466D01*
X74025940Y21201794D01*
X73958597Y21201794D01*
X11924152Y27291688D02*
X11447962Y26958355D01*
X11924152Y26720260D02*
X10924152Y26720260D01*
X10924152Y27101212D01*
X10971772Y27196450D01*
X11019391Y27244069D01*
X11114629Y27291688D01*
X11257486Y27291688D01*
X11352724Y27244069D01*
X11400343Y27196450D01*
X11447962Y27101212D01*
X11447962Y26720260D01*
X11924152Y28244069D02*
X11924152Y27672641D01*
X11924152Y27958355D02*
X10924152Y27958355D01*
X11067010Y27863117D01*
X11162248Y27767879D01*
X11209867Y27672641D01*
X10924152Y28863117D02*
X10924152Y28958355D01*
X10971772Y29053593D01*
X11019391Y29101212D01*
X11114629Y29148831D01*
X11305105Y29196450D01*
X11543200Y29196450D01*
X11733676Y29148831D01*
X11828914Y29101212D01*
X11876533Y29053593D01*
X11924152Y28958355D01*
X11924152Y28863117D01*
X11876533Y28767879D01*
X11828914Y28720260D01*
X11733676Y28672641D01*
X11543200Y28625022D01*
X11305105Y28625022D01*
X11114629Y28672641D01*
X11019391Y28720260D01*
X10971772Y28767879D01*
X10924152Y28863117D01*
X122826221Y15163003D02*
X122778602Y15115384D01*
X122635745Y15067765D01*
X122540507Y15067765D01*
X122397649Y15115384D01*
X122302411Y15210622D01*
X122254792Y15305860D01*
X122207173Y15496336D01*
X122207173Y15639193D01*
X122254792Y15829669D01*
X122302411Y15924907D01*
X122397649Y16020145D01*
X122540507Y16067765D01*
X122635745Y16067765D01*
X122778602Y16020145D01*
X122826221Y15972526D01*
X123778602Y15067765D02*
X123207173Y15067765D01*
X123492888Y15067765D02*
X123492888Y16067765D01*
X123397649Y15924907D01*
X123302411Y15829669D01*
X123207173Y15782050D01*
X107582543Y9118012D02*
X107582543Y8784679D01*
X108106352Y8784679D02*
X107106352Y8784679D01*
X107106352Y9260869D01*
X107582543Y9975155D02*
X107630162Y10118012D01*
X107677781Y10165631D01*
X107773019Y10213250D01*
X107915876Y10213250D01*
X108011114Y10165631D01*
X108058733Y10118012D01*
X108106352Y10022774D01*
X108106352Y9641822D01*
X107106352Y9641822D01*
X107106352Y9975155D01*
X107153972Y10070393D01*
X107201591Y10118012D01*
X107296829Y10165631D01*
X107392067Y10165631D01*
X107487305Y10118012D01*
X107534924Y10070393D01*
X107582543Y9975155D01*
X107582543Y9641822D01*
X107201591Y10594203D02*
X107153972Y10641822D01*
X107106352Y10737060D01*
X107106352Y10975155D01*
X107153972Y11070393D01*
X107201591Y11118012D01*
X107296829Y11165631D01*
X107392067Y11165631D01*
X107534924Y11118012D01*
X108106352Y10546584D01*
X108106352Y11165631D01*
X120055505Y24265403D02*
X120007886Y24217784D01*
X119865029Y24170165D01*
X119769791Y24170165D01*
X119626933Y24217784D01*
X119531695Y24313022D01*
X119484076Y24408260D01*
X119436457Y24598736D01*
X119436457Y24741593D01*
X119484076Y24932069D01*
X119531695Y25027307D01*
X119626933Y25122545D01*
X119769791Y25170165D01*
X119865029Y25170165D01*
X120007886Y25122545D01*
X120055505Y25074926D01*
X120436457Y25074926D02*
X120484076Y25122545D01*
X120579314Y25170165D01*
X120817410Y25170165D01*
X120912648Y25122545D01*
X120960267Y25074926D01*
X121007886Y24979688D01*
X121007886Y24884450D01*
X120960267Y24741593D01*
X120388838Y24170165D01*
X121007886Y24170165D01*
X113496380Y33156079D02*
X113020190Y32822745D01*
X113496380Y32584650D02*
X112496380Y32584650D01*
X112496380Y32965603D01*
X112544000Y33060841D01*
X112591619Y33108460D01*
X112686857Y33156079D01*
X112829714Y33156079D01*
X112924952Y33108460D01*
X112972571Y33060841D01*
X113020190Y32965603D01*
X113020190Y32584650D01*
X112496380Y33489412D02*
X112496380Y34108460D01*
X112877333Y33775126D01*
X112877333Y33917984D01*
X112924952Y34013222D01*
X112972571Y34060841D01*
X113067809Y34108460D01*
X113305904Y34108460D01*
X113401142Y34060841D01*
X113448761Y34013222D01*
X113496380Y33917984D01*
X113496380Y33632269D01*
X113448761Y33537031D01*
X113401142Y33489412D01*
X119050143Y28073812D02*
X119050143Y27740479D01*
X119573952Y27740479D02*
X118573952Y27740479D01*
X118573952Y28216669D01*
X119573952Y29121431D02*
X119573952Y28550003D01*
X119573952Y28835717D02*
X118573952Y28835717D01*
X118716810Y28740479D01*
X118812048Y28645241D01*
X118859667Y28550003D01*
X15670030Y15163003D02*
X15622411Y15115384D01*
X15479554Y15067765D01*
X15384316Y15067765D01*
X15241459Y15115384D01*
X15146221Y15210622D01*
X15098602Y15305860D01*
X15050983Y15496336D01*
X15050983Y15639193D01*
X15098602Y15829669D01*
X15146221Y15924907D01*
X15241459Y16020145D01*
X15384316Y16067765D01*
X15479554Y16067765D01*
X15622411Y16020145D01*
X15670030Y15972526D01*
X16622411Y15067765D02*
X16050983Y15067765D01*
X16336697Y15067765D02*
X16336697Y16067765D01*
X16241459Y15924907D01*
X16146221Y15829669D01*
X16050983Y15782050D01*
X17003364Y15972526D02*
X17050983Y16020145D01*
X17146221Y16067765D01*
X17384316Y16067765D01*
X17479554Y16020145D01*
X17527173Y15972526D01*
X17574792Y15877288D01*
X17574792Y15782050D01*
X17527173Y15639193D01*
X16955745Y15067765D01*
X17574792Y15067765D01*
X42963152Y17764641D02*
X43772676Y17764641D01*
X43867914Y17812260D01*
X43915533Y17859879D01*
X43963152Y17955117D01*
X43963152Y18145593D01*
X43915533Y18240831D01*
X43867914Y18288450D01*
X43772676Y18336069D01*
X42963152Y18336069D01*
X42963152Y19288450D02*
X42963152Y18812260D01*
X43439343Y18764641D01*
X43391724Y18812260D01*
X43344105Y18907498D01*
X43344105Y19145593D01*
X43391724Y19240831D01*
X43439343Y19288450D01*
X43534581Y19336069D01*
X43772676Y19336069D01*
X43867914Y19288450D01*
X43915533Y19240831D01*
X43963152Y19145593D01*
X43963152Y18907498D01*
X43915533Y18812260D01*
X43867914Y18764641D01*
X10066914Y22960965D02*
X9733581Y23437155D01*
X9495486Y22960965D02*
X9495486Y23960965D01*
X9876438Y23960965D01*
X9971676Y23913345D01*
X10019295Y23865726D01*
X10066914Y23770488D01*
X10066914Y23627631D01*
X10019295Y23532393D01*
X9971676Y23484774D01*
X9876438Y23437155D01*
X9495486Y23437155D01*
X11019295Y22960965D02*
X10447867Y22960965D01*
X10733581Y22960965D02*
X10733581Y23960965D01*
X10638343Y23818107D01*
X10543105Y23722869D01*
X10447867Y23675250D01*
X11971676Y22960965D02*
X11400248Y22960965D01*
X11685962Y22960965D02*
X11685962Y23960965D01*
X11590724Y23818107D01*
X11495486Y23722869D01*
X11400248Y23675250D01*
X45621180Y33168079D02*
X45144990Y32834745D01*
X45621180Y32596650D02*
X44621180Y32596650D01*
X44621180Y32977603D01*
X44668800Y33072841D01*
X44716419Y33120460D01*
X44811657Y33168079D01*
X44954514Y33168079D01*
X45049752Y33120460D01*
X45097371Y33072841D01*
X45144990Y32977603D01*
X45144990Y32596650D01*
X44621180Y33501412D02*
X44621180Y34168079D01*
X45621180Y33739507D01*
X110199142Y15582779D02*
X110246761Y15535160D01*
X110294380Y15392303D01*
X110294380Y15297065D01*
X110246761Y15154207D01*
X110151523Y15058969D01*
X110056285Y15011350D01*
X109865809Y14963731D01*
X109722952Y14963731D01*
X109532476Y15011350D01*
X109437238Y15058969D01*
X109342000Y15154207D01*
X109294380Y15297065D01*
X109294380Y15392303D01*
X109342000Y15535160D01*
X109389619Y15582779D01*
X109627714Y16439922D02*
X110294380Y16439922D01*
X109246761Y16201826D02*
X109961047Y15963731D01*
X109961047Y16582779D01*
X13865496Y28148879D02*
X13389306Y27815545D01*
X13865496Y27577450D02*
X12865496Y27577450D01*
X12865496Y27958403D01*
X12913116Y28053641D01*
X12960735Y28101260D01*
X13055973Y28148879D01*
X13198830Y28148879D01*
X13294068Y28101260D01*
X13341687Y28053641D01*
X13389306Y27958403D01*
X13389306Y27577450D01*
X13865496Y28625069D02*
X13865496Y28815545D01*
X13817877Y28910784D01*
X13770258Y28958403D01*
X13627401Y29053641D01*
X13436925Y29101260D01*
X13055973Y29101260D01*
X12960735Y29053641D01*
X12913116Y29006022D01*
X12865496Y28910784D01*
X12865496Y28720307D01*
X12913116Y28625069D01*
X12960735Y28577450D01*
X13055973Y28529831D01*
X13294068Y28529831D01*
X13389306Y28577450D01*
X13436925Y28625069D01*
X13484544Y28720307D01*
X13484544Y28910784D01*
X13436925Y29006022D01*
X13389306Y29053641D01*
X13294068Y29101260D01*
X87629253Y23656977D02*
X87629253Y23589634D01*
X87561909Y23454947D01*
X87494566Y23387603D01*
X87359878Y23320260D01*
X87225191Y23320260D01*
X87124176Y23353931D01*
X86955817Y23454947D01*
X86854802Y23555962D01*
X86753787Y23724321D01*
X86720115Y23825336D01*
X86720115Y23960023D01*
X86787459Y24094710D01*
X86854802Y24162054D01*
X86989489Y24229397D01*
X87056833Y24229397D01*
X87629253Y24936504D02*
X87292535Y24599786D01*
X87595581Y24229397D01*
X87595581Y24296741D01*
X87629253Y24397756D01*
X87797611Y24566115D01*
X87898627Y24599786D01*
X87965970Y24599786D01*
X88066985Y24566115D01*
X88235344Y24397756D01*
X88269016Y24296741D01*
X88269016Y24229397D01*
X88235344Y24128382D01*
X88066985Y23960023D01*
X87965970Y23926351D01*
X87898627Y23926351D01*
X100662867Y13600165D02*
X100662867Y12790641D01*
X100710486Y12695403D01*
X100758105Y12647784D01*
X100853343Y12600165D01*
X101043819Y12600165D01*
X101139057Y12647784D01*
X101186676Y12695403D01*
X101234295Y12790641D01*
X101234295Y13600165D01*
X101662867Y13504926D02*
X101710486Y13552545D01*
X101805724Y13600165D01*
X102043819Y13600165D01*
X102139057Y13552545D01*
X102186676Y13504926D01*
X102234295Y13409688D01*
X102234295Y13314450D01*
X102186676Y13171593D01*
X101615248Y12600165D01*
X102234295Y12600165D01*
X114922095Y13913765D02*
X114922095Y13104241D01*
X114969714Y13009003D01*
X115017333Y12961384D01*
X115112571Y12913765D01*
X115303047Y12913765D01*
X115398285Y12961384D01*
X115445904Y13009003D01*
X115493523Y13104241D01*
X115493523Y13913765D01*
X116493523Y12913765D02*
X115922095Y12913765D01*
X116207809Y12913765D02*
X116207809Y13913765D01*
X116112571Y13770907D01*
X116017333Y13675669D01*
X115922095Y13628050D01*
X74222847Y23312295D02*
X74155504Y23312295D01*
X74020817Y23379639D01*
X73953473Y23446982D01*
X73886130Y23581670D01*
X73886130Y23716357D01*
X73919801Y23817372D01*
X74020817Y23985731D01*
X74121832Y24086746D01*
X74290191Y24187761D01*
X74391206Y24221433D01*
X74525893Y24221433D01*
X74660580Y24154089D01*
X74727924Y24086746D01*
X74795267Y23952059D01*
X74795267Y23884715D01*
X75098313Y23716357D02*
X75569717Y23244952D01*
X74559565Y22840891D01*
X30620114Y16424403D02*
X30572495Y16376784D01*
X30429638Y16329165D01*
X30334400Y16329165D01*
X30191543Y16376784D01*
X30096305Y16472022D01*
X30048686Y16567260D01*
X30001067Y16757736D01*
X30001067Y16900593D01*
X30048686Y17091069D01*
X30096305Y17186307D01*
X30191543Y17281545D01*
X30334400Y17329165D01*
X30429638Y17329165D01*
X30572495Y17281545D01*
X30620114Y17233926D01*
X31572495Y16329165D02*
X31001067Y16329165D01*
X31286781Y16329165D02*
X31286781Y17329165D01*
X31191543Y17186307D01*
X31096305Y17091069D01*
X31001067Y17043450D01*
X32524876Y16329165D02*
X31953448Y16329165D01*
X32239162Y16329165D02*
X32239162Y17329165D01*
X32143924Y17186307D01*
X32048686Y17091069D01*
X31953448Y17043450D01*
X61936676Y35409165D02*
X61936676Y36409165D01*
X62174772Y36409165D01*
X62317629Y36361545D01*
X62412867Y36266307D01*
X62460486Y36171069D01*
X62508105Y35980593D01*
X62508105Y35837736D01*
X62460486Y35647260D01*
X62412867Y35552022D01*
X62317629Y35456784D01*
X62174772Y35409165D01*
X61936676Y35409165D01*
X63460486Y35409165D02*
X62889057Y35409165D01*
X63174772Y35409165D02*
X63174772Y36409165D01*
X63079533Y36266307D01*
X62984295Y36171069D01*
X62889057Y36123450D01*
X56425152Y17452141D02*
X57234676Y17452141D01*
X57329914Y17499760D01*
X57377533Y17547379D01*
X57425152Y17642617D01*
X57425152Y17833093D01*
X57377533Y17928331D01*
X57329914Y17975950D01*
X57234676Y18023569D01*
X56425152Y18023569D01*
X56758486Y18928331D02*
X57425152Y18928331D01*
X56377533Y18690236D02*
X57091819Y18452141D01*
X57091819Y19071188D01*
X74545560Y12864671D02*
X74545560Y12797328D01*
X74478216Y12662641D01*
X74410873Y12595297D01*
X74276185Y12527954D01*
X74141498Y12527954D01*
X74040483Y12561625D01*
X73872124Y12662641D01*
X73771109Y12763656D01*
X73670094Y12932015D01*
X73636422Y13033030D01*
X73636422Y13167717D01*
X73703766Y13302404D01*
X73771109Y13369748D01*
X73905796Y13437091D01*
X73973140Y13437091D01*
X74612903Y13605450D02*
X74511888Y13571778D01*
X74444544Y13571778D01*
X74343529Y13605450D01*
X74309857Y13639122D01*
X74276185Y13740137D01*
X74276185Y13807480D01*
X74309857Y13908496D01*
X74444544Y14043183D01*
X74545560Y14076854D01*
X74612903Y14076854D01*
X74713918Y14043183D01*
X74747590Y14009511D01*
X74781262Y13908496D01*
X74781262Y13841152D01*
X74747590Y13740137D01*
X74612903Y13605450D01*
X74579231Y13504435D01*
X74579231Y13437091D01*
X74612903Y13336076D01*
X74747590Y13201389D01*
X74848605Y13167717D01*
X74915949Y13167717D01*
X75016964Y13201389D01*
X75151651Y13336076D01*
X75185323Y13437091D01*
X75185323Y13504435D01*
X75151651Y13605450D01*
X75016964Y13740137D01*
X74915949Y13773809D01*
X74848605Y13773809D01*
X74747590Y13740137D01*
X88511502Y13643359D02*
X88444159Y13643359D01*
X88309472Y13710703D01*
X88242128Y13778046D01*
X88174785Y13912734D01*
X88174785Y14047421D01*
X88208456Y14148436D01*
X88309472Y14316795D01*
X88410487Y14417810D01*
X88578846Y14518825D01*
X88679861Y14552497D01*
X88814548Y14552497D01*
X88949235Y14485153D01*
X89016579Y14417810D01*
X89083922Y14283123D01*
X89083922Y14215779D01*
X89757357Y13677031D02*
X89622670Y13811718D01*
X89521655Y13845390D01*
X89454311Y13845390D01*
X89285953Y13811718D01*
X89117594Y13710703D01*
X88848220Y13441329D01*
X88814548Y13340314D01*
X88814548Y13272970D01*
X88848220Y13171955D01*
X88982907Y13037268D01*
X89083922Y13003596D01*
X89151266Y13003596D01*
X89252281Y13037268D01*
X89420640Y13205627D01*
X89454311Y13306642D01*
X89454311Y13373985D01*
X89420640Y13475001D01*
X89285953Y13609688D01*
X89184937Y13643359D01*
X89117594Y13643359D01*
X89016579Y13609688D01*
X44082114Y16424403D02*
X44034495Y16376784D01*
X43891638Y16329165D01*
X43796400Y16329165D01*
X43653543Y16376784D01*
X43558305Y16472022D01*
X43510686Y16567260D01*
X43463067Y16757736D01*
X43463067Y16900593D01*
X43510686Y17091069D01*
X43558305Y17186307D01*
X43653543Y17281545D01*
X43796400Y17329165D01*
X43891638Y17329165D01*
X44034495Y17281545D01*
X44082114Y17233926D01*
X45034495Y16329165D02*
X44463067Y16329165D01*
X44748781Y16329165D02*
X44748781Y17329165D01*
X44653543Y17186307D01*
X44558305Y17091069D01*
X44463067Y17043450D01*
X45653543Y17329165D02*
X45748781Y17329165D01*
X45844019Y17281545D01*
X45891638Y17233926D01*
X45939257Y17138688D01*
X45986876Y16948212D01*
X45986876Y16710117D01*
X45939257Y16519641D01*
X45891638Y16424403D01*
X45844019Y16376784D01*
X45748781Y16329165D01*
X45653543Y16329165D01*
X45558305Y16376784D01*
X45510686Y16424403D01*
X45463067Y16519641D01*
X45415448Y16710117D01*
X45415448Y16948212D01*
X45463067Y17138688D01*
X45510686Y17233926D01*
X45558305Y17281545D01*
X45653543Y17329165D01*
G36*
X17048887Y33814964D02*
G01*
X17346543Y34410276D01*
X17445762Y34410276D01*
X17445762Y34212614D01*
X17148106Y33617301D01*
X17148881Y33023539D01*
X16951219Y33023539D01*
X16949668Y33617301D01*
X16652012Y34212614D01*
X16652012Y34410276D01*
X16751231Y34410276D01*
X17048887Y33814964D01*
G37*
G36*
X14082402Y34207963D02*
G01*
X13983183Y34207963D01*
X13983183Y33223527D01*
X14082402Y33223527D01*
X14082402Y33017338D01*
X13677775Y33017338D01*
X13677775Y33223527D01*
X13776994Y33223527D01*
X13776994Y34207963D01*
X13677775Y34207963D01*
X13677775Y34414152D01*
X14082402Y34414152D01*
X14082402Y34207963D01*
G37*
G36*
X15558280Y33018888D02*
G01*
X15557505Y33614201D01*
X15366819Y33614201D01*
X15367594Y33019663D01*
X15162956Y33019663D01*
X15162956Y33820390D01*
X15366819Y33820390D01*
X15557505Y33820390D01*
X15557505Y34170756D01*
X15546653Y34197111D01*
X15520298Y34207963D01*
X15409452Y34207963D01*
X15393949Y34202537D01*
X15377671Y34197111D01*
X15366819Y34171531D01*
X15366819Y33820390D01*
X15162956Y33820390D01*
X15162956Y34125022D01*
X15174777Y34225598D01*
X15210240Y34325785D01*
X15287754Y34391673D01*
X15326512Y34404075D01*
X15362944Y34414152D01*
X15561381Y34414152D01*
X15601689Y34402525D01*
X15644322Y34389347D01*
X15723387Y34323460D01*
X15754199Y34226179D01*
X15764469Y34112620D01*
X15763694Y33018888D01*
X15558280Y33018888D01*
G37*
G36*
X14620353Y33921934D02*
G01*
X14868400Y34414152D01*
X14973820Y34414152D01*
X14973820Y33017338D01*
X14767631Y33017338D01*
X14767631Y33797911D01*
X14625779Y33508006D01*
X14477726Y33798686D01*
X14477726Y33017338D01*
X14271537Y33017338D01*
X14271537Y34414152D01*
X14376957Y34414152D01*
X14620353Y33921934D01*
G37*
G36*
X16418693Y33621177D02*
G01*
X16454156Y33537074D01*
X16504734Y33419639D01*
X16546592Y33335923D01*
X16558219Y33245231D01*
X16558219Y33017338D01*
X16352030Y33017338D01*
X16354550Y33150663D01*
X16349705Y33242130D01*
X16327807Y33347550D01*
X16286918Y33452970D01*
X16209404Y33612651D01*
X16162895Y33612651D01*
X16162895Y33017338D01*
X15956706Y33017338D01*
X15956706Y33818839D01*
X16162895Y33818839D01*
X16308622Y33818064D01*
X16351255Y33855271D01*
X16365208Y33919996D01*
X16369859Y34021153D01*
X16366758Y34131999D01*
X16345829Y34182383D01*
X16301646Y34207188D01*
X16162895Y34207963D01*
X16162895Y33818839D01*
X15956706Y33818839D01*
X15956706Y34414152D01*
X16355131Y34414152D01*
X16452800Y34362217D01*
X16525663Y34282377D01*
X16558219Y34156803D01*
X16557444Y33877751D01*
X16546592Y33838993D01*
X16526438Y33762254D01*
X16480123Y33681251D01*
X16418693Y33621177D01*
G37*
G36*
X12491801Y34362217D02*
G01*
X12564665Y34282377D01*
X12597221Y34156803D01*
X12596446Y33877751D01*
X12565440Y33770005D01*
X12509629Y33670787D01*
X12394133Y33612651D01*
X12199571Y33612651D01*
X12199571Y33017338D01*
X11993382Y33017338D01*
X11993382Y33818839D01*
X12199571Y33818839D01*
X12345298Y33818064D01*
X12388707Y33855271D01*
X12403822Y33920190D01*
X12408860Y34021928D01*
X12405760Y34131999D01*
X12382505Y34182383D01*
X12338322Y34207188D01*
X12199571Y34207963D01*
X12199571Y33818839D01*
X11993382Y33818839D01*
X11993382Y34414152D01*
X12394133Y34414152D01*
X12491801Y34362217D01*
G37*
G36*
X13249894Y33621177D02*
G01*
X13285357Y33537074D01*
X13335936Y33419639D01*
X13377793Y33335923D01*
X13389421Y33245231D01*
X13389421Y33017338D01*
X13183232Y33017338D01*
X13185751Y33150663D01*
X13180906Y33242130D01*
X13159008Y33347550D01*
X13118119Y33452970D01*
X13040605Y33612651D01*
X12994096Y33612651D01*
X12994096Y33017338D01*
X12787907Y33017338D01*
X12787907Y33818839D01*
X12994096Y33818839D01*
X13139823Y33818064D01*
X13182457Y33855271D01*
X13196409Y33919996D01*
X13201060Y34021153D01*
X13197959Y34131999D01*
X13177030Y34182383D01*
X13132847Y34207188D01*
X12994096Y34207963D01*
X12994096Y33818839D01*
X12787907Y33818839D01*
X12787907Y34414152D01*
X13186332Y34414152D01*
X13284001Y34362217D01*
X13356864Y34282377D01*
X13389421Y34156803D01*
X13388645Y33877751D01*
X13377793Y33838993D01*
X13357640Y33762254D01*
X13311325Y33681251D01*
X13249894Y33621177D01*
G37*
D13*
X8266116Y26216545D02*
X8266116Y24886545D01*
X5666116Y26216545D02*
X5666116Y23556545D01*
X5666116Y26216545D02*
X3066116Y26216545D01*
X3066116Y26216545D02*
X3066116Y23556545D01*
X6936116Y26216545D02*
X8266116Y26216545D01*
X5666116Y23556545D02*
X3066116Y23556545D01*
X59463472Y33572003D02*
X59463472Y33097487D01*
X58418472Y33572003D02*
X58418472Y33097487D01*
X113372148Y23602145D02*
X114794652Y23602145D01*
X113372148Y21782145D02*
X114794652Y21782145D01*
X111289400Y22692145D02*
X110781400Y22692145D01*
X111035400Y22946145D02*
X111035400Y22438145D01*
X49341300Y33572003D02*
X49341300Y33097487D01*
X48296300Y33572003D02*
X48296300Y33097487D01*
X56923472Y33097487D02*
X56923472Y33572003D01*
X55878472Y33097487D02*
X55878472Y33572003D01*
X4396116Y31382946D02*
X9536116Y31382946D01*
X4396116Y28722946D02*
X4396116Y31382946D01*
X9536116Y28722946D02*
X9536116Y31382946D01*
X4396116Y28722946D02*
X9536116Y28722946D01*
X3126116Y28722946D02*
X1796116Y28722946D01*
X1796116Y28722946D02*
X1796116Y30052946D01*
X58046392Y14841545D02*
X58327552Y14841545D01*
X58046392Y15861545D02*
X58327552Y15861545D01*
X10680972Y35285845D02*
X10180972Y34285845D01*
X5470972Y50025845D02*
X64150972Y50025845D01*
X64150972Y50025845D02*
X64150972Y40905845D01*
X10180972Y34285845D02*
X11180972Y34285845D01*
X11180972Y34285845D02*
X10680972Y35285845D01*
X32760972Y40905845D02*
X32760972Y50025845D01*
X5470972Y40905845D02*
X5470972Y50025845D01*
X36860972Y40905845D02*
X36860972Y50025845D01*
X64150972Y40905845D02*
X5470972Y40905845D01*
X111113972Y10114124D02*
X111113972Y9788566D01*
X112133972Y10114124D02*
X112133972Y9788566D01*
X119068300Y33572003D02*
X119068300Y33097487D01*
X118023300Y33572003D02*
X118023300Y33097487D01*
G36*
X123100042Y38679036D02*
G01*
X122703167Y38679036D01*
X122703167Y38289913D01*
X122901604Y38289913D01*
X122901604Y38083724D01*
X122703167Y38083724D01*
X122703167Y37694600D01*
X123100042Y37694600D01*
X123100042Y37489962D01*
X122496978Y37489962D01*
X122496978Y38885225D01*
X123100042Y38885225D01*
X123100042Y38679036D01*
G37*
G36*
X122198111Y36839165D02*
G01*
X122270445Y36759906D01*
X122302764Y36635245D01*
X122301995Y36358221D01*
X122271214Y36251259D01*
X122215809Y36152762D01*
X122101152Y36095049D01*
X121908005Y36095049D01*
X121908005Y35504065D01*
X121703315Y35504065D01*
X121703315Y36299738D01*
X121908005Y36299738D01*
X122052673Y36298969D01*
X122095766Y36335905D01*
X122110771Y36400352D01*
X122115773Y36501350D01*
X122112695Y36610621D01*
X122089610Y36660639D01*
X122045748Y36685263D01*
X121908005Y36686033D01*
X121908005Y36299738D01*
X121703315Y36299738D01*
X121703315Y36890722D01*
X122101152Y36890722D01*
X122198111Y36839165D01*
G37*
G36*
X123590710Y38286037D02*
G01*
X123888366Y38881350D01*
X123987585Y38881350D01*
X123987585Y38683687D01*
X123689928Y38088375D01*
X123690703Y37494613D01*
X123493041Y37494613D01*
X123491491Y38088375D01*
X123193835Y38683687D01*
X123193835Y38881350D01*
X123293053Y38881350D01*
X123590710Y38286037D01*
G37*
G36*
X123737131Y36103513D02*
G01*
X123772337Y36020021D01*
X123822547Y35903441D01*
X123864101Y35820333D01*
X123875643Y35730301D01*
X123875643Y35504065D01*
X123670954Y35504065D01*
X123673454Y35636420D01*
X123668645Y35727223D01*
X123646906Y35831876D01*
X123606315Y35936529D01*
X123529364Y36095049D01*
X123483193Y36095049D01*
X123483193Y35504065D01*
X123278503Y35504065D01*
X123278503Y36299738D01*
X123483193Y36299738D01*
X123627861Y36298969D01*
X123670184Y36335905D01*
X123684035Y36400159D01*
X123688652Y36500581D01*
X123685574Y36610621D01*
X123664797Y36660639D01*
X123620935Y36685263D01*
X123483193Y36686033D01*
X123483193Y36299738D01*
X123278503Y36299738D01*
X123278503Y36890722D01*
X123674032Y36890722D01*
X123770990Y36839165D01*
X123843324Y36759906D01*
X123875643Y36635245D01*
X123874874Y36358221D01*
X123864101Y36319746D01*
X123844093Y36243564D01*
X123798115Y36163150D01*
X123737131Y36103513D01*
G37*
G36*
X122596717Y36115056D02*
G01*
X122743694Y36403622D01*
X122884514Y36115825D01*
X122884514Y36890722D01*
X123089204Y36890722D01*
X123089204Y35504065D01*
X122984550Y35504065D01*
X122738307Y35992704D01*
X122496681Y35504065D01*
X122392027Y35504065D01*
X122392027Y36890722D01*
X122596717Y36890722D01*
X122596717Y36115056D01*
G37*
G36*
X121811748Y38302315D02*
G01*
X122103203Y38885225D01*
X122310168Y38885225D01*
X121964452Y38193795D01*
X122310168Y37488411D01*
X122103203Y37488411D01*
X121811748Y38071322D01*
X121811748Y37488411D01*
X121605559Y37488411D01*
X121605559Y38885225D01*
X121811748Y38885225D01*
X121811748Y38302315D01*
G37*
X16321300Y31159003D02*
X16321300Y30684487D01*
X15276300Y31159003D02*
X15276300Y30684487D01*
X107863300Y33572003D02*
X107863300Y33097487D01*
X108908300Y33572003D02*
X108908300Y33097487D01*
X70785800Y34285845D02*
X70285800Y35285845D01*
X65075800Y50025845D02*
X123755800Y50025845D01*
X92365800Y40905845D02*
X92365800Y50025845D01*
X123755800Y40905845D02*
X65075800Y40905845D01*
X96465800Y40905845D02*
X96465800Y50025845D01*
X70285800Y35285845D02*
X69785800Y34285845D01*
X65075800Y40905845D02*
X65075800Y50025845D01*
X123755800Y50025845D02*
X123755800Y40905845D01*
X69785800Y34285845D02*
X70785800Y34285845D01*
X38537793Y8577745D02*
X38863351Y8577745D01*
X38537793Y9597745D02*
X38863351Y9597745D01*
X22463772Y18214045D02*
X22463772Y16014045D01*
X29233772Y18214045D02*
X29233772Y16014045D01*
X22463772Y18214045D02*
X22463772Y20414045D01*
X29233772Y18214045D02*
X29233772Y21814045D01*
D14*
X28900772Y22346545D02*
G75*
G03*
X28900772Y22346545I-127000J0D01*
G01*
D13*
X115483300Y33572003D02*
X115483300Y33097487D01*
X116528300Y33572003D02*
X116528300Y33097487D01*
X65678894Y33097487D02*
X65678894Y33572003D01*
X64633894Y33097487D02*
X64633894Y33572003D01*
X88545003Y18272545D02*
X87873252Y18944296D01*
X74763492Y18944296D02*
X74091741Y18272545D01*
X87873252Y17600794D02*
X88545003Y18272545D01*
X74091741Y18272545D02*
X74763492Y17600794D01*
X80646621Y24827425D02*
X81318372Y25499176D01*
X74763492Y17600794D02*
X73851324Y16688626D01*
X81318372Y25499176D02*
X81990123Y24827425D01*
X81990123Y11717665D02*
X81318372Y11045914D01*
X81318372Y11045914D02*
X80646621Y11717665D01*
X73891703Y16022178D02*
G75*
G03*
X73891703Y16022178I-126999J0D01*
G01*
D14*
X73891703Y16022178D02*
G75*
G03*
X73891703Y16022178I-126999J0D01*
G01*
D13*
X12015616Y31159003D02*
X12015616Y30684487D01*
X10970616Y31159003D02*
X10970616Y30684487D01*
X125273888Y13021145D02*
X125273888Y12810145D01*
X123512888Y14298145D02*
X123512888Y12810145D01*
X125273888Y10730145D02*
X125273888Y10519145D01*
X124953888Y13469145D02*
X124953888Y12810145D01*
X123993888Y10730145D02*
X123993888Y9388145D01*
X123632888Y14271145D02*
X123632888Y12810145D01*
X124153888Y10730145D02*
X124153888Y9460145D01*
X123552888Y10730145D02*
X123552888Y9250145D01*
X122992888Y14350145D02*
X122992888Y9190145D01*
X123232888Y10730145D02*
X123232888Y9201145D01*
X123873888Y14198145D02*
X123873888Y12810145D01*
X123793888Y10730145D02*
X123793888Y9315145D01*
X124633888Y10730145D02*
X124633888Y9766145D01*
X124033888Y10730145D02*
X124033888Y9405145D01*
X124593888Y10730145D02*
X124593888Y9735145D01*
X123713888Y10730145D02*
X123713888Y9290145D01*
X123392888Y10730145D02*
X123392888Y9220145D01*
X124313888Y10730145D02*
X124313888Y9546145D01*
X124273888Y14017145D02*
X124273888Y12810145D01*
X123472888Y10730145D02*
X123472888Y9234145D01*
X124393888Y10730145D02*
X124393888Y9595145D01*
X123352888Y10730145D02*
X123352888Y9214145D01*
X124473888Y10730145D02*
X124473888Y9648145D01*
X124833888Y10730145D02*
X124833888Y9944145D01*
X125353888Y12868145D02*
X125353888Y10672145D01*
X124113888Y10730145D02*
X124113888Y9441145D01*
X124913888Y13513145D02*
X124913888Y12810145D01*
X124353888Y13970145D02*
X124353888Y12810145D01*
X124233888Y10730145D02*
X124233888Y9502145D01*
X124993888Y13423145D02*
X124993888Y12810145D01*
X123913888Y14184145D02*
X123913888Y12810145D01*
X123512888Y10730145D02*
X123512888Y9242145D01*
X123272888Y10730145D02*
X123272888Y9205145D01*
X124473888Y13892145D02*
X124473888Y12810145D01*
X123072888Y14349145D02*
X123072888Y9191145D01*
X124793888Y10730145D02*
X124793888Y9906145D01*
X123833888Y10730145D02*
X123833888Y9328145D01*
X124673888Y13741145D02*
X124673888Y12810145D01*
X123552888Y14290145D02*
X123552888Y12810145D01*
X120188113Y13245145D02*
X120688113Y13245145D01*
X123472888Y14306145D02*
X123472888Y12810145D01*
X124793888Y13634145D02*
X124793888Y12810145D01*
X123953888Y14168145D02*
X123953888Y12810145D01*
X124433888Y13919145D02*
X124433888Y12810145D01*
X125073888Y13324145D02*
X125073888Y12810145D01*
X123592888Y10730145D02*
X123592888Y9259145D01*
X125553888Y12288145D02*
X125553888Y11252145D01*
X125193888Y10730145D02*
X125193888Y10387145D01*
X124673888Y10730145D02*
X124673888Y9799145D01*
X124193888Y10730145D02*
X124193888Y9480145D01*
X123713888Y14250145D02*
X123713888Y12810145D01*
X124833888Y13596145D02*
X124833888Y12810145D01*
X125153888Y13213145D02*
X125153888Y12810145D01*
X124113888Y14099145D02*
X124113888Y12810145D01*
X124073888Y10730145D02*
X124073888Y9422145D01*
X124353888Y10730145D02*
X124353888Y9570145D01*
X124193888Y14060145D02*
X124193888Y12810145D01*
X125033888Y13375145D02*
X125033888Y12810145D01*
X123753888Y14238145D02*
X123753888Y12810145D01*
X123192888Y14343145D02*
X123192888Y9197145D01*
X123672888Y14261145D02*
X123672888Y12810145D01*
X124553888Y13835145D02*
X124553888Y12810145D01*
X125153888Y10730145D02*
X125153888Y10327145D01*
X125313888Y12948145D02*
X125313888Y10592145D01*
X124233888Y14038145D02*
X124233888Y12810145D01*
X123672888Y10730145D02*
X123672888Y9279145D01*
X124073888Y14118145D02*
X124073888Y12810145D01*
X124593888Y13805145D02*
X124593888Y12810145D01*
X123913888Y10730145D02*
X123913888Y9356145D01*
X125033888Y10730145D02*
X125033888Y10165145D01*
X125593888Y12054145D02*
X125593888Y11486145D01*
X124993888Y10730145D02*
X124993888Y10117145D01*
X125113888Y10730145D02*
X125113888Y10270145D01*
X124433888Y10730145D02*
X124433888Y9621145D01*
X124393888Y13945145D02*
X124393888Y12810145D01*
X123833888Y14212145D02*
X123833888Y12810145D01*
X124553888Y10730145D02*
X124553888Y9705145D01*
X125233888Y10730145D02*
X125233888Y10451145D01*
X124153888Y14080145D02*
X124153888Y12810145D01*
X125433888Y12685145D02*
X125433888Y10855145D01*
X123392888Y14320145D02*
X123392888Y12810145D01*
X125073888Y10730145D02*
X125073888Y10216145D01*
X124953888Y10730145D02*
X124953888Y10071145D01*
X123272888Y14335145D02*
X123272888Y12810145D01*
X124033888Y14135145D02*
X124033888Y12810145D01*
X123873888Y10730145D02*
X123873888Y9342145D01*
X123232888Y14339145D02*
X123232888Y12810145D01*
X125513888Y12447145D02*
X125513888Y11093145D01*
X123432888Y14313145D02*
X123432888Y12810145D01*
X123032888Y14350145D02*
X123032888Y9190145D01*
X124713888Y13707145D02*
X124713888Y12810145D01*
X124873888Y10730145D02*
X124873888Y9985145D01*
X124313888Y13994145D02*
X124313888Y12810145D01*
X123312888Y10730145D02*
X123312888Y9209145D01*
X125393888Y12781145D02*
X125393888Y10759145D01*
X124513888Y10730145D02*
X124513888Y9675145D01*
X123793888Y14225145D02*
X123793888Y12810145D01*
X124513888Y13865145D02*
X124513888Y12810145D01*
X123352888Y14326145D02*
X123352888Y12810145D01*
X124273888Y10730145D02*
X124273888Y9523145D01*
X125113888Y13270145D02*
X125113888Y12810145D01*
X125193888Y13153145D02*
X125193888Y12810145D01*
X125473888Y12575145D02*
X125473888Y10965145D01*
X123753888Y10730145D02*
X123753888Y9302145D01*
X124753888Y13671145D02*
X124753888Y12810145D01*
X125233888Y13089145D02*
X125233888Y12810145D01*
X124633888Y13774145D02*
X124633888Y12810145D01*
X124913888Y10730145D02*
X124913888Y10027145D01*
X124753888Y10730145D02*
X124753888Y9869145D01*
X123312888Y14331145D02*
X123312888Y12810145D01*
X124713888Y10730145D02*
X124713888Y9833145D01*
X120438113Y13495145D02*
X120438113Y12995145D01*
X123953888Y10730145D02*
X123953888Y9372145D01*
X123152888Y14346145D02*
X123152888Y9194145D01*
X123993888Y14152145D02*
X123993888Y12810145D01*
X123592888Y14281145D02*
X123592888Y12810145D01*
X123432888Y10730145D02*
X123432888Y9227145D01*
X124873888Y13555145D02*
X124873888Y12810145D01*
X123112888Y14348145D02*
X123112888Y9192145D01*
X123632888Y10730145D02*
X123632888Y9269145D01*
X125612888Y11770145D02*
G75*
G03*
X125612888Y11770145I-2620000J0D01*
G01*
X108573972Y10114124D02*
X108573972Y9788566D01*
X109593972Y10114124D02*
X109593972Y9788566D01*
X120933424Y21782145D02*
X119510920Y21782145D01*
X121746172Y23962145D02*
X121746172Y24470145D01*
X120933424Y23602145D02*
X119510920Y23602145D01*
X122000172Y24216145D02*
X121492172Y24216145D01*
X113943900Y33572003D02*
X113943900Y33097487D01*
X114988900Y33572003D02*
X114988900Y33097487D01*
G36*
X76455742Y33414794D02*
G01*
X76417372Y33318095D01*
X76376483Y33228953D01*
X76343733Y33167716D01*
X76274314Y33084604D01*
X76183881Y33034736D01*
X76072432Y33018113D01*
X75870119Y33018113D01*
X75870119Y33225852D01*
X76076307Y33225852D01*
X76162930Y33268873D01*
X76211958Y33326621D01*
X76242964Y33415763D01*
X76264668Y33502580D01*
X76264668Y33921159D01*
X76240639Y34006425D01*
X76208858Y34096342D01*
X76160605Y34156610D01*
X76076307Y34204087D01*
X76076307Y33225852D01*
X75870119Y33225852D01*
X75870119Y34414152D01*
X76072432Y34414152D01*
X76182761Y34397443D01*
X76272936Y34347317D01*
X76342958Y34263774D01*
X76376289Y34201762D01*
X76417372Y34113395D01*
X76455742Y34016889D01*
X76468532Y33959916D01*
X76468532Y33472349D01*
X76455742Y33414794D01*
G37*
G36*
X73303608Y34207963D02*
G01*
X72906733Y34207963D01*
X72906733Y33818839D01*
X73105171Y33818839D01*
X73105171Y33612651D01*
X72906733Y33612651D01*
X72906733Y33223527D01*
X73303608Y33223527D01*
X73303608Y33018888D01*
X72700545Y33018888D01*
X72700545Y34414152D01*
X73303608Y34414152D01*
X73303608Y34207963D01*
G37*
G36*
X72368782Y34391673D02*
G01*
X72452498Y34314158D01*
X72486087Y34230701D01*
X72506241Y34144659D01*
X72512959Y34056034D01*
X72511409Y34009526D01*
X72364131Y34009526D01*
X72345334Y34118046D01*
X72295143Y34197111D01*
X72275764Y34202537D01*
X72257161Y34207963D01*
X72175770Y34207963D01*
X72130812Y34190910D01*
X72114176Y34109900D01*
X72114534Y34013401D01*
X72125386Y33971543D01*
X72137788Y33925035D01*
X72177708Y33871356D01*
X72246309Y33814189D01*
X72336419Y33748301D01*
X72374208Y33718070D01*
X72458699Y33618077D01*
X72509083Y33462272D01*
X72510827Y33419639D01*
X72511409Y33319645D01*
X72509083Y33301817D01*
X72487185Y33211318D01*
X72472651Y33166166D01*
X72443971Y33122370D01*
X72387385Y33052995D01*
X72309871Y33023539D01*
X72109883Y33023539D01*
X72037019Y33052220D01*
X71967256Y33128959D01*
X71921910Y33236898D01*
X71906795Y33374681D01*
X71908345Y33421964D01*
X72079652Y33421964D01*
X72085466Y33345806D01*
X72102907Y33275462D01*
X72157942Y33223527D01*
X72239332Y33223527D01*
X72263362Y33228953D01*
X72288942Y33234379D01*
X72305549Y33314649D01*
X72305414Y33324877D01*
X72305220Y33418089D01*
X72294368Y33476225D01*
X72261812Y33545213D01*
X72174995Y33622727D01*
X72125967Y33651602D01*
X72059498Y33694816D01*
X71990510Y33776982D01*
X71971325Y33817677D01*
X71924623Y33921159D01*
X71916871Y34009526D01*
X71908345Y34099443D01*
X71923073Y34208738D01*
X71967256Y34308732D01*
X72048646Y34392448D01*
X72081202Y34404075D01*
X72110658Y34414152D01*
X72309871Y34414152D01*
X72368782Y34391673D01*
G37*
G36*
X74095808Y34207963D02*
G01*
X73997171Y34206413D01*
X73940004Y34201762D01*
X73819081Y34152928D01*
X73760170Y34089366D01*
X73712111Y33965342D01*
X73701065Y33903137D01*
X73697383Y33820390D01*
X73697383Y33623503D01*
X73703778Y33554127D01*
X73713661Y33473124D01*
X73768115Y33336698D01*
X73819856Y33276237D01*
X73924501Y33234379D01*
X73983606Y33229147D01*
X74095808Y33227403D01*
X74095808Y33021214D01*
X73792726Y33019663D01*
X73704704Y33087101D01*
X73635974Y33158156D01*
X73586537Y33232829D01*
X73562120Y33285926D01*
X73526076Y33370805D01*
X73511542Y33429522D01*
X73498945Y33515757D01*
X73490419Y33628153D01*
X73490419Y33820390D01*
X73499721Y33931236D01*
X73511542Y34010107D01*
X73525300Y34063786D01*
X73555144Y34140719D01*
X73585762Y34200987D01*
X73637697Y34272559D01*
X73706685Y34343614D01*
X73792726Y34414152D01*
X74095808Y34414152D01*
X74095808Y34207963D01*
G37*
G36*
X74871730Y33204923D02*
G01*
X74811850Y33087489D01*
X74732979Y33023539D01*
X74448500Y33023539D01*
X74391333Y33058808D01*
X74343855Y33110356D01*
X74307811Y33181669D01*
X74284944Y33255308D01*
X74284944Y33265385D01*
X74491133Y33265385D01*
X74496559Y33250657D01*
X74501985Y33234379D01*
X74526015Y33223527D01*
X74649263Y33223527D01*
X74677168Y33234379D01*
X74682594Y33248332D01*
X74681819Y34160679D01*
X74676393Y34176957D01*
X74670967Y34194010D01*
X74651588Y34198661D01*
X74632985Y34202537D01*
X74530665Y34202537D01*
X74516713Y34198661D01*
X74501985Y34194010D01*
X74496559Y34174632D01*
X74491133Y34156028D01*
X74491133Y33265385D01*
X74284944Y33265385D01*
X74284944Y34177732D01*
X74294246Y34245558D01*
X74322151Y34326560D01*
X74380287Y34389347D01*
X74431447Y34414152D01*
X74722127Y34414152D01*
X74780263Y34391673D01*
X74854677Y34297880D01*
X74886458Y34183158D01*
X74886458Y33247557D01*
X74871730Y33204923D01*
G37*
G36*
X77917280Y33621177D02*
G01*
X77952743Y33537074D01*
X78003322Y33419639D01*
X78045180Y33335923D01*
X78056807Y33245231D01*
X78056807Y33017338D01*
X77850618Y33017338D01*
X77853137Y33150663D01*
X77848292Y33242130D01*
X77826394Y33347550D01*
X77785505Y33452970D01*
X77707991Y33612651D01*
X77661482Y33612651D01*
X77661482Y33017338D01*
X77455293Y33017338D01*
X77455293Y33818839D01*
X77661482Y33818839D01*
X77807210Y33818064D01*
X77849843Y33855271D01*
X77863795Y33919996D01*
X77868446Y34021153D01*
X77865346Y34131999D01*
X77844417Y34182383D01*
X77800233Y34207188D01*
X77661482Y34207963D01*
X77661482Y33818839D01*
X77455293Y33818839D01*
X77455293Y34414152D01*
X77853718Y34414152D01*
X77951387Y34362217D01*
X78024251Y34282377D01*
X78056807Y34156803D01*
X78056032Y33877751D01*
X78045180Y33838993D01*
X78025026Y33762254D01*
X77978711Y33681251D01*
X77917280Y33621177D01*
G37*
G36*
X78547474Y33814964D02*
G01*
X78845131Y34410276D01*
X78944349Y34410276D01*
X78944349Y34212614D01*
X78646693Y33617301D01*
X78647468Y33023539D01*
X78449806Y33023539D01*
X78448256Y33617301D01*
X78150599Y34212614D01*
X78150599Y34410276D01*
X78249818Y34410276D01*
X78547474Y33814964D01*
G37*
G36*
X77056868Y33018888D02*
G01*
X77056093Y33614201D01*
X76865407Y33614201D01*
X76866182Y33019663D01*
X76661543Y33019663D01*
X76661543Y33820390D01*
X76865407Y33820390D01*
X77056093Y33820390D01*
X77056093Y34170756D01*
X77045241Y34197111D01*
X77018886Y34207963D01*
X76908040Y34207963D01*
X76892537Y34202537D01*
X76876259Y34197111D01*
X76865407Y34171531D01*
X76865407Y33820390D01*
X76661543Y33820390D01*
X76661543Y34125022D01*
X76673364Y34225598D01*
X76708827Y34325785D01*
X76786342Y34391673D01*
X76825099Y34404075D01*
X76861531Y34414152D01*
X77059968Y34414152D01*
X77100276Y34402525D01*
X77142909Y34389347D01*
X77221974Y34323460D01*
X77252786Y34226179D01*
X77263057Y34112620D01*
X77262282Y33018888D01*
X77056868Y33018888D01*
G37*
G36*
X75474019Y33725822D02*
G01*
X75474019Y34414152D01*
X75680208Y34414152D01*
X75680208Y33017338D01*
X75474019Y33017338D01*
X75474019Y33299491D01*
X75184114Y33879301D01*
X75184114Y33017338D01*
X74977925Y33017338D01*
X74977925Y34414152D01*
X75135280Y34414152D01*
X75474019Y33725822D01*
G37*
X123481572Y27020893D02*
X123481572Y29793397D01*
X120061572Y27020893D02*
X120061572Y29793397D01*
G36*
X91426247Y32174789D02*
G01*
X91571974Y32015109D01*
X91637087Y31763962D01*
X91635536Y31205856D01*
X91573525Y30990366D01*
X91461903Y30791928D01*
X91230910Y30675656D01*
X90841786Y30675656D01*
X90841786Y29485031D01*
X90429408Y29485031D01*
X90429408Y31088034D01*
X90841786Y31088034D01*
X91133241Y31086484D01*
X91220058Y31160898D01*
X91250288Y31290735D01*
X91260365Y31494211D01*
X91254164Y31714352D01*
X91207655Y31815121D01*
X91119289Y31864731D01*
X90841786Y31866281D01*
X90841786Y31088034D01*
X90429408Y31088034D01*
X90429408Y32278659D01*
X91230910Y32278659D01*
X91426247Y32174789D01*
G37*
G36*
X89841847Y32174789D02*
G01*
X89987575Y32015109D01*
X90052687Y31763962D01*
X90051137Y31205856D01*
X89989125Y30990366D01*
X89877504Y30791928D01*
X89646510Y30675656D01*
X89257387Y30675656D01*
X89257387Y29485031D01*
X88845009Y29485031D01*
X88845009Y31088034D01*
X89257387Y31088034D01*
X89548842Y31086484D01*
X89635658Y31160898D01*
X89665889Y31290735D01*
X89675966Y31494211D01*
X89669765Y31714352D01*
X89623256Y31815121D01*
X89534889Y31864731D01*
X89257387Y31866281D01*
X89257387Y31088034D01*
X88845009Y31088034D01*
X88845009Y32278659D01*
X89646510Y32278659D01*
X89841847Y32174789D01*
G37*
G36*
X101143483Y31866281D02*
G01*
X100349733Y31866281D01*
X100349733Y31088034D01*
X100746608Y31088034D01*
X100746608Y30675656D01*
X100349733Y30675656D01*
X100349733Y29897409D01*
X101143483Y29897409D01*
X101143483Y29488132D01*
X99937355Y29488132D01*
X99937355Y32278659D01*
X101143483Y32278659D01*
X101143483Y31866281D01*
G37*
G36*
X92427736Y29897409D02*
G01*
X93221486Y29897409D01*
X93221486Y29485031D01*
X92015358Y29485031D01*
X92015358Y32278659D01*
X92427736Y32278659D01*
X92427736Y29897409D01*
G37*
G36*
X88269850Y31866281D02*
G01*
X88071413Y31866281D01*
X88071413Y29897409D01*
X88269850Y29897409D01*
X88269850Y29485031D01*
X87460597Y29485031D01*
X87460597Y29897409D01*
X87659035Y29897409D01*
X87659035Y31866281D01*
X87460597Y31866281D01*
X87460597Y32278659D01*
X88269850Y32278659D01*
X88269850Y31866281D01*
G37*
G36*
X99525752Y30279944D02*
G01*
X99449013Y30086545D01*
X99367235Y29908261D01*
X99301735Y29785788D01*
X99162898Y29619562D01*
X98982030Y29519826D01*
X98759132Y29486581D01*
X98354506Y29486581D01*
X98354506Y29902060D01*
X98766884Y29902060D01*
X98940129Y29988101D01*
X99038185Y30103598D01*
X99100197Y30281882D01*
X99143605Y30455514D01*
X99143605Y31292673D01*
X99095546Y31463205D01*
X99031984Y31643039D01*
X98935478Y31763574D01*
X98766884Y31858530D01*
X98766884Y29902060D01*
X98354506Y29902060D01*
X98354506Y32278659D01*
X98759132Y32278659D01*
X98979791Y32245242D01*
X99160142Y32144989D01*
X99300185Y31977902D01*
X99366847Y31853879D01*
X99449013Y31677145D01*
X99525752Y31484134D01*
X99551332Y31370187D01*
X99551332Y30395053D01*
X99525752Y30279944D01*
G37*
G36*
X97776247Y31866281D02*
G01*
X97577809Y31866281D01*
X97577809Y29897409D01*
X97776247Y29897409D01*
X97776247Y29485031D01*
X96966994Y29485031D01*
X96966994Y29897409D01*
X97165431Y29897409D01*
X97165431Y31866281D01*
X96966994Y31866281D01*
X96966994Y32278659D01*
X97776247Y32278659D01*
X97776247Y31866281D01*
G37*
G36*
X94805885Y31866281D02*
G01*
X94012135Y31866281D01*
X94012135Y31088034D01*
X94409010Y31088034D01*
X94409010Y30675656D01*
X94012135Y30675656D01*
X94012135Y29897409D01*
X94805885Y29897409D01*
X94805885Y29488132D01*
X93599757Y29488132D01*
X93599757Y32278659D01*
X94805885Y32278659D01*
X94805885Y31866281D01*
G37*
G36*
X86604836Y30692709D02*
G01*
X86675761Y30524502D01*
X86776918Y30289633D01*
X86860634Y30122201D01*
X86883888Y29940817D01*
X86883888Y29485031D01*
X86471510Y29485031D01*
X86476549Y29751681D01*
X86466859Y29934616D01*
X86423064Y30145456D01*
X86341286Y30356296D01*
X86186256Y30675656D01*
X86093239Y30675656D01*
X86093239Y29485031D01*
X85680861Y29485031D01*
X85680861Y31088034D01*
X86093239Y31088034D01*
X86384694Y31086484D01*
X86469960Y31160898D01*
X86497865Y31290347D01*
X86507167Y31492660D01*
X86500966Y31714352D01*
X86459108Y31815121D01*
X86370741Y31864731D01*
X86093239Y31866281D01*
X86093239Y31088034D01*
X85680861Y31088034D01*
X85680861Y32278659D01*
X86477712Y32278659D01*
X86673048Y32174789D01*
X86818776Y32015109D01*
X86883888Y31763962D01*
X86882338Y31205856D01*
X86860634Y31128342D01*
X86820326Y30974863D01*
X86727696Y30812857D01*
X86604836Y30692709D01*
G37*
G36*
X8343860Y22838763D02*
G01*
X7946985Y22838763D01*
X7946985Y22449639D01*
X8145422Y22449639D01*
X8145422Y22243451D01*
X7946985Y22243451D01*
X7946985Y21854327D01*
X8343860Y21854327D01*
X8343860Y21649688D01*
X7740796Y21649688D01*
X7740796Y23044952D01*
X8343860Y23044952D01*
X8343860Y22838763D01*
G37*
G36*
X3573996Y22045594D02*
G01*
X3535626Y21948895D01*
X3494737Y21859753D01*
X3461987Y21798516D01*
X3392568Y21715404D01*
X3302135Y21665536D01*
X3190686Y21648913D01*
X2988372Y21648913D01*
X2988372Y21856652D01*
X3194561Y21856652D01*
X3281184Y21899673D01*
X3330212Y21957421D01*
X3361218Y22046563D01*
X3382922Y22133380D01*
X3382922Y22551959D01*
X3358892Y22637225D01*
X3327111Y22727142D01*
X3278859Y22787410D01*
X3194561Y22834887D01*
X3194561Y21856652D01*
X2988372Y21856652D01*
X2988372Y23044952D01*
X3190686Y23044952D01*
X3301015Y23028243D01*
X3391190Y22978117D01*
X3461212Y22894574D01*
X3494543Y22832562D01*
X3535626Y22744195D01*
X3573996Y22647689D01*
X3586786Y22590716D01*
X3586786Y22103149D01*
X3573996Y22045594D01*
G37*
G36*
X7154785Y21854327D02*
G01*
X7551660Y21854327D01*
X7551660Y21648138D01*
X6948596Y21648138D01*
X6948596Y23044952D01*
X7154785Y23044952D01*
X7154785Y21854327D01*
G37*
G36*
X4283642Y22838763D02*
G01*
X4184423Y22838763D01*
X4184423Y21854327D01*
X4283642Y21854327D01*
X4283642Y21648138D01*
X3879016Y21648138D01*
X3879016Y21854327D01*
X3978235Y21854327D01*
X3978235Y22838763D01*
X3879016Y22838763D01*
X3879016Y23044952D01*
X4283642Y23044952D01*
X4283642Y22838763D01*
G37*
G36*
X6633886Y23009295D02*
G01*
X6694348Y22950384D01*
X6743182Y22857367D01*
X6759460Y22753497D01*
X6759460Y22545758D01*
X6744539Y22487815D01*
X6699774Y22396154D01*
X6648614Y22346545D01*
X6702874Y22305462D01*
X6745314Y22203918D01*
X6759460Y22141131D01*
X6759460Y21933392D01*
X6742407Y21833398D01*
X6693185Y21754139D01*
X6627685Y21682244D01*
X6557922Y21649688D01*
X6157946Y21649688D01*
X6157946Y21854327D01*
X6362585Y21854327D01*
X6461029Y21855102D01*
X6461029Y21855877D01*
X6542419Y21877581D01*
X6547845Y21900061D01*
X6553271Y21920990D01*
X6553271Y22163610D01*
X6524591Y22220196D01*
X6461029Y22243451D01*
X6362585Y22243451D01*
X6362585Y21854327D01*
X6157946Y21854327D01*
X6157946Y22449639D01*
X6362585Y22449639D01*
X6460254Y22448864D01*
X6536218Y22465918D01*
X6553271Y22553509D01*
X6553271Y22789154D01*
X6536218Y22821710D01*
X6498236Y22838763D01*
X6362585Y22838763D01*
X6362585Y22449639D01*
X6157946Y22449639D01*
X6157946Y23044952D01*
X6557922Y23044952D01*
X6633886Y23009295D01*
G37*
G36*
X5032434Y23022473D02*
G01*
X5116150Y22944958D01*
X5149739Y22861501D01*
X5169893Y22775459D01*
X5176611Y22686834D01*
X5175061Y22640326D01*
X5027783Y22640326D01*
X5008986Y22748846D01*
X4958795Y22827911D01*
X4939416Y22833337D01*
X4920813Y22838763D01*
X4839422Y22838763D01*
X4794464Y22821710D01*
X4777828Y22740700D01*
X4778186Y22644201D01*
X4789038Y22602343D01*
X4801440Y22555835D01*
X4841360Y22502156D01*
X4909961Y22444989D01*
X5000071Y22379101D01*
X5037860Y22348870D01*
X5122351Y22248877D01*
X5172735Y22093072D01*
X5174479Y22050439D01*
X5175061Y21950445D01*
X5172735Y21932617D01*
X5150837Y21842118D01*
X5136303Y21796966D01*
X5107623Y21753170D01*
X5051037Y21683795D01*
X4973523Y21654339D01*
X4773535Y21654339D01*
X4700671Y21683020D01*
X4630908Y21759759D01*
X4585562Y21867698D01*
X4570446Y22005481D01*
X4571997Y22052764D01*
X4743304Y22052764D01*
X4749118Y21976606D01*
X4766559Y21906262D01*
X4821594Y21854327D01*
X4902984Y21854327D01*
X4927014Y21859753D01*
X4952594Y21865179D01*
X4969201Y21945449D01*
X4969066Y21955677D01*
X4968872Y22048889D01*
X4958020Y22107025D01*
X4925464Y22176013D01*
X4838647Y22253527D01*
X4789619Y22282402D01*
X4723150Y22325616D01*
X4654162Y22407782D01*
X4634977Y22448477D01*
X4588275Y22551959D01*
X4580523Y22640326D01*
X4571997Y22730243D01*
X4586725Y22839538D01*
X4630908Y22939532D01*
X4712298Y23023248D01*
X4744854Y23034875D01*
X4774310Y23044952D01*
X4973523Y23044952D01*
X5032434Y23022473D01*
G37*
G36*
X5759521Y21649688D02*
G01*
X5758746Y22245001D01*
X5568060Y22245001D01*
X5568835Y21650463D01*
X5364196Y21650463D01*
X5364196Y22451190D01*
X5568060Y22451190D01*
X5758746Y22451190D01*
X5758746Y22801556D01*
X5747894Y22827911D01*
X5721539Y22838763D01*
X5610693Y22838763D01*
X5595190Y22833337D01*
X5578912Y22827911D01*
X5568060Y22802331D01*
X5568060Y22451190D01*
X5364196Y22451190D01*
X5364196Y22755822D01*
X5376017Y22856398D01*
X5411480Y22956585D01*
X5488995Y23022473D01*
X5527752Y23034875D01*
X5564184Y23044952D01*
X5762622Y23044952D01*
X5802929Y23033325D01*
X5845562Y23020147D01*
X5924627Y22954260D01*
X5955439Y22856979D01*
X5965710Y22743420D01*
X5964935Y21649688D01*
X5759521Y21649688D01*
G37*
G36*
X5352748Y38683315D02*
G01*
X5644203Y39266225D01*
X5851168Y39266225D01*
X5505452Y38574795D01*
X5851168Y37869411D01*
X5644203Y37869411D01*
X5352748Y38452322D01*
X5352748Y37869411D01*
X5146559Y37869411D01*
X5146559Y39266225D01*
X5352748Y39266225D01*
X5352748Y38683315D01*
G37*
G36*
X7278131Y36484513D02*
G01*
X7313337Y36401021D01*
X7363547Y36284441D01*
X7405101Y36201333D01*
X7416643Y36111301D01*
X7416643Y35885065D01*
X7211954Y35885065D01*
X7214454Y36017420D01*
X7209645Y36108223D01*
X7187906Y36212876D01*
X7147315Y36317529D01*
X7070364Y36476049D01*
X7024193Y36476049D01*
X7024193Y35885065D01*
X6819503Y35885065D01*
X6819503Y36680738D01*
X7024193Y36680738D01*
X7168861Y36679969D01*
X7211184Y36716905D01*
X7225035Y36781159D01*
X7229652Y36881581D01*
X7226574Y36991621D01*
X7205797Y37041639D01*
X7161935Y37066263D01*
X7024193Y37067033D01*
X7024193Y36680738D01*
X6819503Y36680738D01*
X6819503Y37271722D01*
X7215032Y37271722D01*
X7311990Y37220165D01*
X7384324Y37140906D01*
X7416643Y37016245D01*
X7415874Y36739221D01*
X7405101Y36700746D01*
X7385093Y36624564D01*
X7339115Y36544150D01*
X7278131Y36484513D01*
G37*
G36*
X7131710Y38667037D02*
G01*
X7429366Y39262350D01*
X7528585Y39262350D01*
X7528585Y39064687D01*
X7230928Y38469375D01*
X7231703Y37875613D01*
X7034041Y37875613D01*
X7032491Y38469375D01*
X6734835Y39064687D01*
X6734835Y39262350D01*
X6834053Y39262350D01*
X7131710Y38667037D01*
G37*
G36*
X6641042Y39060036D02*
G01*
X6244167Y39060036D01*
X6244167Y38670913D01*
X6442604Y38670913D01*
X6442604Y38464724D01*
X6244167Y38464724D01*
X6244167Y38075600D01*
X6641042Y38075600D01*
X6641042Y37870962D01*
X6037978Y37870962D01*
X6037978Y39266225D01*
X6641042Y39266225D01*
X6641042Y39060036D01*
G37*
G36*
X5739111Y37220165D02*
G01*
X5811445Y37140906D01*
X5843764Y37016245D01*
X5842995Y36739221D01*
X5812214Y36632259D01*
X5756809Y36533762D01*
X5642152Y36476049D01*
X5449005Y36476049D01*
X5449005Y35885065D01*
X5244315Y35885065D01*
X5244315Y36680738D01*
X5449005Y36680738D01*
X5593673Y36679969D01*
X5636766Y36716905D01*
X5651771Y36781352D01*
X5656773Y36882350D01*
X5653695Y36991621D01*
X5630610Y37041639D01*
X5586748Y37066263D01*
X5449005Y37067033D01*
X5449005Y36680738D01*
X5244315Y36680738D01*
X5244315Y37271722D01*
X5642152Y37271722D01*
X5739111Y37220165D01*
G37*
G36*
X6137717Y36496056D02*
G01*
X6284694Y36784622D01*
X6425514Y36496825D01*
X6425514Y37271722D01*
X6630204Y37271722D01*
X6630204Y35885065D01*
X6525550Y35885065D01*
X6279307Y36373704D01*
X6037681Y35885065D01*
X5933027Y35885065D01*
X5933027Y37271722D01*
X6137717Y37271722D01*
X6137717Y36496056D01*
G37*
X16792888Y10730145D02*
X16792888Y9234145D01*
X18393888Y13324145D02*
X18393888Y12810145D01*
X16512888Y14343145D02*
X16512888Y9197145D01*
X18753888Y12685145D02*
X18753888Y10855145D01*
X17633888Y10730145D02*
X17633888Y9546145D01*
X16352888Y14350145D02*
X16352888Y9190145D01*
X16912888Y10730145D02*
X16912888Y9259145D01*
X18713888Y12781145D02*
X18713888Y10759145D01*
X18433888Y13270145D02*
X18433888Y12810145D01*
X18513888Y13153145D02*
X18513888Y12810145D01*
X13508113Y13245145D02*
X14008113Y13245145D01*
X17193888Y14198145D02*
X17193888Y12810145D01*
X17793888Y13892145D02*
X17793888Y12810145D01*
X18193888Y10730145D02*
X18193888Y9985145D01*
X18233888Y10730145D02*
X18233888Y10027145D01*
X17473888Y10730145D02*
X17473888Y9460145D01*
X18273888Y13469145D02*
X18273888Y12810145D01*
X17913888Y13805145D02*
X17913888Y12810145D01*
X18153888Y10730145D02*
X18153888Y9944145D01*
X17073888Y14238145D02*
X17073888Y12810145D01*
X18113888Y10730145D02*
X18113888Y9906145D01*
X17313888Y14152145D02*
X17313888Y12810145D01*
X17833888Y13865145D02*
X17833888Y12810145D01*
X17553888Y10730145D02*
X17553888Y9502145D01*
X13758113Y13495145D02*
X13758113Y12995145D01*
X17513888Y14060145D02*
X17513888Y12810145D01*
X18513888Y10730145D02*
X18513888Y10387145D01*
X17353888Y10730145D02*
X17353888Y9405145D01*
X18673888Y12868145D02*
X18673888Y10672145D01*
X16592888Y10730145D02*
X16592888Y9205145D01*
X16672888Y10730145D02*
X16672888Y9214145D01*
X18393888Y10730145D02*
X18393888Y10216145D01*
X17713888Y10730145D02*
X17713888Y9595145D01*
X17833888Y10730145D02*
X17833888Y9675145D01*
X18033888Y10730145D02*
X18033888Y9833145D01*
X17633888Y13994145D02*
X17633888Y12810145D01*
X17753888Y13919145D02*
X17753888Y12810145D01*
X16392888Y14349145D02*
X16392888Y9191145D01*
X17593888Y14017145D02*
X17593888Y12810145D01*
X16832888Y14298145D02*
X16832888Y12810145D01*
X17673888Y10730145D02*
X17673888Y9570145D01*
X18913888Y12054145D02*
X18913888Y11486145D01*
X17033888Y14250145D02*
X17033888Y12810145D01*
X16632888Y10730145D02*
X16632888Y9209145D01*
X16472888Y14346145D02*
X16472888Y9194145D01*
X17233888Y14184145D02*
X17233888Y12810145D01*
X17873888Y10730145D02*
X17873888Y9705145D01*
X16632888Y14331145D02*
X16632888Y12810145D01*
X16712888Y10730145D02*
X16712888Y9220145D01*
X17393888Y10730145D02*
X17393888Y9422145D01*
X17273888Y14168145D02*
X17273888Y12810145D01*
X17193888Y10730145D02*
X17193888Y9342145D01*
X17993888Y10730145D02*
X17993888Y9799145D01*
X17913888Y10730145D02*
X17913888Y9735145D01*
X16872888Y14290145D02*
X16872888Y12810145D01*
X18873888Y12288145D02*
X18873888Y11252145D01*
X17073888Y10730145D02*
X17073888Y9302145D01*
X16992888Y10730145D02*
X16992888Y9279145D01*
X18553888Y13089145D02*
X18553888Y12810145D01*
X16552888Y14339145D02*
X16552888Y12810145D01*
X16552888Y10730145D02*
X16552888Y9201145D01*
X17273888Y10730145D02*
X17273888Y9372145D01*
X18273888Y10730145D02*
X18273888Y10071145D01*
X17553888Y14038145D02*
X17553888Y12810145D01*
X17713888Y13945145D02*
X17713888Y12810145D01*
X17513888Y10730145D02*
X17513888Y9480145D01*
X18073888Y10730145D02*
X18073888Y9869145D01*
X18473888Y10730145D02*
X18473888Y10327145D01*
X17593888Y10730145D02*
X17593888Y9523145D01*
X16832888Y10730145D02*
X16832888Y9242145D01*
X17353888Y14135145D02*
X17353888Y12810145D01*
X17033888Y10730145D02*
X17033888Y9290145D01*
X18553888Y10730145D02*
X18553888Y10451145D01*
X18353888Y13375145D02*
X18353888Y12810145D01*
X18353888Y10730145D02*
X18353888Y10165145D01*
X16912888Y14281145D02*
X16912888Y12810145D01*
X17393888Y14118145D02*
X17393888Y12810145D01*
X17113888Y10730145D02*
X17113888Y9315145D01*
X17433888Y10730145D02*
X17433888Y9441145D01*
X18593888Y13021145D02*
X18593888Y12810145D01*
X18233888Y13513145D02*
X18233888Y12810145D01*
X16752888Y14313145D02*
X16752888Y12810145D01*
X16952888Y10730145D02*
X16952888Y9269145D01*
X18633888Y12948145D02*
X18633888Y10592145D01*
X16952888Y14271145D02*
X16952888Y12810145D01*
X18313888Y13423145D02*
X18313888Y12810145D01*
X17993888Y13741145D02*
X17993888Y12810145D01*
X16792888Y14306145D02*
X16792888Y12810145D01*
X18833888Y12447145D02*
X18833888Y11093145D01*
X16432888Y14348145D02*
X16432888Y9192145D01*
X17953888Y13774145D02*
X17953888Y12810145D01*
X18313888Y10730145D02*
X18313888Y10117145D01*
X16752888Y10730145D02*
X16752888Y9227145D01*
X18033888Y13707145D02*
X18033888Y12810145D01*
X16312888Y14350145D02*
X16312888Y9190145D01*
X17153888Y14212145D02*
X17153888Y12810145D01*
X17113888Y14225145D02*
X17113888Y12810145D01*
X17473888Y14080145D02*
X17473888Y12810145D01*
X17793888Y10730145D02*
X17793888Y9648145D01*
X18113888Y13634145D02*
X18113888Y12810145D01*
X18153888Y13596145D02*
X18153888Y12810145D01*
X16592888Y14335145D02*
X16592888Y12810145D01*
X18193888Y13555145D02*
X18193888Y12810145D01*
X17153888Y10730145D02*
X17153888Y9328145D01*
X17873888Y13835145D02*
X17873888Y12810145D01*
X17673888Y13970145D02*
X17673888Y12810145D01*
X17233888Y10730145D02*
X17233888Y9356145D01*
X17433888Y14099145D02*
X17433888Y12810145D01*
X18433888Y10730145D02*
X18433888Y10270145D01*
X16712888Y14320145D02*
X16712888Y12810145D01*
X17753888Y10730145D02*
X17753888Y9621145D01*
X16872888Y10730145D02*
X16872888Y9250145D01*
X18793888Y12575145D02*
X18793888Y10965145D01*
X18593888Y10730145D02*
X18593888Y10519145D01*
X17313888Y10730145D02*
X17313888Y9388145D01*
X16992888Y14261145D02*
X16992888Y12810145D01*
X18073888Y13671145D02*
X18073888Y12810145D01*
X18473888Y13213145D02*
X18473888Y12810145D01*
X16672888Y14326145D02*
X16672888Y12810145D01*
X17953888Y10730145D02*
X17953888Y9766145D01*
X18932888Y11770145D02*
G75*
G03*
X18932888Y11770145I-2620000J0D01*
G01*
X42695772Y18214045D02*
X42695772Y21814045D01*
X42695772Y18214045D02*
X42695772Y16014045D01*
X35925772Y18214045D02*
X35925772Y16014045D01*
X35925772Y18214045D02*
X35925772Y20414045D01*
D14*
X42362772Y22346545D02*
G75*
G03*
X42362772Y22346545I-127000J0D01*
G01*
D13*
X10458058Y24364045D02*
X10932574Y24364045D01*
X10458058Y25409045D02*
X10932574Y25409045D01*
X43216300Y33572003D02*
X43216300Y33097487D01*
X44261300Y33572003D02*
X44261300Y33097487D01*
X110352000Y18402865D02*
X110352000Y18684025D01*
X109332000Y18402865D02*
X109332000Y18684025D01*
X13781300Y31159003D02*
X13781300Y30684487D01*
X12736300Y31159003D02*
X12736300Y30684487D01*
X1781116Y34818946D02*
X4441116Y34818946D01*
X1781116Y37418946D02*
X4441116Y37418946D01*
X1781116Y38688946D02*
X1781116Y40018946D01*
X1781116Y40018946D02*
X3111116Y40018946D01*
X1781116Y37418946D02*
X1781116Y34818946D01*
X4441116Y37418946D02*
X4441116Y34818946D01*
X88045699Y23277422D02*
X88244510Y23476233D01*
X88766948Y22556173D02*
X88965759Y22754984D01*
X101424772Y13842545D02*
X108624772Y13842545D01*
X101424772Y13842545D02*
X95524772Y13842545D01*
X101424772Y22162545D02*
X107324772Y22162545D01*
X101424772Y22162545D02*
X95524772Y22162545D01*
D14*
X109246772Y14252545D02*
G75*
G03*
X109246772Y14252545I-127000J0D01*
G01*
D13*
X109246772Y14252545D02*
G75*
G03*
X109246772Y14252545I-127000J0D01*
G01*
X113774000Y21276145D02*
X113774000Y20016145D01*
X113774000Y14456145D02*
X113774000Y15716145D01*
X119784000Y14456145D02*
X113774000Y14456145D01*
X117534000Y21276145D02*
X113774000Y21276145D01*
G36*
X99454826Y27485819D02*
G01*
X99248637Y27485819D01*
X99248637Y27890445D01*
X99454826Y27890445D01*
X99454826Y27485819D01*
G37*
G36*
X104307243Y28676444D02*
G01*
X104208025Y28676444D01*
X104208025Y27692008D01*
X104307243Y27692008D01*
X104307243Y27485819D01*
X103902617Y27485819D01*
X103902617Y27692008D01*
X104001836Y27692008D01*
X104001836Y28676444D01*
X103902617Y28676444D01*
X103902617Y28882633D01*
X104307243Y28882633D01*
X104307243Y28676444D01*
G37*
G36*
X104802562Y28084232D02*
G01*
X104897130Y27895871D01*
X104990923Y28084232D01*
X104990923Y28881083D01*
X105197112Y28881083D01*
X105197112Y28084232D01*
X105185097Y28018345D01*
X105149052Y27926102D01*
X104949840Y27485819D01*
X104843645Y27485819D01*
X104644432Y27926102D01*
X104607806Y28019120D01*
X104595598Y28084232D01*
X104595598Y28881083D01*
X104801787Y28881083D01*
X104802562Y28084232D01*
G37*
G36*
X96186809Y28485758D02*
G01*
X96385246Y28485758D01*
X96385246Y28279569D01*
X96186809Y28279569D01*
X96186809Y27692008D01*
X96385246Y27692008D01*
X96385246Y27485819D01*
X96182933Y27485819D01*
X96139525Y27501322D01*
X96093016Y27518375D01*
X96027904Y27585813D01*
X95992441Y27674761D01*
X95980620Y27788126D01*
X95980620Y28279569D01*
X95881401Y28279569D01*
X95881401Y28485758D01*
X95980620Y28485758D01*
X95980620Y28882633D01*
X96186809Y28882633D01*
X96186809Y28485758D01*
G37*
G36*
X83455803Y28390415D02*
G01*
X83703850Y28882633D01*
X83809270Y28882633D01*
X83809270Y27485819D01*
X83603081Y27485819D01*
X83603081Y28266391D01*
X83461229Y27976487D01*
X83313176Y28267167D01*
X83313176Y27485819D01*
X83106987Y27485819D01*
X83106987Y28882633D01*
X83212407Y28882633D01*
X83455803Y28390415D01*
G37*
G36*
X85888213Y28485758D02*
G01*
X86086650Y28485758D01*
X86086650Y28279569D01*
X85888213Y28279569D01*
X85888213Y27692008D01*
X86086650Y27692008D01*
X86086650Y27485819D01*
X85884337Y27485819D01*
X85840929Y27501322D01*
X85794420Y27518375D01*
X85729308Y27585813D01*
X85693845Y27674761D01*
X85682024Y27788126D01*
X85682024Y28279569D01*
X85582805Y28279569D01*
X85582805Y28485758D01*
X85682024Y28485758D01*
X85682024Y28882633D01*
X85888213Y28882633D01*
X85888213Y28485758D01*
G37*
G36*
X94798909Y28808413D02*
G01*
X94861308Y28715976D01*
X94887276Y28615014D01*
X94893865Y28478006D01*
X94687676Y28478006D01*
X94688451Y28638462D01*
X94677599Y28666367D01*
X94596983Y28680320D01*
X94546599Y28677994D01*
X94505516Y28661716D01*
X94500090Y28629935D01*
X94500090Y27738517D01*
X94517143Y27705185D01*
X94596983Y27692008D01*
X94641167Y27693558D01*
X94675273Y27707511D01*
X94681474Y27723789D01*
X94686900Y27739292D01*
X94686900Y28082682D01*
X94588457Y28082682D01*
X94588457Y28287320D01*
X94893865Y28287320D01*
X94893865Y27487369D01*
X94493114Y27488919D01*
X94431102Y27514499D01*
X94378198Y27571279D01*
X94335759Y27639298D01*
X94306691Y27716425D01*
X94297002Y27791227D01*
X94297777Y28588077D01*
X94316380Y28677219D01*
X94352812Y28763260D01*
X94406104Y28824497D01*
X94491563Y28882633D01*
X94698528Y28882633D01*
X94798909Y28808413D01*
G37*
G36*
X84115840Y27527289D02*
G01*
X84052666Y27585813D01*
X84001506Y27699759D01*
X84001506Y27782700D01*
X84197618Y27782700D01*
X84210021Y27722239D01*
X84243352Y27692008D01*
X84393730Y27692008D01*
X84393730Y27882694D01*
X84239476Y27882694D01*
X84210021Y27854013D01*
X84197618Y27782700D01*
X84001506Y27782700D01*
X84001506Y27871842D01*
X84046658Y27980362D01*
X84112352Y28054776D01*
X84198393Y28088883D01*
X84393730Y28088883D01*
X84393730Y28236161D01*
X84388304Y28269492D01*
X84342571Y28277825D01*
X84251878Y28281119D01*
X84175139Y28280344D01*
X84097624Y28278794D01*
X84097624Y28484983D01*
X84402257Y28484983D01*
X84441014Y28474906D01*
X84482097Y28464054D01*
X84541783Y28421421D01*
X84580541Y28356308D01*
X84601469Y28283445D01*
X84601469Y27485819D01*
X84201494Y27486594D01*
X84115840Y27527289D01*
G37*
G36*
X97671990Y27792002D02*
G01*
X97680516Y27760221D01*
X97689043Y27726114D01*
X97761906Y27692783D01*
X97862676Y27692783D01*
X97862676Y28484983D01*
X98068865Y28484983D01*
X98069640Y27486594D01*
X97667339Y27486594D01*
X97551842Y27544730D01*
X97499132Y27636197D01*
X97465801Y27733091D01*
X97465801Y28485758D01*
X97671990Y28485758D01*
X97671990Y27792002D01*
G37*
G36*
X103217387Y27692008D02*
G01*
X103614262Y27692008D01*
X103614262Y27485819D01*
X103011198Y27485819D01*
X103011198Y28882633D01*
X103217387Y28882633D01*
X103217387Y27692008D01*
G37*
G36*
X95493828Y28676444D02*
G01*
X95289189Y28676444D01*
X95289189Y28882633D01*
X95493828Y28882633D01*
X95493828Y28676444D01*
G37*
G36*
X82224870Y27967185D02*
G01*
X82212662Y27894902D01*
X82176036Y27803629D01*
X81926439Y27288157D01*
X81695445Y27295908D01*
X81845049Y27599765D01*
X81657463Y27823008D01*
X81630139Y27893546D01*
X81621031Y27978037D01*
X81621031Y28483432D01*
X81827220Y28483432D01*
X81827220Y27888120D01*
X82017131Y27888120D01*
X82017131Y28483432D01*
X82224870Y28484208D01*
X82224870Y27967185D01*
G37*
G36*
X87373393Y28287320D02*
G01*
X87564079Y28287320D01*
X87564079Y28882633D01*
X87770268Y28882633D01*
X87770268Y27485819D01*
X87564079Y27485819D01*
X87564079Y28081131D01*
X87373393Y28081131D01*
X87373393Y27485819D01*
X87167204Y27485819D01*
X87167204Y28882633D01*
X87373393Y28882633D01*
X87373393Y28287320D01*
G37*
G36*
X105862187Y28844457D02*
G01*
X105933501Y28784189D01*
X105966660Y28703832D01*
X105986555Y28604355D01*
X105993187Y28485758D01*
X105990474Y28421808D01*
X105982335Y28349332D01*
X105966444Y28266973D01*
X105946678Y28218332D01*
X105592436Y27692008D01*
X105983885Y27692008D01*
X105983885Y27485819D01*
X105380821Y27485819D01*
X105380821Y27689682D01*
X105593211Y28005167D01*
X105622086Y28046831D01*
X105694756Y28150119D01*
X105753861Y28239843D01*
X105786998Y28302823D01*
X105807346Y28380338D01*
X105814128Y28479557D01*
X105805214Y28555327D01*
X105778471Y28627610D01*
X105730412Y28672568D01*
X105648247Y28672568D01*
X105595537Y28650089D01*
X105576158Y28526841D01*
X105579259Y28474131D01*
X105384697Y28474906D01*
X105384697Y28564823D01*
X105396130Y28666948D01*
X105430431Y28767136D01*
X105494768Y28841550D01*
X105580034Y28877982D01*
X105784673Y28877982D01*
X105862187Y28844457D01*
G37*
G36*
X102864696Y28682645D02*
G01*
X102275584Y27489695D01*
X102169389Y27489695D01*
X102169389Y27692783D01*
X102759276Y28885733D01*
X102864696Y28885733D01*
X102864696Y28682645D01*
G37*
G36*
X81307097Y28846976D02*
G01*
X81367558Y28788065D01*
X81416393Y28695047D01*
X81432671Y28591178D01*
X81432671Y28383439D01*
X81417749Y28325496D01*
X81372984Y28233835D01*
X81321825Y28184226D01*
X81376085Y28143143D01*
X81418524Y28041599D01*
X81432671Y27978812D01*
X81432671Y27771073D01*
X81415617Y27671079D01*
X81366396Y27591820D01*
X81300896Y27519925D01*
X81231133Y27487369D01*
X80831157Y27487369D01*
X80831157Y27692008D01*
X81035796Y27692008D01*
X81134239Y27692783D01*
X81134239Y27693558D01*
X81215630Y27715262D01*
X81221056Y27737742D01*
X81226482Y27758670D01*
X81226482Y28001291D01*
X81197801Y28057877D01*
X81134239Y28081131D01*
X81035796Y28081131D01*
X81035796Y27692008D01*
X80831157Y27692008D01*
X80831157Y28287320D01*
X81035796Y28287320D01*
X81133464Y28286545D01*
X81209428Y28303598D01*
X81226482Y28391190D01*
X81226482Y28626835D01*
X81209428Y28659391D01*
X81171446Y28676444D01*
X81035796Y28676444D01*
X81035796Y28287320D01*
X80831157Y28287320D01*
X80831157Y28882633D01*
X81231133Y28882633D01*
X81307097Y28846976D01*
G37*
G36*
X89196538Y28470255D02*
G01*
X89268433Y28424715D01*
X89319786Y28348557D01*
X89355443Y28239261D01*
X89354668Y28081131D01*
X89148479Y28081131D01*
X89150029Y28181125D01*
X89141502Y28212906D01*
X89132976Y28246238D01*
X89059337Y28279569D01*
X88959343Y28279569D01*
X88959343Y27487369D01*
X88751604Y27485819D01*
X88752379Y28485758D01*
X89153905Y28485758D01*
X89196538Y28470255D01*
G37*
G36*
X85096013Y28485758D02*
G01*
X85294450Y28485758D01*
X85294450Y28279569D01*
X85096013Y28279569D01*
X85096013Y27692008D01*
X85294450Y27692008D01*
X85294450Y27485819D01*
X85092137Y27485819D01*
X85048729Y27501322D01*
X85002220Y27518375D01*
X84937108Y27585813D01*
X84901645Y27674761D01*
X84889824Y27788126D01*
X84889824Y28279569D01*
X84790605Y28279569D01*
X84790605Y28485758D01*
X84889824Y28485758D01*
X84889824Y28882633D01*
X85096013Y28882633D01*
X85096013Y28485758D01*
G37*
G36*
X101681822Y28249338D02*
G01*
X101825224Y28485758D01*
X101893437Y28485758D01*
X101951186Y28435180D01*
X101997307Y28376462D01*
X102021724Y28295266D01*
X102029863Y28236161D01*
X102029863Y27485819D01*
X101823674Y27485819D01*
X101823674Y28068729D01*
X101730656Y27882694D01*
X101626787Y27882694D01*
X101533769Y28068729D01*
X101533769Y27485819D01*
X101327580Y27485819D01*
X101327580Y28485758D01*
X101532219Y28485758D01*
X101681822Y28249338D01*
G37*
G36*
X100346245Y28279569D02*
G01*
X100050139Y28279569D01*
X100050139Y27693558D01*
X100346245Y27692008D01*
X100346245Y27485819D01*
X100046263Y27489695D01*
X99981151Y27510624D01*
X99915263Y27547055D01*
X99860616Y27623795D01*
X99842400Y27688132D01*
X99842400Y28283445D01*
X99859259Y28360765D01*
X99909837Y28431498D01*
X99976500Y28472580D01*
X100043938Y28479557D01*
X100346245Y28485758D01*
X100346245Y28279569D01*
G37*
G36*
X90542192Y27792002D02*
G01*
X90550719Y27760221D01*
X90559245Y27726114D01*
X90632109Y27692783D01*
X90732878Y27692783D01*
X90732878Y28484983D01*
X90939067Y28484983D01*
X90939842Y27486594D01*
X90537541Y27486594D01*
X90422044Y27544730D01*
X90369334Y27636197D01*
X90336003Y27733091D01*
X90336003Y28485758D01*
X90542192Y28485758D01*
X90542192Y27792002D01*
G37*
G36*
X93315666Y28287320D02*
G01*
X93315666Y28081131D01*
X92712602Y28081907D01*
X92712602Y28288096D01*
X93315666Y28287320D01*
G37*
G36*
X88076839Y27527289D02*
G01*
X88013664Y27585813D01*
X87962505Y27699759D01*
X87962505Y27782700D01*
X88158617Y27782700D01*
X88171019Y27722239D01*
X88204350Y27692008D01*
X88354729Y27692008D01*
X88354729Y27882694D01*
X88200475Y27882694D01*
X88171019Y27854013D01*
X88158617Y27782700D01*
X87962505Y27782700D01*
X87962505Y27871842D01*
X88007657Y27980362D01*
X88073351Y28054776D01*
X88159392Y28088883D01*
X88354729Y28088883D01*
X88354729Y28236161D01*
X88349303Y28269492D01*
X88303569Y28277825D01*
X88212877Y28281119D01*
X88136137Y28280344D01*
X88058623Y28278794D01*
X88058623Y28484983D01*
X88363255Y28484983D01*
X88402013Y28474906D01*
X88443095Y28464054D01*
X88502782Y28421421D01*
X88541539Y28356308D01*
X88562468Y28283445D01*
X88562468Y27485819D01*
X88162492Y27486594D01*
X88076839Y27527289D01*
G37*
G36*
X96880565Y28485758D02*
G01*
X97075127Y28485758D01*
X97191399Y28427622D01*
X97243333Y28336155D01*
X97276665Y28238486D01*
X97276665Y27485819D01*
X97070476Y27485819D01*
X97071251Y28180350D01*
X97062724Y28212131D01*
X97054198Y28245462D01*
X96980559Y28279569D01*
X96880565Y28279569D01*
X96880565Y27486594D01*
X96674376Y27486594D01*
X96674376Y28882633D01*
X96880565Y28882633D01*
X96880565Y28485758D01*
G37*
G36*
X89948430Y27692008D02*
G01*
X90042223Y27695108D01*
X90042223Y27489695D01*
X89926726Y27486594D01*
X89854207Y27525954D01*
X89795812Y27589258D01*
X89751543Y27676505D01*
X89743791Y27776499D01*
X89742241Y28882633D01*
X89948430Y28882633D01*
X89948430Y27692008D01*
G37*
G36*
X91383226Y28249338D02*
G01*
X91526628Y28485758D01*
X91594841Y28485758D01*
X91652589Y28435180D01*
X91698711Y28376462D01*
X91723128Y28295266D01*
X91731267Y28236161D01*
X91731267Y27485819D01*
X91525078Y27485819D01*
X91525078Y28068729D01*
X91432060Y27882694D01*
X91328191Y27882694D01*
X91235173Y28068729D01*
X91235173Y27485819D01*
X91028984Y27485819D01*
X91028984Y28485758D01*
X91233623Y28485758D01*
X91383226Y28249338D01*
G37*
G36*
X101216562Y27645844D02*
G01*
X101150933Y27557477D01*
X101041551Y27487369D01*
X100848540Y27487369D01*
X100761723Y27523801D01*
X100703587Y27590464D01*
X100660954Y27671079D01*
X100656039Y27692008D01*
X100840788Y27692008D01*
X101031474Y27692008D01*
X101033025Y28279569D01*
X100842339Y28279569D01*
X100840788Y27692008D01*
X100656039Y27692008D01*
X100636925Y27773398D01*
X100636925Y28195078D01*
X100648746Y28287320D01*
X100684209Y28385764D01*
X100750871Y28451651D01*
X100837688Y28485758D01*
X101018297Y28485758D01*
X101116740Y28446225D01*
X101177589Y28386152D01*
X101223711Y28309024D01*
X101237663Y28206705D01*
X101238438Y27752469D01*
X101216562Y27645844D01*
G37*
G36*
X98464964Y28485758D02*
G01*
X98659526Y28485758D01*
X98775798Y28427622D01*
X98830833Y28336155D01*
X98862615Y28220658D01*
X98862615Y27743168D01*
X98847112Y27682706D01*
X98830058Y27617594D01*
X98757195Y27537754D01*
X98659526Y27485819D01*
X98258775Y27485819D01*
X98258775Y27692008D01*
X98464964Y27692008D01*
X98602940Y27692783D01*
X98670378Y27728440D01*
X98667278Y28190427D01*
X98654100Y28243137D01*
X98611467Y28284220D01*
X98464964Y28279569D01*
X98464964Y27692008D01*
X98258775Y27692008D01*
X98258775Y28882633D01*
X98464964Y28882633D01*
X98464964Y28485758D01*
G37*
G36*
X95493828Y27692008D02*
G01*
X95587621Y27695108D01*
X95587621Y27489695D01*
X95472124Y27486594D01*
X95399605Y27525954D01*
X95341210Y27589258D01*
X95296941Y27676505D01*
X95289189Y27776499D01*
X95289189Y28485758D01*
X95493828Y28485758D01*
X95493828Y27692008D01*
G37*
X76064430Y24719364D02*
X75865619Y24918175D01*
X75343181Y23998115D02*
X75144370Y24196926D01*
X31122392Y15861545D02*
X31403552Y15861545D01*
X31122392Y14841545D02*
X31403552Y14841545D01*
X61089372Y33219945D02*
X61089372Y33869945D01*
X64209372Y33219945D02*
X64209372Y34894945D01*
X61089372Y33219945D02*
X61089372Y32569945D01*
X64209372Y33219945D02*
X64209372Y32569945D01*
X49387772Y18214045D02*
X49387772Y20414045D01*
X56157772Y18214045D02*
X56157772Y21814045D01*
X56157772Y18214045D02*
X56157772Y16014045D01*
X49387772Y18214045D02*
X49387772Y16014045D01*
X55824772Y22346545D02*
G75*
G03*
X55824772Y22346545I-127000J0D01*
G01*
D14*
X55824772Y22346545D02*
G75*
G03*
X55824772Y22346545I-127000J0D01*
G01*
D13*
X127364800Y37418946D02*
X124704800Y37418946D01*
X127364800Y37418946D02*
X127364800Y40018946D01*
X124704800Y37418946D02*
X124704800Y40018946D01*
X127364800Y34818946D02*
X126034800Y34818946D01*
X127364800Y40018946D02*
X124704800Y40018946D01*
X127364800Y36148946D02*
X127364800Y34818946D01*
G36*
X6006042Y28005164D02*
G01*
X5609167Y28005164D01*
X5609167Y27616040D01*
X5807604Y27616040D01*
X5807604Y27409852D01*
X5609167Y27409852D01*
X5609167Y27020728D01*
X6006042Y27020728D01*
X6006042Y26816089D01*
X5402978Y26816089D01*
X5402978Y28211353D01*
X6006042Y28211353D01*
X6006042Y28005164D01*
G37*
G36*
X4816967Y27020728D02*
G01*
X5213842Y27020728D01*
X5213842Y26814539D01*
X4610778Y26814539D01*
X4610778Y28211353D01*
X4816967Y28211353D01*
X4816967Y27020728D01*
G37*
G36*
X6781576Y27211995D02*
G01*
X6743206Y27115296D01*
X6702317Y27026154D01*
X6669567Y26964917D01*
X6600149Y26881805D01*
X6509715Y26831937D01*
X6398266Y26815314D01*
X6195953Y26815314D01*
X6195953Y27023053D01*
X6402142Y27023053D01*
X6488764Y27066074D01*
X6537792Y27123822D01*
X6568798Y27212964D01*
X6590502Y27299781D01*
X6590502Y27718360D01*
X6566473Y27803626D01*
X6534692Y27893543D01*
X6486439Y27953811D01*
X6402142Y28001288D01*
X6402142Y27023053D01*
X6195953Y27023053D01*
X6195953Y28211353D01*
X6398266Y28211353D01*
X6508595Y28194644D01*
X6598771Y28144518D01*
X6668792Y28060975D01*
X6702123Y27998963D01*
X6743206Y27910596D01*
X6781576Y27814090D01*
X6794366Y27757117D01*
X6794366Y27269550D01*
X6781576Y27211995D01*
G37*
X73859740Y13985004D02*
X73660929Y13786193D01*
X73138491Y14706253D02*
X72939680Y14507442D01*
X88131948Y13226913D02*
X88330759Y13028102D01*
X87410699Y12505664D02*
X87609510Y12306853D01*
G36*
X5904330Y14525832D02*
G01*
X5992696Y14476222D01*
X6034554Y14375453D01*
X6040755Y14153761D01*
X6031454Y13951448D01*
X6003548Y13821999D01*
X5918282Y13747585D01*
X5626827Y13749135D01*
X5626827Y14527382D01*
X5904330Y14525832D01*
G37*
G36*
X7529037Y14508779D02*
G01*
X7567794Y14499477D01*
X7578646Y14465370D01*
X7589498Y14432814D01*
X7591048Y12608119D01*
X7580196Y12580214D01*
X7524386Y12558510D01*
X7277889Y12558510D01*
X7229830Y12580214D01*
X7218978Y12612770D01*
X7208126Y12642226D01*
X7208126Y14423512D01*
X7218978Y14460719D01*
X7229830Y14499477D01*
X7259286Y14508779D01*
X7287191Y14516530D01*
X7491830Y14516530D01*
X7529037Y14508779D01*
G37*
G36*
X1593309Y13542946D02*
G01*
X2965491Y15601218D01*
X13213617Y15601218D01*
X11841435Y13542946D01*
X13213617Y11484674D01*
X2965491Y11484674D01*
X2522451Y12149233D01*
X3626949Y12149233D01*
X4039327Y12146132D01*
X5214449Y12146132D01*
X5626827Y12146132D01*
X5626827Y13336757D01*
X5719845Y13336757D01*
X5874874Y13017397D01*
X5956652Y12806557D01*
X6000448Y12595717D01*
X6010137Y12412782D01*
X6005099Y12146132D01*
X6417477Y12146132D01*
X8181710Y12146132D01*
X8594088Y12146132D01*
X8594088Y13870058D01*
X9173898Y12710439D01*
X9173898Y12146132D01*
X9586276Y12146132D01*
X9586276Y14527382D01*
X9972298Y14527382D01*
X10362972Y14527382D01*
X10361422Y12146132D01*
X10773800Y12146132D01*
X10775350Y14527382D01*
X11172225Y14527382D01*
X11179977Y14939760D01*
X9973849Y14939760D01*
X9972298Y14527382D01*
X9586276Y14527382D01*
X9586276Y14939760D01*
X9173898Y14939760D01*
X9173898Y13563100D01*
X8496420Y14939760D01*
X8181710Y14939760D01*
X8181710Y12146132D01*
X6417477Y12146132D01*
X6417477Y12601918D01*
X6414893Y12622072D01*
X6795748Y12622072D01*
X6841482Y12474794D01*
X6913570Y12332167D01*
X7008526Y12229073D01*
X7122860Y12158534D01*
X7691817Y12158534D01*
X7849560Y12286434D01*
X7969320Y12521303D01*
X7998776Y12606569D01*
X7998776Y14477773D01*
X7935213Y14707216D01*
X7786385Y14894801D01*
X7670113Y14939760D01*
X7088754Y14939760D01*
X6986434Y14890151D01*
X6870162Y14764577D01*
X6814352Y14602571D01*
X6795748Y14466921D01*
X6795748Y12622072D01*
X6414893Y12622072D01*
X6394222Y12783302D01*
X6310506Y12950734D01*
X6209350Y13185603D01*
X6138424Y13353810D01*
X6261285Y13473958D01*
X6353915Y13635964D01*
X6394222Y13789443D01*
X6415926Y13866957D01*
X6417477Y14425063D01*
X6352364Y14676210D01*
X6206637Y14835890D01*
X6011300Y14939760D01*
X5214449Y14939760D01*
X5214449Y12146132D01*
X4039327Y12146132D01*
X4039327Y13336757D01*
X4436202Y13336757D01*
X4436202Y13749135D01*
X4039327Y13749135D01*
X4039327Y14527382D01*
X4833077Y14527382D01*
X4833077Y14939760D01*
X3626949Y14939760D01*
X3626949Y12149233D01*
X2522451Y12149233D01*
X1593309Y13542946D01*
G37*
X44584392Y14841545D02*
X44865552Y14841545D01*
X44584392Y15861545D02*
X44865552Y15861545D01*
%LPC*%
G36*
X130670000Y-1133555D02*
G01*
X-1410000Y-1133555D01*
X-1410000Y7756445D01*
X130670000Y7756445D01*
X130670000Y-1133555D01*
G37*
D11*
X130670000Y-1133555D02*
X-1410000Y-1133555D01*
X-1410000Y7756445D01*
X130670000Y7756445D01*
X130670000Y-1133555D01*
D15*
X6936116Y24886545D03*
D16*
X4396116Y24886545D03*
G36*
G01*
X58665972Y34559745D02*
X59215972Y34559745D01*
G75*
G02*
X59415972Y34359745I0J-200000D01*
G01*
X59415972Y33959745D01*
G75*
G02*
X59215972Y33759745I-200000J0D01*
G01*
X58665972Y33759745D01*
G75*
G02*
X58465972Y33959745I0J200000D01*
G01*
X58465972Y34359745D01*
G75*
G02*
X58665972Y34559745I200000J0D01*
G01*
G37*
G36*
G01*
X58665972Y32909745D02*
X59215972Y32909745D01*
G75*
G02*
X59415972Y32709745I0J-200000D01*
G01*
X59415972Y32309745D01*
G75*
G02*
X59215972Y32109745I-200000J0D01*
G01*
X58665972Y32109745D01*
G75*
G02*
X58465972Y32309745I0J200000D01*
G01*
X58465972Y32709745D01*
G75*
G02*
X58665972Y32909745I200000J0D01*
G01*
G37*
G36*
G01*
X111858400Y22042145D02*
X111858400Y23342145D01*
G75*
G02*
X112108400Y23592145I250000J0D01*
G01*
X112933400Y23592145D01*
G75*
G02*
X113183400Y23342145I0J-250000D01*
G01*
X113183400Y22042145D01*
G75*
G02*
X112933400Y21792145I-250000J0D01*
G01*
X112108400Y21792145D01*
G75*
G02*
X111858400Y22042145I0J250000D01*
G01*
G37*
G36*
G01*
X114983400Y22042145D02*
X114983400Y23342145D01*
G75*
G02*
X115233400Y23592145I250000J0D01*
G01*
X116058400Y23592145D01*
G75*
G02*
X116308400Y23342145I0J-250000D01*
G01*
X116308400Y22042145D01*
G75*
G02*
X116058400Y21792145I-250000J0D01*
G01*
X115233400Y21792145D01*
G75*
G02*
X114983400Y22042145I0J250000D01*
G01*
G37*
G36*
G01*
X48543800Y34559745D02*
X49093800Y34559745D01*
G75*
G02*
X49293800Y34359745I0J-200000D01*
G01*
X49293800Y33959745D01*
G75*
G02*
X49093800Y33759745I-200000J0D01*
G01*
X48543800Y33759745D01*
G75*
G02*
X48343800Y33959745I0J200000D01*
G01*
X48343800Y34359745D01*
G75*
G02*
X48543800Y34559745I200000J0D01*
G01*
G37*
G36*
G01*
X48543800Y32909745D02*
X49093800Y32909745D01*
G75*
G02*
X49293800Y32709745I0J-200000D01*
G01*
X49293800Y32309745D01*
G75*
G02*
X49093800Y32109745I-200000J0D01*
G01*
X48543800Y32109745D01*
G75*
G02*
X48343800Y32309745I0J200000D01*
G01*
X48343800Y32709745D01*
G75*
G02*
X48543800Y32909745I200000J0D01*
G01*
G37*
G36*
G01*
X56675972Y32109745D02*
X56125972Y32109745D01*
G75*
G02*
X55925972Y32309745I0J200000D01*
G01*
X55925972Y32709745D01*
G75*
G02*
X56125972Y32909745I200000J0D01*
G01*
X56675972Y32909745D01*
G75*
G02*
X56875972Y32709745I0J-200000D01*
G01*
X56875972Y32309745D01*
G75*
G02*
X56675972Y32109745I-200000J0D01*
G01*
G37*
G36*
G01*
X56675972Y33759745D02*
X56125972Y33759745D01*
G75*
G02*
X55925972Y33959745I0J200000D01*
G01*
X55925972Y34359745D01*
G75*
G02*
X56125972Y34559745I200000J0D01*
G01*
X56675972Y34559745D01*
G75*
G02*
X56875972Y34359745I0J-200000D01*
G01*
X56875972Y33959745D01*
G75*
G02*
X56675972Y33759745I-200000J0D01*
G01*
G37*
D15*
X3126116Y30052946D03*
D16*
X5666116Y30052946D03*
X8206116Y30052946D03*
G36*
G01*
X56961972Y15101545D02*
X56961972Y15601545D01*
G75*
G02*
X57186972Y15826545I225000J0D01*
G01*
X57636972Y15826545D01*
G75*
G02*
X57861972Y15601545I0J-225000D01*
G01*
X57861972Y15101545D01*
G75*
G02*
X57636972Y14876545I-225000J0D01*
G01*
X57186972Y14876545D01*
G75*
G02*
X56961972Y15101545I0J225000D01*
G01*
G37*
G36*
G01*
X58511972Y15101545D02*
X58511972Y15601545D01*
G75*
G02*
X58736972Y15826545I225000J0D01*
G01*
X59186972Y15826545D01*
G75*
G02*
X59411972Y15601545I0J-225000D01*
G01*
X59411972Y15101545D01*
G75*
G02*
X59186972Y14876545I-225000J0D01*
G01*
X58736972Y14876545D01*
G75*
G02*
X58511972Y15101545I0J225000D01*
G01*
G37*
G36*
G01*
X11280972Y35785845D02*
X10080972Y35785845D01*
G75*
G02*
X9830972Y36035845I0J250000D01*
G01*
X9830972Y37235845D01*
G75*
G02*
X10080972Y37485845I250000J0D01*
G01*
X11280972Y37485845D01*
G75*
G02*
X11530972Y37235845I0J-250000D01*
G01*
X11530972Y36035845D01*
G75*
G02*
X11280972Y35785845I-250000J0D01*
G01*
G37*
D17*
X10680972Y39175845D03*
X13220972Y36635845D03*
X13220972Y39175845D03*
X15760972Y36635845D03*
X15760972Y39175845D03*
X18300972Y36635845D03*
X18300972Y39175845D03*
X20840972Y36635845D03*
X20840972Y39175845D03*
X23380972Y36635845D03*
X23380972Y39175845D03*
X25920972Y36635845D03*
X25920972Y39175845D03*
X28460972Y36635845D03*
X28460972Y39175845D03*
X31000972Y36635845D03*
X31000972Y39175845D03*
X33540972Y36635845D03*
X33540972Y39175845D03*
X36080972Y36635845D03*
X36080972Y39175845D03*
X38620972Y36635845D03*
X38620972Y39175845D03*
X41160972Y36635845D03*
X41160972Y39175845D03*
X43700972Y36635845D03*
X43700972Y39175845D03*
X46240972Y36635845D03*
X46240972Y39175845D03*
X48780972Y36635845D03*
X48780972Y39175845D03*
X51320972Y36635845D03*
X51320972Y39175845D03*
X53860972Y36635845D03*
X53860972Y39175845D03*
X56400972Y36635845D03*
X56400972Y39175845D03*
X58940972Y36635845D03*
X58940972Y39175845D03*
G36*
G01*
X111367722Y11176345D02*
X111880222Y11176345D01*
G75*
G02*
X112098972Y10957595I0J-218750D01*
G01*
X112098972Y10520095D01*
G75*
G02*
X111880222Y10301345I-218750J0D01*
G01*
X111367722Y10301345D01*
G75*
G02*
X111148972Y10520095I0J218750D01*
G01*
X111148972Y10957595D01*
G75*
G02*
X111367722Y11176345I218750J0D01*
G01*
G37*
G36*
G01*
X111367722Y9601345D02*
X111880222Y9601345D01*
G75*
G02*
X112098972Y9382595I0J-218750D01*
G01*
X112098972Y8945095D01*
G75*
G02*
X111880222Y8726345I-218750J0D01*
G01*
X111367722Y8726345D01*
G75*
G02*
X111148972Y8945095I0J218750D01*
G01*
X111148972Y9382595D01*
G75*
G02*
X111367722Y9601345I218750J0D01*
G01*
G37*
G36*
G01*
X118270800Y34559745D02*
X118820800Y34559745D01*
G75*
G02*
X119020800Y34359745I0J-200000D01*
G01*
X119020800Y33959745D01*
G75*
G02*
X118820800Y33759745I-200000J0D01*
G01*
X118270800Y33759745D01*
G75*
G02*
X118070800Y33959745I0J200000D01*
G01*
X118070800Y34359745D01*
G75*
G02*
X118270800Y34559745I200000J0D01*
G01*
G37*
G36*
G01*
X118270800Y32909745D02*
X118820800Y32909745D01*
G75*
G02*
X119020800Y32709745I0J-200000D01*
G01*
X119020800Y32309745D01*
G75*
G02*
X118820800Y32109745I-200000J0D01*
G01*
X118270800Y32109745D01*
G75*
G02*
X118070800Y32309745I0J200000D01*
G01*
X118070800Y32709745D01*
G75*
G02*
X118270800Y32909745I200000J0D01*
G01*
G37*
G36*
G01*
X15523800Y32146745D02*
X16073800Y32146745D01*
G75*
G02*
X16273800Y31946745I0J-200000D01*
G01*
X16273800Y31546745D01*
G75*
G02*
X16073800Y31346745I-200000J0D01*
G01*
X15523800Y31346745D01*
G75*
G02*
X15323800Y31546745I0J200000D01*
G01*
X15323800Y31946745D01*
G75*
G02*
X15523800Y32146745I200000J0D01*
G01*
G37*
G36*
G01*
X15523800Y30496745D02*
X16073800Y30496745D01*
G75*
G02*
X16273800Y30296745I0J-200000D01*
G01*
X16273800Y29896745D01*
G75*
G02*
X16073800Y29696745I-200000J0D01*
G01*
X15523800Y29696745D01*
G75*
G02*
X15323800Y29896745I0J200000D01*
G01*
X15323800Y30296745D01*
G75*
G02*
X15523800Y30496745I200000J0D01*
G01*
G37*
G36*
G01*
X108110800Y34559745D02*
X108660800Y34559745D01*
G75*
G02*
X108860800Y34359745I0J-200000D01*
G01*
X108860800Y33959745D01*
G75*
G02*
X108660800Y33759745I-200000J0D01*
G01*
X108110800Y33759745D01*
G75*
G02*
X107910800Y33959745I0J200000D01*
G01*
X107910800Y34359745D01*
G75*
G02*
X108110800Y34559745I200000J0D01*
G01*
G37*
G36*
G01*
X108110800Y32909745D02*
X108660800Y32909745D01*
G75*
G02*
X108860800Y32709745I0J-200000D01*
G01*
X108860800Y32309745D01*
G75*
G02*
X108660800Y32109745I-200000J0D01*
G01*
X108110800Y32109745D01*
G75*
G02*
X107910800Y32309745I0J200000D01*
G01*
X107910800Y32709745D01*
G75*
G02*
X108110800Y32909745I200000J0D01*
G01*
G37*
G36*
G01*
X70885800Y35785845D02*
X69685800Y35785845D01*
G75*
G02*
X69435800Y36035845I0J250000D01*
G01*
X69435800Y37235845D01*
G75*
G02*
X69685800Y37485845I250000J0D01*
G01*
X70885800Y37485845D01*
G75*
G02*
X71135800Y37235845I0J-250000D01*
G01*
X71135800Y36035845D01*
G75*
G02*
X70885800Y35785845I-250000J0D01*
G01*
G37*
X70285800Y39175845D03*
X72825800Y36635845D03*
X72825800Y39175845D03*
X75365800Y36635845D03*
X75365800Y39175845D03*
X77905800Y36635845D03*
X77905800Y39175845D03*
X80445800Y36635845D03*
X80445800Y39175845D03*
X82985800Y36635845D03*
X82985800Y39175845D03*
X85525800Y36635845D03*
X85525800Y39175845D03*
X88065800Y36635845D03*
X88065800Y39175845D03*
X90605800Y36635845D03*
X90605800Y39175845D03*
X93145800Y36635845D03*
X93145800Y39175845D03*
X95685800Y36635845D03*
X95685800Y39175845D03*
X98225800Y36635845D03*
X98225800Y39175845D03*
X100765800Y36635845D03*
X100765800Y39175845D03*
X103305800Y36635845D03*
X103305800Y39175845D03*
X105845800Y36635845D03*
X105845800Y39175845D03*
X108385800Y36635845D03*
X108385800Y39175845D03*
X110925800Y36635845D03*
X110925800Y39175845D03*
X113465800Y36635845D03*
X113465800Y39175845D03*
X116005800Y36635845D03*
X116005800Y39175845D03*
X118545800Y36635845D03*
X118545800Y39175845D03*
G36*
G01*
X37475572Y8831495D02*
X37475572Y9343995D01*
G75*
G02*
X37694322Y9562745I218750J0D01*
G01*
X38131822Y9562745D01*
G75*
G02*
X38350572Y9343995I0J-218750D01*
G01*
X38350572Y8831495D01*
G75*
G02*
X38131822Y8612745I-218750J0D01*
G01*
X37694322Y8612745D01*
G75*
G02*
X37475572Y8831495I0J218750D01*
G01*
G37*
G36*
G01*
X39050572Y8831495D02*
X39050572Y9343995D01*
G75*
G02*
X39269322Y9562745I218750J0D01*
G01*
X39706822Y9562745D01*
G75*
G02*
X39925572Y9343995I0J-218750D01*
G01*
X39925572Y8831495D01*
G75*
G02*
X39706822Y8612745I-218750J0D01*
G01*
X39269322Y8612745D01*
G75*
G02*
X39050572Y8831495I0J218750D01*
G01*
G37*
G36*
G01*
X28673772Y21814045D02*
X28873772Y21814045D01*
G75*
G02*
X28973772Y21714045I0J-100000D01*
G01*
X28973772Y20439045D01*
G75*
G02*
X28873772Y20339045I-100000J0D01*
G01*
X28673772Y20339045D01*
G75*
G02*
X28573772Y20439045I0J100000D01*
G01*
X28573772Y21714045D01*
G75*
G02*
X28673772Y21814045I100000J0D01*
G01*
G37*
G36*
G01*
X28023772Y21814045D02*
X28223772Y21814045D01*
G75*
G02*
X28323772Y21714045I0J-100000D01*
G01*
X28323772Y20439045D01*
G75*
G02*
X28223772Y20339045I-100000J0D01*
G01*
X28023772Y20339045D01*
G75*
G02*
X27923772Y20439045I0J100000D01*
G01*
X27923772Y21714045D01*
G75*
G02*
X28023772Y21814045I100000J0D01*
G01*
G37*
G36*
G01*
X27373772Y21814045D02*
X27573772Y21814045D01*
G75*
G02*
X27673772Y21714045I0J-100000D01*
G01*
X27673772Y20439045D01*
G75*
G02*
X27573772Y20339045I-100000J0D01*
G01*
X27373772Y20339045D01*
G75*
G02*
X27273772Y20439045I0J100000D01*
G01*
X27273772Y21714045D01*
G75*
G02*
X27373772Y21814045I100000J0D01*
G01*
G37*
G36*
G01*
X26723772Y21814045D02*
X26923772Y21814045D01*
G75*
G02*
X27023772Y21714045I0J-100000D01*
G01*
X27023772Y20439045D01*
G75*
G02*
X26923772Y20339045I-100000J0D01*
G01*
X26723772Y20339045D01*
G75*
G02*
X26623772Y20439045I0J100000D01*
G01*
X26623772Y21714045D01*
G75*
G02*
X26723772Y21814045I100000J0D01*
G01*
G37*
G36*
G01*
X26073772Y21814045D02*
X26273772Y21814045D01*
G75*
G02*
X26373772Y21714045I0J-100000D01*
G01*
X26373772Y20439045D01*
G75*
G02*
X26273772Y20339045I-100000J0D01*
G01*
X26073772Y20339045D01*
G75*
G02*
X25973772Y20439045I0J100000D01*
G01*
X25973772Y21714045D01*
G75*
G02*
X26073772Y21814045I100000J0D01*
G01*
G37*
G36*
G01*
X25423772Y21814045D02*
X25623772Y21814045D01*
G75*
G02*
X25723772Y21714045I0J-100000D01*
G01*
X25723772Y20439045D01*
G75*
G02*
X25623772Y20339045I-100000J0D01*
G01*
X25423772Y20339045D01*
G75*
G02*
X25323772Y20439045I0J100000D01*
G01*
X25323772Y21714045D01*
G75*
G02*
X25423772Y21814045I100000J0D01*
G01*
G37*
G36*
G01*
X24773772Y21814045D02*
X24973772Y21814045D01*
G75*
G02*
X25073772Y21714045I0J-100000D01*
G01*
X25073772Y20439045D01*
G75*
G02*
X24973772Y20339045I-100000J0D01*
G01*
X24773772Y20339045D01*
G75*
G02*
X24673772Y20439045I0J100000D01*
G01*
X24673772Y21714045D01*
G75*
G02*
X24773772Y21814045I100000J0D01*
G01*
G37*
G36*
G01*
X24123772Y21814045D02*
X24323772Y21814045D01*
G75*
G02*
X24423772Y21714045I0J-100000D01*
G01*
X24423772Y20439045D01*
G75*
G02*
X24323772Y20339045I-100000J0D01*
G01*
X24123772Y20339045D01*
G75*
G02*
X24023772Y20439045I0J100000D01*
G01*
X24023772Y21714045D01*
G75*
G02*
X24123772Y21814045I100000J0D01*
G01*
G37*
G36*
G01*
X23473772Y21814045D02*
X23673772Y21814045D01*
G75*
G02*
X23773772Y21714045I0J-100000D01*
G01*
X23773772Y20439045D01*
G75*
G02*
X23673772Y20339045I-100000J0D01*
G01*
X23473772Y20339045D01*
G75*
G02*
X23373772Y20439045I0J100000D01*
G01*
X23373772Y21714045D01*
G75*
G02*
X23473772Y21814045I100000J0D01*
G01*
G37*
G36*
G01*
X22823772Y21814045D02*
X23023772Y21814045D01*
G75*
G02*
X23123772Y21714045I0J-100000D01*
G01*
X23123772Y20439045D01*
G75*
G02*
X23023772Y20339045I-100000J0D01*
G01*
X22823772Y20339045D01*
G75*
G02*
X22723772Y20439045I0J100000D01*
G01*
X22723772Y21714045D01*
G75*
G02*
X22823772Y21814045I100000J0D01*
G01*
G37*
G36*
G01*
X22823772Y16089045D02*
X23023772Y16089045D01*
G75*
G02*
X23123772Y15989045I0J-100000D01*
G01*
X23123772Y14714045D01*
G75*
G02*
X23023772Y14614045I-100000J0D01*
G01*
X22823772Y14614045D01*
G75*
G02*
X22723772Y14714045I0J100000D01*
G01*
X22723772Y15989045D01*
G75*
G02*
X22823772Y16089045I100000J0D01*
G01*
G37*
G36*
G01*
X23473772Y16089045D02*
X23673772Y16089045D01*
G75*
G02*
X23773772Y15989045I0J-100000D01*
G01*
X23773772Y14714045D01*
G75*
G02*
X23673772Y14614045I-100000J0D01*
G01*
X23473772Y14614045D01*
G75*
G02*
X23373772Y14714045I0J100000D01*
G01*
X23373772Y15989045D01*
G75*
G02*
X23473772Y16089045I100000J0D01*
G01*
G37*
G36*
G01*
X24123772Y16089045D02*
X24323772Y16089045D01*
G75*
G02*
X24423772Y15989045I0J-100000D01*
G01*
X24423772Y14714045D01*
G75*
G02*
X24323772Y14614045I-100000J0D01*
G01*
X24123772Y14614045D01*
G75*
G02*
X24023772Y14714045I0J100000D01*
G01*
X24023772Y15989045D01*
G75*
G02*
X24123772Y16089045I100000J0D01*
G01*
G37*
G36*
G01*
X24773772Y16089045D02*
X24973772Y16089045D01*
G75*
G02*
X25073772Y15989045I0J-100000D01*
G01*
X25073772Y14714045D01*
G75*
G02*
X24973772Y14614045I-100000J0D01*
G01*
X24773772Y14614045D01*
G75*
G02*
X24673772Y14714045I0J100000D01*
G01*
X24673772Y15989045D01*
G75*
G02*
X24773772Y16089045I100000J0D01*
G01*
G37*
G36*
G01*
X25423772Y16089045D02*
X25623772Y16089045D01*
G75*
G02*
X25723772Y15989045I0J-100000D01*
G01*
X25723772Y14714045D01*
G75*
G02*
X25623772Y14614045I-100000J0D01*
G01*
X25423772Y14614045D01*
G75*
G02*
X25323772Y14714045I0J100000D01*
G01*
X25323772Y15989045D01*
G75*
G02*
X25423772Y16089045I100000J0D01*
G01*
G37*
G36*
G01*
X26073772Y16089045D02*
X26273772Y16089045D01*
G75*
G02*
X26373772Y15989045I0J-100000D01*
G01*
X26373772Y14714045D01*
G75*
G02*
X26273772Y14614045I-100000J0D01*
G01*
X26073772Y14614045D01*
G75*
G02*
X25973772Y14714045I0J100000D01*
G01*
X25973772Y15989045D01*
G75*
G02*
X26073772Y16089045I100000J0D01*
G01*
G37*
G36*
G01*
X26723772Y16089045D02*
X26923772Y16089045D01*
G75*
G02*
X27023772Y15989045I0J-100000D01*
G01*
X27023772Y14714045D01*
G75*
G02*
X26923772Y14614045I-100000J0D01*
G01*
X26723772Y14614045D01*
G75*
G02*
X26623772Y14714045I0J100000D01*
G01*
X26623772Y15989045D01*
G75*
G02*
X26723772Y16089045I100000J0D01*
G01*
G37*
G36*
G01*
X27373772Y16089045D02*
X27573772Y16089045D01*
G75*
G02*
X27673772Y15989045I0J-100000D01*
G01*
X27673772Y14714045D01*
G75*
G02*
X27573772Y14614045I-100000J0D01*
G01*
X27373772Y14614045D01*
G75*
G02*
X27273772Y14714045I0J100000D01*
G01*
X27273772Y15989045D01*
G75*
G02*
X27373772Y16089045I100000J0D01*
G01*
G37*
G36*
G01*
X28023772Y16089045D02*
X28223772Y16089045D01*
G75*
G02*
X28323772Y15989045I0J-100000D01*
G01*
X28323772Y14714045D01*
G75*
G02*
X28223772Y14614045I-100000J0D01*
G01*
X28023772Y14614045D01*
G75*
G02*
X27923772Y14714045I0J100000D01*
G01*
X27923772Y15989045D01*
G75*
G02*
X28023772Y16089045I100000J0D01*
G01*
G37*
G36*
G01*
X28673772Y16089045D02*
X28873772Y16089045D01*
G75*
G02*
X28973772Y15989045I0J-100000D01*
G01*
X28973772Y14714045D01*
G75*
G02*
X28873772Y14614045I-100000J0D01*
G01*
X28673772Y14614045D01*
G75*
G02*
X28573772Y14714045I0J100000D01*
G01*
X28573772Y15989045D01*
G75*
G02*
X28673772Y16089045I100000J0D01*
G01*
G37*
G36*
G01*
X115730800Y34559745D02*
X116280800Y34559745D01*
G75*
G02*
X116480800Y34359745I0J-200000D01*
G01*
X116480800Y33959745D01*
G75*
G02*
X116280800Y33759745I-200000J0D01*
G01*
X115730800Y33759745D01*
G75*
G02*
X115530800Y33959745I0J200000D01*
G01*
X115530800Y34359745D01*
G75*
G02*
X115730800Y34559745I200000J0D01*
G01*
G37*
G36*
G01*
X115730800Y32909745D02*
X116280800Y32909745D01*
G75*
G02*
X116480800Y32709745I0J-200000D01*
G01*
X116480800Y32309745D01*
G75*
G02*
X116280800Y32109745I-200000J0D01*
G01*
X115730800Y32109745D01*
G75*
G02*
X115530800Y32309745I0J200000D01*
G01*
X115530800Y32709745D01*
G75*
G02*
X115730800Y32909745I200000J0D01*
G01*
G37*
G36*
G01*
X65431394Y32109745D02*
X64881394Y32109745D01*
G75*
G02*
X64681394Y32309745I0J200000D01*
G01*
X64681394Y32709745D01*
G75*
G02*
X64881394Y32909745I200000J0D01*
G01*
X65431394Y32909745D01*
G75*
G02*
X65631394Y32709745I0J-200000D01*
G01*
X65631394Y32309745D01*
G75*
G02*
X65431394Y32109745I-200000J0D01*
G01*
G37*
G36*
G01*
X65431394Y33759745D02*
X64881394Y33759745D01*
G75*
G02*
X64681394Y33959745I0J200000D01*
G01*
X64681394Y34359745D01*
G75*
G02*
X64881394Y34559745I200000J0D01*
G01*
X65431394Y34559745D01*
G75*
G02*
X65631394Y34359745I0J-200000D01*
G01*
X65631394Y33959745D01*
G75*
G02*
X65431394Y33759745I-200000J0D01*
G01*
G37*
G36*
G01*
X74194271Y16345679D02*
X74088205Y16451745D01*
G75*
G02*
X74088205Y16557811I53033J53033D01*
G01*
X75025121Y17494727D01*
G75*
G02*
X75131187Y17494727I53033J-53033D01*
G01*
X75237253Y17388661D01*
G75*
G02*
X75237253Y17282595I-53033J-53033D01*
G01*
X74300337Y16345679D01*
G75*
G02*
X74194271Y16345679I-53033J53033D01*
G01*
G37*
G36*
G01*
X74547825Y15992126D02*
X74441759Y16098192D01*
G75*
G02*
X74441759Y16204258I53033J53033D01*
G01*
X75378675Y17141174D01*
G75*
G02*
X75484741Y17141174I53033J-53033D01*
G01*
X75590807Y17035108D01*
G75*
G02*
X75590807Y16929042I-53033J-53033D01*
G01*
X74653891Y15992126D01*
G75*
G02*
X74547825Y15992126I-53033J53033D01*
G01*
G37*
G36*
G01*
X74901378Y15638572D02*
X74795312Y15744638D01*
G75*
G02*
X74795312Y15850704I53033J53033D01*
G01*
X75732228Y16787620D01*
G75*
G02*
X75838294Y16787620I53033J-53033D01*
G01*
X75944360Y16681554D01*
G75*
G02*
X75944360Y16575488I-53033J-53033D01*
G01*
X75007444Y15638572D01*
G75*
G02*
X74901378Y15638572I-53033J53033D01*
G01*
G37*
G36*
G01*
X75254932Y15285019D02*
X75148866Y15391085D01*
G75*
G02*
X75148866Y15497151I53033J53033D01*
G01*
X76085782Y16434067D01*
G75*
G02*
X76191848Y16434067I53033J-53033D01*
G01*
X76297914Y16328001D01*
G75*
G02*
X76297914Y16221935I-53033J-53033D01*
G01*
X75360998Y15285019D01*
G75*
G02*
X75254932Y15285019I-53033J53033D01*
G01*
G37*
G36*
G01*
X75608485Y14931466D02*
X75502419Y15037532D01*
G75*
G02*
X75502419Y15143598I53033J53033D01*
G01*
X76439335Y16080514D01*
G75*
G02*
X76545401Y16080514I53033J-53033D01*
G01*
X76651467Y15974448D01*
G75*
G02*
X76651467Y15868382I-53033J-53033D01*
G01*
X75714551Y14931466D01*
G75*
G02*
X75608485Y14931466I-53033J53033D01*
G01*
G37*
G36*
G01*
X75962038Y14577912D02*
X75855972Y14683978D01*
G75*
G02*
X75855972Y14790044I53033J53033D01*
G01*
X76792888Y15726960D01*
G75*
G02*
X76898954Y15726960I53033J-53033D01*
G01*
X77005020Y15620894D01*
G75*
G02*
X77005020Y15514828I-53033J-53033D01*
G01*
X76068104Y14577912D01*
G75*
G02*
X75962038Y14577912I-53033J53033D01*
G01*
G37*
G36*
G01*
X76315592Y14224359D02*
X76209526Y14330425D01*
G75*
G02*
X76209526Y14436491I53033J53033D01*
G01*
X77146442Y15373407D01*
G75*
G02*
X77252508Y15373407I53033J-53033D01*
G01*
X77358574Y15267341D01*
G75*
G02*
X77358574Y15161275I-53033J-53033D01*
G01*
X76421658Y14224359D01*
G75*
G02*
X76315592Y14224359I-53033J53033D01*
G01*
G37*
G36*
G01*
X76669145Y13870806D02*
X76563079Y13976872D01*
G75*
G02*
X76563079Y14082938I53033J53033D01*
G01*
X77499995Y15019854D01*
G75*
G02*
X77606061Y15019854I53033J-53033D01*
G01*
X77712127Y14913788D01*
G75*
G02*
X77712127Y14807722I-53033J-53033D01*
G01*
X76775211Y13870806D01*
G75*
G02*
X76669145Y13870806I-53033J53033D01*
G01*
G37*
G36*
G01*
X77022699Y13517252D02*
X76916633Y13623318D01*
G75*
G02*
X76916633Y13729384I53033J53033D01*
G01*
X77853549Y14666300D01*
G75*
G02*
X77959615Y14666300I53033J-53033D01*
G01*
X78065681Y14560234D01*
G75*
G02*
X78065681Y14454168I-53033J-53033D01*
G01*
X77128765Y13517252D01*
G75*
G02*
X77022699Y13517252I-53033J53033D01*
G01*
G37*
G36*
G01*
X77376252Y13163699D02*
X77270186Y13269765D01*
G75*
G02*
X77270186Y13375831I53033J53033D01*
G01*
X78207102Y14312747D01*
G75*
G02*
X78313168Y14312747I53033J-53033D01*
G01*
X78419234Y14206681D01*
G75*
G02*
X78419234Y14100615I-53033J-53033D01*
G01*
X77482318Y13163699D01*
G75*
G02*
X77376252Y13163699I-53033J53033D01*
G01*
G37*
G36*
G01*
X77729805Y12810145D02*
X77623739Y12916211D01*
G75*
G02*
X77623739Y13022277I53033J53033D01*
G01*
X78560655Y13959193D01*
G75*
G02*
X78666721Y13959193I53033J-53033D01*
G01*
X78772787Y13853127D01*
G75*
G02*
X78772787Y13747061I-53033J-53033D01*
G01*
X77835871Y12810145D01*
G75*
G02*
X77729805Y12810145I-53033J53033D01*
G01*
G37*
G36*
G01*
X78083359Y12456592D02*
X77977293Y12562658D01*
G75*
G02*
X77977293Y12668724I53033J53033D01*
G01*
X78914209Y13605640D01*
G75*
G02*
X79020275Y13605640I53033J-53033D01*
G01*
X79126341Y13499574D01*
G75*
G02*
X79126341Y13393508I-53033J-53033D01*
G01*
X78189425Y12456592D01*
G75*
G02*
X78083359Y12456592I-53033J53033D01*
G01*
G37*
G36*
G01*
X78436912Y12103039D02*
X78330846Y12209105D01*
G75*
G02*
X78330846Y12315171I53033J53033D01*
G01*
X79267762Y13252087D01*
G75*
G02*
X79373828Y13252087I53033J-53033D01*
G01*
X79479894Y13146021D01*
G75*
G02*
X79479894Y13039955I-53033J-53033D01*
G01*
X78542978Y12103039D01*
G75*
G02*
X78436912Y12103039I-53033J53033D01*
G01*
G37*
G36*
G01*
X78790465Y11749485D02*
X78684399Y11855551D01*
G75*
G02*
X78684399Y11961617I53033J53033D01*
G01*
X79621315Y12898533D01*
G75*
G02*
X79727381Y12898533I53033J-53033D01*
G01*
X79833447Y12792467D01*
G75*
G02*
X79833447Y12686401I-53033J-53033D01*
G01*
X78896531Y11749485D01*
G75*
G02*
X78790465Y11749485I-53033J53033D01*
G01*
G37*
G36*
G01*
X79144019Y11395932D02*
X79037953Y11501998D01*
G75*
G02*
X79037953Y11608064I53033J53033D01*
G01*
X79974869Y12544980D01*
G75*
G02*
X80080935Y12544980I53033J-53033D01*
G01*
X80187001Y12438914D01*
G75*
G02*
X80187001Y12332848I-53033J-53033D01*
G01*
X79250085Y11395932D01*
G75*
G02*
X79144019Y11395932I-53033J53033D01*
G01*
G37*
G36*
G01*
X79497572Y11042378D02*
X79391506Y11148444D01*
G75*
G02*
X79391506Y11254510I53033J53033D01*
G01*
X80328422Y12191426D01*
G75*
G02*
X80434488Y12191426I53033J-53033D01*
G01*
X80540554Y12085360D01*
G75*
G02*
X80540554Y11979294I-53033J-53033D01*
G01*
X79603638Y11042378D01*
G75*
G02*
X79497572Y11042378I-53033J53033D01*
G01*
G37*
G36*
G01*
X83033106Y11042378D02*
X82096190Y11979294D01*
G75*
G02*
X82096190Y12085360I53033J53033D01*
G01*
X82202256Y12191426D01*
G75*
G02*
X82308322Y12191426I53033J-53033D01*
G01*
X83245238Y11254510D01*
G75*
G02*
X83245238Y11148444I-53033J-53033D01*
G01*
X83139172Y11042378D01*
G75*
G02*
X83033106Y11042378I-53033J53033D01*
G01*
G37*
G36*
G01*
X83386659Y11395932D02*
X82449743Y12332848D01*
G75*
G02*
X82449743Y12438914I53033J53033D01*
G01*
X82555809Y12544980D01*
G75*
G02*
X82661875Y12544980I53033J-53033D01*
G01*
X83598791Y11608064D01*
G75*
G02*
X83598791Y11501998I-53033J-53033D01*
G01*
X83492725Y11395932D01*
G75*
G02*
X83386659Y11395932I-53033J53033D01*
G01*
G37*
G36*
G01*
X83740213Y11749485D02*
X82803297Y12686401D01*
G75*
G02*
X82803297Y12792467I53033J53033D01*
G01*
X82909363Y12898533D01*
G75*
G02*
X83015429Y12898533I53033J-53033D01*
G01*
X83952345Y11961617D01*
G75*
G02*
X83952345Y11855551I-53033J-53033D01*
G01*
X83846279Y11749485D01*
G75*
G02*
X83740213Y11749485I-53033J53033D01*
G01*
G37*
G36*
G01*
X84093766Y12103039D02*
X83156850Y13039955D01*
G75*
G02*
X83156850Y13146021I53033J53033D01*
G01*
X83262916Y13252087D01*
G75*
G02*
X83368982Y13252087I53033J-53033D01*
G01*
X84305898Y12315171D01*
G75*
G02*
X84305898Y12209105I-53033J-53033D01*
G01*
X84199832Y12103039D01*
G75*
G02*
X84093766Y12103039I-53033J53033D01*
G01*
G37*
G36*
G01*
X84447319Y12456592D02*
X83510403Y13393508D01*
G75*
G02*
X83510403Y13499574I53033J53033D01*
G01*
X83616469Y13605640D01*
G75*
G02*
X83722535Y13605640I53033J-53033D01*
G01*
X84659451Y12668724D01*
G75*
G02*
X84659451Y12562658I-53033J-53033D01*
G01*
X84553385Y12456592D01*
G75*
G02*
X84447319Y12456592I-53033J53033D01*
G01*
G37*
G36*
G01*
X84800873Y12810145D02*
X83863957Y13747061D01*
G75*
G02*
X83863957Y13853127I53033J53033D01*
G01*
X83970023Y13959193D01*
G75*
G02*
X84076089Y13959193I53033J-53033D01*
G01*
X85013005Y13022277D01*
G75*
G02*
X85013005Y12916211I-53033J-53033D01*
G01*
X84906939Y12810145D01*
G75*
G02*
X84800873Y12810145I-53033J53033D01*
G01*
G37*
G36*
G01*
X85154426Y13163699D02*
X84217510Y14100615D01*
G75*
G02*
X84217510Y14206681I53033J53033D01*
G01*
X84323576Y14312747D01*
G75*
G02*
X84429642Y14312747I53033J-53033D01*
G01*
X85366558Y13375831D01*
G75*
G02*
X85366558Y13269765I-53033J-53033D01*
G01*
X85260492Y13163699D01*
G75*
G02*
X85154426Y13163699I-53033J53033D01*
G01*
G37*
G36*
G01*
X85507979Y13517252D02*
X84571063Y14454168D01*
G75*
G02*
X84571063Y14560234I53033J53033D01*
G01*
X84677129Y14666300D01*
G75*
G02*
X84783195Y14666300I53033J-53033D01*
G01*
X85720111Y13729384D01*
G75*
G02*
X85720111Y13623318I-53033J-53033D01*
G01*
X85614045Y13517252D01*
G75*
G02*
X85507979Y13517252I-53033J53033D01*
G01*
G37*
G36*
G01*
X85861533Y13870806D02*
X84924617Y14807722D01*
G75*
G02*
X84924617Y14913788I53033J53033D01*
G01*
X85030683Y15019854D01*
G75*
G02*
X85136749Y15019854I53033J-53033D01*
G01*
X86073665Y14082938D01*
G75*
G02*
X86073665Y13976872I-53033J-53033D01*
G01*
X85967599Y13870806D01*
G75*
G02*
X85861533Y13870806I-53033J53033D01*
G01*
G37*
G36*
G01*
X86215086Y14224359D02*
X85278170Y15161275D01*
G75*
G02*
X85278170Y15267341I53033J53033D01*
G01*
X85384236Y15373407D01*
G75*
G02*
X85490302Y15373407I53033J-53033D01*
G01*
X86427218Y14436491D01*
G75*
G02*
X86427218Y14330425I-53033J-53033D01*
G01*
X86321152Y14224359D01*
G75*
G02*
X86215086Y14224359I-53033J53033D01*
G01*
G37*
G36*
G01*
X86568640Y14577912D02*
X85631724Y15514828D01*
G75*
G02*
X85631724Y15620894I53033J53033D01*
G01*
X85737790Y15726960D01*
G75*
G02*
X85843856Y15726960I53033J-53033D01*
G01*
X86780772Y14790044D01*
G75*
G02*
X86780772Y14683978I-53033J-53033D01*
G01*
X86674706Y14577912D01*
G75*
G02*
X86568640Y14577912I-53033J53033D01*
G01*
G37*
G36*
G01*
X86922193Y14931466D02*
X85985277Y15868382D01*
G75*
G02*
X85985277Y15974448I53033J53033D01*
G01*
X86091343Y16080514D01*
G75*
G02*
X86197409Y16080514I53033J-53033D01*
G01*
X87134325Y15143598D01*
G75*
G02*
X87134325Y15037532I-53033J-53033D01*
G01*
X87028259Y14931466D01*
G75*
G02*
X86922193Y14931466I-53033J53033D01*
G01*
G37*
G36*
G01*
X87275746Y15285019D02*
X86338830Y16221935D01*
G75*
G02*
X86338830Y16328001I53033J53033D01*
G01*
X86444896Y16434067D01*
G75*
G02*
X86550962Y16434067I53033J-53033D01*
G01*
X87487878Y15497151D01*
G75*
G02*
X87487878Y15391085I-53033J-53033D01*
G01*
X87381812Y15285019D01*
G75*
G02*
X87275746Y15285019I-53033J53033D01*
G01*
G37*
G36*
G01*
X87629300Y15638572D02*
X86692384Y16575488D01*
G75*
G02*
X86692384Y16681554I53033J53033D01*
G01*
X86798450Y16787620D01*
G75*
G02*
X86904516Y16787620I53033J-53033D01*
G01*
X87841432Y15850704D01*
G75*
G02*
X87841432Y15744638I-53033J-53033D01*
G01*
X87735366Y15638572D01*
G75*
G02*
X87629300Y15638572I-53033J53033D01*
G01*
G37*
G36*
G01*
X87982853Y15992126D02*
X87045937Y16929042D01*
G75*
G02*
X87045937Y17035108I53033J53033D01*
G01*
X87152003Y17141174D01*
G75*
G02*
X87258069Y17141174I53033J-53033D01*
G01*
X88194985Y16204258D01*
G75*
G02*
X88194985Y16098192I-53033J-53033D01*
G01*
X88088919Y15992126D01*
G75*
G02*
X87982853Y15992126I-53033J53033D01*
G01*
G37*
G36*
G01*
X88336407Y16345679D02*
X87399491Y17282595D01*
G75*
G02*
X87399491Y17388661I53033J53033D01*
G01*
X87505557Y17494727D01*
G75*
G02*
X87611623Y17494727I53033J-53033D01*
G01*
X88548539Y16557811D01*
G75*
G02*
X88548539Y16451745I-53033J-53033D01*
G01*
X88442473Y16345679D01*
G75*
G02*
X88336407Y16345679I-53033J53033D01*
G01*
G37*
G36*
G01*
X87505557Y19050363D02*
X87399491Y19156429D01*
G75*
G02*
X87399491Y19262495I53033J53033D01*
G01*
X88336407Y20199411D01*
G75*
G02*
X88442473Y20199411I53033J-53033D01*
G01*
X88548539Y20093345D01*
G75*
G02*
X88548539Y19987279I-53033J-53033D01*
G01*
X87611623Y19050363D01*
G75*
G02*
X87505557Y19050363I-53033J53033D01*
G01*
G37*
G36*
G01*
X87152003Y19403916D02*
X87045937Y19509982D01*
G75*
G02*
X87045937Y19616048I53033J53033D01*
G01*
X87982853Y20552964D01*
G75*
G02*
X88088919Y20552964I53033J-53033D01*
G01*
X88194985Y20446898D01*
G75*
G02*
X88194985Y20340832I-53033J-53033D01*
G01*
X87258069Y19403916D01*
G75*
G02*
X87152003Y19403916I-53033J53033D01*
G01*
G37*
G36*
G01*
X86798450Y19757470D02*
X86692384Y19863536D01*
G75*
G02*
X86692384Y19969602I53033J53033D01*
G01*
X87629300Y20906518D01*
G75*
G02*
X87735366Y20906518I53033J-53033D01*
G01*
X87841432Y20800452D01*
G75*
G02*
X87841432Y20694386I-53033J-53033D01*
G01*
X86904516Y19757470D01*
G75*
G02*
X86798450Y19757470I-53033J53033D01*
G01*
G37*
G36*
G01*
X86444896Y20111023D02*
X86338830Y20217089D01*
G75*
G02*
X86338830Y20323155I53033J53033D01*
G01*
X87275746Y21260071D01*
G75*
G02*
X87381812Y21260071I53033J-53033D01*
G01*
X87487878Y21154005D01*
G75*
G02*
X87487878Y21047939I-53033J-53033D01*
G01*
X86550962Y20111023D01*
G75*
G02*
X86444896Y20111023I-53033J53033D01*
G01*
G37*
G36*
G01*
X86091343Y20464576D02*
X85985277Y20570642D01*
G75*
G02*
X85985277Y20676708I53033J53033D01*
G01*
X86922193Y21613624D01*
G75*
G02*
X87028259Y21613624I53033J-53033D01*
G01*
X87134325Y21507558D01*
G75*
G02*
X87134325Y21401492I-53033J-53033D01*
G01*
X86197409Y20464576D01*
G75*
G02*
X86091343Y20464576I-53033J53033D01*
G01*
G37*
G36*
G01*
X85737790Y20818130D02*
X85631724Y20924196D01*
G75*
G02*
X85631724Y21030262I53033J53033D01*
G01*
X86568640Y21967178D01*
G75*
G02*
X86674706Y21967178I53033J-53033D01*
G01*
X86780772Y21861112D01*
G75*
G02*
X86780772Y21755046I-53033J-53033D01*
G01*
X85843856Y20818130D01*
G75*
G02*
X85737790Y20818130I-53033J53033D01*
G01*
G37*
G36*
G01*
X85384236Y21171683D02*
X85278170Y21277749D01*
G75*
G02*
X85278170Y21383815I53033J53033D01*
G01*
X86215086Y22320731D01*
G75*
G02*
X86321152Y22320731I53033J-53033D01*
G01*
X86427218Y22214665D01*
G75*
G02*
X86427218Y22108599I-53033J-53033D01*
G01*
X85490302Y21171683D01*
G75*
G02*
X85384236Y21171683I-53033J53033D01*
G01*
G37*
G36*
G01*
X85030683Y21525236D02*
X84924617Y21631302D01*
G75*
G02*
X84924617Y21737368I53033J53033D01*
G01*
X85861533Y22674284D01*
G75*
G02*
X85967599Y22674284I53033J-53033D01*
G01*
X86073665Y22568218D01*
G75*
G02*
X86073665Y22462152I-53033J-53033D01*
G01*
X85136749Y21525236D01*
G75*
G02*
X85030683Y21525236I-53033J53033D01*
G01*
G37*
G36*
G01*
X84677129Y21878790D02*
X84571063Y21984856D01*
G75*
G02*
X84571063Y22090922I53033J53033D01*
G01*
X85507979Y23027838D01*
G75*
G02*
X85614045Y23027838I53033J-53033D01*
G01*
X85720111Y22921772D01*
G75*
G02*
X85720111Y22815706I-53033J-53033D01*
G01*
X84783195Y21878790D01*
G75*
G02*
X84677129Y21878790I-53033J53033D01*
G01*
G37*
G36*
G01*
X84323576Y22232343D02*
X84217510Y22338409D01*
G75*
G02*
X84217510Y22444475I53033J53033D01*
G01*
X85154426Y23381391D01*
G75*
G02*
X85260492Y23381391I53033J-53033D01*
G01*
X85366558Y23275325D01*
G75*
G02*
X85366558Y23169259I-53033J-53033D01*
G01*
X84429642Y22232343D01*
G75*
G02*
X84323576Y22232343I-53033J53033D01*
G01*
G37*
G36*
G01*
X83970023Y22585897D02*
X83863957Y22691963D01*
G75*
G02*
X83863957Y22798029I53033J53033D01*
G01*
X84800873Y23734945D01*
G75*
G02*
X84906939Y23734945I53033J-53033D01*
G01*
X85013005Y23628879D01*
G75*
G02*
X85013005Y23522813I-53033J-53033D01*
G01*
X84076089Y22585897D01*
G75*
G02*
X83970023Y22585897I-53033J53033D01*
G01*
G37*
G36*
G01*
X83616469Y22939450D02*
X83510403Y23045516D01*
G75*
G02*
X83510403Y23151582I53033J53033D01*
G01*
X84447319Y24088498D01*
G75*
G02*
X84553385Y24088498I53033J-53033D01*
G01*
X84659451Y23982432D01*
G75*
G02*
X84659451Y23876366I-53033J-53033D01*
G01*
X83722535Y22939450D01*
G75*
G02*
X83616469Y22939450I-53033J53033D01*
G01*
G37*
G36*
G01*
X83262916Y23293003D02*
X83156850Y23399069D01*
G75*
G02*
X83156850Y23505135I53033J53033D01*
G01*
X84093766Y24442051D01*
G75*
G02*
X84199832Y24442051I53033J-53033D01*
G01*
X84305898Y24335985D01*
G75*
G02*
X84305898Y24229919I-53033J-53033D01*
G01*
X83368982Y23293003D01*
G75*
G02*
X83262916Y23293003I-53033J53033D01*
G01*
G37*
G36*
G01*
X82909363Y23646557D02*
X82803297Y23752623D01*
G75*
G02*
X82803297Y23858689I53033J53033D01*
G01*
X83740213Y24795605D01*
G75*
G02*
X83846279Y24795605I53033J-53033D01*
G01*
X83952345Y24689539D01*
G75*
G02*
X83952345Y24583473I-53033J-53033D01*
G01*
X83015429Y23646557D01*
G75*
G02*
X82909363Y23646557I-53033J53033D01*
G01*
G37*
G36*
G01*
X82555809Y24000110D02*
X82449743Y24106176D01*
G75*
G02*
X82449743Y24212242I53033J53033D01*
G01*
X83386659Y25149158D01*
G75*
G02*
X83492725Y25149158I53033J-53033D01*
G01*
X83598791Y25043092D01*
G75*
G02*
X83598791Y24937026I-53033J-53033D01*
G01*
X82661875Y24000110D01*
G75*
G02*
X82555809Y24000110I-53033J53033D01*
G01*
G37*
G36*
G01*
X82202256Y24353664D02*
X82096190Y24459730D01*
G75*
G02*
X82096190Y24565796I53033J53033D01*
G01*
X83033106Y25502712D01*
G75*
G02*
X83139172Y25502712I53033J-53033D01*
G01*
X83245238Y25396646D01*
G75*
G02*
X83245238Y25290580I-53033J-53033D01*
G01*
X82308322Y24353664D01*
G75*
G02*
X82202256Y24353664I-53033J53033D01*
G01*
G37*
G36*
G01*
X80328422Y24353664D02*
X79391506Y25290580D01*
G75*
G02*
X79391506Y25396646I53033J53033D01*
G01*
X79497572Y25502712D01*
G75*
G02*
X79603638Y25502712I53033J-53033D01*
G01*
X80540554Y24565796D01*
G75*
G02*
X80540554Y24459730I-53033J-53033D01*
G01*
X80434488Y24353664D01*
G75*
G02*
X80328422Y24353664I-53033J53033D01*
G01*
G37*
G36*
G01*
X79974869Y24000110D02*
X79037953Y24937026D01*
G75*
G02*
X79037953Y25043092I53033J53033D01*
G01*
X79144019Y25149158D01*
G75*
G02*
X79250085Y25149158I53033J-53033D01*
G01*
X80187001Y24212242D01*
G75*
G02*
X80187001Y24106176I-53033J-53033D01*
G01*
X80080935Y24000110D01*
G75*
G02*
X79974869Y24000110I-53033J53033D01*
G01*
G37*
G36*
G01*
X79621315Y23646557D02*
X78684399Y24583473D01*
G75*
G02*
X78684399Y24689539I53033J53033D01*
G01*
X78790465Y24795605D01*
G75*
G02*
X78896531Y24795605I53033J-53033D01*
G01*
X79833447Y23858689D01*
G75*
G02*
X79833447Y23752623I-53033J-53033D01*
G01*
X79727381Y23646557D01*
G75*
G02*
X79621315Y23646557I-53033J53033D01*
G01*
G37*
G36*
G01*
X79267762Y23293003D02*
X78330846Y24229919D01*
G75*
G02*
X78330846Y24335985I53033J53033D01*
G01*
X78436912Y24442051D01*
G75*
G02*
X78542978Y24442051I53033J-53033D01*
G01*
X79479894Y23505135D01*
G75*
G02*
X79479894Y23399069I-53033J-53033D01*
G01*
X79373828Y23293003D01*
G75*
G02*
X79267762Y23293003I-53033J53033D01*
G01*
G37*
G36*
G01*
X78914209Y22939450D02*
X77977293Y23876366D01*
G75*
G02*
X77977293Y23982432I53033J53033D01*
G01*
X78083359Y24088498D01*
G75*
G02*
X78189425Y24088498I53033J-53033D01*
G01*
X79126341Y23151582D01*
G75*
G02*
X79126341Y23045516I-53033J-53033D01*
G01*
X79020275Y22939450D01*
G75*
G02*
X78914209Y22939450I-53033J53033D01*
G01*
G37*
G36*
G01*
X78560655Y22585897D02*
X77623739Y23522813D01*
G75*
G02*
X77623739Y23628879I53033J53033D01*
G01*
X77729805Y23734945D01*
G75*
G02*
X77835871Y23734945I53033J-53033D01*
G01*
X78772787Y22798029D01*
G75*
G02*
X78772787Y22691963I-53033J-53033D01*
G01*
X78666721Y22585897D01*
G75*
G02*
X78560655Y22585897I-53033J53033D01*
G01*
G37*
G36*
G01*
X78207102Y22232343D02*
X77270186Y23169259D01*
G75*
G02*
X77270186Y23275325I53033J53033D01*
G01*
X77376252Y23381391D01*
G75*
G02*
X77482318Y23381391I53033J-53033D01*
G01*
X78419234Y22444475D01*
G75*
G02*
X78419234Y22338409I-53033J-53033D01*
G01*
X78313168Y22232343D01*
G75*
G02*
X78207102Y22232343I-53033J53033D01*
G01*
G37*
G36*
G01*
X77853549Y21878790D02*
X76916633Y22815706D01*
G75*
G02*
X76916633Y22921772I53033J53033D01*
G01*
X77022699Y23027838D01*
G75*
G02*
X77128765Y23027838I53033J-53033D01*
G01*
X78065681Y22090922D01*
G75*
G02*
X78065681Y21984856I-53033J-53033D01*
G01*
X77959615Y21878790D01*
G75*
G02*
X77853549Y21878790I-53033J53033D01*
G01*
G37*
G36*
G01*
X77499995Y21525236D02*
X76563079Y22462152D01*
G75*
G02*
X76563079Y22568218I53033J53033D01*
G01*
X76669145Y22674284D01*
G75*
G02*
X76775211Y22674284I53033J-53033D01*
G01*
X77712127Y21737368D01*
G75*
G02*
X77712127Y21631302I-53033J-53033D01*
G01*
X77606061Y21525236D01*
G75*
G02*
X77499995Y21525236I-53033J53033D01*
G01*
G37*
G36*
G01*
X77146442Y21171683D02*
X76209526Y22108599D01*
G75*
G02*
X76209526Y22214665I53033J53033D01*
G01*
X76315592Y22320731D01*
G75*
G02*
X76421658Y22320731I53033J-53033D01*
G01*
X77358574Y21383815D01*
G75*
G02*
X77358574Y21277749I-53033J-53033D01*
G01*
X77252508Y21171683D01*
G75*
G02*
X77146442Y21171683I-53033J53033D01*
G01*
G37*
G36*
G01*
X76792888Y20818130D02*
X75855972Y21755046D01*
G75*
G02*
X75855972Y21861112I53033J53033D01*
G01*
X75962038Y21967178D01*
G75*
G02*
X76068104Y21967178I53033J-53033D01*
G01*
X77005020Y21030262D01*
G75*
G02*
X77005020Y20924196I-53033J-53033D01*
G01*
X76898954Y20818130D01*
G75*
G02*
X76792888Y20818130I-53033J53033D01*
G01*
G37*
G36*
G01*
X76439335Y20464576D02*
X75502419Y21401492D01*
G75*
G02*
X75502419Y21507558I53033J53033D01*
G01*
X75608485Y21613624D01*
G75*
G02*
X75714551Y21613624I53033J-53033D01*
G01*
X76651467Y20676708D01*
G75*
G02*
X76651467Y20570642I-53033J-53033D01*
G01*
X76545401Y20464576D01*
G75*
G02*
X76439335Y20464576I-53033J53033D01*
G01*
G37*
G36*
G01*
X76085782Y20111023D02*
X75148866Y21047939D01*
G75*
G02*
X75148866Y21154005I53033J53033D01*
G01*
X75254932Y21260071D01*
G75*
G02*
X75360998Y21260071I53033J-53033D01*
G01*
X76297914Y20323155D01*
G75*
G02*
X76297914Y20217089I-53033J-53033D01*
G01*
X76191848Y20111023D01*
G75*
G02*
X76085782Y20111023I-53033J53033D01*
G01*
G37*
G36*
G01*
X75732228Y19757470D02*
X74795312Y20694386D01*
G75*
G02*
X74795312Y20800452I53033J53033D01*
G01*
X74901378Y20906518D01*
G75*
G02*
X75007444Y20906518I53033J-53033D01*
G01*
X75944360Y19969602D01*
G75*
G02*
X75944360Y19863536I-53033J-53033D01*
G01*
X75838294Y19757470D01*
G75*
G02*
X75732228Y19757470I-53033J53033D01*
G01*
G37*
G36*
G01*
X75378675Y19403916D02*
X74441759Y20340832D01*
G75*
G02*
X74441759Y20446898I53033J53033D01*
G01*
X74547825Y20552964D01*
G75*
G02*
X74653891Y20552964I53033J-53033D01*
G01*
X75590807Y19616048D01*
G75*
G02*
X75590807Y19509982I-53033J-53033D01*
G01*
X75484741Y19403916D01*
G75*
G02*
X75378675Y19403916I-53033J53033D01*
G01*
G37*
G36*
G01*
X75025121Y19050363D02*
X74088205Y19987279D01*
G75*
G02*
X74088205Y20093345I53033J53033D01*
G01*
X74194271Y20199411D01*
G75*
G02*
X74300337Y20199411I53033J-53033D01*
G01*
X75237253Y19262495D01*
G75*
G02*
X75237253Y19156429I-53033J-53033D01*
G01*
X75131187Y19050363D01*
G75*
G02*
X75025121Y19050363I-53033J53033D01*
G01*
G37*
G36*
G01*
X11218116Y32146745D02*
X11768116Y32146745D01*
G75*
G02*
X11968116Y31946745I0J-200000D01*
G01*
X11968116Y31546745D01*
G75*
G02*
X11768116Y31346745I-200000J0D01*
G01*
X11218116Y31346745D01*
G75*
G02*
X11018116Y31546745I0J200000D01*
G01*
X11018116Y31946745D01*
G75*
G02*
X11218116Y32146745I200000J0D01*
G01*
G37*
G36*
G01*
X11218116Y30496745D02*
X11768116Y30496745D01*
G75*
G02*
X11968116Y30296745I0J-200000D01*
G01*
X11968116Y29896745D01*
G75*
G02*
X11768116Y29696745I-200000J0D01*
G01*
X11218116Y29696745D01*
G75*
G02*
X11018116Y29896745I0J200000D01*
G01*
X11018116Y30296745D01*
G75*
G02*
X11218116Y30496745I200000J0D01*
G01*
G37*
D18*
X121742888Y11770145D03*
D19*
X124242888Y11770145D03*
G36*
G01*
X108827722Y11176345D02*
X109340222Y11176345D01*
G75*
G02*
X109558972Y10957595I0J-218750D01*
G01*
X109558972Y10520095D01*
G75*
G02*
X109340222Y10301345I-218750J0D01*
G01*
X108827722Y10301345D01*
G75*
G02*
X108608972Y10520095I0J218750D01*
G01*
X108608972Y10957595D01*
G75*
G02*
X108827722Y11176345I218750J0D01*
G01*
G37*
G36*
G01*
X108827722Y9601345D02*
X109340222Y9601345D01*
G75*
G02*
X109558972Y9382595I0J-218750D01*
G01*
X109558972Y8945095D01*
G75*
G02*
X109340222Y8726345I-218750J0D01*
G01*
X108827722Y8726345D01*
G75*
G02*
X108608972Y8945095I0J218750D01*
G01*
X108608972Y9382595D01*
G75*
G02*
X108827722Y9601345I218750J0D01*
G01*
G37*
G36*
G01*
X122447172Y23342145D02*
X122447172Y22042145D01*
G75*
G02*
X122197172Y21792145I-250000J0D01*
G01*
X121372172Y21792145D01*
G75*
G02*
X121122172Y22042145I0J250000D01*
G01*
X121122172Y23342145D01*
G75*
G02*
X121372172Y23592145I250000J0D01*
G01*
X122197172Y23592145D01*
G75*
G02*
X122447172Y23342145I0J-250000D01*
G01*
G37*
G36*
G01*
X119322172Y23342145D02*
X119322172Y22042145D01*
G75*
G02*
X119072172Y21792145I-250000J0D01*
G01*
X118247172Y21792145D01*
G75*
G02*
X117997172Y22042145I0J250000D01*
G01*
X117997172Y23342145D01*
G75*
G02*
X118247172Y23592145I250000J0D01*
G01*
X119072172Y23592145D01*
G75*
G02*
X119322172Y23342145I0J-250000D01*
G01*
G37*
G36*
G01*
X114191400Y34559745D02*
X114741400Y34559745D01*
G75*
G02*
X114941400Y34359745I0J-200000D01*
G01*
X114941400Y33959745D01*
G75*
G02*
X114741400Y33759745I-200000J0D01*
G01*
X114191400Y33759745D01*
G75*
G02*
X113991400Y33959745I0J200000D01*
G01*
X113991400Y34359745D01*
G75*
G02*
X114191400Y34559745I200000J0D01*
G01*
G37*
G36*
G01*
X114191400Y32909745D02*
X114741400Y32909745D01*
G75*
G02*
X114941400Y32709745I0J-200000D01*
G01*
X114941400Y32309745D01*
G75*
G02*
X114741400Y32109745I-200000J0D01*
G01*
X114191400Y32109745D01*
G75*
G02*
X113991400Y32309745I0J200000D01*
G01*
X113991400Y32709745D01*
G75*
G02*
X114191400Y32909745I200000J0D01*
G01*
G37*
G36*
G01*
X123221572Y25707145D02*
X120321572Y25707145D01*
G75*
G02*
X120071572Y25957145I0J250000D01*
G01*
X120071572Y26582145D01*
G75*
G02*
X120321572Y26832145I250000J0D01*
G01*
X123221572Y26832145D01*
G75*
G02*
X123471572Y26582145I0J-250000D01*
G01*
X123471572Y25957145D01*
G75*
G02*
X123221572Y25707145I-250000J0D01*
G01*
G37*
G36*
G01*
X123221572Y29982145D02*
X120321572Y29982145D01*
G75*
G02*
X120071572Y30232145I0J250000D01*
G01*
X120071572Y30857145D01*
G75*
G02*
X120321572Y31107145I250000J0D01*
G01*
X123221572Y31107145D01*
G75*
G02*
X123471572Y30857145I0J-250000D01*
G01*
X123471572Y30232145D01*
G75*
G02*
X123221572Y29982145I-250000J0D01*
G01*
G37*
D18*
X15062888Y11770145D03*
D19*
X17562888Y11770145D03*
G36*
G01*
X42135772Y21814045D02*
X42335772Y21814045D01*
G75*
G02*
X42435772Y21714045I0J-100000D01*
G01*
X42435772Y20439045D01*
G75*
G02*
X42335772Y20339045I-100000J0D01*
G01*
X42135772Y20339045D01*
G75*
G02*
X42035772Y20439045I0J100000D01*
G01*
X42035772Y21714045D01*
G75*
G02*
X42135772Y21814045I100000J0D01*
G01*
G37*
G36*
G01*
X41485772Y21814045D02*
X41685772Y21814045D01*
G75*
G02*
X41785772Y21714045I0J-100000D01*
G01*
X41785772Y20439045D01*
G75*
G02*
X41685772Y20339045I-100000J0D01*
G01*
X41485772Y20339045D01*
G75*
G02*
X41385772Y20439045I0J100000D01*
G01*
X41385772Y21714045D01*
G75*
G02*
X41485772Y21814045I100000J0D01*
G01*
G37*
G36*
G01*
X40835772Y21814045D02*
X41035772Y21814045D01*
G75*
G02*
X41135772Y21714045I0J-100000D01*
G01*
X41135772Y20439045D01*
G75*
G02*
X41035772Y20339045I-100000J0D01*
G01*
X40835772Y20339045D01*
G75*
G02*
X40735772Y20439045I0J100000D01*
G01*
X40735772Y21714045D01*
G75*
G02*
X40835772Y21814045I100000J0D01*
G01*
G37*
G36*
G01*
X40185772Y21814045D02*
X40385772Y21814045D01*
G75*
G02*
X40485772Y21714045I0J-100000D01*
G01*
X40485772Y20439045D01*
G75*
G02*
X40385772Y20339045I-100000J0D01*
G01*
X40185772Y20339045D01*
G75*
G02*
X40085772Y20439045I0J100000D01*
G01*
X40085772Y21714045D01*
G75*
G02*
X40185772Y21814045I100000J0D01*
G01*
G37*
G36*
G01*
X39535772Y21814045D02*
X39735772Y21814045D01*
G75*
G02*
X39835772Y21714045I0J-100000D01*
G01*
X39835772Y20439045D01*
G75*
G02*
X39735772Y20339045I-100000J0D01*
G01*
X39535772Y20339045D01*
G75*
G02*
X39435772Y20439045I0J100000D01*
G01*
X39435772Y21714045D01*
G75*
G02*
X39535772Y21814045I100000J0D01*
G01*
G37*
G36*
G01*
X38885772Y21814045D02*
X39085772Y21814045D01*
G75*
G02*
X39185772Y21714045I0J-100000D01*
G01*
X39185772Y20439045D01*
G75*
G02*
X39085772Y20339045I-100000J0D01*
G01*
X38885772Y20339045D01*
G75*
G02*
X38785772Y20439045I0J100000D01*
G01*
X38785772Y21714045D01*
G75*
G02*
X38885772Y21814045I100000J0D01*
G01*
G37*
G36*
G01*
X38235772Y21814045D02*
X38435772Y21814045D01*
G75*
G02*
X38535772Y21714045I0J-100000D01*
G01*
X38535772Y20439045D01*
G75*
G02*
X38435772Y20339045I-100000J0D01*
G01*
X38235772Y20339045D01*
G75*
G02*
X38135772Y20439045I0J100000D01*
G01*
X38135772Y21714045D01*
G75*
G02*
X38235772Y21814045I100000J0D01*
G01*
G37*
G36*
G01*
X37585772Y21814045D02*
X37785772Y21814045D01*
G75*
G02*
X37885772Y21714045I0J-100000D01*
G01*
X37885772Y20439045D01*
G75*
G02*
X37785772Y20339045I-100000J0D01*
G01*
X37585772Y20339045D01*
G75*
G02*
X37485772Y20439045I0J100000D01*
G01*
X37485772Y21714045D01*
G75*
G02*
X37585772Y21814045I100000J0D01*
G01*
G37*
G36*
G01*
X36935772Y21814045D02*
X37135772Y21814045D01*
G75*
G02*
X37235772Y21714045I0J-100000D01*
G01*
X37235772Y20439045D01*
G75*
G02*
X37135772Y20339045I-100000J0D01*
G01*
X36935772Y20339045D01*
G75*
G02*
X36835772Y20439045I0J100000D01*
G01*
X36835772Y21714045D01*
G75*
G02*
X36935772Y21814045I100000J0D01*
G01*
G37*
G36*
G01*
X36285772Y21814045D02*
X36485772Y21814045D01*
G75*
G02*
X36585772Y21714045I0J-100000D01*
G01*
X36585772Y20439045D01*
G75*
G02*
X36485772Y20339045I-100000J0D01*
G01*
X36285772Y20339045D01*
G75*
G02*
X36185772Y20439045I0J100000D01*
G01*
X36185772Y21714045D01*
G75*
G02*
X36285772Y21814045I100000J0D01*
G01*
G37*
G36*
G01*
X36285772Y16089045D02*
X36485772Y16089045D01*
G75*
G02*
X36585772Y15989045I0J-100000D01*
G01*
X36585772Y14714045D01*
G75*
G02*
X36485772Y14614045I-100000J0D01*
G01*
X36285772Y14614045D01*
G75*
G02*
X36185772Y14714045I0J100000D01*
G01*
X36185772Y15989045D01*
G75*
G02*
X36285772Y16089045I100000J0D01*
G01*
G37*
G36*
G01*
X36935772Y16089045D02*
X37135772Y16089045D01*
G75*
G02*
X37235772Y15989045I0J-100000D01*
G01*
X37235772Y14714045D01*
G75*
G02*
X37135772Y14614045I-100000J0D01*
G01*
X36935772Y14614045D01*
G75*
G02*
X36835772Y14714045I0J100000D01*
G01*
X36835772Y15989045D01*
G75*
G02*
X36935772Y16089045I100000J0D01*
G01*
G37*
G36*
G01*
X37585772Y16089045D02*
X37785772Y16089045D01*
G75*
G02*
X37885772Y15989045I0J-100000D01*
G01*
X37885772Y14714045D01*
G75*
G02*
X37785772Y14614045I-100000J0D01*
G01*
X37585772Y14614045D01*
G75*
G02*
X37485772Y14714045I0J100000D01*
G01*
X37485772Y15989045D01*
G75*
G02*
X37585772Y16089045I100000J0D01*
G01*
G37*
G36*
G01*
X38235772Y16089045D02*
X38435772Y16089045D01*
G75*
G02*
X38535772Y15989045I0J-100000D01*
G01*
X38535772Y14714045D01*
G75*
G02*
X38435772Y14614045I-100000J0D01*
G01*
X38235772Y14614045D01*
G75*
G02*
X38135772Y14714045I0J100000D01*
G01*
X38135772Y15989045D01*
G75*
G02*
X38235772Y16089045I100000J0D01*
G01*
G37*
G36*
G01*
X38885772Y16089045D02*
X39085772Y16089045D01*
G75*
G02*
X39185772Y15989045I0J-100000D01*
G01*
X39185772Y14714045D01*
G75*
G02*
X39085772Y14614045I-100000J0D01*
G01*
X38885772Y14614045D01*
G75*
G02*
X38785772Y14714045I0J100000D01*
G01*
X38785772Y15989045D01*
G75*
G02*
X38885772Y16089045I100000J0D01*
G01*
G37*
G36*
G01*
X39535772Y16089045D02*
X39735772Y16089045D01*
G75*
G02*
X39835772Y15989045I0J-100000D01*
G01*
X39835772Y14714045D01*
G75*
G02*
X39735772Y14614045I-100000J0D01*
G01*
X39535772Y14614045D01*
G75*
G02*
X39435772Y14714045I0J100000D01*
G01*
X39435772Y15989045D01*
G75*
G02*
X39535772Y16089045I100000J0D01*
G01*
G37*
G36*
G01*
X40185772Y16089045D02*
X40385772Y16089045D01*
G75*
G02*
X40485772Y15989045I0J-100000D01*
G01*
X40485772Y14714045D01*
G75*
G02*
X40385772Y14614045I-100000J0D01*
G01*
X40185772Y14614045D01*
G75*
G02*
X40085772Y14714045I0J100000D01*
G01*
X40085772Y15989045D01*
G75*
G02*
X40185772Y16089045I100000J0D01*
G01*
G37*
G36*
G01*
X40835772Y16089045D02*
X41035772Y16089045D01*
G75*
G02*
X41135772Y15989045I0J-100000D01*
G01*
X41135772Y14714045D01*
G75*
G02*
X41035772Y14614045I-100000J0D01*
G01*
X40835772Y14614045D01*
G75*
G02*
X40735772Y14714045I0J100000D01*
G01*
X40735772Y15989045D01*
G75*
G02*
X40835772Y16089045I100000J0D01*
G01*
G37*
G36*
G01*
X41485772Y16089045D02*
X41685772Y16089045D01*
G75*
G02*
X41785772Y15989045I0J-100000D01*
G01*
X41785772Y14714045D01*
G75*
G02*
X41685772Y14614045I-100000J0D01*
G01*
X41485772Y14614045D01*
G75*
G02*
X41385772Y14714045I0J100000D01*
G01*
X41385772Y15989045D01*
G75*
G02*
X41485772Y16089045I100000J0D01*
G01*
G37*
G36*
G01*
X42135772Y16089045D02*
X42335772Y16089045D01*
G75*
G02*
X42435772Y15989045I0J-100000D01*
G01*
X42435772Y14714045D01*
G75*
G02*
X42335772Y14614045I-100000J0D01*
G01*
X42135772Y14614045D01*
G75*
G02*
X42035772Y14714045I0J100000D01*
G01*
X42035772Y15989045D01*
G75*
G02*
X42135772Y16089045I100000J0D01*
G01*
G37*
G36*
G01*
X9470316Y24611545D02*
X9470316Y25161545D01*
G75*
G02*
X9670316Y25361545I200000J0D01*
G01*
X10070316Y25361545D01*
G75*
G02*
X10270316Y25161545I0J-200000D01*
G01*
X10270316Y24611545D01*
G75*
G02*
X10070316Y24411545I-200000J0D01*
G01*
X9670316Y24411545D01*
G75*
G02*
X9470316Y24611545I0J200000D01*
G01*
G37*
G36*
G01*
X11120316Y24611545D02*
X11120316Y25161545D01*
G75*
G02*
X11320316Y25361545I200000J0D01*
G01*
X11720316Y25361545D01*
G75*
G02*
X11920316Y25161545I0J-200000D01*
G01*
X11920316Y24611545D01*
G75*
G02*
X11720316Y24411545I-200000J0D01*
G01*
X11320316Y24411545D01*
G75*
G02*
X11120316Y24611545I0J200000D01*
G01*
G37*
G36*
G01*
X43463800Y34559745D02*
X44013800Y34559745D01*
G75*
G02*
X44213800Y34359745I0J-200000D01*
G01*
X44213800Y33959745D01*
G75*
G02*
X44013800Y33759745I-200000J0D01*
G01*
X43463800Y33759745D01*
G75*
G02*
X43263800Y33959745I0J200000D01*
G01*
X43263800Y34359745D01*
G75*
G02*
X43463800Y34559745I200000J0D01*
G01*
G37*
G36*
G01*
X43463800Y32909745D02*
X44013800Y32909745D01*
G75*
G02*
X44213800Y32709745I0J-200000D01*
G01*
X44213800Y32309745D01*
G75*
G02*
X44013800Y32109745I-200000J0D01*
G01*
X43463800Y32109745D01*
G75*
G02*
X43263800Y32309745I0J200000D01*
G01*
X43263800Y32709745D01*
G75*
G02*
X43463800Y32909745I200000J0D01*
G01*
G37*
G36*
G01*
X110092000Y17318445D02*
X109592000Y17318445D01*
G75*
G02*
X109367000Y17543445I0J225000D01*
G01*
X109367000Y17993445D01*
G75*
G02*
X109592000Y18218445I225000J0D01*
G01*
X110092000Y18218445D01*
G75*
G02*
X110317000Y17993445I0J-225000D01*
G01*
X110317000Y17543445D01*
G75*
G02*
X110092000Y17318445I-225000J0D01*
G01*
G37*
G36*
G01*
X110092000Y18868445D02*
X109592000Y18868445D01*
G75*
G02*
X109367000Y19093445I0J225000D01*
G01*
X109367000Y19543445D01*
G75*
G02*
X109592000Y19768445I225000J0D01*
G01*
X110092000Y19768445D01*
G75*
G02*
X110317000Y19543445I0J-225000D01*
G01*
X110317000Y19093445D01*
G75*
G02*
X110092000Y18868445I-225000J0D01*
G01*
G37*
G36*
G01*
X12983800Y32146745D02*
X13533800Y32146745D01*
G75*
G02*
X13733800Y31946745I0J-200000D01*
G01*
X13733800Y31546745D01*
G75*
G02*
X13533800Y31346745I-200000J0D01*
G01*
X12983800Y31346745D01*
G75*
G02*
X12783800Y31546745I0J200000D01*
G01*
X12783800Y31946745D01*
G75*
G02*
X12983800Y32146745I200000J0D01*
G01*
G37*
G36*
G01*
X12983800Y30496745D02*
X13533800Y30496745D01*
G75*
G02*
X13733800Y30296745I0J-200000D01*
G01*
X13733800Y29896745D01*
G75*
G02*
X13533800Y29696745I-200000J0D01*
G01*
X12983800Y29696745D01*
G75*
G02*
X12783800Y29896745I0J200000D01*
G01*
X12783800Y30296745D01*
G75*
G02*
X12983800Y30496745I200000J0D01*
G01*
G37*
D15*
X3111116Y38688946D03*
D16*
X3111116Y36148946D03*
G36*
G01*
X87816300Y21973220D02*
X87462746Y22326774D01*
G75*
G02*
X87462746Y22644972I159099J159099D01*
G01*
X87780944Y22963170D01*
G75*
G02*
X88099142Y22963170I159099J-159099D01*
G01*
X88452696Y22609616D01*
G75*
G02*
X88452696Y22291418I-159099J-159099D01*
G01*
X88134498Y21973220D01*
G75*
G02*
X87816300Y21973220I-159099J159099D01*
G01*
G37*
G36*
G01*
X88912316Y23069236D02*
X88558762Y23422790D01*
G75*
G02*
X88558762Y23740988I159099J159099D01*
G01*
X88876960Y24059186D01*
G75*
G02*
X89195158Y24059186I159099J-159099D01*
G01*
X89548712Y23705632D01*
G75*
G02*
X89548712Y23387434I-159099J-159099D01*
G01*
X89230514Y23069236D01*
G75*
G02*
X88912316Y23069236I-159099J159099D01*
G01*
G37*
G36*
G01*
X108624772Y14327545D02*
X108624772Y14177545D01*
G75*
G02*
X108549772Y14102545I-75000J0D01*
G01*
X107149772Y14102545D01*
G75*
G02*
X107074772Y14177545I0J75000D01*
G01*
X107074772Y14327545D01*
G75*
G02*
X107149772Y14402545I75000J0D01*
G01*
X108549772Y14402545D01*
G75*
G02*
X108624772Y14327545I0J-75000D01*
G01*
G37*
G36*
G01*
X108624772Y14827545D02*
X108624772Y14677545D01*
G75*
G02*
X108549772Y14602545I-75000J0D01*
G01*
X107149772Y14602545D01*
G75*
G02*
X107074772Y14677545I0J75000D01*
G01*
X107074772Y14827545D01*
G75*
G02*
X107149772Y14902545I75000J0D01*
G01*
X108549772Y14902545D01*
G75*
G02*
X108624772Y14827545I0J-75000D01*
G01*
G37*
G36*
G01*
X108624772Y15327545D02*
X108624772Y15177545D01*
G75*
G02*
X108549772Y15102545I-75000J0D01*
G01*
X107149772Y15102545D01*
G75*
G02*
X107074772Y15177545I0J75000D01*
G01*
X107074772Y15327545D01*
G75*
G02*
X107149772Y15402545I75000J0D01*
G01*
X108549772Y15402545D01*
G75*
G02*
X108624772Y15327545I0J-75000D01*
G01*
G37*
G36*
G01*
X108624772Y15827545D02*
X108624772Y15677545D01*
G75*
G02*
X108549772Y15602545I-75000J0D01*
G01*
X107149772Y15602545D01*
G75*
G02*
X107074772Y15677545I0J75000D01*
G01*
X107074772Y15827545D01*
G75*
G02*
X107149772Y15902545I75000J0D01*
G01*
X108549772Y15902545D01*
G75*
G02*
X108624772Y15827545I0J-75000D01*
G01*
G37*
G36*
G01*
X108624772Y16327545D02*
X108624772Y16177545D01*
G75*
G02*
X108549772Y16102545I-75000J0D01*
G01*
X107149772Y16102545D01*
G75*
G02*
X107074772Y16177545I0J75000D01*
G01*
X107074772Y16327545D01*
G75*
G02*
X107149772Y16402545I75000J0D01*
G01*
X108549772Y16402545D01*
G75*
G02*
X108624772Y16327545I0J-75000D01*
G01*
G37*
G36*
G01*
X108624772Y16827545D02*
X108624772Y16677545D01*
G75*
G02*
X108549772Y16602545I-75000J0D01*
G01*
X107149772Y16602545D01*
G75*
G02*
X107074772Y16677545I0J75000D01*
G01*
X107074772Y16827545D01*
G75*
G02*
X107149772Y16902545I75000J0D01*
G01*
X108549772Y16902545D01*
G75*
G02*
X108624772Y16827545I0J-75000D01*
G01*
G37*
G36*
G01*
X108624772Y17327545D02*
X108624772Y17177545D01*
G75*
G02*
X108549772Y17102545I-75000J0D01*
G01*
X107149772Y17102545D01*
G75*
G02*
X107074772Y17177545I0J75000D01*
G01*
X107074772Y17327545D01*
G75*
G02*
X107149772Y17402545I75000J0D01*
G01*
X108549772Y17402545D01*
G75*
G02*
X108624772Y17327545I0J-75000D01*
G01*
G37*
G36*
G01*
X108624772Y17827545D02*
X108624772Y17677545D01*
G75*
G02*
X108549772Y17602545I-75000J0D01*
G01*
X107149772Y17602545D01*
G75*
G02*
X107074772Y17677545I0J75000D01*
G01*
X107074772Y17827545D01*
G75*
G02*
X107149772Y17902545I75000J0D01*
G01*
X108549772Y17902545D01*
G75*
G02*
X108624772Y17827545I0J-75000D01*
G01*
G37*
G36*
G01*
X108624772Y18327545D02*
X108624772Y18177545D01*
G75*
G02*
X108549772Y18102545I-75000J0D01*
G01*
X107149772Y18102545D01*
G75*
G02*
X107074772Y18177545I0J75000D01*
G01*
X107074772Y18327545D01*
G75*
G02*
X107149772Y18402545I75000J0D01*
G01*
X108549772Y18402545D01*
G75*
G02*
X108624772Y18327545I0J-75000D01*
G01*
G37*
G36*
G01*
X108624772Y18827545D02*
X108624772Y18677545D01*
G75*
G02*
X108549772Y18602545I-75000J0D01*
G01*
X107149772Y18602545D01*
G75*
G02*
X107074772Y18677545I0J75000D01*
G01*
X107074772Y18827545D01*
G75*
G02*
X107149772Y18902545I75000J0D01*
G01*
X108549772Y18902545D01*
G75*
G02*
X108624772Y18827545I0J-75000D01*
G01*
G37*
G36*
G01*
X108624772Y19327545D02*
X108624772Y19177545D01*
G75*
G02*
X108549772Y19102545I-75000J0D01*
G01*
X107149772Y19102545D01*
G75*
G02*
X107074772Y19177545I0J75000D01*
G01*
X107074772Y19327545D01*
G75*
G02*
X107149772Y19402545I75000J0D01*
G01*
X108549772Y19402545D01*
G75*
G02*
X108624772Y19327545I0J-75000D01*
G01*
G37*
G36*
G01*
X108624772Y19827545D02*
X108624772Y19677545D01*
G75*
G02*
X108549772Y19602545I-75000J0D01*
G01*
X107149772Y19602545D01*
G75*
G02*
X107074772Y19677545I0J75000D01*
G01*
X107074772Y19827545D01*
G75*
G02*
X107149772Y19902545I75000J0D01*
G01*
X108549772Y19902545D01*
G75*
G02*
X108624772Y19827545I0J-75000D01*
G01*
G37*
G36*
G01*
X108624772Y20327545D02*
X108624772Y20177545D01*
G75*
G02*
X108549772Y20102545I-75000J0D01*
G01*
X107149772Y20102545D01*
G75*
G02*
X107074772Y20177545I0J75000D01*
G01*
X107074772Y20327545D01*
G75*
G02*
X107149772Y20402545I75000J0D01*
G01*
X108549772Y20402545D01*
G75*
G02*
X108624772Y20327545I0J-75000D01*
G01*
G37*
G36*
G01*
X108624772Y20827545D02*
X108624772Y20677545D01*
G75*
G02*
X108549772Y20602545I-75000J0D01*
G01*
X107149772Y20602545D01*
G75*
G02*
X107074772Y20677545I0J75000D01*
G01*
X107074772Y20827545D01*
G75*
G02*
X107149772Y20902545I75000J0D01*
G01*
X108549772Y20902545D01*
G75*
G02*
X108624772Y20827545I0J-75000D01*
G01*
G37*
G36*
G01*
X108624772Y21327545D02*
X108624772Y21177545D01*
G75*
G02*
X108549772Y21102545I-75000J0D01*
G01*
X107149772Y21102545D01*
G75*
G02*
X107074772Y21177545I0J75000D01*
G01*
X107074772Y21327545D01*
G75*
G02*
X107149772Y21402545I75000J0D01*
G01*
X108549772Y21402545D01*
G75*
G02*
X108624772Y21327545I0J-75000D01*
G01*
G37*
G36*
G01*
X108624772Y21827545D02*
X108624772Y21677545D01*
G75*
G02*
X108549772Y21602545I-75000J0D01*
G01*
X107149772Y21602545D01*
G75*
G02*
X107074772Y21677545I0J75000D01*
G01*
X107074772Y21827545D01*
G75*
G02*
X107149772Y21902545I75000J0D01*
G01*
X108549772Y21902545D01*
G75*
G02*
X108624772Y21827545I0J-75000D01*
G01*
G37*
G36*
G01*
X95774772Y21827545D02*
X95774772Y21677545D01*
G75*
G02*
X95699772Y21602545I-75000J0D01*
G01*
X94299772Y21602545D01*
G75*
G02*
X94224772Y21677545I0J75000D01*
G01*
X94224772Y21827545D01*
G75*
G02*
X94299772Y21902545I75000J0D01*
G01*
X95699772Y21902545D01*
G75*
G02*
X95774772Y21827545I0J-75000D01*
G01*
G37*
G36*
G01*
X95774772Y21327545D02*
X95774772Y21177545D01*
G75*
G02*
X95699772Y21102545I-75000J0D01*
G01*
X94299772Y21102545D01*
G75*
G02*
X94224772Y21177545I0J75000D01*
G01*
X94224772Y21327545D01*
G75*
G02*
X94299772Y21402545I75000J0D01*
G01*
X95699772Y21402545D01*
G75*
G02*
X95774772Y21327545I0J-75000D01*
G01*
G37*
G36*
G01*
X95774772Y20827545D02*
X95774772Y20677545D01*
G75*
G02*
X95699772Y20602545I-75000J0D01*
G01*
X94299772Y20602545D01*
G75*
G02*
X94224772Y20677545I0J75000D01*
G01*
X94224772Y20827545D01*
G75*
G02*
X94299772Y20902545I75000J0D01*
G01*
X95699772Y20902545D01*
G75*
G02*
X95774772Y20827545I0J-75000D01*
G01*
G37*
G36*
G01*
X95774772Y20327545D02*
X95774772Y20177545D01*
G75*
G02*
X95699772Y20102545I-75000J0D01*
G01*
X94299772Y20102545D01*
G75*
G02*
X94224772Y20177545I0J75000D01*
G01*
X94224772Y20327545D01*
G75*
G02*
X94299772Y20402545I75000J0D01*
G01*
X95699772Y20402545D01*
G75*
G02*
X95774772Y20327545I0J-75000D01*
G01*
G37*
G36*
G01*
X95774772Y19827545D02*
X95774772Y19677545D01*
G75*
G02*
X95699772Y19602545I-75000J0D01*
G01*
X94299772Y19602545D01*
G75*
G02*
X94224772Y19677545I0J75000D01*
G01*
X94224772Y19827545D01*
G75*
G02*
X94299772Y19902545I75000J0D01*
G01*
X95699772Y19902545D01*
G75*
G02*
X95774772Y19827545I0J-75000D01*
G01*
G37*
G36*
G01*
X95774772Y19327545D02*
X95774772Y19177545D01*
G75*
G02*
X95699772Y19102545I-75000J0D01*
G01*
X94299772Y19102545D01*
G75*
G02*
X94224772Y19177545I0J75000D01*
G01*
X94224772Y19327545D01*
G75*
G02*
X94299772Y19402545I75000J0D01*
G01*
X95699772Y19402545D01*
G75*
G02*
X95774772Y19327545I0J-75000D01*
G01*
G37*
G36*
G01*
X95774772Y18827545D02*
X95774772Y18677545D01*
G75*
G02*
X95699772Y18602545I-75000J0D01*
G01*
X94299772Y18602545D01*
G75*
G02*
X94224772Y18677545I0J75000D01*
G01*
X94224772Y18827545D01*
G75*
G02*
X94299772Y18902545I75000J0D01*
G01*
X95699772Y18902545D01*
G75*
G02*
X95774772Y18827545I0J-75000D01*
G01*
G37*
G36*
G01*
X95774772Y18327545D02*
X95774772Y18177545D01*
G75*
G02*
X95699772Y18102545I-75000J0D01*
G01*
X94299772Y18102545D01*
G75*
G02*
X94224772Y18177545I0J75000D01*
G01*
X94224772Y18327545D01*
G75*
G02*
X94299772Y18402545I75000J0D01*
G01*
X95699772Y18402545D01*
G75*
G02*
X95774772Y18327545I0J-75000D01*
G01*
G37*
G36*
G01*
X95774772Y17827545D02*
X95774772Y17677545D01*
G75*
G02*
X95699772Y17602545I-75000J0D01*
G01*
X94299772Y17602545D01*
G75*
G02*
X94224772Y17677545I0J75000D01*
G01*
X94224772Y17827545D01*
G75*
G02*
X94299772Y17902545I75000J0D01*
G01*
X95699772Y17902545D01*
G75*
G02*
X95774772Y17827545I0J-75000D01*
G01*
G37*
G36*
G01*
X95774772Y17327545D02*
X95774772Y17177545D01*
G75*
G02*
X95699772Y17102545I-75000J0D01*
G01*
X94299772Y17102545D01*
G75*
G02*
X94224772Y17177545I0J75000D01*
G01*
X94224772Y17327545D01*
G75*
G02*
X94299772Y17402545I75000J0D01*
G01*
X95699772Y17402545D01*
G75*
G02*
X95774772Y17327545I0J-75000D01*
G01*
G37*
G36*
G01*
X95774772Y16827545D02*
X95774772Y16677545D01*
G75*
G02*
X95699772Y16602545I-75000J0D01*
G01*
X94299772Y16602545D01*
G75*
G02*
X94224772Y16677545I0J75000D01*
G01*
X94224772Y16827545D01*
G75*
G02*
X94299772Y16902545I75000J0D01*
G01*
X95699772Y16902545D01*
G75*
G02*
X95774772Y16827545I0J-75000D01*
G01*
G37*
G36*
G01*
X95774772Y16327545D02*
X95774772Y16177545D01*
G75*
G02*
X95699772Y16102545I-75000J0D01*
G01*
X94299772Y16102545D01*
G75*
G02*
X94224772Y16177545I0J75000D01*
G01*
X94224772Y16327545D01*
G75*
G02*
X94299772Y16402545I75000J0D01*
G01*
X95699772Y16402545D01*
G75*
G02*
X95774772Y16327545I0J-75000D01*
G01*
G37*
G36*
G01*
X95774772Y15827545D02*
X95774772Y15677545D01*
G75*
G02*
X95699772Y15602545I-75000J0D01*
G01*
X94299772Y15602545D01*
G75*
G02*
X94224772Y15677545I0J75000D01*
G01*
X94224772Y15827545D01*
G75*
G02*
X94299772Y15902545I75000J0D01*
G01*
X95699772Y15902545D01*
G75*
G02*
X95774772Y15827545I0J-75000D01*
G01*
G37*
G36*
G01*
X95774772Y15327545D02*
X95774772Y15177545D01*
G75*
G02*
X95699772Y15102545I-75000J0D01*
G01*
X94299772Y15102545D01*
G75*
G02*
X94224772Y15177545I0J75000D01*
G01*
X94224772Y15327545D01*
G75*
G02*
X94299772Y15402545I75000J0D01*
G01*
X95699772Y15402545D01*
G75*
G02*
X95774772Y15327545I0J-75000D01*
G01*
G37*
G36*
G01*
X95774772Y14827545D02*
X95774772Y14677545D01*
G75*
G02*
X95699772Y14602545I-75000J0D01*
G01*
X94299772Y14602545D01*
G75*
G02*
X94224772Y14677545I0J75000D01*
G01*
X94224772Y14827545D01*
G75*
G02*
X94299772Y14902545I75000J0D01*
G01*
X95699772Y14902545D01*
G75*
G02*
X95774772Y14827545I0J-75000D01*
G01*
G37*
G36*
G01*
X95774772Y14327545D02*
X95774772Y14177545D01*
G75*
G02*
X95699772Y14102545I-75000J0D01*
G01*
X94299772Y14102545D01*
G75*
G02*
X94224772Y14177545I0J75000D01*
G01*
X94224772Y14327545D01*
G75*
G02*
X94299772Y14402545I75000J0D01*
G01*
X95699772Y14402545D01*
G75*
G02*
X95774772Y14327545I0J-75000D01*
G01*
G37*
D20*
X118834000Y15566145D03*
D21*
X112534000Y17866145D03*
D20*
X118834000Y17866145D03*
X118834000Y20166145D03*
D15*
X127241572Y18221745D03*
D16*
X127241572Y20761745D03*
X127241572Y23301745D03*
X127241572Y25841745D03*
X127241572Y28381745D03*
X127241572Y30921745D03*
G36*
G01*
X76647383Y23768716D02*
X76293829Y23415162D01*
G75*
G02*
X75975631Y23415162I-159099J159099D01*
G01*
X75657433Y23733360D01*
G75*
G02*
X75657433Y24051558I159099J159099D01*
G01*
X76010987Y24405112D01*
G75*
G02*
X76329185Y24405112I159099J-159099D01*
G01*
X76647383Y24086914D01*
G75*
G02*
X76647383Y23768716I-159099J-159099D01*
G01*
G37*
G36*
G01*
X75551367Y24864732D02*
X75197813Y24511178D01*
G75*
G02*
X74879615Y24511178I-159099J159099D01*
G01*
X74561417Y24829376D01*
G75*
G02*
X74561417Y25147574I159099J159099D01*
G01*
X74914971Y25501128D01*
G75*
G02*
X75233169Y25501128I159099J-159099D01*
G01*
X75551367Y25182930D01*
G75*
G02*
X75551367Y24864732I-159099J-159099D01*
G01*
G37*
G36*
G01*
X30037972Y15101545D02*
X30037972Y15601545D01*
G75*
G02*
X30262972Y15826545I225000J0D01*
G01*
X30712972Y15826545D01*
G75*
G02*
X30937972Y15601545I0J-225000D01*
G01*
X30937972Y15101545D01*
G75*
G02*
X30712972Y14876545I-225000J0D01*
G01*
X30262972Y14876545D01*
G75*
G02*
X30037972Y15101545I0J225000D01*
G01*
G37*
G36*
G01*
X31587972Y15101545D02*
X31587972Y15601545D01*
G75*
G02*
X31812972Y15826545I225000J0D01*
G01*
X32262972Y15826545D01*
G75*
G02*
X32487972Y15601545I0J-225000D01*
G01*
X32487972Y15101545D01*
G75*
G02*
X32262972Y14876545I-225000J0D01*
G01*
X31812972Y14876545D01*
G75*
G02*
X31587972Y15101545I0J225000D01*
G01*
G37*
D22*
X126860000Y4319445D03*
X124320000Y4319445D03*
X121780000Y4319445D03*
X119240000Y4319445D03*
X116700000Y4319445D03*
X114160000Y4319445D03*
X111620000Y4319445D03*
X109080000Y4319445D03*
X106540000Y4319445D03*
X104000000Y4319445D03*
X101460000Y4319445D03*
X98920000Y4319445D03*
X96380000Y4319445D03*
X93840000Y4319445D03*
X91300000Y4319445D03*
X88760000Y4319445D03*
X86220000Y4319445D03*
X83680000Y4319445D03*
X81140000Y4319445D03*
X78600000Y4319445D03*
X76060000Y4319445D03*
X73520000Y4319445D03*
X70980000Y4319445D03*
X68440000Y4319445D03*
X65900000Y4319445D03*
X63360000Y4319445D03*
X60820000Y4319445D03*
X58280000Y4319445D03*
X55740000Y4319445D03*
X53200000Y4319445D03*
X50660000Y4319445D03*
X48120000Y4319445D03*
X45580000Y4319445D03*
X43040000Y4319445D03*
X40500000Y4319445D03*
X37960000Y4319445D03*
X35420000Y4319445D03*
X32880000Y4319445D03*
X30340000Y4319445D03*
X27800000Y4319445D03*
X25260000Y4319445D03*
X22720000Y4319445D03*
X20180000Y4319445D03*
X17640000Y4319445D03*
X15100000Y4319445D03*
X12560000Y4319445D03*
X10020000Y4319445D03*
X7480000Y4319445D03*
X4940000Y4319445D03*
X2400000Y4319445D03*
G36*
G01*
X63449372Y34894945D02*
X63749372Y34894945D01*
G75*
G02*
X63899372Y34744945I0J-150000D01*
G01*
X63899372Y33569945D01*
G75*
G02*
X63749372Y33419945I-150000J0D01*
G01*
X63449372Y33419945D01*
G75*
G02*
X63299372Y33569945I0J150000D01*
G01*
X63299372Y34744945D01*
G75*
G02*
X63449372Y34894945I150000J0D01*
G01*
G37*
G36*
G01*
X61549372Y34894945D02*
X61849372Y34894945D01*
G75*
G02*
X61999372Y34744945I0J-150000D01*
G01*
X61999372Y33569945D01*
G75*
G02*
X61849372Y33419945I-150000J0D01*
G01*
X61549372Y33419945D01*
G75*
G02*
X61399372Y33569945I0J150000D01*
G01*
X61399372Y34744945D01*
G75*
G02*
X61549372Y34894945I150000J0D01*
G01*
G37*
G36*
G01*
X62499372Y33019945D02*
X62799372Y33019945D01*
G75*
G02*
X62949372Y32869945I0J-150000D01*
G01*
X62949372Y31694945D01*
G75*
G02*
X62799372Y31544945I-150000J0D01*
G01*
X62499372Y31544945D01*
G75*
G02*
X62349372Y31694945I0J150000D01*
G01*
X62349372Y32869945D01*
G75*
G02*
X62499372Y33019945I150000J0D01*
G01*
G37*
G36*
G01*
X55597772Y21814045D02*
X55797772Y21814045D01*
G75*
G02*
X55897772Y21714045I0J-100000D01*
G01*
X55897772Y20439045D01*
G75*
G02*
X55797772Y20339045I-100000J0D01*
G01*
X55597772Y20339045D01*
G75*
G02*
X55497772Y20439045I0J100000D01*
G01*
X55497772Y21714045D01*
G75*
G02*
X55597772Y21814045I100000J0D01*
G01*
G37*
G36*
G01*
X54947772Y21814045D02*
X55147772Y21814045D01*
G75*
G02*
X55247772Y21714045I0J-100000D01*
G01*
X55247772Y20439045D01*
G75*
G02*
X55147772Y20339045I-100000J0D01*
G01*
X54947772Y20339045D01*
G75*
G02*
X54847772Y20439045I0J100000D01*
G01*
X54847772Y21714045D01*
G75*
G02*
X54947772Y21814045I100000J0D01*
G01*
G37*
G36*
G01*
X54297772Y21814045D02*
X54497772Y21814045D01*
G75*
G02*
X54597772Y21714045I0J-100000D01*
G01*
X54597772Y20439045D01*
G75*
G02*
X54497772Y20339045I-100000J0D01*
G01*
X54297772Y20339045D01*
G75*
G02*
X54197772Y20439045I0J100000D01*
G01*
X54197772Y21714045D01*
G75*
G02*
X54297772Y21814045I100000J0D01*
G01*
G37*
G36*
G01*
X53647772Y21814045D02*
X53847772Y21814045D01*
G75*
G02*
X53947772Y21714045I0J-100000D01*
G01*
X53947772Y20439045D01*
G75*
G02*
X53847772Y20339045I-100000J0D01*
G01*
X53647772Y20339045D01*
G75*
G02*
X53547772Y20439045I0J100000D01*
G01*
X53547772Y21714045D01*
G75*
G02*
X53647772Y21814045I100000J0D01*
G01*
G37*
G36*
G01*
X52997772Y21814045D02*
X53197772Y21814045D01*
G75*
G02*
X53297772Y21714045I0J-100000D01*
G01*
X53297772Y20439045D01*
G75*
G02*
X53197772Y20339045I-100000J0D01*
G01*
X52997772Y20339045D01*
G75*
G02*
X52897772Y20439045I0J100000D01*
G01*
X52897772Y21714045D01*
G75*
G02*
X52997772Y21814045I100000J0D01*
G01*
G37*
G36*
G01*
X52347772Y21814045D02*
X52547772Y21814045D01*
G75*
G02*
X52647772Y21714045I0J-100000D01*
G01*
X52647772Y20439045D01*
G75*
G02*
X52547772Y20339045I-100000J0D01*
G01*
X52347772Y20339045D01*
G75*
G02*
X52247772Y20439045I0J100000D01*
G01*
X52247772Y21714045D01*
G75*
G02*
X52347772Y21814045I100000J0D01*
G01*
G37*
G36*
G01*
X51697772Y21814045D02*
X51897772Y21814045D01*
G75*
G02*
X51997772Y21714045I0J-100000D01*
G01*
X51997772Y20439045D01*
G75*
G02*
X51897772Y20339045I-100000J0D01*
G01*
X51697772Y20339045D01*
G75*
G02*
X51597772Y20439045I0J100000D01*
G01*
X51597772Y21714045D01*
G75*
G02*
X51697772Y21814045I100000J0D01*
G01*
G37*
G36*
G01*
X51047772Y21814045D02*
X51247772Y21814045D01*
G75*
G02*
X51347772Y21714045I0J-100000D01*
G01*
X51347772Y20439045D01*
G75*
G02*
X51247772Y20339045I-100000J0D01*
G01*
X51047772Y20339045D01*
G75*
G02*
X50947772Y20439045I0J100000D01*
G01*
X50947772Y21714045D01*
G75*
G02*
X51047772Y21814045I100000J0D01*
G01*
G37*
G36*
G01*
X50397772Y21814045D02*
X50597772Y21814045D01*
G75*
G02*
X50697772Y21714045I0J-100000D01*
G01*
X50697772Y20439045D01*
G75*
G02*
X50597772Y20339045I-100000J0D01*
G01*
X50397772Y20339045D01*
G75*
G02*
X50297772Y20439045I0J100000D01*
G01*
X50297772Y21714045D01*
G75*
G02*
X50397772Y21814045I100000J0D01*
G01*
G37*
G36*
G01*
X49747772Y21814045D02*
X49947772Y21814045D01*
G75*
G02*
X50047772Y21714045I0J-100000D01*
G01*
X50047772Y20439045D01*
G75*
G02*
X49947772Y20339045I-100000J0D01*
G01*
X49747772Y20339045D01*
G75*
G02*
X49647772Y20439045I0J100000D01*
G01*
X49647772Y21714045D01*
G75*
G02*
X49747772Y21814045I100000J0D01*
G01*
G37*
G36*
G01*
X49747772Y16089045D02*
X49947772Y16089045D01*
G75*
G02*
X50047772Y15989045I0J-100000D01*
G01*
X50047772Y14714045D01*
G75*
G02*
X49947772Y14614045I-100000J0D01*
G01*
X49747772Y14614045D01*
G75*
G02*
X49647772Y14714045I0J100000D01*
G01*
X49647772Y15989045D01*
G75*
G02*
X49747772Y16089045I100000J0D01*
G01*
G37*
G36*
G01*
X50397772Y16089045D02*
X50597772Y16089045D01*
G75*
G02*
X50697772Y15989045I0J-100000D01*
G01*
X50697772Y14714045D01*
G75*
G02*
X50597772Y14614045I-100000J0D01*
G01*
X50397772Y14614045D01*
G75*
G02*
X50297772Y14714045I0J100000D01*
G01*
X50297772Y15989045D01*
G75*
G02*
X50397772Y16089045I100000J0D01*
G01*
G37*
G36*
G01*
X51047772Y16089045D02*
X51247772Y16089045D01*
G75*
G02*
X51347772Y15989045I0J-100000D01*
G01*
X51347772Y14714045D01*
G75*
G02*
X51247772Y14614045I-100000J0D01*
G01*
X51047772Y14614045D01*
G75*
G02*
X50947772Y14714045I0J100000D01*
G01*
X50947772Y15989045D01*
G75*
G02*
X51047772Y16089045I100000J0D01*
G01*
G37*
G36*
G01*
X51697772Y16089045D02*
X51897772Y16089045D01*
G75*
G02*
X51997772Y15989045I0J-100000D01*
G01*
X51997772Y14714045D01*
G75*
G02*
X51897772Y14614045I-100000J0D01*
G01*
X51697772Y14614045D01*
G75*
G02*
X51597772Y14714045I0J100000D01*
G01*
X51597772Y15989045D01*
G75*
G02*
X51697772Y16089045I100000J0D01*
G01*
G37*
G36*
G01*
X52347772Y16089045D02*
X52547772Y16089045D01*
G75*
G02*
X52647772Y15989045I0J-100000D01*
G01*
X52647772Y14714045D01*
G75*
G02*
X52547772Y14614045I-100000J0D01*
G01*
X52347772Y14614045D01*
G75*
G02*
X52247772Y14714045I0J100000D01*
G01*
X52247772Y15989045D01*
G75*
G02*
X52347772Y16089045I100000J0D01*
G01*
G37*
G36*
G01*
X52997772Y16089045D02*
X53197772Y16089045D01*
G75*
G02*
X53297772Y15989045I0J-100000D01*
G01*
X53297772Y14714045D01*
G75*
G02*
X53197772Y14614045I-100000J0D01*
G01*
X52997772Y14614045D01*
G75*
G02*
X52897772Y14714045I0J100000D01*
G01*
X52897772Y15989045D01*
G75*
G02*
X52997772Y16089045I100000J0D01*
G01*
G37*
G36*
G01*
X53647772Y16089045D02*
X53847772Y16089045D01*
G75*
G02*
X53947772Y15989045I0J-100000D01*
G01*
X53947772Y14714045D01*
G75*
G02*
X53847772Y14614045I-100000J0D01*
G01*
X53647772Y14614045D01*
G75*
G02*
X53547772Y14714045I0J100000D01*
G01*
X53547772Y15989045D01*
G75*
G02*
X53647772Y16089045I100000J0D01*
G01*
G37*
G36*
G01*
X54297772Y16089045D02*
X54497772Y16089045D01*
G75*
G02*
X54597772Y15989045I0J-100000D01*
G01*
X54597772Y14714045D01*
G75*
G02*
X54497772Y14614045I-100000J0D01*
G01*
X54297772Y14614045D01*
G75*
G02*
X54197772Y14714045I0J100000D01*
G01*
X54197772Y15989045D01*
G75*
G02*
X54297772Y16089045I100000J0D01*
G01*
G37*
G36*
G01*
X54947772Y16089045D02*
X55147772Y16089045D01*
G75*
G02*
X55247772Y15989045I0J-100000D01*
G01*
X55247772Y14714045D01*
G75*
G02*
X55147772Y14614045I-100000J0D01*
G01*
X54947772Y14614045D01*
G75*
G02*
X54847772Y14714045I0J100000D01*
G01*
X54847772Y15989045D01*
G75*
G02*
X54947772Y16089045I100000J0D01*
G01*
G37*
G36*
G01*
X55597772Y16089045D02*
X55797772Y16089045D01*
G75*
G02*
X55897772Y15989045I0J-100000D01*
G01*
X55897772Y14714045D01*
G75*
G02*
X55797772Y14614045I-100000J0D01*
G01*
X55597772Y14614045D01*
G75*
G02*
X55497772Y14714045I0J100000D01*
G01*
X55497772Y15989045D01*
G75*
G02*
X55597772Y16089045I100000J0D01*
G01*
G37*
D15*
X126034800Y36148946D03*
D16*
X126034800Y38688946D03*
G36*
G01*
X74089139Y15289206D02*
X74442693Y14935652D01*
G75*
G02*
X74442693Y14617454I-159099J-159099D01*
G01*
X74124495Y14299256D01*
G75*
G02*
X73806297Y14299256I-159099J159099D01*
G01*
X73452743Y14652810D01*
G75*
G02*
X73452743Y14971008I159099J159099D01*
G01*
X73770941Y15289206D01*
G75*
G02*
X74089139Y15289206I159099J-159099D01*
G01*
G37*
G36*
G01*
X72993123Y14193190D02*
X73346677Y13839636D01*
G75*
G02*
X73346677Y13521438I-159099J-159099D01*
G01*
X73028479Y13203240D01*
G75*
G02*
X72710281Y13203240I-159099J159099D01*
G01*
X72356727Y13556794D01*
G75*
G02*
X72356727Y13874992I159099J159099D01*
G01*
X72674925Y14193190D01*
G75*
G02*
X72993123Y14193190I159099J-159099D01*
G01*
G37*
G36*
G01*
X86827746Y13456312D02*
X87181300Y13809866D01*
G75*
G02*
X87499498Y13809866I159099J-159099D01*
G01*
X87817696Y13491668D01*
G75*
G02*
X87817696Y13173470I-159099J-159099D01*
G01*
X87464142Y12819916D01*
G75*
G02*
X87145944Y12819916I-159099J159099D01*
G01*
X86827746Y13138114D01*
G75*
G02*
X86827746Y13456312I159099J159099D01*
G01*
G37*
G36*
G01*
X87923762Y12360296D02*
X88277316Y12713850D01*
G75*
G02*
X88595514Y12713850I159099J-159099D01*
G01*
X88913712Y12395652D01*
G75*
G02*
X88913712Y12077454I-159099J-159099D01*
G01*
X88560158Y11723900D01*
G75*
G02*
X88241960Y11723900I-159099J159099D01*
G01*
X87923762Y12042098D01*
G75*
G02*
X87923762Y12360296I159099J159099D01*
G01*
G37*
G36*
G01*
X43499972Y15101545D02*
X43499972Y15601545D01*
G75*
G02*
X43724972Y15826545I225000J0D01*
G01*
X44174972Y15826545D01*
G75*
G02*
X44399972Y15601545I0J-225000D01*
G01*
X44399972Y15101545D01*
G75*
G02*
X44174972Y14876545I-225000J0D01*
G01*
X43724972Y14876545D01*
G75*
G02*
X43499972Y15101545I0J225000D01*
G01*
G37*
G36*
G01*
X45049972Y15101545D02*
X45049972Y15601545D01*
G75*
G02*
X45274972Y15826545I225000J0D01*
G01*
X45724972Y15826545D01*
G75*
G02*
X45949972Y15601545I0J-225000D01*
G01*
X45949972Y15101545D01*
G75*
G02*
X45724972Y14876545I-225000J0D01*
G01*
X45274972Y14876545D01*
G75*
G02*
X45049972Y15101545I0J225000D01*
G01*
G37*
M02*
