G04 #@! TF.GenerationSoftware,KiCad,Pcbnew,8.0.6+1*
G04 #@! TF.CreationDate,2025-01-11T21:43:42+00:00*
G04 #@! TF.ProjectId,RIPPLE,52495050-4c45-42e6-9b69-6361645f7063,rev?*
G04 #@! TF.SameCoordinates,Original*
G04 #@! TF.FileFunction,Soldermask,Top*
G04 #@! TF.FilePolarity,Negative*
%FSLAX46Y46*%
G04 Gerber Fmt 4.6, Leading zero omitted, Abs format (unit mm)*
G04 Created by KiCad (PCBNEW 8.0.6+1) date 2025-01-11 21:43:42*
%MOMM*%
%LPD*%
G01*
G04 APERTURE LIST*
%ADD10C,0.100000*%
%ADD11R,1.700000X1.700000*%
%ADD12O,1.700000X1.700000*%
%ADD13C,1.700000*%
%ADD14R,0.899000X0.400000*%
%ADD15R,2.000000X1.500000*%
%ADD16R,2.000000X3.800000*%
%ADD17R,1.524000X6.754000*%
G04 APERTURE END LIST*
D10*
X130670000Y-1133555D02*
X-1410000Y-1133555D01*
X-1410000Y7756445D01*
X130670000Y7756445D01*
X130670000Y-1133555D01*
G36*
X130670000Y-1133555D02*
G01*
X-1410000Y-1133555D01*
X-1410000Y7756445D01*
X130670000Y7756445D01*
X130670000Y-1133555D01*
G37*
D11*
X8166372Y24774945D03*
D12*
X5626372Y24774945D03*
G36*
G01*
X114202472Y34734745D02*
X114677472Y34734745D01*
G75*
G02*
X114914972Y34497245I0J-237500D01*
G01*
X114914972Y33997245D01*
G75*
G02*
X114677472Y33759745I-237500J0D01*
G01*
X114202472Y33759745D01*
G75*
G02*
X113964972Y33997245I0J237500D01*
G01*
X113964972Y34497245D01*
G75*
G02*
X114202472Y34734745I237500J0D01*
G01*
G37*
G36*
G01*
X114202472Y32909745D02*
X114677472Y32909745D01*
G75*
G02*
X114914972Y32672245I0J-237500D01*
G01*
X114914972Y32172245D01*
G75*
G02*
X114677472Y31934745I-237500J0D01*
G01*
X114202472Y31934745D01*
G75*
G02*
X113964972Y32172245I0J237500D01*
G01*
X113964972Y32672245D01*
G75*
G02*
X114202472Y32909745I237500J0D01*
G01*
G37*
G36*
G01*
X58703472Y34734745D02*
X59178472Y34734745D01*
G75*
G02*
X59415972Y34497245I0J-237500D01*
G01*
X59415972Y33997245D01*
G75*
G02*
X59178472Y33759745I-237500J0D01*
G01*
X58703472Y33759745D01*
G75*
G02*
X58465972Y33997245I0J237500D01*
G01*
X58465972Y34497245D01*
G75*
G02*
X58703472Y34734745I237500J0D01*
G01*
G37*
G36*
G01*
X58703472Y32909745D02*
X59178472Y32909745D01*
G75*
G02*
X59415972Y32672245I0J-237500D01*
G01*
X59415972Y32172245D01*
G75*
G02*
X59178472Y31934745I-237500J0D01*
G01*
X58703472Y31934745D01*
G75*
G02*
X58465972Y32172245I0J237500D01*
G01*
X58465972Y32672245D01*
G75*
G02*
X58703472Y32909745I237500J0D01*
G01*
G37*
G36*
G01*
X112628354Y24161747D02*
X112628354Y25461747D01*
G75*
G02*
X112878354Y25711747I250000J0D01*
G01*
X113703354Y25711747D01*
G75*
G02*
X113953354Y25461747I0J-250000D01*
G01*
X113953354Y24161747D01*
G75*
G02*
X113703354Y23911747I-250000J0D01*
G01*
X112878354Y23911747D01*
G75*
G02*
X112628354Y24161747I0J250000D01*
G01*
G37*
G36*
G01*
X115753354Y24161747D02*
X115753354Y25461747D01*
G75*
G02*
X116003354Y25711747I250000J0D01*
G01*
X116828354Y25711747D01*
G75*
G02*
X117078354Y25461747I0J-250000D01*
G01*
X117078354Y24161747D01*
G75*
G02*
X116828354Y23911747I-250000J0D01*
G01*
X116003354Y23911747D01*
G75*
G02*
X115753354Y24161747I0J250000D01*
G01*
G37*
G36*
G01*
X48581300Y34734745D02*
X49056300Y34734745D01*
G75*
G02*
X49293800Y34497245I0J-237500D01*
G01*
X49293800Y33997245D01*
G75*
G02*
X49056300Y33759745I-237500J0D01*
G01*
X48581300Y33759745D01*
G75*
G02*
X48343800Y33997245I0J237500D01*
G01*
X48343800Y34497245D01*
G75*
G02*
X48581300Y34734745I237500J0D01*
G01*
G37*
G36*
G01*
X48581300Y32909745D02*
X49056300Y32909745D01*
G75*
G02*
X49293800Y32672245I0J-237500D01*
G01*
X49293800Y32172245D01*
G75*
G02*
X49056300Y31934745I-237500J0D01*
G01*
X48581300Y31934745D01*
G75*
G02*
X48343800Y32172245I0J237500D01*
G01*
X48343800Y32672245D01*
G75*
G02*
X48581300Y32909745I237500J0D01*
G01*
G37*
G36*
G01*
X56638472Y31934745D02*
X56163472Y31934745D01*
G75*
G02*
X55925972Y32172245I0J237500D01*
G01*
X55925972Y32672245D01*
G75*
G02*
X56163472Y32909745I237500J0D01*
G01*
X56638472Y32909745D01*
G75*
G02*
X56875972Y32672245I0J-237500D01*
G01*
X56875972Y32172245D01*
G75*
G02*
X56638472Y31934745I-237500J0D01*
G01*
G37*
G36*
G01*
X56638472Y33759745D02*
X56163472Y33759745D01*
G75*
G02*
X55925972Y33997245I0J237500D01*
G01*
X55925972Y34497245D01*
G75*
G02*
X56163472Y34734745I237500J0D01*
G01*
X56638472Y34734745D01*
G75*
G02*
X56875972Y34497245I0J-237500D01*
G01*
X56875972Y33997245D01*
G75*
G02*
X56638472Y33759745I-237500J0D01*
G01*
G37*
D11*
X2984772Y29925946D03*
D12*
X5524772Y29925946D03*
X8064772Y29925946D03*
X10604772Y29925946D03*
G36*
G01*
X56786972Y15114045D02*
X56786972Y15589045D01*
G75*
G02*
X57024472Y15826545I237500J0D01*
G01*
X57624472Y15826545D01*
G75*
G02*
X57861972Y15589045I0J-237500D01*
G01*
X57861972Y15114045D01*
G75*
G02*
X57624472Y14876545I-237500J0D01*
G01*
X57024472Y14876545D01*
G75*
G02*
X56786972Y15114045I0J237500D01*
G01*
G37*
G36*
G01*
X58511972Y15114045D02*
X58511972Y15589045D01*
G75*
G02*
X58749472Y15826545I237500J0D01*
G01*
X59349472Y15826545D01*
G75*
G02*
X59586972Y15589045I0J-237500D01*
G01*
X59586972Y15114045D01*
G75*
G02*
X59349472Y14876545I-237500J0D01*
G01*
X58749472Y14876545D01*
G75*
G02*
X58511972Y15114045I0J237500D01*
G01*
G37*
G36*
G01*
X11280972Y35785845D02*
X10080972Y35785845D01*
G75*
G02*
X9830972Y36035845I0J250000D01*
G01*
X9830972Y37235845D01*
G75*
G02*
X10080972Y37485845I250000J0D01*
G01*
X11280972Y37485845D01*
G75*
G02*
X11530972Y37235845I0J-250000D01*
G01*
X11530972Y36035845D01*
G75*
G02*
X11280972Y35785845I-250000J0D01*
G01*
G37*
D13*
X10680972Y39175845D03*
X13220972Y36635845D03*
X13220972Y39175845D03*
X15760972Y36635845D03*
X15760972Y39175845D03*
X18300972Y36635845D03*
X18300972Y39175845D03*
X20840972Y36635845D03*
X20840972Y39175845D03*
X23380972Y36635845D03*
X23380972Y39175845D03*
X25920972Y36635845D03*
X25920972Y39175845D03*
X28460972Y36635845D03*
X28460972Y39175845D03*
X31000972Y36635845D03*
X31000972Y39175845D03*
X33540972Y36635845D03*
X33540972Y39175845D03*
X36080972Y36635845D03*
X36080972Y39175845D03*
X38620972Y36635845D03*
X38620972Y39175845D03*
X41160972Y36635845D03*
X41160972Y39175845D03*
X43700972Y36635845D03*
X43700972Y39175845D03*
X46240972Y36635845D03*
X46240972Y39175845D03*
X48780972Y36635845D03*
X48780972Y39175845D03*
X51320972Y36635845D03*
X51320972Y39175845D03*
X53860972Y36635845D03*
X53860972Y39175845D03*
X56400972Y36635845D03*
X56400972Y39175845D03*
X58940972Y36635845D03*
X58940972Y39175845D03*
D14*
X16962272Y23240547D03*
X16962272Y22590547D03*
X16962272Y21940547D03*
X19111272Y21940547D03*
X19111272Y22590547D03*
X19111272Y23240547D03*
G36*
G01*
X118308300Y34734745D02*
X118783300Y34734745D01*
G75*
G02*
X119020800Y34497245I0J-237500D01*
G01*
X119020800Y33997245D01*
G75*
G02*
X118783300Y33759745I-237500J0D01*
G01*
X118308300Y33759745D01*
G75*
G02*
X118070800Y33997245I0J237500D01*
G01*
X118070800Y34497245D01*
G75*
G02*
X118308300Y34734745I237500J0D01*
G01*
G37*
G36*
G01*
X118308300Y32909745D02*
X118783300Y32909745D01*
G75*
G02*
X119020800Y32672245I0J-237500D01*
G01*
X119020800Y32172245D01*
G75*
G02*
X118783300Y31934745I-237500J0D01*
G01*
X118308300Y31934745D01*
G75*
G02*
X118070800Y32172245I0J237500D01*
G01*
X118070800Y32672245D01*
G75*
G02*
X118308300Y32909745I237500J0D01*
G01*
G37*
G36*
G01*
X15530454Y32321747D02*
X16005454Y32321747D01*
G75*
G02*
X16242954Y32084247I0J-237500D01*
G01*
X16242954Y31584247D01*
G75*
G02*
X16005454Y31346747I-237500J0D01*
G01*
X15530454Y31346747D01*
G75*
G02*
X15292954Y31584247I0J237500D01*
G01*
X15292954Y32084247D01*
G75*
G02*
X15530454Y32321747I237500J0D01*
G01*
G37*
G36*
G01*
X15530454Y30496747D02*
X16005454Y30496747D01*
G75*
G02*
X16242954Y30259247I0J-237500D01*
G01*
X16242954Y29759247D01*
G75*
G02*
X16005454Y29521747I-237500J0D01*
G01*
X15530454Y29521747D01*
G75*
G02*
X15292954Y29759247I0J237500D01*
G01*
X15292954Y30259247D01*
G75*
G02*
X15530454Y30496747I237500J0D01*
G01*
G37*
G36*
G01*
X108148300Y34734745D02*
X108623300Y34734745D01*
G75*
G02*
X108860800Y34497245I0J-237500D01*
G01*
X108860800Y33997245D01*
G75*
G02*
X108623300Y33759745I-237500J0D01*
G01*
X108148300Y33759745D01*
G75*
G02*
X107910800Y33997245I0J237500D01*
G01*
X107910800Y34497245D01*
G75*
G02*
X108148300Y34734745I237500J0D01*
G01*
G37*
G36*
G01*
X108148300Y32909745D02*
X108623300Y32909745D01*
G75*
G02*
X108860800Y32672245I0J-237500D01*
G01*
X108860800Y32172245D01*
G75*
G02*
X108623300Y31934745I-237500J0D01*
G01*
X108148300Y31934745D01*
G75*
G02*
X107910800Y32172245I0J237500D01*
G01*
X107910800Y32672245D01*
G75*
G02*
X108148300Y32909745I237500J0D01*
G01*
G37*
G36*
G01*
X1965772Y33320646D02*
X1965772Y33795646D01*
G75*
G02*
X2203272Y34033146I237500J0D01*
G01*
X2703272Y34033146D01*
G75*
G02*
X2940772Y33795646I0J-237500D01*
G01*
X2940772Y33320646D01*
G75*
G02*
X2703272Y33083146I-237500J0D01*
G01*
X2203272Y33083146D01*
G75*
G02*
X1965772Y33320646I0J237500D01*
G01*
G37*
G36*
G01*
X3790772Y33320646D02*
X3790772Y33795646D01*
G75*
G02*
X4028272Y34033146I237500J0D01*
G01*
X4528272Y34033146D01*
G75*
G02*
X4765772Y33795646I0J-237500D01*
G01*
X4765772Y33320646D01*
G75*
G02*
X4528272Y33083146I-237500J0D01*
G01*
X4028272Y33083146D01*
G75*
G02*
X3790772Y33320646I0J237500D01*
G01*
G37*
G36*
G01*
X70885800Y35785845D02*
X69685800Y35785845D01*
G75*
G02*
X69435800Y36035845I0J250000D01*
G01*
X69435800Y37235845D01*
G75*
G02*
X69685800Y37485845I250000J0D01*
G01*
X70885800Y37485845D01*
G75*
G02*
X71135800Y37235845I0J-250000D01*
G01*
X71135800Y36035845D01*
G75*
G02*
X70885800Y35785845I-250000J0D01*
G01*
G37*
D13*
X70285800Y39175845D03*
X72825800Y36635845D03*
X72825800Y39175845D03*
X75365800Y36635845D03*
X75365800Y39175845D03*
X77905800Y36635845D03*
X77905800Y39175845D03*
X80445800Y36635845D03*
X80445800Y39175845D03*
X82985800Y36635845D03*
X82985800Y39175845D03*
X85525800Y36635845D03*
X85525800Y39175845D03*
X88065800Y36635845D03*
X88065800Y39175845D03*
X90605800Y36635845D03*
X90605800Y39175845D03*
X93145800Y36635845D03*
X93145800Y39175845D03*
X95685800Y36635845D03*
X95685800Y39175845D03*
X98225800Y36635845D03*
X98225800Y39175845D03*
X100765800Y36635845D03*
X100765800Y39175845D03*
X103305800Y36635845D03*
X103305800Y39175845D03*
X105845800Y36635845D03*
X105845800Y39175845D03*
X108385800Y36635845D03*
X108385800Y39175845D03*
X110925800Y36635845D03*
X110925800Y39175845D03*
X113465800Y36635845D03*
X113465800Y39175845D03*
X116005800Y36635845D03*
X116005800Y39175845D03*
X118545800Y36635845D03*
X118545800Y39175845D03*
G36*
G01*
X28673772Y21814045D02*
X28873772Y21814045D01*
G75*
G02*
X28973772Y21714045I0J-100000D01*
G01*
X28973772Y20439045D01*
G75*
G02*
X28873772Y20339045I-100000J0D01*
G01*
X28673772Y20339045D01*
G75*
G02*
X28573772Y20439045I0J100000D01*
G01*
X28573772Y21714045D01*
G75*
G02*
X28673772Y21814045I100000J0D01*
G01*
G37*
G36*
G01*
X28023772Y21814045D02*
X28223772Y21814045D01*
G75*
G02*
X28323772Y21714045I0J-100000D01*
G01*
X28323772Y20439045D01*
G75*
G02*
X28223772Y20339045I-100000J0D01*
G01*
X28023772Y20339045D01*
G75*
G02*
X27923772Y20439045I0J100000D01*
G01*
X27923772Y21714045D01*
G75*
G02*
X28023772Y21814045I100000J0D01*
G01*
G37*
G36*
G01*
X27373772Y21814045D02*
X27573772Y21814045D01*
G75*
G02*
X27673772Y21714045I0J-100000D01*
G01*
X27673772Y20439045D01*
G75*
G02*
X27573772Y20339045I-100000J0D01*
G01*
X27373772Y20339045D01*
G75*
G02*
X27273772Y20439045I0J100000D01*
G01*
X27273772Y21714045D01*
G75*
G02*
X27373772Y21814045I100000J0D01*
G01*
G37*
G36*
G01*
X26723772Y21814045D02*
X26923772Y21814045D01*
G75*
G02*
X27023772Y21714045I0J-100000D01*
G01*
X27023772Y20439045D01*
G75*
G02*
X26923772Y20339045I-100000J0D01*
G01*
X26723772Y20339045D01*
G75*
G02*
X26623772Y20439045I0J100000D01*
G01*
X26623772Y21714045D01*
G75*
G02*
X26723772Y21814045I100000J0D01*
G01*
G37*
G36*
G01*
X26073772Y21814045D02*
X26273772Y21814045D01*
G75*
G02*
X26373772Y21714045I0J-100000D01*
G01*
X26373772Y20439045D01*
G75*
G02*
X26273772Y20339045I-100000J0D01*
G01*
X26073772Y20339045D01*
G75*
G02*
X25973772Y20439045I0J100000D01*
G01*
X25973772Y21714045D01*
G75*
G02*
X26073772Y21814045I100000J0D01*
G01*
G37*
G36*
G01*
X25423772Y21814045D02*
X25623772Y21814045D01*
G75*
G02*
X25723772Y21714045I0J-100000D01*
G01*
X25723772Y20439045D01*
G75*
G02*
X25623772Y20339045I-100000J0D01*
G01*
X25423772Y20339045D01*
G75*
G02*
X25323772Y20439045I0J100000D01*
G01*
X25323772Y21714045D01*
G75*
G02*
X25423772Y21814045I100000J0D01*
G01*
G37*
G36*
G01*
X24773772Y21814045D02*
X24973772Y21814045D01*
G75*
G02*
X25073772Y21714045I0J-100000D01*
G01*
X25073772Y20439045D01*
G75*
G02*
X24973772Y20339045I-100000J0D01*
G01*
X24773772Y20339045D01*
G75*
G02*
X24673772Y20439045I0J100000D01*
G01*
X24673772Y21714045D01*
G75*
G02*
X24773772Y21814045I100000J0D01*
G01*
G37*
G36*
G01*
X24123772Y21814045D02*
X24323772Y21814045D01*
G75*
G02*
X24423772Y21714045I0J-100000D01*
G01*
X24423772Y20439045D01*
G75*
G02*
X24323772Y20339045I-100000J0D01*
G01*
X24123772Y20339045D01*
G75*
G02*
X24023772Y20439045I0J100000D01*
G01*
X24023772Y21714045D01*
G75*
G02*
X24123772Y21814045I100000J0D01*
G01*
G37*
G36*
G01*
X23473772Y21814045D02*
X23673772Y21814045D01*
G75*
G02*
X23773772Y21714045I0J-100000D01*
G01*
X23773772Y20439045D01*
G75*
G02*
X23673772Y20339045I-100000J0D01*
G01*
X23473772Y20339045D01*
G75*
G02*
X23373772Y20439045I0J100000D01*
G01*
X23373772Y21714045D01*
G75*
G02*
X23473772Y21814045I100000J0D01*
G01*
G37*
G36*
G01*
X22823772Y21814045D02*
X23023772Y21814045D01*
G75*
G02*
X23123772Y21714045I0J-100000D01*
G01*
X23123772Y20439045D01*
G75*
G02*
X23023772Y20339045I-100000J0D01*
G01*
X22823772Y20339045D01*
G75*
G02*
X22723772Y20439045I0J100000D01*
G01*
X22723772Y21714045D01*
G75*
G02*
X22823772Y21814045I100000J0D01*
G01*
G37*
G36*
G01*
X22823772Y16089045D02*
X23023772Y16089045D01*
G75*
G02*
X23123772Y15989045I0J-100000D01*
G01*
X23123772Y14714045D01*
G75*
G02*
X23023772Y14614045I-100000J0D01*
G01*
X22823772Y14614045D01*
G75*
G02*
X22723772Y14714045I0J100000D01*
G01*
X22723772Y15989045D01*
G75*
G02*
X22823772Y16089045I100000J0D01*
G01*
G37*
G36*
G01*
X23473772Y16089045D02*
X23673772Y16089045D01*
G75*
G02*
X23773772Y15989045I0J-100000D01*
G01*
X23773772Y14714045D01*
G75*
G02*
X23673772Y14614045I-100000J0D01*
G01*
X23473772Y14614045D01*
G75*
G02*
X23373772Y14714045I0J100000D01*
G01*
X23373772Y15989045D01*
G75*
G02*
X23473772Y16089045I100000J0D01*
G01*
G37*
G36*
G01*
X24123772Y16089045D02*
X24323772Y16089045D01*
G75*
G02*
X24423772Y15989045I0J-100000D01*
G01*
X24423772Y14714045D01*
G75*
G02*
X24323772Y14614045I-100000J0D01*
G01*
X24123772Y14614045D01*
G75*
G02*
X24023772Y14714045I0J100000D01*
G01*
X24023772Y15989045D01*
G75*
G02*
X24123772Y16089045I100000J0D01*
G01*
G37*
G36*
G01*
X24773772Y16089045D02*
X24973772Y16089045D01*
G75*
G02*
X25073772Y15989045I0J-100000D01*
G01*
X25073772Y14714045D01*
G75*
G02*
X24973772Y14614045I-100000J0D01*
G01*
X24773772Y14614045D01*
G75*
G02*
X24673772Y14714045I0J100000D01*
G01*
X24673772Y15989045D01*
G75*
G02*
X24773772Y16089045I100000J0D01*
G01*
G37*
G36*
G01*
X25423772Y16089045D02*
X25623772Y16089045D01*
G75*
G02*
X25723772Y15989045I0J-100000D01*
G01*
X25723772Y14714045D01*
G75*
G02*
X25623772Y14614045I-100000J0D01*
G01*
X25423772Y14614045D01*
G75*
G02*
X25323772Y14714045I0J100000D01*
G01*
X25323772Y15989045D01*
G75*
G02*
X25423772Y16089045I100000J0D01*
G01*
G37*
G36*
G01*
X26073772Y16089045D02*
X26273772Y16089045D01*
G75*
G02*
X26373772Y15989045I0J-100000D01*
G01*
X26373772Y14714045D01*
G75*
G02*
X26273772Y14614045I-100000J0D01*
G01*
X26073772Y14614045D01*
G75*
G02*
X25973772Y14714045I0J100000D01*
G01*
X25973772Y15989045D01*
G75*
G02*
X26073772Y16089045I100000J0D01*
G01*
G37*
G36*
G01*
X26723772Y16089045D02*
X26923772Y16089045D01*
G75*
G02*
X27023772Y15989045I0J-100000D01*
G01*
X27023772Y14714045D01*
G75*
G02*
X26923772Y14614045I-100000J0D01*
G01*
X26723772Y14614045D01*
G75*
G02*
X26623772Y14714045I0J100000D01*
G01*
X26623772Y15989045D01*
G75*
G02*
X26723772Y16089045I100000J0D01*
G01*
G37*
G36*
G01*
X27373772Y16089045D02*
X27573772Y16089045D01*
G75*
G02*
X27673772Y15989045I0J-100000D01*
G01*
X27673772Y14714045D01*
G75*
G02*
X27573772Y14614045I-100000J0D01*
G01*
X27373772Y14614045D01*
G75*
G02*
X27273772Y14714045I0J100000D01*
G01*
X27273772Y15989045D01*
G75*
G02*
X27373772Y16089045I100000J0D01*
G01*
G37*
G36*
G01*
X28023772Y16089045D02*
X28223772Y16089045D01*
G75*
G02*
X28323772Y15989045I0J-100000D01*
G01*
X28323772Y14714045D01*
G75*
G02*
X28223772Y14614045I-100000J0D01*
G01*
X28023772Y14614045D01*
G75*
G02*
X27923772Y14714045I0J100000D01*
G01*
X27923772Y15989045D01*
G75*
G02*
X28023772Y16089045I100000J0D01*
G01*
G37*
G36*
G01*
X28673772Y16089045D02*
X28873772Y16089045D01*
G75*
G02*
X28973772Y15989045I0J-100000D01*
G01*
X28973772Y14714045D01*
G75*
G02*
X28873772Y14614045I-100000J0D01*
G01*
X28673772Y14614045D01*
G75*
G02*
X28573772Y14714045I0J100000D01*
G01*
X28573772Y15989045D01*
G75*
G02*
X28673772Y16089045I100000J0D01*
G01*
G37*
G36*
G01*
X29211754Y12277947D02*
X30111754Y12277947D01*
G75*
G02*
X30361754Y12027947I0J-250000D01*
G01*
X30361754Y11327947D01*
G75*
G02*
X30111754Y11077947I-250000J0D01*
G01*
X29211754Y11077947D01*
G75*
G02*
X28961754Y11327947I0J250000D01*
G01*
X28961754Y12027947D01*
G75*
G02*
X29211754Y12277947I250000J0D01*
G01*
G37*
G36*
G01*
X29211754Y10277947D02*
X30111754Y10277947D01*
G75*
G02*
X30361754Y10027947I0J-250000D01*
G01*
X30361754Y9327947D01*
G75*
G02*
X30111754Y9077947I-250000J0D01*
G01*
X29211754Y9077947D01*
G75*
G02*
X28961754Y9327947I0J250000D01*
G01*
X28961754Y10027947D01*
G75*
G02*
X29211754Y10277947I250000J0D01*
G01*
G37*
G36*
G01*
X115768300Y34734745D02*
X116243300Y34734745D01*
G75*
G02*
X116480800Y34497245I0J-237500D01*
G01*
X116480800Y33997245D01*
G75*
G02*
X116243300Y33759745I-237500J0D01*
G01*
X115768300Y33759745D01*
G75*
G02*
X115530800Y33997245I0J237500D01*
G01*
X115530800Y34497245D01*
G75*
G02*
X115768300Y34734745I237500J0D01*
G01*
G37*
G36*
G01*
X115768300Y32909745D02*
X116243300Y32909745D01*
G75*
G02*
X116480800Y32672245I0J-237500D01*
G01*
X116480800Y32172245D01*
G75*
G02*
X116243300Y31934745I-237500J0D01*
G01*
X115768300Y31934745D01*
G75*
G02*
X115530800Y32172245I0J237500D01*
G01*
X115530800Y32672245D01*
G75*
G02*
X115768300Y32909745I237500J0D01*
G01*
G37*
G36*
G01*
X64283872Y31934745D02*
X63808872Y31934745D01*
G75*
G02*
X63571372Y32172245I0J237500D01*
G01*
X63571372Y32672245D01*
G75*
G02*
X63808872Y32909745I237500J0D01*
G01*
X64283872Y32909745D01*
G75*
G02*
X64521372Y32672245I0J-237500D01*
G01*
X64521372Y32172245D01*
G75*
G02*
X64283872Y31934745I-237500J0D01*
G01*
G37*
G36*
G01*
X64283872Y33759745D02*
X63808872Y33759745D01*
G75*
G02*
X63571372Y33997245I0J237500D01*
G01*
X63571372Y34497245D01*
G75*
G02*
X63808872Y34734745I237500J0D01*
G01*
X64283872Y34734745D01*
G75*
G02*
X64521372Y34497245I0J-237500D01*
G01*
X64521372Y33997245D01*
G75*
G02*
X64283872Y33759745I-237500J0D01*
G01*
G37*
G36*
G01*
X74194271Y16345679D02*
X74088205Y16451745D01*
G75*
G02*
X74088205Y16557811I53033J53033D01*
G01*
X75025121Y17494727D01*
G75*
G02*
X75131187Y17494727I53033J-53033D01*
G01*
X75237253Y17388661D01*
G75*
G02*
X75237253Y17282595I-53033J-53033D01*
G01*
X74300337Y16345679D01*
G75*
G02*
X74194271Y16345679I-53033J53033D01*
G01*
G37*
G36*
G01*
X74547825Y15992126D02*
X74441759Y16098192D01*
G75*
G02*
X74441759Y16204258I53033J53033D01*
G01*
X75378675Y17141174D01*
G75*
G02*
X75484741Y17141174I53033J-53033D01*
G01*
X75590807Y17035108D01*
G75*
G02*
X75590807Y16929042I-53033J-53033D01*
G01*
X74653891Y15992126D01*
G75*
G02*
X74547825Y15992126I-53033J53033D01*
G01*
G37*
G36*
G01*
X74901378Y15638572D02*
X74795312Y15744638D01*
G75*
G02*
X74795312Y15850704I53033J53033D01*
G01*
X75732228Y16787620D01*
G75*
G02*
X75838294Y16787620I53033J-53033D01*
G01*
X75944360Y16681554D01*
G75*
G02*
X75944360Y16575488I-53033J-53033D01*
G01*
X75007444Y15638572D01*
G75*
G02*
X74901378Y15638572I-53033J53033D01*
G01*
G37*
G36*
G01*
X75254932Y15285019D02*
X75148866Y15391085D01*
G75*
G02*
X75148866Y15497151I53033J53033D01*
G01*
X76085782Y16434067D01*
G75*
G02*
X76191848Y16434067I53033J-53033D01*
G01*
X76297914Y16328001D01*
G75*
G02*
X76297914Y16221935I-53033J-53033D01*
G01*
X75360998Y15285019D01*
G75*
G02*
X75254932Y15285019I-53033J53033D01*
G01*
G37*
G36*
G01*
X75608485Y14931466D02*
X75502419Y15037532D01*
G75*
G02*
X75502419Y15143598I53033J53033D01*
G01*
X76439335Y16080514D01*
G75*
G02*
X76545401Y16080514I53033J-53033D01*
G01*
X76651467Y15974448D01*
G75*
G02*
X76651467Y15868382I-53033J-53033D01*
G01*
X75714551Y14931466D01*
G75*
G02*
X75608485Y14931466I-53033J53033D01*
G01*
G37*
G36*
G01*
X75962038Y14577912D02*
X75855972Y14683978D01*
G75*
G02*
X75855972Y14790044I53033J53033D01*
G01*
X76792888Y15726960D01*
G75*
G02*
X76898954Y15726960I53033J-53033D01*
G01*
X77005020Y15620894D01*
G75*
G02*
X77005020Y15514828I-53033J-53033D01*
G01*
X76068104Y14577912D01*
G75*
G02*
X75962038Y14577912I-53033J53033D01*
G01*
G37*
G36*
G01*
X76315592Y14224359D02*
X76209526Y14330425D01*
G75*
G02*
X76209526Y14436491I53033J53033D01*
G01*
X77146442Y15373407D01*
G75*
G02*
X77252508Y15373407I53033J-53033D01*
G01*
X77358574Y15267341D01*
G75*
G02*
X77358574Y15161275I-53033J-53033D01*
G01*
X76421658Y14224359D01*
G75*
G02*
X76315592Y14224359I-53033J53033D01*
G01*
G37*
G36*
G01*
X76669145Y13870806D02*
X76563079Y13976872D01*
G75*
G02*
X76563079Y14082938I53033J53033D01*
G01*
X77499995Y15019854D01*
G75*
G02*
X77606061Y15019854I53033J-53033D01*
G01*
X77712127Y14913788D01*
G75*
G02*
X77712127Y14807722I-53033J-53033D01*
G01*
X76775211Y13870806D01*
G75*
G02*
X76669145Y13870806I-53033J53033D01*
G01*
G37*
G36*
G01*
X77022699Y13517252D02*
X76916633Y13623318D01*
G75*
G02*
X76916633Y13729384I53033J53033D01*
G01*
X77853549Y14666300D01*
G75*
G02*
X77959615Y14666300I53033J-53033D01*
G01*
X78065681Y14560234D01*
G75*
G02*
X78065681Y14454168I-53033J-53033D01*
G01*
X77128765Y13517252D01*
G75*
G02*
X77022699Y13517252I-53033J53033D01*
G01*
G37*
G36*
G01*
X77376252Y13163699D02*
X77270186Y13269765D01*
G75*
G02*
X77270186Y13375831I53033J53033D01*
G01*
X78207102Y14312747D01*
G75*
G02*
X78313168Y14312747I53033J-53033D01*
G01*
X78419234Y14206681D01*
G75*
G02*
X78419234Y14100615I-53033J-53033D01*
G01*
X77482318Y13163699D01*
G75*
G02*
X77376252Y13163699I-53033J53033D01*
G01*
G37*
G36*
G01*
X77729805Y12810145D02*
X77623739Y12916211D01*
G75*
G02*
X77623739Y13022277I53033J53033D01*
G01*
X78560655Y13959193D01*
G75*
G02*
X78666721Y13959193I53033J-53033D01*
G01*
X78772787Y13853127D01*
G75*
G02*
X78772787Y13747061I-53033J-53033D01*
G01*
X77835871Y12810145D01*
G75*
G02*
X77729805Y12810145I-53033J53033D01*
G01*
G37*
G36*
G01*
X78083359Y12456592D02*
X77977293Y12562658D01*
G75*
G02*
X77977293Y12668724I53033J53033D01*
G01*
X78914209Y13605640D01*
G75*
G02*
X79020275Y13605640I53033J-53033D01*
G01*
X79126341Y13499574D01*
G75*
G02*
X79126341Y13393508I-53033J-53033D01*
G01*
X78189425Y12456592D01*
G75*
G02*
X78083359Y12456592I-53033J53033D01*
G01*
G37*
G36*
G01*
X78436912Y12103039D02*
X78330846Y12209105D01*
G75*
G02*
X78330846Y12315171I53033J53033D01*
G01*
X79267762Y13252087D01*
G75*
G02*
X79373828Y13252087I53033J-53033D01*
G01*
X79479894Y13146021D01*
G75*
G02*
X79479894Y13039955I-53033J-53033D01*
G01*
X78542978Y12103039D01*
G75*
G02*
X78436912Y12103039I-53033J53033D01*
G01*
G37*
G36*
G01*
X78790465Y11749485D02*
X78684399Y11855551D01*
G75*
G02*
X78684399Y11961617I53033J53033D01*
G01*
X79621315Y12898533D01*
G75*
G02*
X79727381Y12898533I53033J-53033D01*
G01*
X79833447Y12792467D01*
G75*
G02*
X79833447Y12686401I-53033J-53033D01*
G01*
X78896531Y11749485D01*
G75*
G02*
X78790465Y11749485I-53033J53033D01*
G01*
G37*
G36*
G01*
X79144019Y11395932D02*
X79037953Y11501998D01*
G75*
G02*
X79037953Y11608064I53033J53033D01*
G01*
X79974869Y12544980D01*
G75*
G02*
X80080935Y12544980I53033J-53033D01*
G01*
X80187001Y12438914D01*
G75*
G02*
X80187001Y12332848I-53033J-53033D01*
G01*
X79250085Y11395932D01*
G75*
G02*
X79144019Y11395932I-53033J53033D01*
G01*
G37*
G36*
G01*
X79497572Y11042378D02*
X79391506Y11148444D01*
G75*
G02*
X79391506Y11254510I53033J53033D01*
G01*
X80328422Y12191426D01*
G75*
G02*
X80434488Y12191426I53033J-53033D01*
G01*
X80540554Y12085360D01*
G75*
G02*
X80540554Y11979294I-53033J-53033D01*
G01*
X79603638Y11042378D01*
G75*
G02*
X79497572Y11042378I-53033J53033D01*
G01*
G37*
G36*
G01*
X83033106Y11042378D02*
X82096190Y11979294D01*
G75*
G02*
X82096190Y12085360I53033J53033D01*
G01*
X82202256Y12191426D01*
G75*
G02*
X82308322Y12191426I53033J-53033D01*
G01*
X83245238Y11254510D01*
G75*
G02*
X83245238Y11148444I-53033J-53033D01*
G01*
X83139172Y11042378D01*
G75*
G02*
X83033106Y11042378I-53033J53033D01*
G01*
G37*
G36*
G01*
X83386659Y11395932D02*
X82449743Y12332848D01*
G75*
G02*
X82449743Y12438914I53033J53033D01*
G01*
X82555809Y12544980D01*
G75*
G02*
X82661875Y12544980I53033J-53033D01*
G01*
X83598791Y11608064D01*
G75*
G02*
X83598791Y11501998I-53033J-53033D01*
G01*
X83492725Y11395932D01*
G75*
G02*
X83386659Y11395932I-53033J53033D01*
G01*
G37*
G36*
G01*
X83740213Y11749485D02*
X82803297Y12686401D01*
G75*
G02*
X82803297Y12792467I53033J53033D01*
G01*
X82909363Y12898533D01*
G75*
G02*
X83015429Y12898533I53033J-53033D01*
G01*
X83952345Y11961617D01*
G75*
G02*
X83952345Y11855551I-53033J-53033D01*
G01*
X83846279Y11749485D01*
G75*
G02*
X83740213Y11749485I-53033J53033D01*
G01*
G37*
G36*
G01*
X84093766Y12103039D02*
X83156850Y13039955D01*
G75*
G02*
X83156850Y13146021I53033J53033D01*
G01*
X83262916Y13252087D01*
G75*
G02*
X83368982Y13252087I53033J-53033D01*
G01*
X84305898Y12315171D01*
G75*
G02*
X84305898Y12209105I-53033J-53033D01*
G01*
X84199832Y12103039D01*
G75*
G02*
X84093766Y12103039I-53033J53033D01*
G01*
G37*
G36*
G01*
X84447319Y12456592D02*
X83510403Y13393508D01*
G75*
G02*
X83510403Y13499574I53033J53033D01*
G01*
X83616469Y13605640D01*
G75*
G02*
X83722535Y13605640I53033J-53033D01*
G01*
X84659451Y12668724D01*
G75*
G02*
X84659451Y12562658I-53033J-53033D01*
G01*
X84553385Y12456592D01*
G75*
G02*
X84447319Y12456592I-53033J53033D01*
G01*
G37*
G36*
G01*
X84800873Y12810145D02*
X83863957Y13747061D01*
G75*
G02*
X83863957Y13853127I53033J53033D01*
G01*
X83970023Y13959193D01*
G75*
G02*
X84076089Y13959193I53033J-53033D01*
G01*
X85013005Y13022277D01*
G75*
G02*
X85013005Y12916211I-53033J-53033D01*
G01*
X84906939Y12810145D01*
G75*
G02*
X84800873Y12810145I-53033J53033D01*
G01*
G37*
G36*
G01*
X85154426Y13163699D02*
X84217510Y14100615D01*
G75*
G02*
X84217510Y14206681I53033J53033D01*
G01*
X84323576Y14312747D01*
G75*
G02*
X84429642Y14312747I53033J-53033D01*
G01*
X85366558Y13375831D01*
G75*
G02*
X85366558Y13269765I-53033J-53033D01*
G01*
X85260492Y13163699D01*
G75*
G02*
X85154426Y13163699I-53033J53033D01*
G01*
G37*
G36*
G01*
X85507979Y13517252D02*
X84571063Y14454168D01*
G75*
G02*
X84571063Y14560234I53033J53033D01*
G01*
X84677129Y14666300D01*
G75*
G02*
X84783195Y14666300I53033J-53033D01*
G01*
X85720111Y13729384D01*
G75*
G02*
X85720111Y13623318I-53033J-53033D01*
G01*
X85614045Y13517252D01*
G75*
G02*
X85507979Y13517252I-53033J53033D01*
G01*
G37*
G36*
G01*
X85861533Y13870806D02*
X84924617Y14807722D01*
G75*
G02*
X84924617Y14913788I53033J53033D01*
G01*
X85030683Y15019854D01*
G75*
G02*
X85136749Y15019854I53033J-53033D01*
G01*
X86073665Y14082938D01*
G75*
G02*
X86073665Y13976872I-53033J-53033D01*
G01*
X85967599Y13870806D01*
G75*
G02*
X85861533Y13870806I-53033J53033D01*
G01*
G37*
G36*
G01*
X86215086Y14224359D02*
X85278170Y15161275D01*
G75*
G02*
X85278170Y15267341I53033J53033D01*
G01*
X85384236Y15373407D01*
G75*
G02*
X85490302Y15373407I53033J-53033D01*
G01*
X86427218Y14436491D01*
G75*
G02*
X86427218Y14330425I-53033J-53033D01*
G01*
X86321152Y14224359D01*
G75*
G02*
X86215086Y14224359I-53033J53033D01*
G01*
G37*
G36*
G01*
X86568640Y14577912D02*
X85631724Y15514828D01*
G75*
G02*
X85631724Y15620894I53033J53033D01*
G01*
X85737790Y15726960D01*
G75*
G02*
X85843856Y15726960I53033J-53033D01*
G01*
X86780772Y14790044D01*
G75*
G02*
X86780772Y14683978I-53033J-53033D01*
G01*
X86674706Y14577912D01*
G75*
G02*
X86568640Y14577912I-53033J53033D01*
G01*
G37*
G36*
G01*
X86922193Y14931466D02*
X85985277Y15868382D01*
G75*
G02*
X85985277Y15974448I53033J53033D01*
G01*
X86091343Y16080514D01*
G75*
G02*
X86197409Y16080514I53033J-53033D01*
G01*
X87134325Y15143598D01*
G75*
G02*
X87134325Y15037532I-53033J-53033D01*
G01*
X87028259Y14931466D01*
G75*
G02*
X86922193Y14931466I-53033J53033D01*
G01*
G37*
G36*
G01*
X87275746Y15285019D02*
X86338830Y16221935D01*
G75*
G02*
X86338830Y16328001I53033J53033D01*
G01*
X86444896Y16434067D01*
G75*
G02*
X86550962Y16434067I53033J-53033D01*
G01*
X87487878Y15497151D01*
G75*
G02*
X87487878Y15391085I-53033J-53033D01*
G01*
X87381812Y15285019D01*
G75*
G02*
X87275746Y15285019I-53033J53033D01*
G01*
G37*
G36*
G01*
X87629300Y15638572D02*
X86692384Y16575488D01*
G75*
G02*
X86692384Y16681554I53033J53033D01*
G01*
X86798450Y16787620D01*
G75*
G02*
X86904516Y16787620I53033J-53033D01*
G01*
X87841432Y15850704D01*
G75*
G02*
X87841432Y15744638I-53033J-53033D01*
G01*
X87735366Y15638572D01*
G75*
G02*
X87629300Y15638572I-53033J53033D01*
G01*
G37*
G36*
G01*
X87982853Y15992126D02*
X87045937Y16929042D01*
G75*
G02*
X87045937Y17035108I53033J53033D01*
G01*
X87152003Y17141174D01*
G75*
G02*
X87258069Y17141174I53033J-53033D01*
G01*
X88194985Y16204258D01*
G75*
G02*
X88194985Y16098192I-53033J-53033D01*
G01*
X88088919Y15992126D01*
G75*
G02*
X87982853Y15992126I-53033J53033D01*
G01*
G37*
G36*
G01*
X88336407Y16345679D02*
X87399491Y17282595D01*
G75*
G02*
X87399491Y17388661I53033J53033D01*
G01*
X87505557Y17494727D01*
G75*
G02*
X87611623Y17494727I53033J-53033D01*
G01*
X88548539Y16557811D01*
G75*
G02*
X88548539Y16451745I-53033J-53033D01*
G01*
X88442473Y16345679D01*
G75*
G02*
X88336407Y16345679I-53033J53033D01*
G01*
G37*
G36*
G01*
X87505557Y19050363D02*
X87399491Y19156429D01*
G75*
G02*
X87399491Y19262495I53033J53033D01*
G01*
X88336407Y20199411D01*
G75*
G02*
X88442473Y20199411I53033J-53033D01*
G01*
X88548539Y20093345D01*
G75*
G02*
X88548539Y19987279I-53033J-53033D01*
G01*
X87611623Y19050363D01*
G75*
G02*
X87505557Y19050363I-53033J53033D01*
G01*
G37*
G36*
G01*
X87152003Y19403916D02*
X87045937Y19509982D01*
G75*
G02*
X87045937Y19616048I53033J53033D01*
G01*
X87982853Y20552964D01*
G75*
G02*
X88088919Y20552964I53033J-53033D01*
G01*
X88194985Y20446898D01*
G75*
G02*
X88194985Y20340832I-53033J-53033D01*
G01*
X87258069Y19403916D01*
G75*
G02*
X87152003Y19403916I-53033J53033D01*
G01*
G37*
G36*
G01*
X86798450Y19757470D02*
X86692384Y19863536D01*
G75*
G02*
X86692384Y19969602I53033J53033D01*
G01*
X87629300Y20906518D01*
G75*
G02*
X87735366Y20906518I53033J-53033D01*
G01*
X87841432Y20800452D01*
G75*
G02*
X87841432Y20694386I-53033J-53033D01*
G01*
X86904516Y19757470D01*
G75*
G02*
X86798450Y19757470I-53033J53033D01*
G01*
G37*
G36*
G01*
X86444896Y20111023D02*
X86338830Y20217089D01*
G75*
G02*
X86338830Y20323155I53033J53033D01*
G01*
X87275746Y21260071D01*
G75*
G02*
X87381812Y21260071I53033J-53033D01*
G01*
X87487878Y21154005D01*
G75*
G02*
X87487878Y21047939I-53033J-53033D01*
G01*
X86550962Y20111023D01*
G75*
G02*
X86444896Y20111023I-53033J53033D01*
G01*
G37*
G36*
G01*
X86091343Y20464576D02*
X85985277Y20570642D01*
G75*
G02*
X85985277Y20676708I53033J53033D01*
G01*
X86922193Y21613624D01*
G75*
G02*
X87028259Y21613624I53033J-53033D01*
G01*
X87134325Y21507558D01*
G75*
G02*
X87134325Y21401492I-53033J-53033D01*
G01*
X86197409Y20464576D01*
G75*
G02*
X86091343Y20464576I-53033J53033D01*
G01*
G37*
G36*
G01*
X85737790Y20818130D02*
X85631724Y20924196D01*
G75*
G02*
X85631724Y21030262I53033J53033D01*
G01*
X86568640Y21967178D01*
G75*
G02*
X86674706Y21967178I53033J-53033D01*
G01*
X86780772Y21861112D01*
G75*
G02*
X86780772Y21755046I-53033J-53033D01*
G01*
X85843856Y20818130D01*
G75*
G02*
X85737790Y20818130I-53033J53033D01*
G01*
G37*
G36*
G01*
X85384236Y21171683D02*
X85278170Y21277749D01*
G75*
G02*
X85278170Y21383815I53033J53033D01*
G01*
X86215086Y22320731D01*
G75*
G02*
X86321152Y22320731I53033J-53033D01*
G01*
X86427218Y22214665D01*
G75*
G02*
X86427218Y22108599I-53033J-53033D01*
G01*
X85490302Y21171683D01*
G75*
G02*
X85384236Y21171683I-53033J53033D01*
G01*
G37*
G36*
G01*
X85030683Y21525236D02*
X84924617Y21631302D01*
G75*
G02*
X84924617Y21737368I53033J53033D01*
G01*
X85861533Y22674284D01*
G75*
G02*
X85967599Y22674284I53033J-53033D01*
G01*
X86073665Y22568218D01*
G75*
G02*
X86073665Y22462152I-53033J-53033D01*
G01*
X85136749Y21525236D01*
G75*
G02*
X85030683Y21525236I-53033J53033D01*
G01*
G37*
G36*
G01*
X84677129Y21878790D02*
X84571063Y21984856D01*
G75*
G02*
X84571063Y22090922I53033J53033D01*
G01*
X85507979Y23027838D01*
G75*
G02*
X85614045Y23027838I53033J-53033D01*
G01*
X85720111Y22921772D01*
G75*
G02*
X85720111Y22815706I-53033J-53033D01*
G01*
X84783195Y21878790D01*
G75*
G02*
X84677129Y21878790I-53033J53033D01*
G01*
G37*
G36*
G01*
X84323576Y22232343D02*
X84217510Y22338409D01*
G75*
G02*
X84217510Y22444475I53033J53033D01*
G01*
X85154426Y23381391D01*
G75*
G02*
X85260492Y23381391I53033J-53033D01*
G01*
X85366558Y23275325D01*
G75*
G02*
X85366558Y23169259I-53033J-53033D01*
G01*
X84429642Y22232343D01*
G75*
G02*
X84323576Y22232343I-53033J53033D01*
G01*
G37*
G36*
G01*
X83970023Y22585897D02*
X83863957Y22691963D01*
G75*
G02*
X83863957Y22798029I53033J53033D01*
G01*
X84800873Y23734945D01*
G75*
G02*
X84906939Y23734945I53033J-53033D01*
G01*
X85013005Y23628879D01*
G75*
G02*
X85013005Y23522813I-53033J-53033D01*
G01*
X84076089Y22585897D01*
G75*
G02*
X83970023Y22585897I-53033J53033D01*
G01*
G37*
G36*
G01*
X83616469Y22939450D02*
X83510403Y23045516D01*
G75*
G02*
X83510403Y23151582I53033J53033D01*
G01*
X84447319Y24088498D01*
G75*
G02*
X84553385Y24088498I53033J-53033D01*
G01*
X84659451Y23982432D01*
G75*
G02*
X84659451Y23876366I-53033J-53033D01*
G01*
X83722535Y22939450D01*
G75*
G02*
X83616469Y22939450I-53033J53033D01*
G01*
G37*
G36*
G01*
X83262916Y23293003D02*
X83156850Y23399069D01*
G75*
G02*
X83156850Y23505135I53033J53033D01*
G01*
X84093766Y24442051D01*
G75*
G02*
X84199832Y24442051I53033J-53033D01*
G01*
X84305898Y24335985D01*
G75*
G02*
X84305898Y24229919I-53033J-53033D01*
G01*
X83368982Y23293003D01*
G75*
G02*
X83262916Y23293003I-53033J53033D01*
G01*
G37*
G36*
G01*
X82909363Y23646557D02*
X82803297Y23752623D01*
G75*
G02*
X82803297Y23858689I53033J53033D01*
G01*
X83740213Y24795605D01*
G75*
G02*
X83846279Y24795605I53033J-53033D01*
G01*
X83952345Y24689539D01*
G75*
G02*
X83952345Y24583473I-53033J-53033D01*
G01*
X83015429Y23646557D01*
G75*
G02*
X82909363Y23646557I-53033J53033D01*
G01*
G37*
G36*
G01*
X82555809Y24000110D02*
X82449743Y24106176D01*
G75*
G02*
X82449743Y24212242I53033J53033D01*
G01*
X83386659Y25149158D01*
G75*
G02*
X83492725Y25149158I53033J-53033D01*
G01*
X83598791Y25043092D01*
G75*
G02*
X83598791Y24937026I-53033J-53033D01*
G01*
X82661875Y24000110D01*
G75*
G02*
X82555809Y24000110I-53033J53033D01*
G01*
G37*
G36*
G01*
X82202256Y24353664D02*
X82096190Y24459730D01*
G75*
G02*
X82096190Y24565796I53033J53033D01*
G01*
X83033106Y25502712D01*
G75*
G02*
X83139172Y25502712I53033J-53033D01*
G01*
X83245238Y25396646D01*
G75*
G02*
X83245238Y25290580I-53033J-53033D01*
G01*
X82308322Y24353664D01*
G75*
G02*
X82202256Y24353664I-53033J53033D01*
G01*
G37*
G36*
G01*
X80328422Y24353664D02*
X79391506Y25290580D01*
G75*
G02*
X79391506Y25396646I53033J53033D01*
G01*
X79497572Y25502712D01*
G75*
G02*
X79603638Y25502712I53033J-53033D01*
G01*
X80540554Y24565796D01*
G75*
G02*
X80540554Y24459730I-53033J-53033D01*
G01*
X80434488Y24353664D01*
G75*
G02*
X80328422Y24353664I-53033J53033D01*
G01*
G37*
G36*
G01*
X79974869Y24000110D02*
X79037953Y24937026D01*
G75*
G02*
X79037953Y25043092I53033J53033D01*
G01*
X79144019Y25149158D01*
G75*
G02*
X79250085Y25149158I53033J-53033D01*
G01*
X80187001Y24212242D01*
G75*
G02*
X80187001Y24106176I-53033J-53033D01*
G01*
X80080935Y24000110D01*
G75*
G02*
X79974869Y24000110I-53033J53033D01*
G01*
G37*
G36*
G01*
X79621315Y23646557D02*
X78684399Y24583473D01*
G75*
G02*
X78684399Y24689539I53033J53033D01*
G01*
X78790465Y24795605D01*
G75*
G02*
X78896531Y24795605I53033J-53033D01*
G01*
X79833447Y23858689D01*
G75*
G02*
X79833447Y23752623I-53033J-53033D01*
G01*
X79727381Y23646557D01*
G75*
G02*
X79621315Y23646557I-53033J53033D01*
G01*
G37*
G36*
G01*
X79267762Y23293003D02*
X78330846Y24229919D01*
G75*
G02*
X78330846Y24335985I53033J53033D01*
G01*
X78436912Y24442051D01*
G75*
G02*
X78542978Y24442051I53033J-53033D01*
G01*
X79479894Y23505135D01*
G75*
G02*
X79479894Y23399069I-53033J-53033D01*
G01*
X79373828Y23293003D01*
G75*
G02*
X79267762Y23293003I-53033J53033D01*
G01*
G37*
G36*
G01*
X78914209Y22939450D02*
X77977293Y23876366D01*
G75*
G02*
X77977293Y23982432I53033J53033D01*
G01*
X78083359Y24088498D01*
G75*
G02*
X78189425Y24088498I53033J-53033D01*
G01*
X79126341Y23151582D01*
G75*
G02*
X79126341Y23045516I-53033J-53033D01*
G01*
X79020275Y22939450D01*
G75*
G02*
X78914209Y22939450I-53033J53033D01*
G01*
G37*
G36*
G01*
X78560655Y22585897D02*
X77623739Y23522813D01*
G75*
G02*
X77623739Y23628879I53033J53033D01*
G01*
X77729805Y23734945D01*
G75*
G02*
X77835871Y23734945I53033J-53033D01*
G01*
X78772787Y22798029D01*
G75*
G02*
X78772787Y22691963I-53033J-53033D01*
G01*
X78666721Y22585897D01*
G75*
G02*
X78560655Y22585897I-53033J53033D01*
G01*
G37*
G36*
G01*
X78207102Y22232343D02*
X77270186Y23169259D01*
G75*
G02*
X77270186Y23275325I53033J53033D01*
G01*
X77376252Y23381391D01*
G75*
G02*
X77482318Y23381391I53033J-53033D01*
G01*
X78419234Y22444475D01*
G75*
G02*
X78419234Y22338409I-53033J-53033D01*
G01*
X78313168Y22232343D01*
G75*
G02*
X78207102Y22232343I-53033J53033D01*
G01*
G37*
G36*
G01*
X77853549Y21878790D02*
X76916633Y22815706D01*
G75*
G02*
X76916633Y22921772I53033J53033D01*
G01*
X77022699Y23027838D01*
G75*
G02*
X77128765Y23027838I53033J-53033D01*
G01*
X78065681Y22090922D01*
G75*
G02*
X78065681Y21984856I-53033J-53033D01*
G01*
X77959615Y21878790D01*
G75*
G02*
X77853549Y21878790I-53033J53033D01*
G01*
G37*
G36*
G01*
X77499995Y21525236D02*
X76563079Y22462152D01*
G75*
G02*
X76563079Y22568218I53033J53033D01*
G01*
X76669145Y22674284D01*
G75*
G02*
X76775211Y22674284I53033J-53033D01*
G01*
X77712127Y21737368D01*
G75*
G02*
X77712127Y21631302I-53033J-53033D01*
G01*
X77606061Y21525236D01*
G75*
G02*
X77499995Y21525236I-53033J53033D01*
G01*
G37*
G36*
G01*
X77146442Y21171683D02*
X76209526Y22108599D01*
G75*
G02*
X76209526Y22214665I53033J53033D01*
G01*
X76315592Y22320731D01*
G75*
G02*
X76421658Y22320731I53033J-53033D01*
G01*
X77358574Y21383815D01*
G75*
G02*
X77358574Y21277749I-53033J-53033D01*
G01*
X77252508Y21171683D01*
G75*
G02*
X77146442Y21171683I-53033J53033D01*
G01*
G37*
G36*
G01*
X76792888Y20818130D02*
X75855972Y21755046D01*
G75*
G02*
X75855972Y21861112I53033J53033D01*
G01*
X75962038Y21967178D01*
G75*
G02*
X76068104Y21967178I53033J-53033D01*
G01*
X77005020Y21030262D01*
G75*
G02*
X77005020Y20924196I-53033J-53033D01*
G01*
X76898954Y20818130D01*
G75*
G02*
X76792888Y20818130I-53033J53033D01*
G01*
G37*
G36*
G01*
X76439335Y20464576D02*
X75502419Y21401492D01*
G75*
G02*
X75502419Y21507558I53033J53033D01*
G01*
X75608485Y21613624D01*
G75*
G02*
X75714551Y21613624I53033J-53033D01*
G01*
X76651467Y20676708D01*
G75*
G02*
X76651467Y20570642I-53033J-53033D01*
G01*
X76545401Y20464576D01*
G75*
G02*
X76439335Y20464576I-53033J53033D01*
G01*
G37*
G36*
G01*
X76085782Y20111023D02*
X75148866Y21047939D01*
G75*
G02*
X75148866Y21154005I53033J53033D01*
G01*
X75254932Y21260071D01*
G75*
G02*
X75360998Y21260071I53033J-53033D01*
G01*
X76297914Y20323155D01*
G75*
G02*
X76297914Y20217089I-53033J-53033D01*
G01*
X76191848Y20111023D01*
G75*
G02*
X76085782Y20111023I-53033J53033D01*
G01*
G37*
G36*
G01*
X75732228Y19757470D02*
X74795312Y20694386D01*
G75*
G02*
X74795312Y20800452I53033J53033D01*
G01*
X74901378Y20906518D01*
G75*
G02*
X75007444Y20906518I53033J-53033D01*
G01*
X75944360Y19969602D01*
G75*
G02*
X75944360Y19863536I-53033J-53033D01*
G01*
X75838294Y19757470D01*
G75*
G02*
X75732228Y19757470I-53033J53033D01*
G01*
G37*
G36*
G01*
X75378675Y19403916D02*
X74441759Y20340832D01*
G75*
G02*
X74441759Y20446898I53033J53033D01*
G01*
X74547825Y20552964D01*
G75*
G02*
X74653891Y20552964I53033J-53033D01*
G01*
X75590807Y19616048D01*
G75*
G02*
X75590807Y19509982I-53033J-53033D01*
G01*
X75484741Y19403916D01*
G75*
G02*
X75378675Y19403916I-53033J53033D01*
G01*
G37*
G36*
G01*
X75025121Y19050363D02*
X74088205Y19987279D01*
G75*
G02*
X74088205Y20093345I53033J53033D01*
G01*
X74194271Y20199411D01*
G75*
G02*
X74300337Y20199411I53033J-53033D01*
G01*
X75237253Y19262495D01*
G75*
G02*
X75237253Y19156429I-53033J-53033D01*
G01*
X75131187Y19050363D01*
G75*
G02*
X75025121Y19050363I-53033J53033D01*
G01*
G37*
X127241572Y32445745D03*
G36*
G01*
X32286154Y10937947D02*
X32286154Y11687947D01*
G75*
G02*
X32511154Y11912947I225000J0D01*
G01*
X32961154Y11912947D01*
G75*
G02*
X33186154Y11687947I0J-225000D01*
G01*
X33186154Y10937947D01*
G75*
G02*
X32961154Y10712947I-225000J0D01*
G01*
X32511154Y10712947D01*
G75*
G02*
X32286154Y10937947I0J225000D01*
G01*
G37*
G36*
G01*
X35586154Y10937947D02*
X35586154Y11687947D01*
G75*
G02*
X35811154Y11912947I225000J0D01*
G01*
X36261154Y11912947D01*
G75*
G02*
X36486154Y11687947I0J-225000D01*
G01*
X36486154Y10937947D01*
G75*
G02*
X36261154Y10712947I-225000J0D01*
G01*
X35811154Y10712947D01*
G75*
G02*
X35586154Y10937947I0J225000D01*
G01*
G37*
G36*
G01*
X13173172Y26561845D02*
X13173172Y26086845D01*
G75*
G02*
X12935672Y25849345I-237500J0D01*
G01*
X12435672Y25849345D01*
G75*
G02*
X12198172Y26086845I0J237500D01*
G01*
X12198172Y26561845D01*
G75*
G02*
X12435672Y26799345I237500J0D01*
G01*
X12935672Y26799345D01*
G75*
G02*
X13173172Y26561845I0J-237500D01*
G01*
G37*
G36*
G01*
X11348172Y26561845D02*
X11348172Y26086845D01*
G75*
G02*
X11110672Y25849345I-237500J0D01*
G01*
X10610672Y25849345D01*
G75*
G02*
X10373172Y26086845I0J237500D01*
G01*
X10373172Y26561845D01*
G75*
G02*
X10610672Y26799345I237500J0D01*
G01*
X11110672Y26799345D01*
G75*
G02*
X11348172Y26561845I0J-237500D01*
G01*
G37*
G36*
G01*
X123226954Y13463147D02*
X123226954Y12363147D01*
G75*
G02*
X122976954Y12113147I-250000J0D01*
G01*
X120476954Y12113147D01*
G75*
G02*
X120226954Y12363147I0J250000D01*
G01*
X120226954Y13463147D01*
G75*
G02*
X120476954Y13713147I250000J0D01*
G01*
X122976954Y13713147D01*
G75*
G02*
X123226954Y13463147I0J-250000D01*
G01*
G37*
G36*
G01*
X118826954Y13463147D02*
X118826954Y12363147D01*
G75*
G02*
X118576954Y12113147I-250000J0D01*
G01*
X116076954Y12113147D01*
G75*
G02*
X115826954Y12363147I0J250000D01*
G01*
X115826954Y13463147D01*
G75*
G02*
X116076954Y13713147I250000J0D01*
G01*
X118576954Y13713147D01*
G75*
G02*
X118826954Y13463147I0J-250000D01*
G01*
G37*
G36*
G01*
X16920472Y27084146D02*
X17395472Y27084146D01*
G75*
G02*
X17632972Y26846646I0J-237500D01*
G01*
X17632972Y26346646D01*
G75*
G02*
X17395472Y26109146I-237500J0D01*
G01*
X16920472Y26109146D01*
G75*
G02*
X16682972Y26346646I0J237500D01*
G01*
X16682972Y26846646D01*
G75*
G02*
X16920472Y27084146I237500J0D01*
G01*
G37*
G36*
G01*
X16920472Y25259146D02*
X17395472Y25259146D01*
G75*
G02*
X17632972Y25021646I0J-237500D01*
G01*
X17632972Y24521646D01*
G75*
G02*
X17395472Y24284146I-237500J0D01*
G01*
X16920472Y24284146D01*
G75*
G02*
X16682972Y24521646I0J237500D01*
G01*
X16682972Y25021646D01*
G75*
G02*
X16920472Y25259146I237500J0D01*
G01*
G37*
G36*
G01*
X18546072Y27084146D02*
X19021072Y27084146D01*
G75*
G02*
X19258572Y26846646I0J-237500D01*
G01*
X19258572Y26346646D01*
G75*
G02*
X19021072Y26109146I-237500J0D01*
G01*
X18546072Y26109146D01*
G75*
G02*
X18308572Y26346646I0J237500D01*
G01*
X18308572Y26846646D01*
G75*
G02*
X18546072Y27084146I237500J0D01*
G01*
G37*
G36*
G01*
X18546072Y25259146D02*
X19021072Y25259146D01*
G75*
G02*
X19258572Y25021646I0J-237500D01*
G01*
X19258572Y24521646D01*
G75*
G02*
X19021072Y24284146I-237500J0D01*
G01*
X18546072Y24284146D01*
G75*
G02*
X18308572Y24521646I0J237500D01*
G01*
X18308572Y25021646D01*
G75*
G02*
X18546072Y25259146I237500J0D01*
G01*
G37*
G36*
G01*
X122447172Y25461747D02*
X122447172Y24161747D01*
G75*
G02*
X122197172Y23911747I-250000J0D01*
G01*
X121372172Y23911747D01*
G75*
G02*
X121122172Y24161747I0J250000D01*
G01*
X121122172Y25461747D01*
G75*
G02*
X121372172Y25711747I250000J0D01*
G01*
X122197172Y25711747D01*
G75*
G02*
X122447172Y25461747I0J-250000D01*
G01*
G37*
G36*
G01*
X119322172Y25461747D02*
X119322172Y24161747D01*
G75*
G02*
X119072172Y23911747I-250000J0D01*
G01*
X118247172Y23911747D01*
G75*
G02*
X117997172Y24161747I0J250000D01*
G01*
X117997172Y25461747D01*
G75*
G02*
X118247172Y25711747I250000J0D01*
G01*
X119072172Y25711747D01*
G75*
G02*
X119322172Y25461747I0J-250000D01*
G01*
G37*
G36*
G01*
X55114472Y31934745D02*
X54639472Y31934745D01*
G75*
G02*
X54401972Y32172245I0J237500D01*
G01*
X54401972Y32672245D01*
G75*
G02*
X54639472Y32909745I237500J0D01*
G01*
X55114472Y32909745D01*
G75*
G02*
X55351972Y32672245I0J-237500D01*
G01*
X55351972Y32172245D01*
G75*
G02*
X55114472Y31934745I-237500J0D01*
G01*
G37*
G36*
G01*
X55114472Y33759745D02*
X54639472Y33759745D01*
G75*
G02*
X54401972Y33997245I0J237500D01*
G01*
X54401972Y34497245D01*
G75*
G02*
X54639472Y34734745I237500J0D01*
G01*
X55114472Y34734745D01*
G75*
G02*
X55351972Y34497245I0J-237500D01*
G01*
X55351972Y33997245D01*
G75*
G02*
X55114472Y33759745I-237500J0D01*
G01*
G37*
G36*
G01*
X123189220Y27584464D02*
X120289220Y27584464D01*
G75*
G02*
X120039220Y27834464I0J250000D01*
G01*
X120039220Y28634464D01*
G75*
G02*
X120289220Y28884464I250000J0D01*
G01*
X123189220Y28884464D01*
G75*
G02*
X123439220Y28634464I0J-250000D01*
G01*
X123439220Y27834464D01*
G75*
G02*
X123189220Y27584464I-250000J0D01*
G01*
G37*
G36*
G01*
X123189220Y32034464D02*
X120289220Y32034464D01*
G75*
G02*
X120039220Y32284464I0J250000D01*
G01*
X120039220Y33084464D01*
G75*
G02*
X120289220Y33334464I250000J0D01*
G01*
X123189220Y33334464D01*
G75*
G02*
X123439220Y33084464I0J-250000D01*
G01*
X123439220Y32284464D01*
G75*
G02*
X123189220Y32034464I-250000J0D01*
G01*
G37*
G36*
G01*
X107244354Y18572545D02*
X109444354Y18572545D01*
G75*
G02*
X109594354Y18422545I0J-150000D01*
G01*
X109594354Y18122545D01*
G75*
G02*
X109444354Y17972545I-150000J0D01*
G01*
X107244354Y17972545D01*
G75*
G02*
X107094354Y18122545I0J150000D01*
G01*
X107094354Y18422545D01*
G75*
G02*
X107244354Y18572545I150000J0D01*
G01*
G37*
G36*
G01*
X107244354Y19842545D02*
X109444354Y19842545D01*
G75*
G02*
X109594354Y19692545I0J-150000D01*
G01*
X109594354Y19392545D01*
G75*
G02*
X109444354Y19242545I-150000J0D01*
G01*
X107244354Y19242545D01*
G75*
G02*
X107094354Y19392545I0J150000D01*
G01*
X107094354Y19692545D01*
G75*
G02*
X107244354Y19842545I150000J0D01*
G01*
G37*
G36*
G01*
X107244354Y21112545D02*
X109444354Y21112545D01*
G75*
G02*
X109594354Y20962545I0J-150000D01*
G01*
X109594354Y20662545D01*
G75*
G02*
X109444354Y20512545I-150000J0D01*
G01*
X107244354Y20512545D01*
G75*
G02*
X107094354Y20662545I0J150000D01*
G01*
X107094354Y20962545D01*
G75*
G02*
X107244354Y21112545I150000J0D01*
G01*
G37*
G36*
G01*
X107244354Y22382545D02*
X109444354Y22382545D01*
G75*
G02*
X109594354Y22232545I0J-150000D01*
G01*
X109594354Y21932545D01*
G75*
G02*
X109444354Y21782545I-150000J0D01*
G01*
X107244354Y21782545D01*
G75*
G02*
X107094354Y21932545I0J150000D01*
G01*
X107094354Y22232545D01*
G75*
G02*
X107244354Y22382545I150000J0D01*
G01*
G37*
G36*
G01*
X106194354Y25332545D02*
X106494354Y25332545D01*
G75*
G02*
X106644354Y25182545I0J-150000D01*
G01*
X106644354Y22982545D01*
G75*
G02*
X106494354Y22832545I-150000J0D01*
G01*
X106194354Y22832545D01*
G75*
G02*
X106044354Y22982545I0J150000D01*
G01*
X106044354Y25182545D01*
G75*
G02*
X106194354Y25332545I150000J0D01*
G01*
G37*
G36*
G01*
X104924354Y25332545D02*
X105224354Y25332545D01*
G75*
G02*
X105374354Y25182545I0J-150000D01*
G01*
X105374354Y22982545D01*
G75*
G02*
X105224354Y22832545I-150000J0D01*
G01*
X104924354Y22832545D01*
G75*
G02*
X104774354Y22982545I0J150000D01*
G01*
X104774354Y25182545D01*
G75*
G02*
X104924354Y25332545I150000J0D01*
G01*
G37*
G36*
G01*
X103654354Y25332545D02*
X103954354Y25332545D01*
G75*
G02*
X104104354Y25182545I0J-150000D01*
G01*
X104104354Y22982545D01*
G75*
G02*
X103954354Y22832545I-150000J0D01*
G01*
X103654354Y22832545D01*
G75*
G02*
X103504354Y22982545I0J150000D01*
G01*
X103504354Y25182545D01*
G75*
G02*
X103654354Y25332545I150000J0D01*
G01*
G37*
G36*
G01*
X102384354Y25332545D02*
X102684354Y25332545D01*
G75*
G02*
X102834354Y25182545I0J-150000D01*
G01*
X102834354Y22982545D01*
G75*
G02*
X102684354Y22832545I-150000J0D01*
G01*
X102384354Y22832545D01*
G75*
G02*
X102234354Y22982545I0J150000D01*
G01*
X102234354Y25182545D01*
G75*
G02*
X102384354Y25332545I150000J0D01*
G01*
G37*
G36*
G01*
X101114354Y25332545D02*
X101414354Y25332545D01*
G75*
G02*
X101564354Y25182545I0J-150000D01*
G01*
X101564354Y22982545D01*
G75*
G02*
X101414354Y22832545I-150000J0D01*
G01*
X101114354Y22832545D01*
G75*
G02*
X100964354Y22982545I0J150000D01*
G01*
X100964354Y25182545D01*
G75*
G02*
X101114354Y25332545I150000J0D01*
G01*
G37*
G36*
G01*
X99844354Y25332545D02*
X100144354Y25332545D01*
G75*
G02*
X100294354Y25182545I0J-150000D01*
G01*
X100294354Y22982545D01*
G75*
G02*
X100144354Y22832545I-150000J0D01*
G01*
X99844354Y22832545D01*
G75*
G02*
X99694354Y22982545I0J150000D01*
G01*
X99694354Y25182545D01*
G75*
G02*
X99844354Y25332545I150000J0D01*
G01*
G37*
G36*
G01*
X98574354Y25332545D02*
X98874354Y25332545D01*
G75*
G02*
X99024354Y25182545I0J-150000D01*
G01*
X99024354Y22982545D01*
G75*
G02*
X98874354Y22832545I-150000J0D01*
G01*
X98574354Y22832545D01*
G75*
G02*
X98424354Y22982545I0J150000D01*
G01*
X98424354Y25182545D01*
G75*
G02*
X98574354Y25332545I150000J0D01*
G01*
G37*
G36*
G01*
X97304354Y25332545D02*
X97604354Y25332545D01*
G75*
G02*
X97754354Y25182545I0J-150000D01*
G01*
X97754354Y22982545D01*
G75*
G02*
X97604354Y22832545I-150000J0D01*
G01*
X97304354Y22832545D01*
G75*
G02*
X97154354Y22982545I0J150000D01*
G01*
X97154354Y25182545D01*
G75*
G02*
X97304354Y25332545I150000J0D01*
G01*
G37*
G36*
G01*
X96034354Y25332545D02*
X96334354Y25332545D01*
G75*
G02*
X96484354Y25182545I0J-150000D01*
G01*
X96484354Y22982545D01*
G75*
G02*
X96334354Y22832545I-150000J0D01*
G01*
X96034354Y22832545D01*
G75*
G02*
X95884354Y22982545I0J150000D01*
G01*
X95884354Y25182545D01*
G75*
G02*
X96034354Y25332545I150000J0D01*
G01*
G37*
G36*
G01*
X93084354Y22382545D02*
X95284354Y22382545D01*
G75*
G02*
X95434354Y22232545I0J-150000D01*
G01*
X95434354Y21932545D01*
G75*
G02*
X95284354Y21782545I-150000J0D01*
G01*
X93084354Y21782545D01*
G75*
G02*
X92934354Y21932545I0J150000D01*
G01*
X92934354Y22232545D01*
G75*
G02*
X93084354Y22382545I150000J0D01*
G01*
G37*
G36*
G01*
X93084354Y21112545D02*
X95284354Y21112545D01*
G75*
G02*
X95434354Y20962545I0J-150000D01*
G01*
X95434354Y20662545D01*
G75*
G02*
X95284354Y20512545I-150000J0D01*
G01*
X93084354Y20512545D01*
G75*
G02*
X92934354Y20662545I0J150000D01*
G01*
X92934354Y20962545D01*
G75*
G02*
X93084354Y21112545I150000J0D01*
G01*
G37*
G36*
G01*
X93084354Y19842545D02*
X95284354Y19842545D01*
G75*
G02*
X95434354Y19692545I0J-150000D01*
G01*
X95434354Y19392545D01*
G75*
G02*
X95284354Y19242545I-150000J0D01*
G01*
X93084354Y19242545D01*
G75*
G02*
X92934354Y19392545I0J150000D01*
G01*
X92934354Y19692545D01*
G75*
G02*
X93084354Y19842545I150000J0D01*
G01*
G37*
G36*
G01*
X93084354Y18572545D02*
X95284354Y18572545D01*
G75*
G02*
X95434354Y18422545I0J-150000D01*
G01*
X95434354Y18122545D01*
G75*
G02*
X95284354Y17972545I-150000J0D01*
G01*
X93084354Y17972545D01*
G75*
G02*
X92934354Y18122545I0J150000D01*
G01*
X92934354Y18422545D01*
G75*
G02*
X93084354Y18572545I150000J0D01*
G01*
G37*
G36*
G01*
X93084354Y17302545D02*
X95284354Y17302545D01*
G75*
G02*
X95434354Y17152545I0J-150000D01*
G01*
X95434354Y16852545D01*
G75*
G02*
X95284354Y16702545I-150000J0D01*
G01*
X93084354Y16702545D01*
G75*
G02*
X92934354Y16852545I0J150000D01*
G01*
X92934354Y17152545D01*
G75*
G02*
X93084354Y17302545I150000J0D01*
G01*
G37*
G36*
G01*
X93084354Y16032545D02*
X95284354Y16032545D01*
G75*
G02*
X95434354Y15882545I0J-150000D01*
G01*
X95434354Y15582545D01*
G75*
G02*
X95284354Y15432545I-150000J0D01*
G01*
X93084354Y15432545D01*
G75*
G02*
X92934354Y15582545I0J150000D01*
G01*
X92934354Y15882545D01*
G75*
G02*
X93084354Y16032545I150000J0D01*
G01*
G37*
G36*
G01*
X93084354Y14762545D02*
X95284354Y14762545D01*
G75*
G02*
X95434354Y14612545I0J-150000D01*
G01*
X95434354Y14312545D01*
G75*
G02*
X95284354Y14162545I-150000J0D01*
G01*
X93084354Y14162545D01*
G75*
G02*
X92934354Y14312545I0J150000D01*
G01*
X92934354Y14612545D01*
G75*
G02*
X93084354Y14762545I150000J0D01*
G01*
G37*
G36*
G01*
X96034354Y13712545D02*
X96334354Y13712545D01*
G75*
G02*
X96484354Y13562545I0J-150000D01*
G01*
X96484354Y11362545D01*
G75*
G02*
X96334354Y11212545I-150000J0D01*
G01*
X96034354Y11212545D01*
G75*
G02*
X95884354Y11362545I0J150000D01*
G01*
X95884354Y13562545D01*
G75*
G02*
X96034354Y13712545I150000J0D01*
G01*
G37*
G36*
G01*
X97304354Y13712545D02*
X97604354Y13712545D01*
G75*
G02*
X97754354Y13562545I0J-150000D01*
G01*
X97754354Y11362545D01*
G75*
G02*
X97604354Y11212545I-150000J0D01*
G01*
X97304354Y11212545D01*
G75*
G02*
X97154354Y11362545I0J150000D01*
G01*
X97154354Y13562545D01*
G75*
G02*
X97304354Y13712545I150000J0D01*
G01*
G37*
G36*
G01*
X98574354Y13712545D02*
X98874354Y13712545D01*
G75*
G02*
X99024354Y13562545I0J-150000D01*
G01*
X99024354Y11362545D01*
G75*
G02*
X98874354Y11212545I-150000J0D01*
G01*
X98574354Y11212545D01*
G75*
G02*
X98424354Y11362545I0J150000D01*
G01*
X98424354Y13562545D01*
G75*
G02*
X98574354Y13712545I150000J0D01*
G01*
G37*
G36*
G01*
X99844354Y13712545D02*
X100144354Y13712545D01*
G75*
G02*
X100294354Y13562545I0J-150000D01*
G01*
X100294354Y11362545D01*
G75*
G02*
X100144354Y11212545I-150000J0D01*
G01*
X99844354Y11212545D01*
G75*
G02*
X99694354Y11362545I0J150000D01*
G01*
X99694354Y13562545D01*
G75*
G02*
X99844354Y13712545I150000J0D01*
G01*
G37*
G36*
G01*
X101114354Y13712545D02*
X101414354Y13712545D01*
G75*
G02*
X101564354Y13562545I0J-150000D01*
G01*
X101564354Y11362545D01*
G75*
G02*
X101414354Y11212545I-150000J0D01*
G01*
X101114354Y11212545D01*
G75*
G02*
X100964354Y11362545I0J150000D01*
G01*
X100964354Y13562545D01*
G75*
G02*
X101114354Y13712545I150000J0D01*
G01*
G37*
G36*
G01*
X102384354Y13712545D02*
X102684354Y13712545D01*
G75*
G02*
X102834354Y13562545I0J-150000D01*
G01*
X102834354Y11362545D01*
G75*
G02*
X102684354Y11212545I-150000J0D01*
G01*
X102384354Y11212545D01*
G75*
G02*
X102234354Y11362545I0J150000D01*
G01*
X102234354Y13562545D01*
G75*
G02*
X102384354Y13712545I150000J0D01*
G01*
G37*
G36*
G01*
X103654354Y13712545D02*
X103954354Y13712545D01*
G75*
G02*
X104104354Y13562545I0J-150000D01*
G01*
X104104354Y11362545D01*
G75*
G02*
X103954354Y11212545I-150000J0D01*
G01*
X103654354Y11212545D01*
G75*
G02*
X103504354Y11362545I0J150000D01*
G01*
X103504354Y13562545D01*
G75*
G02*
X103654354Y13712545I150000J0D01*
G01*
G37*
G36*
G01*
X104924354Y13712545D02*
X105224354Y13712545D01*
G75*
G02*
X105374354Y13562545I0J-150000D01*
G01*
X105374354Y11362545D01*
G75*
G02*
X105224354Y11212545I-150000J0D01*
G01*
X104924354Y11212545D01*
G75*
G02*
X104774354Y11362545I0J150000D01*
G01*
X104774354Y13562545D01*
G75*
G02*
X104924354Y13712545I150000J0D01*
G01*
G37*
G36*
G01*
X106194354Y13712545D02*
X106494354Y13712545D01*
G75*
G02*
X106644354Y13562545I0J-150000D01*
G01*
X106644354Y11362545D01*
G75*
G02*
X106494354Y11212545I-150000J0D01*
G01*
X106194354Y11212545D01*
G75*
G02*
X106044354Y11362545I0J150000D01*
G01*
X106044354Y13562545D01*
G75*
G02*
X106194354Y13712545I150000J0D01*
G01*
G37*
G36*
G01*
X107244354Y14762545D02*
X109444354Y14762545D01*
G75*
G02*
X109594354Y14612545I0J-150000D01*
G01*
X109594354Y14312545D01*
G75*
G02*
X109444354Y14162545I-150000J0D01*
G01*
X107244354Y14162545D01*
G75*
G02*
X107094354Y14312545I0J150000D01*
G01*
X107094354Y14612545D01*
G75*
G02*
X107244354Y14762545I150000J0D01*
G01*
G37*
G36*
G01*
X107244354Y16032545D02*
X109444354Y16032545D01*
G75*
G02*
X109594354Y15882545I0J-150000D01*
G01*
X109594354Y15582545D01*
G75*
G02*
X109444354Y15432545I-150000J0D01*
G01*
X107244354Y15432545D01*
G75*
G02*
X107094354Y15582545I0J150000D01*
G01*
X107094354Y15882545D01*
G75*
G02*
X107244354Y16032545I150000J0D01*
G01*
G37*
G36*
G01*
X107244354Y17302545D02*
X109444354Y17302545D01*
G75*
G02*
X109594354Y17152545I0J-150000D01*
G01*
X109594354Y16852545D01*
G75*
G02*
X109444354Y16702545I-150000J0D01*
G01*
X107244354Y16702545D01*
G75*
G02*
X107094354Y16852545I0J150000D01*
G01*
X107094354Y17152545D01*
G75*
G02*
X107244354Y17302545I150000J0D01*
G01*
G37*
G36*
G01*
X13655573Y12366723D02*
X13655573Y13466723D01*
G75*
G02*
X13905573Y13716723I250000J0D01*
G01*
X16405573Y13716723D01*
G75*
G02*
X16655573Y13466723I0J-250000D01*
G01*
X16655573Y12366723D01*
G75*
G02*
X16405573Y12116723I-250000J0D01*
G01*
X13905573Y12116723D01*
G75*
G02*
X13655573Y12366723I0J250000D01*
G01*
G37*
G36*
G01*
X18055573Y12366723D02*
X18055573Y13466723D01*
G75*
G02*
X18305573Y13716723I250000J0D01*
G01*
X20805573Y13716723D01*
G75*
G02*
X21055573Y13466723I0J-250000D01*
G01*
X21055573Y12366723D01*
G75*
G02*
X20805573Y12116723I-250000J0D01*
G01*
X18305573Y12116723D01*
G75*
G02*
X18055573Y12366723I0J250000D01*
G01*
G37*
G36*
G01*
X42135772Y21814045D02*
X42335772Y21814045D01*
G75*
G02*
X42435772Y21714045I0J-100000D01*
G01*
X42435772Y20439045D01*
G75*
G02*
X42335772Y20339045I-100000J0D01*
G01*
X42135772Y20339045D01*
G75*
G02*
X42035772Y20439045I0J100000D01*
G01*
X42035772Y21714045D01*
G75*
G02*
X42135772Y21814045I100000J0D01*
G01*
G37*
G36*
G01*
X41485772Y21814045D02*
X41685772Y21814045D01*
G75*
G02*
X41785772Y21714045I0J-100000D01*
G01*
X41785772Y20439045D01*
G75*
G02*
X41685772Y20339045I-100000J0D01*
G01*
X41485772Y20339045D01*
G75*
G02*
X41385772Y20439045I0J100000D01*
G01*
X41385772Y21714045D01*
G75*
G02*
X41485772Y21814045I100000J0D01*
G01*
G37*
G36*
G01*
X40835772Y21814045D02*
X41035772Y21814045D01*
G75*
G02*
X41135772Y21714045I0J-100000D01*
G01*
X41135772Y20439045D01*
G75*
G02*
X41035772Y20339045I-100000J0D01*
G01*
X40835772Y20339045D01*
G75*
G02*
X40735772Y20439045I0J100000D01*
G01*
X40735772Y21714045D01*
G75*
G02*
X40835772Y21814045I100000J0D01*
G01*
G37*
G36*
G01*
X40185772Y21814045D02*
X40385772Y21814045D01*
G75*
G02*
X40485772Y21714045I0J-100000D01*
G01*
X40485772Y20439045D01*
G75*
G02*
X40385772Y20339045I-100000J0D01*
G01*
X40185772Y20339045D01*
G75*
G02*
X40085772Y20439045I0J100000D01*
G01*
X40085772Y21714045D01*
G75*
G02*
X40185772Y21814045I100000J0D01*
G01*
G37*
G36*
G01*
X39535772Y21814045D02*
X39735772Y21814045D01*
G75*
G02*
X39835772Y21714045I0J-100000D01*
G01*
X39835772Y20439045D01*
G75*
G02*
X39735772Y20339045I-100000J0D01*
G01*
X39535772Y20339045D01*
G75*
G02*
X39435772Y20439045I0J100000D01*
G01*
X39435772Y21714045D01*
G75*
G02*
X39535772Y21814045I100000J0D01*
G01*
G37*
G36*
G01*
X38885772Y21814045D02*
X39085772Y21814045D01*
G75*
G02*
X39185772Y21714045I0J-100000D01*
G01*
X39185772Y20439045D01*
G75*
G02*
X39085772Y20339045I-100000J0D01*
G01*
X38885772Y20339045D01*
G75*
G02*
X38785772Y20439045I0J100000D01*
G01*
X38785772Y21714045D01*
G75*
G02*
X38885772Y21814045I100000J0D01*
G01*
G37*
G36*
G01*
X38235772Y21814045D02*
X38435772Y21814045D01*
G75*
G02*
X38535772Y21714045I0J-100000D01*
G01*
X38535772Y20439045D01*
G75*
G02*
X38435772Y20339045I-100000J0D01*
G01*
X38235772Y20339045D01*
G75*
G02*
X38135772Y20439045I0J100000D01*
G01*
X38135772Y21714045D01*
G75*
G02*
X38235772Y21814045I100000J0D01*
G01*
G37*
G36*
G01*
X37585772Y21814045D02*
X37785772Y21814045D01*
G75*
G02*
X37885772Y21714045I0J-100000D01*
G01*
X37885772Y20439045D01*
G75*
G02*
X37785772Y20339045I-100000J0D01*
G01*
X37585772Y20339045D01*
G75*
G02*
X37485772Y20439045I0J100000D01*
G01*
X37485772Y21714045D01*
G75*
G02*
X37585772Y21814045I100000J0D01*
G01*
G37*
G36*
G01*
X36935772Y21814045D02*
X37135772Y21814045D01*
G75*
G02*
X37235772Y21714045I0J-100000D01*
G01*
X37235772Y20439045D01*
G75*
G02*
X37135772Y20339045I-100000J0D01*
G01*
X36935772Y20339045D01*
G75*
G02*
X36835772Y20439045I0J100000D01*
G01*
X36835772Y21714045D01*
G75*
G02*
X36935772Y21814045I100000J0D01*
G01*
G37*
G36*
G01*
X36285772Y21814045D02*
X36485772Y21814045D01*
G75*
G02*
X36585772Y21714045I0J-100000D01*
G01*
X36585772Y20439045D01*
G75*
G02*
X36485772Y20339045I-100000J0D01*
G01*
X36285772Y20339045D01*
G75*
G02*
X36185772Y20439045I0J100000D01*
G01*
X36185772Y21714045D01*
G75*
G02*
X36285772Y21814045I100000J0D01*
G01*
G37*
G36*
G01*
X36285772Y16089045D02*
X36485772Y16089045D01*
G75*
G02*
X36585772Y15989045I0J-100000D01*
G01*
X36585772Y14714045D01*
G75*
G02*
X36485772Y14614045I-100000J0D01*
G01*
X36285772Y14614045D01*
G75*
G02*
X36185772Y14714045I0J100000D01*
G01*
X36185772Y15989045D01*
G75*
G02*
X36285772Y16089045I100000J0D01*
G01*
G37*
G36*
G01*
X36935772Y16089045D02*
X37135772Y16089045D01*
G75*
G02*
X37235772Y15989045I0J-100000D01*
G01*
X37235772Y14714045D01*
G75*
G02*
X37135772Y14614045I-100000J0D01*
G01*
X36935772Y14614045D01*
G75*
G02*
X36835772Y14714045I0J100000D01*
G01*
X36835772Y15989045D01*
G75*
G02*
X36935772Y16089045I100000J0D01*
G01*
G37*
G36*
G01*
X37585772Y16089045D02*
X37785772Y16089045D01*
G75*
G02*
X37885772Y15989045I0J-100000D01*
G01*
X37885772Y14714045D01*
G75*
G02*
X37785772Y14614045I-100000J0D01*
G01*
X37585772Y14614045D01*
G75*
G02*
X37485772Y14714045I0J100000D01*
G01*
X37485772Y15989045D01*
G75*
G02*
X37585772Y16089045I100000J0D01*
G01*
G37*
G36*
G01*
X38235772Y16089045D02*
X38435772Y16089045D01*
G75*
G02*
X38535772Y15989045I0J-100000D01*
G01*
X38535772Y14714045D01*
G75*
G02*
X38435772Y14614045I-100000J0D01*
G01*
X38235772Y14614045D01*
G75*
G02*
X38135772Y14714045I0J100000D01*
G01*
X38135772Y15989045D01*
G75*
G02*
X38235772Y16089045I100000J0D01*
G01*
G37*
G36*
G01*
X38885772Y16089045D02*
X39085772Y16089045D01*
G75*
G02*
X39185772Y15989045I0J-100000D01*
G01*
X39185772Y14714045D01*
G75*
G02*
X39085772Y14614045I-100000J0D01*
G01*
X38885772Y14614045D01*
G75*
G02*
X38785772Y14714045I0J100000D01*
G01*
X38785772Y15989045D01*
G75*
G02*
X38885772Y16089045I100000J0D01*
G01*
G37*
G36*
G01*
X39535772Y16089045D02*
X39735772Y16089045D01*
G75*
G02*
X39835772Y15989045I0J-100000D01*
G01*
X39835772Y14714045D01*
G75*
G02*
X39735772Y14614045I-100000J0D01*
G01*
X39535772Y14614045D01*
G75*
G02*
X39435772Y14714045I0J100000D01*
G01*
X39435772Y15989045D01*
G75*
G02*
X39535772Y16089045I100000J0D01*
G01*
G37*
G36*
G01*
X40185772Y16089045D02*
X40385772Y16089045D01*
G75*
G02*
X40485772Y15989045I0J-100000D01*
G01*
X40485772Y14714045D01*
G75*
G02*
X40385772Y14614045I-100000J0D01*
G01*
X40185772Y14614045D01*
G75*
G02*
X40085772Y14714045I0J100000D01*
G01*
X40085772Y15989045D01*
G75*
G02*
X40185772Y16089045I100000J0D01*
G01*
G37*
G36*
G01*
X40835772Y16089045D02*
X41035772Y16089045D01*
G75*
G02*
X41135772Y15989045I0J-100000D01*
G01*
X41135772Y14714045D01*
G75*
G02*
X41035772Y14614045I-100000J0D01*
G01*
X40835772Y14614045D01*
G75*
G02*
X40735772Y14714045I0J100000D01*
G01*
X40735772Y15989045D01*
G75*
G02*
X40835772Y16089045I100000J0D01*
G01*
G37*
G36*
G01*
X41485772Y16089045D02*
X41685772Y16089045D01*
G75*
G02*
X41785772Y15989045I0J-100000D01*
G01*
X41785772Y14714045D01*
G75*
G02*
X41685772Y14614045I-100000J0D01*
G01*
X41485772Y14614045D01*
G75*
G02*
X41385772Y14714045I0J100000D01*
G01*
X41385772Y15989045D01*
G75*
G02*
X41485772Y16089045I100000J0D01*
G01*
G37*
G36*
G01*
X42135772Y16089045D02*
X42335772Y16089045D01*
G75*
G02*
X42435772Y15989045I0J-100000D01*
G01*
X42435772Y14714045D01*
G75*
G02*
X42335772Y14614045I-100000J0D01*
G01*
X42135772Y14614045D01*
G75*
G02*
X42035772Y14714045I0J100000D01*
G01*
X42035772Y15989045D01*
G75*
G02*
X42135772Y16089045I100000J0D01*
G01*
G37*
G36*
G01*
X10373172Y24562845D02*
X10373172Y25037845D01*
G75*
G02*
X10610672Y25275345I237500J0D01*
G01*
X11110672Y25275345D01*
G75*
G02*
X11348172Y25037845I0J-237500D01*
G01*
X11348172Y24562845D01*
G75*
G02*
X11110672Y24325345I-237500J0D01*
G01*
X10610672Y24325345D01*
G75*
G02*
X10373172Y24562845I0J237500D01*
G01*
G37*
G36*
G01*
X12198172Y24562845D02*
X12198172Y25037845D01*
G75*
G02*
X12435672Y25275345I237500J0D01*
G01*
X12935672Y25275345D01*
G75*
G02*
X13173172Y25037845I0J-237500D01*
G01*
X13173172Y24562845D01*
G75*
G02*
X12935672Y24325345I-237500J0D01*
G01*
X12435672Y24325345D01*
G75*
G02*
X12198172Y24562845I0J237500D01*
G01*
G37*
G36*
G01*
X43501300Y34734745D02*
X43976300Y34734745D01*
G75*
G02*
X44213800Y34497245I0J-237500D01*
G01*
X44213800Y33997245D01*
G75*
G02*
X43976300Y33759745I-237500J0D01*
G01*
X43501300Y33759745D01*
G75*
G02*
X43263800Y33997245I0J237500D01*
G01*
X43263800Y34497245D01*
G75*
G02*
X43501300Y34734745I237500J0D01*
G01*
G37*
G36*
G01*
X43501300Y32909745D02*
X43976300Y32909745D01*
G75*
G02*
X44213800Y32672245I0J-237500D01*
G01*
X44213800Y32172245D01*
G75*
G02*
X43976300Y31934745I-237500J0D01*
G01*
X43501300Y31934745D01*
G75*
G02*
X43263800Y32172245I0J237500D01*
G01*
X43263800Y32672245D01*
G75*
G02*
X43501300Y32909745I237500J0D01*
G01*
G37*
G36*
G01*
X112025054Y12306547D02*
X112500054Y12306547D01*
G75*
G02*
X112737554Y12069047I0J-237500D01*
G01*
X112737554Y11469047D01*
G75*
G02*
X112500054Y11231547I-237500J0D01*
G01*
X112025054Y11231547D01*
G75*
G02*
X111787554Y11469047I0J237500D01*
G01*
X111787554Y12069047D01*
G75*
G02*
X112025054Y12306547I237500J0D01*
G01*
G37*
G36*
G01*
X112025054Y10581547D02*
X112500054Y10581547D01*
G75*
G02*
X112737554Y10344047I0J-237500D01*
G01*
X112737554Y9744047D01*
G75*
G02*
X112500054Y9506547I-237500J0D01*
G01*
X112025054Y9506547D01*
G75*
G02*
X111787554Y9744047I0J237500D01*
G01*
X111787554Y10344047D01*
G75*
G02*
X112025054Y10581547I237500J0D01*
G01*
G37*
G36*
G01*
X12990454Y32321747D02*
X13465454Y32321747D01*
G75*
G02*
X13702954Y32084247I0J-237500D01*
G01*
X13702954Y31584247D01*
G75*
G02*
X13465454Y31346747I-237500J0D01*
G01*
X12990454Y31346747D01*
G75*
G02*
X12752954Y31584247I0J237500D01*
G01*
X12752954Y32084247D01*
G75*
G02*
X12990454Y32321747I237500J0D01*
G01*
G37*
G36*
G01*
X12990454Y30496747D02*
X13465454Y30496747D01*
G75*
G02*
X13702954Y30259247I0J-237500D01*
G01*
X13702954Y29759247D01*
G75*
G02*
X13465454Y29521747I-237500J0D01*
G01*
X12990454Y29521747D01*
G75*
G02*
X12752954Y29759247I0J237500D01*
G01*
X12752954Y30259247D01*
G75*
G02*
X12990454Y30496747I237500J0D01*
G01*
G37*
D11*
X3111116Y38688946D03*
D12*
X3111116Y36148946D03*
G36*
G01*
X88047142Y21788259D02*
X87711266Y22124135D01*
G75*
G02*
X87711266Y22460011I167938J167938D01*
G01*
X88135530Y22884275D01*
G75*
G02*
X88471406Y22884275I167938J-167938D01*
G01*
X88807282Y22548399D01*
G75*
G02*
X88807282Y22212523I-167938J-167938D01*
G01*
X88383018Y21788259D01*
G75*
G02*
X88047142Y21788259I-167938J167938D01*
G01*
G37*
G36*
G01*
X89266902Y23008019D02*
X88931026Y23343895D01*
G75*
G02*
X88931026Y23679771I167938J167938D01*
G01*
X89355290Y24104035D01*
G75*
G02*
X89691166Y24104035I167938J-167938D01*
G01*
X90027042Y23768159D01*
G75*
G02*
X90027042Y23432283I-167938J-167938D01*
G01*
X89602778Y23008019D01*
G75*
G02*
X89266902Y23008019I-167938J167938D01*
G01*
G37*
D15*
X119552354Y17685747D03*
X119552354Y19985747D03*
D16*
X113252354Y19985747D03*
D15*
X119552354Y22285747D03*
D11*
X127241572Y15681745D03*
D12*
X127241572Y18221745D03*
X127241572Y20761745D03*
X127241572Y23301745D03*
X127241572Y25841745D03*
X127241572Y28381745D03*
G36*
G01*
X76793642Y23749735D02*
X76457766Y23413859D01*
G75*
G02*
X76121890Y23413859I-167938J167938D01*
G01*
X75697626Y23838123D01*
G75*
G02*
X75697626Y24173999I167938J167938D01*
G01*
X76033502Y24509875D01*
G75*
G02*
X76369378Y24509875I167938J-167938D01*
G01*
X76793642Y24085611D01*
G75*
G02*
X76793642Y23749735I-167938J-167938D01*
G01*
G37*
G36*
G01*
X75573882Y24969495D02*
X75238006Y24633619D01*
G75*
G02*
X74902130Y24633619I-167938J167938D01*
G01*
X74477866Y25057883D01*
G75*
G02*
X74477866Y25393759I167938J167938D01*
G01*
X74813742Y25729635D01*
G75*
G02*
X75149618Y25729635I167938J-167938D01*
G01*
X75573882Y25305371D01*
G75*
G02*
X75573882Y24969495I-167938J-167938D01*
G01*
G37*
G36*
G01*
X29862972Y15114045D02*
X29862972Y15589045D01*
G75*
G02*
X30100472Y15826545I237500J0D01*
G01*
X30700472Y15826545D01*
G75*
G02*
X30937972Y15589045I0J-237500D01*
G01*
X30937972Y15114045D01*
G75*
G02*
X30700472Y14876545I-237500J0D01*
G01*
X30100472Y14876545D01*
G75*
G02*
X29862972Y15114045I0J237500D01*
G01*
G37*
G36*
G01*
X31587972Y15114045D02*
X31587972Y15589045D01*
G75*
G02*
X31825472Y15826545I237500J0D01*
G01*
X32425472Y15826545D01*
G75*
G02*
X32662972Y15589045I0J-237500D01*
G01*
X32662972Y15114045D01*
G75*
G02*
X32425472Y14876545I-237500J0D01*
G01*
X31825472Y14876545D01*
G75*
G02*
X31587972Y15114045I0J237500D01*
G01*
G37*
D17*
X126860000Y4319445D03*
X124320000Y4319445D03*
X121780000Y4319445D03*
X119240000Y4319445D03*
X116700000Y4319445D03*
X114160000Y4319445D03*
X111620000Y4319445D03*
X109080000Y4319445D03*
X106540000Y4319445D03*
X104000000Y4319445D03*
X101460000Y4319445D03*
X98920000Y4319445D03*
X96380000Y4319445D03*
X93840000Y4319445D03*
X91300000Y4319445D03*
X88760000Y4319445D03*
X86220000Y4319445D03*
X83680000Y4319445D03*
X81140000Y4319445D03*
X78600000Y4319445D03*
X76060000Y4319445D03*
X73520000Y4319445D03*
X70980000Y4319445D03*
X68440000Y4319445D03*
X65900000Y4319445D03*
X63360000Y4319445D03*
X60820000Y4319445D03*
X58280000Y4319445D03*
X55740000Y4319445D03*
X53200000Y4319445D03*
X50660000Y4319445D03*
X48120000Y4319445D03*
X45580000Y4319445D03*
X43040000Y4319445D03*
X40500000Y4319445D03*
X37960000Y4319445D03*
X35420000Y4319445D03*
X32880000Y4319445D03*
X30340000Y4319445D03*
X27800000Y4319445D03*
X25260000Y4319445D03*
X22720000Y4319445D03*
X20180000Y4319445D03*
X17640000Y4319445D03*
X15100000Y4319445D03*
X12560000Y4319445D03*
X10020000Y4319445D03*
X7480000Y4319445D03*
X4940000Y4319445D03*
X2400000Y4319445D03*
G36*
G01*
X62281772Y35669945D02*
X62681772Y35669945D01*
G75*
G02*
X62881772Y35469945I0J-200000D01*
G01*
X62881772Y33969945D01*
G75*
G02*
X62681772Y33769945I-200000J0D01*
G01*
X62281772Y33769945D01*
G75*
G02*
X62081772Y33969945I0J200000D01*
G01*
X62081772Y35469945D01*
G75*
G02*
X62281772Y35669945I200000J0D01*
G01*
G37*
G36*
G01*
X60381772Y35669945D02*
X60781772Y35669945D01*
G75*
G02*
X60981772Y35469945I0J-200000D01*
G01*
X60981772Y33969945D01*
G75*
G02*
X60781772Y33769945I-200000J0D01*
G01*
X60381772Y33769945D01*
G75*
G02*
X60181772Y33969945I0J200000D01*
G01*
X60181772Y35469945D01*
G75*
G02*
X60381772Y35669945I200000J0D01*
G01*
G37*
G36*
G01*
X61331772Y32669945D02*
X61731772Y32669945D01*
G75*
G02*
X61931772Y32469945I0J-200000D01*
G01*
X61931772Y30969945D01*
G75*
G02*
X61731772Y30769945I-200000J0D01*
G01*
X61331772Y30769945D01*
G75*
G02*
X61131772Y30969945I0J200000D01*
G01*
X61131772Y32469945D01*
G75*
G02*
X61331772Y32669945I200000J0D01*
G01*
G37*
G36*
G01*
X55597772Y21814045D02*
X55797772Y21814045D01*
G75*
G02*
X55897772Y21714045I0J-100000D01*
G01*
X55897772Y20439045D01*
G75*
G02*
X55797772Y20339045I-100000J0D01*
G01*
X55597772Y20339045D01*
G75*
G02*
X55497772Y20439045I0J100000D01*
G01*
X55497772Y21714045D01*
G75*
G02*
X55597772Y21814045I100000J0D01*
G01*
G37*
G36*
G01*
X54947772Y21814045D02*
X55147772Y21814045D01*
G75*
G02*
X55247772Y21714045I0J-100000D01*
G01*
X55247772Y20439045D01*
G75*
G02*
X55147772Y20339045I-100000J0D01*
G01*
X54947772Y20339045D01*
G75*
G02*
X54847772Y20439045I0J100000D01*
G01*
X54847772Y21714045D01*
G75*
G02*
X54947772Y21814045I100000J0D01*
G01*
G37*
G36*
G01*
X54297772Y21814045D02*
X54497772Y21814045D01*
G75*
G02*
X54597772Y21714045I0J-100000D01*
G01*
X54597772Y20439045D01*
G75*
G02*
X54497772Y20339045I-100000J0D01*
G01*
X54297772Y20339045D01*
G75*
G02*
X54197772Y20439045I0J100000D01*
G01*
X54197772Y21714045D01*
G75*
G02*
X54297772Y21814045I100000J0D01*
G01*
G37*
G36*
G01*
X53647772Y21814045D02*
X53847772Y21814045D01*
G75*
G02*
X53947772Y21714045I0J-100000D01*
G01*
X53947772Y20439045D01*
G75*
G02*
X53847772Y20339045I-100000J0D01*
G01*
X53647772Y20339045D01*
G75*
G02*
X53547772Y20439045I0J100000D01*
G01*
X53547772Y21714045D01*
G75*
G02*
X53647772Y21814045I100000J0D01*
G01*
G37*
G36*
G01*
X52997772Y21814045D02*
X53197772Y21814045D01*
G75*
G02*
X53297772Y21714045I0J-100000D01*
G01*
X53297772Y20439045D01*
G75*
G02*
X53197772Y20339045I-100000J0D01*
G01*
X52997772Y20339045D01*
G75*
G02*
X52897772Y20439045I0J100000D01*
G01*
X52897772Y21714045D01*
G75*
G02*
X52997772Y21814045I100000J0D01*
G01*
G37*
G36*
G01*
X52347772Y21814045D02*
X52547772Y21814045D01*
G75*
G02*
X52647772Y21714045I0J-100000D01*
G01*
X52647772Y20439045D01*
G75*
G02*
X52547772Y20339045I-100000J0D01*
G01*
X52347772Y20339045D01*
G75*
G02*
X52247772Y20439045I0J100000D01*
G01*
X52247772Y21714045D01*
G75*
G02*
X52347772Y21814045I100000J0D01*
G01*
G37*
G36*
G01*
X51697772Y21814045D02*
X51897772Y21814045D01*
G75*
G02*
X51997772Y21714045I0J-100000D01*
G01*
X51997772Y20439045D01*
G75*
G02*
X51897772Y20339045I-100000J0D01*
G01*
X51697772Y20339045D01*
G75*
G02*
X51597772Y20439045I0J100000D01*
G01*
X51597772Y21714045D01*
G75*
G02*
X51697772Y21814045I100000J0D01*
G01*
G37*
G36*
G01*
X51047772Y21814045D02*
X51247772Y21814045D01*
G75*
G02*
X51347772Y21714045I0J-100000D01*
G01*
X51347772Y20439045D01*
G75*
G02*
X51247772Y20339045I-100000J0D01*
G01*
X51047772Y20339045D01*
G75*
G02*
X50947772Y20439045I0J100000D01*
G01*
X50947772Y21714045D01*
G75*
G02*
X51047772Y21814045I100000J0D01*
G01*
G37*
G36*
G01*
X50397772Y21814045D02*
X50597772Y21814045D01*
G75*
G02*
X50697772Y21714045I0J-100000D01*
G01*
X50697772Y20439045D01*
G75*
G02*
X50597772Y20339045I-100000J0D01*
G01*
X50397772Y20339045D01*
G75*
G02*
X50297772Y20439045I0J100000D01*
G01*
X50297772Y21714045D01*
G75*
G02*
X50397772Y21814045I100000J0D01*
G01*
G37*
G36*
G01*
X49747772Y21814045D02*
X49947772Y21814045D01*
G75*
G02*
X50047772Y21714045I0J-100000D01*
G01*
X50047772Y20439045D01*
G75*
G02*
X49947772Y20339045I-100000J0D01*
G01*
X49747772Y20339045D01*
G75*
G02*
X49647772Y20439045I0J100000D01*
G01*
X49647772Y21714045D01*
G75*
G02*
X49747772Y21814045I100000J0D01*
G01*
G37*
G36*
G01*
X49747772Y16089045D02*
X49947772Y16089045D01*
G75*
G02*
X50047772Y15989045I0J-100000D01*
G01*
X50047772Y14714045D01*
G75*
G02*
X49947772Y14614045I-100000J0D01*
G01*
X49747772Y14614045D01*
G75*
G02*
X49647772Y14714045I0J100000D01*
G01*
X49647772Y15989045D01*
G75*
G02*
X49747772Y16089045I100000J0D01*
G01*
G37*
G36*
G01*
X50397772Y16089045D02*
X50597772Y16089045D01*
G75*
G02*
X50697772Y15989045I0J-100000D01*
G01*
X50697772Y14714045D01*
G75*
G02*
X50597772Y14614045I-100000J0D01*
G01*
X50397772Y14614045D01*
G75*
G02*
X50297772Y14714045I0J100000D01*
G01*
X50297772Y15989045D01*
G75*
G02*
X50397772Y16089045I100000J0D01*
G01*
G37*
G36*
G01*
X51047772Y16089045D02*
X51247772Y16089045D01*
G75*
G02*
X51347772Y15989045I0J-100000D01*
G01*
X51347772Y14714045D01*
G75*
G02*
X51247772Y14614045I-100000J0D01*
G01*
X51047772Y14614045D01*
G75*
G02*
X50947772Y14714045I0J100000D01*
G01*
X50947772Y15989045D01*
G75*
G02*
X51047772Y16089045I100000J0D01*
G01*
G37*
G36*
G01*
X51697772Y16089045D02*
X51897772Y16089045D01*
G75*
G02*
X51997772Y15989045I0J-100000D01*
G01*
X51997772Y14714045D01*
G75*
G02*
X51897772Y14614045I-100000J0D01*
G01*
X51697772Y14614045D01*
G75*
G02*
X51597772Y14714045I0J100000D01*
G01*
X51597772Y15989045D01*
G75*
G02*
X51697772Y16089045I100000J0D01*
G01*
G37*
G36*
G01*
X52347772Y16089045D02*
X52547772Y16089045D01*
G75*
G02*
X52647772Y15989045I0J-100000D01*
G01*
X52647772Y14714045D01*
G75*
G02*
X52547772Y14614045I-100000J0D01*
G01*
X52347772Y14614045D01*
G75*
G02*
X52247772Y14714045I0J100000D01*
G01*
X52247772Y15989045D01*
G75*
G02*
X52347772Y16089045I100000J0D01*
G01*
G37*
G36*
G01*
X52997772Y16089045D02*
X53197772Y16089045D01*
G75*
G02*
X53297772Y15989045I0J-100000D01*
G01*
X53297772Y14714045D01*
G75*
G02*
X53197772Y14614045I-100000J0D01*
G01*
X52997772Y14614045D01*
G75*
G02*
X52897772Y14714045I0J100000D01*
G01*
X52897772Y15989045D01*
G75*
G02*
X52997772Y16089045I100000J0D01*
G01*
G37*
G36*
G01*
X53647772Y16089045D02*
X53847772Y16089045D01*
G75*
G02*
X53947772Y15989045I0J-100000D01*
G01*
X53947772Y14714045D01*
G75*
G02*
X53847772Y14614045I-100000J0D01*
G01*
X53647772Y14614045D01*
G75*
G02*
X53547772Y14714045I0J100000D01*
G01*
X53547772Y15989045D01*
G75*
G02*
X53647772Y16089045I100000J0D01*
G01*
G37*
G36*
G01*
X54297772Y16089045D02*
X54497772Y16089045D01*
G75*
G02*
X54597772Y15989045I0J-100000D01*
G01*
X54597772Y14714045D01*
G75*
G02*
X54497772Y14614045I-100000J0D01*
G01*
X54297772Y14614045D01*
G75*
G02*
X54197772Y14714045I0J100000D01*
G01*
X54197772Y15989045D01*
G75*
G02*
X54297772Y16089045I100000J0D01*
G01*
G37*
G36*
G01*
X54947772Y16089045D02*
X55147772Y16089045D01*
G75*
G02*
X55247772Y15989045I0J-100000D01*
G01*
X55247772Y14714045D01*
G75*
G02*
X55147772Y14614045I-100000J0D01*
G01*
X54947772Y14614045D01*
G75*
G02*
X54847772Y14714045I0J100000D01*
G01*
X54847772Y15989045D01*
G75*
G02*
X54947772Y16089045I100000J0D01*
G01*
G37*
G36*
G01*
X55597772Y16089045D02*
X55797772Y16089045D01*
G75*
G02*
X55897772Y15989045I0J-100000D01*
G01*
X55897772Y14714045D01*
G75*
G02*
X55797772Y14614045I-100000J0D01*
G01*
X55597772Y14614045D01*
G75*
G02*
X55497772Y14714045I0J100000D01*
G01*
X55497772Y15989045D01*
G75*
G02*
X55597772Y16089045I100000J0D01*
G01*
G37*
D11*
X126034800Y36148946D03*
D12*
X126034800Y38688946D03*
G36*
G01*
X74221722Y15404111D02*
X74557598Y15068235D01*
G75*
G02*
X74557598Y14732359I-167938J-167938D01*
G01*
X74133334Y14308095D01*
G75*
G02*
X73797458Y14308095I-167938J167938D01*
G01*
X73461582Y14643971D01*
G75*
G02*
X73461582Y14979847I167938J167938D01*
G01*
X73885846Y15404111D01*
G75*
G02*
X74221722Y15404111I167938J-167938D01*
G01*
G37*
G36*
G01*
X73001962Y14184351D02*
X73337838Y13848475D01*
G75*
G02*
X73337838Y13512599I-167938J-167938D01*
G01*
X72913574Y13088335D01*
G75*
G02*
X72577698Y13088335I-167938J167938D01*
G01*
X72241822Y13424211D01*
G75*
G02*
X72241822Y13760087I167938J167938D01*
G01*
X72666086Y14184351D01*
G75*
G02*
X73001962Y14184351I167938J-167938D01*
G01*
G37*
G36*
G01*
X86712841Y13588895D02*
X87048717Y13924771D01*
G75*
G02*
X87384593Y13924771I167938J-167938D01*
G01*
X87808857Y13500507D01*
G75*
G02*
X87808857Y13164631I-167938J-167938D01*
G01*
X87472981Y12828755D01*
G75*
G02*
X87137105Y12828755I-167938J167938D01*
G01*
X86712841Y13253019D01*
G75*
G02*
X86712841Y13588895I167938J167938D01*
G01*
G37*
G36*
G01*
X87932601Y12369135D02*
X88268477Y12705011D01*
G75*
G02*
X88604353Y12705011I167938J-167938D01*
G01*
X89028617Y12280747D01*
G75*
G02*
X89028617Y11944871I-167938J-167938D01*
G01*
X88692741Y11608995D01*
G75*
G02*
X88356865Y11608995I-167938J167938D01*
G01*
X87932601Y12033259D01*
G75*
G02*
X87932601Y12369135I167938J167938D01*
G01*
G37*
G36*
G01*
X5394772Y33320646D02*
X5394772Y33795646D01*
G75*
G02*
X5632272Y34033146I237500J0D01*
G01*
X6207272Y34033146D01*
G75*
G02*
X6444772Y33795646I0J-237500D01*
G01*
X6444772Y33320646D01*
G75*
G02*
X6207272Y33083146I-237500J0D01*
G01*
X5632272Y33083146D01*
G75*
G02*
X5394772Y33320646I0J237500D01*
G01*
G37*
G36*
G01*
X7144772Y33320646D02*
X7144772Y33795646D01*
G75*
G02*
X7382272Y34033146I237500J0D01*
G01*
X7957272Y34033146D01*
G75*
G02*
X8194772Y33795646I0J-237500D01*
G01*
X8194772Y33320646D01*
G75*
G02*
X7957272Y33083146I-237500J0D01*
G01*
X7382272Y33083146D01*
G75*
G02*
X7144772Y33320646I0J237500D01*
G01*
G37*
G36*
G01*
X43324972Y15114045D02*
X43324972Y15589045D01*
G75*
G02*
X43562472Y15826545I237500J0D01*
G01*
X44162472Y15826545D01*
G75*
G02*
X44399972Y15589045I0J-237500D01*
G01*
X44399972Y15114045D01*
G75*
G02*
X44162472Y14876545I-237500J0D01*
G01*
X43562472Y14876545D01*
G75*
G02*
X43324972Y15114045I0J237500D01*
G01*
G37*
G36*
G01*
X45049972Y15114045D02*
X45049972Y15589045D01*
G75*
G02*
X45287472Y15826545I237500J0D01*
G01*
X45887472Y15826545D01*
G75*
G02*
X46124972Y15589045I0J-237500D01*
G01*
X46124972Y15114045D01*
G75*
G02*
X45887472Y14876545I-237500J0D01*
G01*
X45287472Y14876545D01*
G75*
G02*
X45049972Y15114045I0J237500D01*
G01*
G37*
M02*
