G04 #@! TF.GenerationSoftware,KiCad,Pcbnew,6.0.11+dfsg-1~bpo11+1*
G04 #@! TF.CreationDate,2023-07-13T14:06:16+00:00*
G04 #@! TF.ProjectId,RIPPLE,52495050-4c45-42e6-9b69-6361645f7063,rev?*
G04 #@! TF.SameCoordinates,Original*
G04 #@! TF.FileFunction,Legend,Bot*
G04 #@! TF.FilePolarity,Positive*
%FSLAX46Y46*%
G04 Gerber Fmt 4.6, Leading zero omitted, Abs format (unit mm)*
G04 Created by KiCad (PCBNEW 6.0.11+dfsg-1~bpo11+1) date 2023-07-13 14:06:16*
%MOMM*%
%LPD*%
G01*
G04 APERTURE LIST*
%ADD10C,0.127000*%
%ADD11C,0.100000*%
%ADD12R,1.700000X1.700000*%
%ADD13O,1.700000X1.700000*%
%ADD14C,1.700000*%
%ADD15R,1.600000X1.600000*%
%ADD16C,1.600000*%
%ADD17R,1.524000X6.754000*%
G04 APERTURE END LIST*
D10*
X10673714Y10158341D02*
X10927714Y10521198D01*
X11109143Y10158341D02*
X11109143Y10920341D01*
X10818857Y10920341D01*
X10746286Y10884055D01*
X10710000Y10847770D01*
X10673714Y10775198D01*
X10673714Y10666341D01*
X10710000Y10593770D01*
X10746286Y10557484D01*
X10818857Y10521198D01*
X11109143Y10521198D01*
X10347143Y10557484D02*
X10093143Y10557484D01*
X9984286Y10158341D02*
X10347143Y10158341D01*
X10347143Y10920341D01*
X9984286Y10920341D01*
X9766572Y10920341D02*
X9512572Y10158341D01*
X9258572Y10920341D01*
X8460286Y10376055D02*
X8097429Y10376055D01*
X8532857Y10158341D02*
X8278857Y10920341D01*
X8024857Y10158341D01*
X7190286Y10158341D02*
X7190286Y10920341D01*
X6900000Y10920341D01*
X6827429Y10884055D01*
X6791143Y10847770D01*
X6754857Y10775198D01*
X6754857Y10666341D01*
X6791143Y10593770D01*
X6827429Y10557484D01*
X6900000Y10521198D01*
X7190286Y10521198D01*
X5992857Y10158341D02*
X6246857Y10521198D01*
X6428286Y10158341D02*
X6428286Y10920341D01*
X6138000Y10920341D01*
X6065429Y10884055D01*
X6029143Y10847770D01*
X5992857Y10775198D01*
X5992857Y10666341D01*
X6029143Y10593770D01*
X6065429Y10557484D01*
X6138000Y10521198D01*
X6428286Y10521198D01*
X5521143Y10920341D02*
X5376000Y10920341D01*
X5303429Y10884055D01*
X5230857Y10811484D01*
X5194572Y10666341D01*
X5194572Y10412341D01*
X5230857Y10267198D01*
X5303429Y10194627D01*
X5376000Y10158341D01*
X5521143Y10158341D01*
X5593714Y10194627D01*
X5666286Y10267198D01*
X5702572Y10412341D01*
X5702572Y10666341D01*
X5666286Y10811484D01*
X5593714Y10884055D01*
X5521143Y10920341D01*
X4976857Y10920341D02*
X4541429Y10920341D01*
X4759143Y10158341D02*
X4759143Y10920341D01*
X4142286Y10920341D02*
X3997143Y10920341D01*
X3924572Y10884055D01*
X3852000Y10811484D01*
X3815714Y10666341D01*
X3815714Y10412341D01*
X3852000Y10267198D01*
X3924572Y10194627D01*
X3997143Y10158341D01*
X4142286Y10158341D01*
X4214857Y10194627D01*
X4287429Y10267198D01*
X4323714Y10412341D01*
X4323714Y10666341D01*
X4287429Y10811484D01*
X4214857Y10884055D01*
X4142286Y10920341D01*
X9821000Y9693521D02*
X9821000Y9149235D01*
X9857286Y9040378D01*
X9929857Y8967807D01*
X10038714Y8931521D01*
X10111286Y8931521D01*
X9458143Y9693521D02*
X9458143Y9076664D01*
X9421857Y9004093D01*
X9385572Y8967807D01*
X9313000Y8931521D01*
X9167857Y8931521D01*
X9095286Y8967807D01*
X9059000Y9004093D01*
X9022714Y9076664D01*
X9022714Y9693521D01*
X8297000Y8931521D02*
X8659857Y8931521D01*
X8659857Y9693521D01*
X7498714Y9620950D02*
X7462429Y9657235D01*
X7389857Y9693521D01*
X7208429Y9693521D01*
X7135857Y9657235D01*
X7099572Y9620950D01*
X7063286Y9548378D01*
X7063286Y9475807D01*
X7099572Y9366950D01*
X7535000Y8931521D01*
X7063286Y8931521D01*
X6591572Y9693521D02*
X6519000Y9693521D01*
X6446429Y9657235D01*
X6410143Y9620950D01*
X6373857Y9548378D01*
X6337572Y9403235D01*
X6337572Y9221807D01*
X6373857Y9076664D01*
X6410143Y9004093D01*
X6446429Y8967807D01*
X6519000Y8931521D01*
X6591572Y8931521D01*
X6664143Y8967807D01*
X6700429Y9004093D01*
X6736714Y9076664D01*
X6773000Y9221807D01*
X6773000Y9403235D01*
X6736714Y9548378D01*
X6700429Y9620950D01*
X6664143Y9657235D01*
X6591572Y9693521D01*
X6047286Y9620950D02*
X6011000Y9657235D01*
X5938429Y9693521D01*
X5757000Y9693521D01*
X5684429Y9657235D01*
X5648143Y9620950D01*
X5611857Y9548378D01*
X5611857Y9475807D01*
X5648143Y9366950D01*
X6083572Y8931521D01*
X5611857Y8931521D01*
X5357857Y9693521D02*
X4886143Y9693521D01*
X5140143Y9403235D01*
X5031286Y9403235D01*
X4958714Y9366950D01*
X4922429Y9330664D01*
X4886143Y9258093D01*
X4886143Y9076664D01*
X4922429Y9004093D01*
X4958714Y8967807D01*
X5031286Y8931521D01*
X5249000Y8931521D01*
X5321572Y8967807D01*
X5357857Y9004093D01*
G36*
X9181008Y13753434D02*
G01*
X8889553Y13751884D01*
X8804287Y13826298D01*
X8776381Y13955747D01*
X8767080Y14158060D01*
X8773281Y14379752D01*
X8815139Y14480521D01*
X8903505Y14530131D01*
X9181008Y14531681D01*
X9181008Y13753434D01*
G37*
G36*
X7548549Y14513078D02*
G01*
X7578005Y14503776D01*
X7588857Y14465018D01*
X7599709Y14427811D01*
X7599709Y12646525D01*
X7588857Y12617069D01*
X7578005Y12584513D01*
X7529946Y12562809D01*
X7283449Y12562809D01*
X7227639Y12584513D01*
X7216787Y12612418D01*
X7218337Y14437113D01*
X7229189Y14469669D01*
X7240041Y14503776D01*
X7278798Y14513078D01*
X7316005Y14520829D01*
X7520644Y14520829D01*
X7548549Y14513078D01*
G37*
G36*
X1594218Y13547245D02*
G01*
X2525428Y14944059D01*
X3627858Y14944059D01*
X3635610Y14531681D01*
X4032485Y14531681D01*
X4034035Y12150431D01*
X4446413Y12150431D01*
X5221559Y12150431D01*
X5633937Y12150431D01*
X5633937Y12714738D01*
X6213747Y13874357D01*
X6213747Y12150431D01*
X6626125Y12150431D01*
X8390358Y12150431D01*
X8802736Y12150431D01*
X8797698Y12417081D01*
X8807387Y12600016D01*
X8851183Y12810856D01*
X8932961Y13021696D01*
X9087990Y13341056D01*
X9181008Y13341056D01*
X9181008Y12150431D01*
X9593386Y12150431D01*
X9593386Y14531681D01*
X9974758Y14531681D01*
X10768508Y14531681D01*
X10768508Y13753434D01*
X10371633Y13753434D01*
X10371633Y13341056D01*
X10768508Y13341056D01*
X10768508Y12150431D01*
X11180886Y12153532D01*
X11180886Y14944059D01*
X9974758Y14944059D01*
X9974758Y14531681D01*
X9593386Y14531681D01*
X9593386Y14944059D01*
X8796535Y14944059D01*
X8601198Y14840189D01*
X8455471Y14680509D01*
X8390358Y14429362D01*
X8391909Y13871256D01*
X8413613Y13793742D01*
X8453920Y13640263D01*
X8546550Y13478257D01*
X8669411Y13358109D01*
X8598485Y13189902D01*
X8497329Y12955033D01*
X8413613Y12787601D01*
X8390358Y12606217D01*
X8390358Y12150431D01*
X6626125Y12150431D01*
X6626125Y12610868D01*
X6809059Y12610868D01*
X6838515Y12525602D01*
X6958275Y12290733D01*
X7116018Y12162833D01*
X7684975Y12162833D01*
X7799309Y12233372D01*
X7894265Y12336466D01*
X7966353Y12479093D01*
X8012087Y12626371D01*
X8012087Y14471220D01*
X7993483Y14606870D01*
X7937673Y14768876D01*
X7821401Y14894450D01*
X7719081Y14944059D01*
X7137722Y14944059D01*
X7021450Y14899100D01*
X6872622Y14711515D01*
X6809059Y14482072D01*
X6809059Y12610868D01*
X6626125Y12610868D01*
X6626125Y14944059D01*
X6311415Y14944059D01*
X5633937Y13567399D01*
X5633937Y14944059D01*
X5221559Y14944059D01*
X5221559Y12150431D01*
X4446413Y12150431D01*
X4444863Y14531681D01*
X4835537Y14531681D01*
X4833986Y14944059D01*
X3627858Y14944059D01*
X2525428Y14944059D01*
X2966400Y15605517D01*
X13214526Y15605517D01*
X11842344Y13547245D01*
X13214526Y11488973D01*
X2966400Y11488973D01*
X1594218Y13547245D01*
G37*
%LPC*%
G36*
X130670000Y-1133555D02*
G01*
X-1410000Y-1133555D01*
X-1410000Y7756445D01*
X130670000Y7756445D01*
X130670000Y-1133555D01*
G37*
D11*
X130670000Y-1133555D02*
X-1410000Y-1133555D01*
X-1410000Y7756445D01*
X130670000Y7756445D01*
X130670000Y-1133555D01*
D12*
X77465000Y30480000D03*
D13*
X80005000Y30480000D03*
D12*
X3126116Y30052946D03*
D13*
X5666116Y30052946D03*
X8206116Y30052946D03*
G36*
G01*
X11280972Y35785845D02*
X10080972Y35785845D01*
G75*
G02*
X9830972Y36035845I0J250000D01*
G01*
X9830972Y37235845D01*
G75*
G02*
X10080972Y37485845I250000J0D01*
G01*
X11280972Y37485845D01*
G75*
G02*
X11530972Y37235845I0J-250000D01*
G01*
X11530972Y36035845D01*
G75*
G02*
X11280972Y35785845I-250000J0D01*
G01*
G37*
D14*
X10680972Y39175845D03*
X13220972Y36635845D03*
X13220972Y39175845D03*
X15760972Y36635845D03*
X15760972Y39175845D03*
X18300972Y36635845D03*
X18300972Y39175845D03*
X20840972Y36635845D03*
X20840972Y39175845D03*
X23380972Y36635845D03*
X23380972Y39175845D03*
X25920972Y36635845D03*
X25920972Y39175845D03*
X28460972Y36635845D03*
X28460972Y39175845D03*
X31000972Y36635845D03*
X31000972Y39175845D03*
X33540972Y36635845D03*
X33540972Y39175845D03*
X36080972Y36635845D03*
X36080972Y39175845D03*
X38620972Y36635845D03*
X38620972Y39175845D03*
X41160972Y36635845D03*
X41160972Y39175845D03*
X43700972Y36635845D03*
X43700972Y39175845D03*
X46240972Y36635845D03*
X46240972Y39175845D03*
X48780972Y36635845D03*
X48780972Y39175845D03*
X51320972Y36635845D03*
X51320972Y39175845D03*
X53860972Y36635845D03*
X53860972Y39175845D03*
X56400972Y36635845D03*
X56400972Y39175845D03*
X58940972Y36635845D03*
X58940972Y39175845D03*
G36*
G01*
X70885800Y35785845D02*
X69685800Y35785845D01*
G75*
G02*
X69435800Y36035845I0J250000D01*
G01*
X69435800Y37235845D01*
G75*
G02*
X69685800Y37485845I250000J0D01*
G01*
X70885800Y37485845D01*
G75*
G02*
X71135800Y37235845I0J-250000D01*
G01*
X71135800Y36035845D01*
G75*
G02*
X70885800Y35785845I-250000J0D01*
G01*
G37*
X70285800Y39175845D03*
X72825800Y36635845D03*
X72825800Y39175845D03*
X75365800Y36635845D03*
X75365800Y39175845D03*
X77905800Y36635845D03*
X77905800Y39175845D03*
X80445800Y36635845D03*
X80445800Y39175845D03*
X82985800Y36635845D03*
X82985800Y39175845D03*
X85525800Y36635845D03*
X85525800Y39175845D03*
X88065800Y36635845D03*
X88065800Y39175845D03*
X90605800Y36635845D03*
X90605800Y39175845D03*
X93145800Y36635845D03*
X93145800Y39175845D03*
X95685800Y36635845D03*
X95685800Y39175845D03*
X98225800Y36635845D03*
X98225800Y39175845D03*
X100765800Y36635845D03*
X100765800Y39175845D03*
X103305800Y36635845D03*
X103305800Y39175845D03*
X105845800Y36635845D03*
X105845800Y39175845D03*
X108385800Y36635845D03*
X108385800Y39175845D03*
X110925800Y36635845D03*
X110925800Y39175845D03*
X113465800Y36635845D03*
X113465800Y39175845D03*
X116005800Y36635845D03*
X116005800Y39175845D03*
X118545800Y36635845D03*
X118545800Y39175845D03*
D15*
X121742888Y11770145D03*
D16*
X124242888Y11770145D03*
D15*
X15062888Y11770145D03*
D16*
X17562888Y11770145D03*
D12*
X3111116Y38688946D03*
D13*
X3111116Y36148946D03*
D12*
X127241572Y18221745D03*
D13*
X127241572Y20761745D03*
X127241572Y23301745D03*
X127241572Y25841745D03*
X127241572Y28381745D03*
X127241572Y30921745D03*
D17*
X126860000Y4319445D03*
X124320000Y4319445D03*
X121780000Y4319445D03*
X119240000Y4319445D03*
X116700000Y4319445D03*
X114160000Y4319445D03*
X111620000Y4319445D03*
X109080000Y4319445D03*
X106540000Y4319445D03*
X104000000Y4319445D03*
X101460000Y4319445D03*
X98920000Y4319445D03*
X96380000Y4319445D03*
X93840000Y4319445D03*
X91300000Y4319445D03*
X88760000Y4319445D03*
X86220000Y4319445D03*
X83680000Y4319445D03*
X81140000Y4319445D03*
X78600000Y4319445D03*
X76060000Y4319445D03*
X73520000Y4319445D03*
X70980000Y4319445D03*
X68440000Y4319445D03*
X65900000Y4319445D03*
X63360000Y4319445D03*
X60820000Y4319445D03*
X58280000Y4319445D03*
X55740000Y4319445D03*
X53200000Y4319445D03*
X50660000Y4319445D03*
X48120000Y4319445D03*
X45580000Y4319445D03*
X43040000Y4319445D03*
X40500000Y4319445D03*
X37960000Y4319445D03*
X35420000Y4319445D03*
X32880000Y4319445D03*
X30340000Y4319445D03*
X27800000Y4319445D03*
X25260000Y4319445D03*
X22720000Y4319445D03*
X20180000Y4319445D03*
X17640000Y4319445D03*
X15100000Y4319445D03*
X12560000Y4319445D03*
X10020000Y4319445D03*
X7480000Y4319445D03*
X4940000Y4319445D03*
X2400000Y4319445D03*
D12*
X126034800Y36148946D03*
D13*
X126034800Y38688946D03*
M02*
