M48
; DRILL file {KiCad 8.0.6+1} date 2025-01-11T21:43:42+0000
; FORMAT={-:-/ absolute / metric / decimal}
; #@! TF.CreationDate,2025-01-11T21:43:42+00:00
; #@! TF.GenerationSoftware,Kicad,Pcbnew,8.0.6+1
; #@! TF.FileFunction,Plated,1,2,PTH
FMAT,2
METRIC
; #@! TA.AperFunction,Plated,PTH,ViaDrill
T1C0.305
; #@! TA.AperFunction,Plated,PTH,ComponentDrill
T2C1.000
%
G90
G05
T1
X2.4Y8.256
X9.233Y32.288
X13.228Y32.801
X14.313Y27.767
X14.885Y28.275
X15.1Y8.256
X15.158Y15.225
X15.158Y14.488
X15.768Y32.766
X16.815Y30.097
X17.64Y8.256
X17.831Y34.823
X18.748Y25.786
X19.553Y11.313
X19.621Y34.772
X19.775Y30.764
X19.775Y28.681
X21.889Y12.913
X22.203Y33.765
X22.441Y28.192
X22.584Y24.456
X22.588Y26.614
X22.588Y25.522
X23.041Y26.055
X23.041Y24.989
X23.041Y23.871
X23.44Y8.638
X23.584Y31.648
X24.874Y33.777
X24.874Y31.132
X25.522Y11.694
X26.169Y30.625
X26.2Y32.918
X27.465Y30.117
X27.47Y33.553
X27.495Y32.359
X27.796Y8.668
X27.927Y34.62
X28.443Y9.687
X28.468Y11.694
X28.499Y18.159
X29.019Y34.62
X29.07Y33.553
X29.247Y32.339
X29.536Y15.352
X29.642Y33.101
X29.769Y22.604
X31.567Y9.865
X32.88Y8.875
X33.245Y15.352
X34.84Y8.377
X35.516Y14.996
X36.386Y13.701
X36.405Y22.514
X37.036Y14.209
X37.047Y29.379
X37.681Y31.115
X37.686Y13.701
X38.336Y19.274
X38.336Y14.178
X38.341Y27.544
X38.976Y30.277
X38.986Y22.855
X38.986Y13.685
X39.04Y19.274
X39.636Y22.347
X39.636Y14.209
X39.636Y29.262
X39.793Y18.918
X40.271Y13.701
X40.286Y22.855
X40.3Y28.263
X40.906Y14.209
X40.925Y27.247
X40.936Y22.347
X41.586Y22.855
X41.592Y26.232
X42.251Y18.016
X42.545Y23.188
X42.922Y15.352
X42.926Y24.255
X44.729Y9.759
X44.847Y25.75
X44.847Y24.023
X46.741Y15.348
X47.803Y22.604
X47.815Y19.888
X48.759Y15.388
X49.413Y8.277
X50.508Y27.305
X50.609Y19.888
X50.66Y8.256
X51.137Y33.716
X51.167Y11.592
X51.798Y34.402
X51.798Y12.05
X51.902Y8.277
X52.448Y11.592
X52.755Y17.185
X53.098Y12.05
X53.211Y16.674
X53.217Y8.149
X53.836Y34.757
X54.389Y24.887
X54.398Y19.212
X54.398Y17.692
X55.048Y22.347
X55.079Y14.082
X55.709Y19.934
X55.868Y26.243
X56.172Y24.744
X56.172Y23.162
X56.265Y8.403
X56.4Y26.772
X56.909Y18.234
X56.936Y19.833
X57.798Y24.744
X57.798Y23.162
X57.945Y17.13
X58.568Y10.948
X59.959Y15.327
X60.396Y36.434
X62.439Y14.742
X62.881Y11.349
X63.05Y14.248
X63.224Y23.162
X64.653Y8.277
X64.803Y16.85
X64.873Y10.767
X65.828Y20.569
X65.9Y8.256
X65.923Y10.767
X66.972Y10.767
X67.244Y8.277
X68.44Y8.102
X69.13Y29.068
X69.603Y14.615
X70.091Y19.686
X70.652Y8.188
X71.733Y26.474
X71.775Y13.235
X73.728Y8.211
X73.896Y18.069
X73.947Y19.416
X74.353Y18.864
X74.436Y25.627
X74.683Y15.516
X75.91Y17.814
X76.06Y8.155
X76.892Y29.245
X76.903Y24.639
X77.052Y23.6
X77.274Y20.152
X77.621Y24.639
X78.829Y32.484
X79.099Y22.22
X79.365Y8.315
X79.388Y31.907
X79.801Y13.574
X80.183Y25.862
X80.201Y26.98
X80.246Y21.651
X80.246Y20.94
X80.384Y12.917
X80.563Y11.288
X80.69Y12.304
X80.751Y22.813
X80.751Y18.849
X81.331Y22.393
X81.331Y18.48
X81.902Y8.383
X81.933Y22.813
X81.933Y18.852
X82.087Y12.633
X82.537Y16.355
X82.746Y8.387
X82.855Y29.83
X82.951Y18.73
X83.095Y15.957
X83.307Y13.828
X83.349Y29.245
X83.4Y10.877
X83.653Y16.355
X83.844Y29.838
X84.284Y21.6
X84.292Y10.69
X84.339Y29.245
X84.475Y25.308
X84.834Y29.824
X84.932Y18.069
X85.11Y15.656
X85.329Y29.245
X85.486Y10.677
X85.77Y25.943
X87.091Y23.353
X87.296Y21.776
X87.421Y29.245
X87.866Y23.353
X87.993Y29.81
X88.405Y19.269
X88.501Y29.245
X88.869Y18.764
X89.199Y11.44
X89.301Y21.829
X89.335Y18.261
X89.775Y17.735
X90.139Y25.943
X90.165Y24.115
X90.578Y8.506
X90.673Y22.206
X90.695Y10.09
X90.939Y21.575
X90.939Y20.856
X91.369Y11.034
X91.79Y18.273
X91.985Y40.721
X93.041Y8.235
X94.508Y24.013
X94.779Y40.721
X94.914Y11.415
X95.676Y19.51
X96.184Y22.591
X96.184Y16.495
X96.54Y17.739
X96.819Y33.627
X97.142Y8.422
X97.404Y20.228
X98.264Y21.063
X98.404Y8.587
X98.699Y17.942
X98.724Y14.717
X99.249Y22.083
X99.359Y9.637
X100.629Y10.526
X100.921Y8.427
X101.264Y14.717
X101.899Y10.526
X102.395Y15.352
X102.534Y14.082
X103.169Y20.686
X103.169Y9.393
X103.804Y14.082
X103.833Y18.117
X104.02Y8.58
X104.312Y21.067
X104.439Y22.083
X104.617Y18.12
X105.074Y14.082
X105.234Y19.383
X105.334Y33.627
X105.709Y22.591
X105.902Y19.225
X106.319Y14.183
X106.39Y20.539
X106.675Y14.996
X106.751Y18.273
X106.778Y21.104
X107.065Y25.242
X107.065Y22.819
X108.326Y22.819
X108.327Y23.536
X108.37Y28.243
X108.605Y9.764
X108.656Y13.193
X109.418Y25.893
X110.452Y33.627
X110.72Y30.025
X111.247Y30.464
X111.653Y8.976
X111.838Y30.812
X113.177Y13.802
X113.177Y12.761
X113.291Y26.985
X113.623Y13.281
X113.652Y8.646
X114.44Y30.592
X114.853Y29.423
X114.853Y26.883
X114.853Y24.812
X116.006Y30.973
X117.343Y14.539
X117.343Y11.11
X117.343Y9.256
X117.647Y29.423
X117.647Y26.883
X120.222Y24.812
X120.543Y15.834
X120.543Y14.92
X120.543Y9.23
X120.594Y11.11
X121.78Y23.429
X121.78Y21.194
X121.78Y14.234
X121.78Y11.592
X121.78Y8.383
X123.174Y24.787
X123.174Y23.771
X123.174Y22.755
X123.174Y21.739
X124.32Y8.383
X126.86Y8.383
T2
X2.985Y29.926
X3.111Y38.689
X3.111Y36.149
X5.525Y29.926
X5.626Y24.775
X8.065Y29.926
X8.166Y24.775
X10.605Y29.926
X10.681Y39.176
X10.681Y36.636
X13.221Y39.176
X13.221Y36.636
X15.761Y39.176
X15.761Y36.636
X18.301Y39.176
X18.301Y36.636
X20.841Y39.176
X20.841Y36.636
X23.381Y39.176
X23.381Y36.636
X25.921Y39.176
X25.921Y36.636
X28.461Y39.176
X28.461Y36.636
X31.001Y39.176
X31.001Y36.636
X33.541Y39.176
X33.541Y36.636
X36.081Y39.176
X36.081Y36.636
X38.621Y39.176
X38.621Y36.636
X41.161Y39.176
X41.161Y36.636
X43.701Y39.176
X43.701Y36.636
X46.241Y39.176
X46.241Y36.636
X48.781Y39.176
X48.781Y36.636
X51.321Y39.176
X51.321Y36.636
X53.861Y39.176
X53.861Y36.636
X56.401Y39.176
X56.401Y36.636
X58.941Y39.176
X58.941Y36.636
X70.286Y39.176
X70.286Y36.636
X72.826Y39.176
X72.826Y36.636
X75.366Y39.176
X75.366Y36.636
X77.906Y39.176
X77.906Y36.636
X80.446Y39.176
X80.446Y36.636
X82.986Y39.176
X82.986Y36.636
X85.526Y39.176
X85.526Y36.636
X88.066Y39.176
X88.066Y36.636
X90.606Y39.176
X90.606Y36.636
X93.146Y39.176
X93.146Y36.636
X95.686Y39.176
X95.686Y36.636
X98.226Y39.176
X98.226Y36.636
X100.766Y39.176
X100.766Y36.636
X103.306Y39.176
X103.306Y36.636
X105.846Y39.176
X105.846Y36.636
X108.386Y39.176
X108.386Y36.636
X110.926Y39.176
X110.926Y36.636
X113.466Y39.176
X113.466Y36.636
X116.006Y39.176
X116.006Y36.636
X118.546Y39.176
X118.546Y36.636
X126.035Y38.689
X126.035Y36.149
X127.242Y32.446
X127.242Y28.382
X127.242Y25.842
X127.242Y23.302
X127.242Y20.762
X127.242Y18.222
X127.242Y15.682
M30
