G04 #@! TF.GenerationSoftware,KiCad,Pcbnew,6.0.11+dfsg-1~bpo11+1*
G04 #@! TF.CreationDate,2023-07-24T14:15:44+00:00*
G04 #@! TF.ProjectId,RIPPLE,52495050-4c45-42e6-9b69-6361645f7063,rev?*
G04 #@! TF.SameCoordinates,Original*
G04 #@! TF.FileFunction,Paste,Top*
G04 #@! TF.FilePolarity,Positive*
%FSLAX46Y46*%
G04 Gerber Fmt 4.6, Leading zero omitted, Abs format (unit mm)*
G04 Created by KiCad (PCBNEW 6.0.11+dfsg-1~bpo11+1) date 2023-07-24 14:15:44*
%MOMM*%
%LPD*%
G01*
G04 APERTURE LIST*
%ADD10R,2.000000X1.500000*%
%ADD11R,2.000000X3.800000*%
G04 APERTURE END LIST*
G36*
G01*
X111858400Y22042145D02*
X111858400Y23342145D01*
G75*
G02*
X112108400Y23592145I250000J0D01*
G01*
X112933400Y23592145D01*
G75*
G02*
X113183400Y23342145I0J-250000D01*
G01*
X113183400Y22042145D01*
G75*
G02*
X112933400Y21792145I-250000J0D01*
G01*
X112108400Y21792145D01*
G75*
G02*
X111858400Y22042145I0J250000D01*
G01*
G37*
G36*
G01*
X114983400Y22042145D02*
X114983400Y23342145D01*
G75*
G02*
X115233400Y23592145I250000J0D01*
G01*
X116058400Y23592145D01*
G75*
G02*
X116308400Y23342145I0J-250000D01*
G01*
X116308400Y22042145D01*
G75*
G02*
X116058400Y21792145I-250000J0D01*
G01*
X115233400Y21792145D01*
G75*
G02*
X114983400Y22042145I0J250000D01*
G01*
G37*
G36*
G01*
X48543800Y34559745D02*
X49093800Y34559745D01*
G75*
G02*
X49293800Y34359745I0J-200000D01*
G01*
X49293800Y33959745D01*
G75*
G02*
X49093800Y33759745I-200000J0D01*
G01*
X48543800Y33759745D01*
G75*
G02*
X48343800Y33959745I0J200000D01*
G01*
X48343800Y34359745D01*
G75*
G02*
X48543800Y34559745I200000J0D01*
G01*
G37*
G36*
G01*
X48543800Y32909745D02*
X49093800Y32909745D01*
G75*
G02*
X49293800Y32709745I0J-200000D01*
G01*
X49293800Y32309745D01*
G75*
G02*
X49093800Y32109745I-200000J0D01*
G01*
X48543800Y32109745D01*
G75*
G02*
X48343800Y32309745I0J200000D01*
G01*
X48343800Y32709745D01*
G75*
G02*
X48543800Y32909745I200000J0D01*
G01*
G37*
G36*
G01*
X56675972Y32109745D02*
X56125972Y32109745D01*
G75*
G02*
X55925972Y32309745I0J200000D01*
G01*
X55925972Y32709745D01*
G75*
G02*
X56125972Y32909745I200000J0D01*
G01*
X56675972Y32909745D01*
G75*
G02*
X56875972Y32709745I0J-200000D01*
G01*
X56875972Y32309745D01*
G75*
G02*
X56675972Y32109745I-200000J0D01*
G01*
G37*
G36*
G01*
X56675972Y33759745D02*
X56125972Y33759745D01*
G75*
G02*
X55925972Y33959745I0J200000D01*
G01*
X55925972Y34359745D01*
G75*
G02*
X56125972Y34559745I200000J0D01*
G01*
X56675972Y34559745D01*
G75*
G02*
X56875972Y34359745I0J-200000D01*
G01*
X56875972Y33959745D01*
G75*
G02*
X56675972Y33759745I-200000J0D01*
G01*
G37*
G36*
G01*
X56961972Y15101545D02*
X56961972Y15601545D01*
G75*
G02*
X57186972Y15826545I225000J0D01*
G01*
X57636972Y15826545D01*
G75*
G02*
X57861972Y15601545I0J-225000D01*
G01*
X57861972Y15101545D01*
G75*
G02*
X57636972Y14876545I-225000J0D01*
G01*
X57186972Y14876545D01*
G75*
G02*
X56961972Y15101545I0J225000D01*
G01*
G37*
G36*
G01*
X58511972Y15101545D02*
X58511972Y15601545D01*
G75*
G02*
X58736972Y15826545I225000J0D01*
G01*
X59186972Y15826545D01*
G75*
G02*
X59411972Y15601545I0J-225000D01*
G01*
X59411972Y15101545D01*
G75*
G02*
X59186972Y14876545I-225000J0D01*
G01*
X58736972Y14876545D01*
G75*
G02*
X58511972Y15101545I0J225000D01*
G01*
G37*
G36*
G01*
X111367722Y11176345D02*
X111880222Y11176345D01*
G75*
G02*
X112098972Y10957595I0J-218750D01*
G01*
X112098972Y10520095D01*
G75*
G02*
X111880222Y10301345I-218750J0D01*
G01*
X111367722Y10301345D01*
G75*
G02*
X111148972Y10520095I0J218750D01*
G01*
X111148972Y10957595D01*
G75*
G02*
X111367722Y11176345I218750J0D01*
G01*
G37*
G36*
G01*
X111367722Y9601345D02*
X111880222Y9601345D01*
G75*
G02*
X112098972Y9382595I0J-218750D01*
G01*
X112098972Y8945095D01*
G75*
G02*
X111880222Y8726345I-218750J0D01*
G01*
X111367722Y8726345D01*
G75*
G02*
X111148972Y8945095I0J218750D01*
G01*
X111148972Y9382595D01*
G75*
G02*
X111367722Y9601345I218750J0D01*
G01*
G37*
G36*
G01*
X118270800Y34559745D02*
X118820800Y34559745D01*
G75*
G02*
X119020800Y34359745I0J-200000D01*
G01*
X119020800Y33959745D01*
G75*
G02*
X118820800Y33759745I-200000J0D01*
G01*
X118270800Y33759745D01*
G75*
G02*
X118070800Y33959745I0J200000D01*
G01*
X118070800Y34359745D01*
G75*
G02*
X118270800Y34559745I200000J0D01*
G01*
G37*
G36*
G01*
X118270800Y32909745D02*
X118820800Y32909745D01*
G75*
G02*
X119020800Y32709745I0J-200000D01*
G01*
X119020800Y32309745D01*
G75*
G02*
X118820800Y32109745I-200000J0D01*
G01*
X118270800Y32109745D01*
G75*
G02*
X118070800Y32309745I0J200000D01*
G01*
X118070800Y32709745D01*
G75*
G02*
X118270800Y32909745I200000J0D01*
G01*
G37*
G36*
G01*
X15523800Y32146745D02*
X16073800Y32146745D01*
G75*
G02*
X16273800Y31946745I0J-200000D01*
G01*
X16273800Y31546745D01*
G75*
G02*
X16073800Y31346745I-200000J0D01*
G01*
X15523800Y31346745D01*
G75*
G02*
X15323800Y31546745I0J200000D01*
G01*
X15323800Y31946745D01*
G75*
G02*
X15523800Y32146745I200000J0D01*
G01*
G37*
G36*
G01*
X15523800Y30496745D02*
X16073800Y30496745D01*
G75*
G02*
X16273800Y30296745I0J-200000D01*
G01*
X16273800Y29896745D01*
G75*
G02*
X16073800Y29696745I-200000J0D01*
G01*
X15523800Y29696745D01*
G75*
G02*
X15323800Y29896745I0J200000D01*
G01*
X15323800Y30296745D01*
G75*
G02*
X15523800Y30496745I200000J0D01*
G01*
G37*
G36*
G01*
X108110800Y34559745D02*
X108660800Y34559745D01*
G75*
G02*
X108860800Y34359745I0J-200000D01*
G01*
X108860800Y33959745D01*
G75*
G02*
X108660800Y33759745I-200000J0D01*
G01*
X108110800Y33759745D01*
G75*
G02*
X107910800Y33959745I0J200000D01*
G01*
X107910800Y34359745D01*
G75*
G02*
X108110800Y34559745I200000J0D01*
G01*
G37*
G36*
G01*
X108110800Y32909745D02*
X108660800Y32909745D01*
G75*
G02*
X108860800Y32709745I0J-200000D01*
G01*
X108860800Y32309745D01*
G75*
G02*
X108660800Y32109745I-200000J0D01*
G01*
X108110800Y32109745D01*
G75*
G02*
X107910800Y32309745I0J200000D01*
G01*
X107910800Y32709745D01*
G75*
G02*
X108110800Y32909745I200000J0D01*
G01*
G37*
G36*
G01*
X37475572Y8831495D02*
X37475572Y9343995D01*
G75*
G02*
X37694322Y9562745I218750J0D01*
G01*
X38131822Y9562745D01*
G75*
G02*
X38350572Y9343995I0J-218750D01*
G01*
X38350572Y8831495D01*
G75*
G02*
X38131822Y8612745I-218750J0D01*
G01*
X37694322Y8612745D01*
G75*
G02*
X37475572Y8831495I0J218750D01*
G01*
G37*
G36*
G01*
X39050572Y8831495D02*
X39050572Y9343995D01*
G75*
G02*
X39269322Y9562745I218750J0D01*
G01*
X39706822Y9562745D01*
G75*
G02*
X39925572Y9343995I0J-218750D01*
G01*
X39925572Y8831495D01*
G75*
G02*
X39706822Y8612745I-218750J0D01*
G01*
X39269322Y8612745D01*
G75*
G02*
X39050572Y8831495I0J218750D01*
G01*
G37*
G36*
G01*
X28673772Y21814045D02*
X28873772Y21814045D01*
G75*
G02*
X28973772Y21714045I0J-100000D01*
G01*
X28973772Y20439045D01*
G75*
G02*
X28873772Y20339045I-100000J0D01*
G01*
X28673772Y20339045D01*
G75*
G02*
X28573772Y20439045I0J100000D01*
G01*
X28573772Y21714045D01*
G75*
G02*
X28673772Y21814045I100000J0D01*
G01*
G37*
G36*
G01*
X28023772Y21814045D02*
X28223772Y21814045D01*
G75*
G02*
X28323772Y21714045I0J-100000D01*
G01*
X28323772Y20439045D01*
G75*
G02*
X28223772Y20339045I-100000J0D01*
G01*
X28023772Y20339045D01*
G75*
G02*
X27923772Y20439045I0J100000D01*
G01*
X27923772Y21714045D01*
G75*
G02*
X28023772Y21814045I100000J0D01*
G01*
G37*
G36*
G01*
X27373772Y21814045D02*
X27573772Y21814045D01*
G75*
G02*
X27673772Y21714045I0J-100000D01*
G01*
X27673772Y20439045D01*
G75*
G02*
X27573772Y20339045I-100000J0D01*
G01*
X27373772Y20339045D01*
G75*
G02*
X27273772Y20439045I0J100000D01*
G01*
X27273772Y21714045D01*
G75*
G02*
X27373772Y21814045I100000J0D01*
G01*
G37*
G36*
G01*
X26723772Y21814045D02*
X26923772Y21814045D01*
G75*
G02*
X27023772Y21714045I0J-100000D01*
G01*
X27023772Y20439045D01*
G75*
G02*
X26923772Y20339045I-100000J0D01*
G01*
X26723772Y20339045D01*
G75*
G02*
X26623772Y20439045I0J100000D01*
G01*
X26623772Y21714045D01*
G75*
G02*
X26723772Y21814045I100000J0D01*
G01*
G37*
G36*
G01*
X26073772Y21814045D02*
X26273772Y21814045D01*
G75*
G02*
X26373772Y21714045I0J-100000D01*
G01*
X26373772Y20439045D01*
G75*
G02*
X26273772Y20339045I-100000J0D01*
G01*
X26073772Y20339045D01*
G75*
G02*
X25973772Y20439045I0J100000D01*
G01*
X25973772Y21714045D01*
G75*
G02*
X26073772Y21814045I100000J0D01*
G01*
G37*
G36*
G01*
X25423772Y21814045D02*
X25623772Y21814045D01*
G75*
G02*
X25723772Y21714045I0J-100000D01*
G01*
X25723772Y20439045D01*
G75*
G02*
X25623772Y20339045I-100000J0D01*
G01*
X25423772Y20339045D01*
G75*
G02*
X25323772Y20439045I0J100000D01*
G01*
X25323772Y21714045D01*
G75*
G02*
X25423772Y21814045I100000J0D01*
G01*
G37*
G36*
G01*
X24773772Y21814045D02*
X24973772Y21814045D01*
G75*
G02*
X25073772Y21714045I0J-100000D01*
G01*
X25073772Y20439045D01*
G75*
G02*
X24973772Y20339045I-100000J0D01*
G01*
X24773772Y20339045D01*
G75*
G02*
X24673772Y20439045I0J100000D01*
G01*
X24673772Y21714045D01*
G75*
G02*
X24773772Y21814045I100000J0D01*
G01*
G37*
G36*
G01*
X24123772Y21814045D02*
X24323772Y21814045D01*
G75*
G02*
X24423772Y21714045I0J-100000D01*
G01*
X24423772Y20439045D01*
G75*
G02*
X24323772Y20339045I-100000J0D01*
G01*
X24123772Y20339045D01*
G75*
G02*
X24023772Y20439045I0J100000D01*
G01*
X24023772Y21714045D01*
G75*
G02*
X24123772Y21814045I100000J0D01*
G01*
G37*
G36*
G01*
X23473772Y21814045D02*
X23673772Y21814045D01*
G75*
G02*
X23773772Y21714045I0J-100000D01*
G01*
X23773772Y20439045D01*
G75*
G02*
X23673772Y20339045I-100000J0D01*
G01*
X23473772Y20339045D01*
G75*
G02*
X23373772Y20439045I0J100000D01*
G01*
X23373772Y21714045D01*
G75*
G02*
X23473772Y21814045I100000J0D01*
G01*
G37*
G36*
G01*
X22823772Y21814045D02*
X23023772Y21814045D01*
G75*
G02*
X23123772Y21714045I0J-100000D01*
G01*
X23123772Y20439045D01*
G75*
G02*
X23023772Y20339045I-100000J0D01*
G01*
X22823772Y20339045D01*
G75*
G02*
X22723772Y20439045I0J100000D01*
G01*
X22723772Y21714045D01*
G75*
G02*
X22823772Y21814045I100000J0D01*
G01*
G37*
G36*
G01*
X22823772Y16089045D02*
X23023772Y16089045D01*
G75*
G02*
X23123772Y15989045I0J-100000D01*
G01*
X23123772Y14714045D01*
G75*
G02*
X23023772Y14614045I-100000J0D01*
G01*
X22823772Y14614045D01*
G75*
G02*
X22723772Y14714045I0J100000D01*
G01*
X22723772Y15989045D01*
G75*
G02*
X22823772Y16089045I100000J0D01*
G01*
G37*
G36*
G01*
X23473772Y16089045D02*
X23673772Y16089045D01*
G75*
G02*
X23773772Y15989045I0J-100000D01*
G01*
X23773772Y14714045D01*
G75*
G02*
X23673772Y14614045I-100000J0D01*
G01*
X23473772Y14614045D01*
G75*
G02*
X23373772Y14714045I0J100000D01*
G01*
X23373772Y15989045D01*
G75*
G02*
X23473772Y16089045I100000J0D01*
G01*
G37*
G36*
G01*
X24123772Y16089045D02*
X24323772Y16089045D01*
G75*
G02*
X24423772Y15989045I0J-100000D01*
G01*
X24423772Y14714045D01*
G75*
G02*
X24323772Y14614045I-100000J0D01*
G01*
X24123772Y14614045D01*
G75*
G02*
X24023772Y14714045I0J100000D01*
G01*
X24023772Y15989045D01*
G75*
G02*
X24123772Y16089045I100000J0D01*
G01*
G37*
G36*
G01*
X24773772Y16089045D02*
X24973772Y16089045D01*
G75*
G02*
X25073772Y15989045I0J-100000D01*
G01*
X25073772Y14714045D01*
G75*
G02*
X24973772Y14614045I-100000J0D01*
G01*
X24773772Y14614045D01*
G75*
G02*
X24673772Y14714045I0J100000D01*
G01*
X24673772Y15989045D01*
G75*
G02*
X24773772Y16089045I100000J0D01*
G01*
G37*
G36*
G01*
X25423772Y16089045D02*
X25623772Y16089045D01*
G75*
G02*
X25723772Y15989045I0J-100000D01*
G01*
X25723772Y14714045D01*
G75*
G02*
X25623772Y14614045I-100000J0D01*
G01*
X25423772Y14614045D01*
G75*
G02*
X25323772Y14714045I0J100000D01*
G01*
X25323772Y15989045D01*
G75*
G02*
X25423772Y16089045I100000J0D01*
G01*
G37*
G36*
G01*
X26073772Y16089045D02*
X26273772Y16089045D01*
G75*
G02*
X26373772Y15989045I0J-100000D01*
G01*
X26373772Y14714045D01*
G75*
G02*
X26273772Y14614045I-100000J0D01*
G01*
X26073772Y14614045D01*
G75*
G02*
X25973772Y14714045I0J100000D01*
G01*
X25973772Y15989045D01*
G75*
G02*
X26073772Y16089045I100000J0D01*
G01*
G37*
G36*
G01*
X26723772Y16089045D02*
X26923772Y16089045D01*
G75*
G02*
X27023772Y15989045I0J-100000D01*
G01*
X27023772Y14714045D01*
G75*
G02*
X26923772Y14614045I-100000J0D01*
G01*
X26723772Y14614045D01*
G75*
G02*
X26623772Y14714045I0J100000D01*
G01*
X26623772Y15989045D01*
G75*
G02*
X26723772Y16089045I100000J0D01*
G01*
G37*
G36*
G01*
X27373772Y16089045D02*
X27573772Y16089045D01*
G75*
G02*
X27673772Y15989045I0J-100000D01*
G01*
X27673772Y14714045D01*
G75*
G02*
X27573772Y14614045I-100000J0D01*
G01*
X27373772Y14614045D01*
G75*
G02*
X27273772Y14714045I0J100000D01*
G01*
X27273772Y15989045D01*
G75*
G02*
X27373772Y16089045I100000J0D01*
G01*
G37*
G36*
G01*
X28023772Y16089045D02*
X28223772Y16089045D01*
G75*
G02*
X28323772Y15989045I0J-100000D01*
G01*
X28323772Y14714045D01*
G75*
G02*
X28223772Y14614045I-100000J0D01*
G01*
X28023772Y14614045D01*
G75*
G02*
X27923772Y14714045I0J100000D01*
G01*
X27923772Y15989045D01*
G75*
G02*
X28023772Y16089045I100000J0D01*
G01*
G37*
G36*
G01*
X28673772Y16089045D02*
X28873772Y16089045D01*
G75*
G02*
X28973772Y15989045I0J-100000D01*
G01*
X28973772Y14714045D01*
G75*
G02*
X28873772Y14614045I-100000J0D01*
G01*
X28673772Y14614045D01*
G75*
G02*
X28573772Y14714045I0J100000D01*
G01*
X28573772Y15989045D01*
G75*
G02*
X28673772Y16089045I100000J0D01*
G01*
G37*
G36*
G01*
X115730800Y34559745D02*
X116280800Y34559745D01*
G75*
G02*
X116480800Y34359745I0J-200000D01*
G01*
X116480800Y33959745D01*
G75*
G02*
X116280800Y33759745I-200000J0D01*
G01*
X115730800Y33759745D01*
G75*
G02*
X115530800Y33959745I0J200000D01*
G01*
X115530800Y34359745D01*
G75*
G02*
X115730800Y34559745I200000J0D01*
G01*
G37*
G36*
G01*
X115730800Y32909745D02*
X116280800Y32909745D01*
G75*
G02*
X116480800Y32709745I0J-200000D01*
G01*
X116480800Y32309745D01*
G75*
G02*
X116280800Y32109745I-200000J0D01*
G01*
X115730800Y32109745D01*
G75*
G02*
X115530800Y32309745I0J200000D01*
G01*
X115530800Y32709745D01*
G75*
G02*
X115730800Y32909745I200000J0D01*
G01*
G37*
G36*
G01*
X74194271Y16345679D02*
X74088205Y16451745D01*
G75*
G02*
X74088205Y16557811I53033J53033D01*
G01*
X75025121Y17494727D01*
G75*
G02*
X75131187Y17494727I53033J-53033D01*
G01*
X75237253Y17388661D01*
G75*
G02*
X75237253Y17282595I-53033J-53033D01*
G01*
X74300337Y16345679D01*
G75*
G02*
X74194271Y16345679I-53033J53033D01*
G01*
G37*
G36*
G01*
X74547825Y15992126D02*
X74441759Y16098192D01*
G75*
G02*
X74441759Y16204258I53033J53033D01*
G01*
X75378675Y17141174D01*
G75*
G02*
X75484741Y17141174I53033J-53033D01*
G01*
X75590807Y17035108D01*
G75*
G02*
X75590807Y16929042I-53033J-53033D01*
G01*
X74653891Y15992126D01*
G75*
G02*
X74547825Y15992126I-53033J53033D01*
G01*
G37*
G36*
G01*
X74901378Y15638572D02*
X74795312Y15744638D01*
G75*
G02*
X74795312Y15850704I53033J53033D01*
G01*
X75732228Y16787620D01*
G75*
G02*
X75838294Y16787620I53033J-53033D01*
G01*
X75944360Y16681554D01*
G75*
G02*
X75944360Y16575488I-53033J-53033D01*
G01*
X75007444Y15638572D01*
G75*
G02*
X74901378Y15638572I-53033J53033D01*
G01*
G37*
G36*
G01*
X75254932Y15285019D02*
X75148866Y15391085D01*
G75*
G02*
X75148866Y15497151I53033J53033D01*
G01*
X76085782Y16434067D01*
G75*
G02*
X76191848Y16434067I53033J-53033D01*
G01*
X76297914Y16328001D01*
G75*
G02*
X76297914Y16221935I-53033J-53033D01*
G01*
X75360998Y15285019D01*
G75*
G02*
X75254932Y15285019I-53033J53033D01*
G01*
G37*
G36*
G01*
X75608485Y14931466D02*
X75502419Y15037532D01*
G75*
G02*
X75502419Y15143598I53033J53033D01*
G01*
X76439335Y16080514D01*
G75*
G02*
X76545401Y16080514I53033J-53033D01*
G01*
X76651467Y15974448D01*
G75*
G02*
X76651467Y15868382I-53033J-53033D01*
G01*
X75714551Y14931466D01*
G75*
G02*
X75608485Y14931466I-53033J53033D01*
G01*
G37*
G36*
G01*
X75962038Y14577912D02*
X75855972Y14683978D01*
G75*
G02*
X75855972Y14790044I53033J53033D01*
G01*
X76792888Y15726960D01*
G75*
G02*
X76898954Y15726960I53033J-53033D01*
G01*
X77005020Y15620894D01*
G75*
G02*
X77005020Y15514828I-53033J-53033D01*
G01*
X76068104Y14577912D01*
G75*
G02*
X75962038Y14577912I-53033J53033D01*
G01*
G37*
G36*
G01*
X76315592Y14224359D02*
X76209526Y14330425D01*
G75*
G02*
X76209526Y14436491I53033J53033D01*
G01*
X77146442Y15373407D01*
G75*
G02*
X77252508Y15373407I53033J-53033D01*
G01*
X77358574Y15267341D01*
G75*
G02*
X77358574Y15161275I-53033J-53033D01*
G01*
X76421658Y14224359D01*
G75*
G02*
X76315592Y14224359I-53033J53033D01*
G01*
G37*
G36*
G01*
X76669145Y13870806D02*
X76563079Y13976872D01*
G75*
G02*
X76563079Y14082938I53033J53033D01*
G01*
X77499995Y15019854D01*
G75*
G02*
X77606061Y15019854I53033J-53033D01*
G01*
X77712127Y14913788D01*
G75*
G02*
X77712127Y14807722I-53033J-53033D01*
G01*
X76775211Y13870806D01*
G75*
G02*
X76669145Y13870806I-53033J53033D01*
G01*
G37*
G36*
G01*
X77022699Y13517252D02*
X76916633Y13623318D01*
G75*
G02*
X76916633Y13729384I53033J53033D01*
G01*
X77853549Y14666300D01*
G75*
G02*
X77959615Y14666300I53033J-53033D01*
G01*
X78065681Y14560234D01*
G75*
G02*
X78065681Y14454168I-53033J-53033D01*
G01*
X77128765Y13517252D01*
G75*
G02*
X77022699Y13517252I-53033J53033D01*
G01*
G37*
G36*
G01*
X77376252Y13163699D02*
X77270186Y13269765D01*
G75*
G02*
X77270186Y13375831I53033J53033D01*
G01*
X78207102Y14312747D01*
G75*
G02*
X78313168Y14312747I53033J-53033D01*
G01*
X78419234Y14206681D01*
G75*
G02*
X78419234Y14100615I-53033J-53033D01*
G01*
X77482318Y13163699D01*
G75*
G02*
X77376252Y13163699I-53033J53033D01*
G01*
G37*
G36*
G01*
X77729805Y12810145D02*
X77623739Y12916211D01*
G75*
G02*
X77623739Y13022277I53033J53033D01*
G01*
X78560655Y13959193D01*
G75*
G02*
X78666721Y13959193I53033J-53033D01*
G01*
X78772787Y13853127D01*
G75*
G02*
X78772787Y13747061I-53033J-53033D01*
G01*
X77835871Y12810145D01*
G75*
G02*
X77729805Y12810145I-53033J53033D01*
G01*
G37*
G36*
G01*
X78083359Y12456592D02*
X77977293Y12562658D01*
G75*
G02*
X77977293Y12668724I53033J53033D01*
G01*
X78914209Y13605640D01*
G75*
G02*
X79020275Y13605640I53033J-53033D01*
G01*
X79126341Y13499574D01*
G75*
G02*
X79126341Y13393508I-53033J-53033D01*
G01*
X78189425Y12456592D01*
G75*
G02*
X78083359Y12456592I-53033J53033D01*
G01*
G37*
G36*
G01*
X78436912Y12103039D02*
X78330846Y12209105D01*
G75*
G02*
X78330846Y12315171I53033J53033D01*
G01*
X79267762Y13252087D01*
G75*
G02*
X79373828Y13252087I53033J-53033D01*
G01*
X79479894Y13146021D01*
G75*
G02*
X79479894Y13039955I-53033J-53033D01*
G01*
X78542978Y12103039D01*
G75*
G02*
X78436912Y12103039I-53033J53033D01*
G01*
G37*
G36*
G01*
X78790465Y11749485D02*
X78684399Y11855551D01*
G75*
G02*
X78684399Y11961617I53033J53033D01*
G01*
X79621315Y12898533D01*
G75*
G02*
X79727381Y12898533I53033J-53033D01*
G01*
X79833447Y12792467D01*
G75*
G02*
X79833447Y12686401I-53033J-53033D01*
G01*
X78896531Y11749485D01*
G75*
G02*
X78790465Y11749485I-53033J53033D01*
G01*
G37*
G36*
G01*
X79144019Y11395932D02*
X79037953Y11501998D01*
G75*
G02*
X79037953Y11608064I53033J53033D01*
G01*
X79974869Y12544980D01*
G75*
G02*
X80080935Y12544980I53033J-53033D01*
G01*
X80187001Y12438914D01*
G75*
G02*
X80187001Y12332848I-53033J-53033D01*
G01*
X79250085Y11395932D01*
G75*
G02*
X79144019Y11395932I-53033J53033D01*
G01*
G37*
G36*
G01*
X79497572Y11042378D02*
X79391506Y11148444D01*
G75*
G02*
X79391506Y11254510I53033J53033D01*
G01*
X80328422Y12191426D01*
G75*
G02*
X80434488Y12191426I53033J-53033D01*
G01*
X80540554Y12085360D01*
G75*
G02*
X80540554Y11979294I-53033J-53033D01*
G01*
X79603638Y11042378D01*
G75*
G02*
X79497572Y11042378I-53033J53033D01*
G01*
G37*
G36*
G01*
X83033106Y11042378D02*
X82096190Y11979294D01*
G75*
G02*
X82096190Y12085360I53033J53033D01*
G01*
X82202256Y12191426D01*
G75*
G02*
X82308322Y12191426I53033J-53033D01*
G01*
X83245238Y11254510D01*
G75*
G02*
X83245238Y11148444I-53033J-53033D01*
G01*
X83139172Y11042378D01*
G75*
G02*
X83033106Y11042378I-53033J53033D01*
G01*
G37*
G36*
G01*
X83386659Y11395932D02*
X82449743Y12332848D01*
G75*
G02*
X82449743Y12438914I53033J53033D01*
G01*
X82555809Y12544980D01*
G75*
G02*
X82661875Y12544980I53033J-53033D01*
G01*
X83598791Y11608064D01*
G75*
G02*
X83598791Y11501998I-53033J-53033D01*
G01*
X83492725Y11395932D01*
G75*
G02*
X83386659Y11395932I-53033J53033D01*
G01*
G37*
G36*
G01*
X83740213Y11749485D02*
X82803297Y12686401D01*
G75*
G02*
X82803297Y12792467I53033J53033D01*
G01*
X82909363Y12898533D01*
G75*
G02*
X83015429Y12898533I53033J-53033D01*
G01*
X83952345Y11961617D01*
G75*
G02*
X83952345Y11855551I-53033J-53033D01*
G01*
X83846279Y11749485D01*
G75*
G02*
X83740213Y11749485I-53033J53033D01*
G01*
G37*
G36*
G01*
X84093766Y12103039D02*
X83156850Y13039955D01*
G75*
G02*
X83156850Y13146021I53033J53033D01*
G01*
X83262916Y13252087D01*
G75*
G02*
X83368982Y13252087I53033J-53033D01*
G01*
X84305898Y12315171D01*
G75*
G02*
X84305898Y12209105I-53033J-53033D01*
G01*
X84199832Y12103039D01*
G75*
G02*
X84093766Y12103039I-53033J53033D01*
G01*
G37*
G36*
G01*
X84447319Y12456592D02*
X83510403Y13393508D01*
G75*
G02*
X83510403Y13499574I53033J53033D01*
G01*
X83616469Y13605640D01*
G75*
G02*
X83722535Y13605640I53033J-53033D01*
G01*
X84659451Y12668724D01*
G75*
G02*
X84659451Y12562658I-53033J-53033D01*
G01*
X84553385Y12456592D01*
G75*
G02*
X84447319Y12456592I-53033J53033D01*
G01*
G37*
G36*
G01*
X84800873Y12810145D02*
X83863957Y13747061D01*
G75*
G02*
X83863957Y13853127I53033J53033D01*
G01*
X83970023Y13959193D01*
G75*
G02*
X84076089Y13959193I53033J-53033D01*
G01*
X85013005Y13022277D01*
G75*
G02*
X85013005Y12916211I-53033J-53033D01*
G01*
X84906939Y12810145D01*
G75*
G02*
X84800873Y12810145I-53033J53033D01*
G01*
G37*
G36*
G01*
X85154426Y13163699D02*
X84217510Y14100615D01*
G75*
G02*
X84217510Y14206681I53033J53033D01*
G01*
X84323576Y14312747D01*
G75*
G02*
X84429642Y14312747I53033J-53033D01*
G01*
X85366558Y13375831D01*
G75*
G02*
X85366558Y13269765I-53033J-53033D01*
G01*
X85260492Y13163699D01*
G75*
G02*
X85154426Y13163699I-53033J53033D01*
G01*
G37*
G36*
G01*
X85507979Y13517252D02*
X84571063Y14454168D01*
G75*
G02*
X84571063Y14560234I53033J53033D01*
G01*
X84677129Y14666300D01*
G75*
G02*
X84783195Y14666300I53033J-53033D01*
G01*
X85720111Y13729384D01*
G75*
G02*
X85720111Y13623318I-53033J-53033D01*
G01*
X85614045Y13517252D01*
G75*
G02*
X85507979Y13517252I-53033J53033D01*
G01*
G37*
G36*
G01*
X85861533Y13870806D02*
X84924617Y14807722D01*
G75*
G02*
X84924617Y14913788I53033J53033D01*
G01*
X85030683Y15019854D01*
G75*
G02*
X85136749Y15019854I53033J-53033D01*
G01*
X86073665Y14082938D01*
G75*
G02*
X86073665Y13976872I-53033J-53033D01*
G01*
X85967599Y13870806D01*
G75*
G02*
X85861533Y13870806I-53033J53033D01*
G01*
G37*
G36*
G01*
X86215086Y14224359D02*
X85278170Y15161275D01*
G75*
G02*
X85278170Y15267341I53033J53033D01*
G01*
X85384236Y15373407D01*
G75*
G02*
X85490302Y15373407I53033J-53033D01*
G01*
X86427218Y14436491D01*
G75*
G02*
X86427218Y14330425I-53033J-53033D01*
G01*
X86321152Y14224359D01*
G75*
G02*
X86215086Y14224359I-53033J53033D01*
G01*
G37*
G36*
G01*
X86568640Y14577912D02*
X85631724Y15514828D01*
G75*
G02*
X85631724Y15620894I53033J53033D01*
G01*
X85737790Y15726960D01*
G75*
G02*
X85843856Y15726960I53033J-53033D01*
G01*
X86780772Y14790044D01*
G75*
G02*
X86780772Y14683978I-53033J-53033D01*
G01*
X86674706Y14577912D01*
G75*
G02*
X86568640Y14577912I-53033J53033D01*
G01*
G37*
G36*
G01*
X86922193Y14931466D02*
X85985277Y15868382D01*
G75*
G02*
X85985277Y15974448I53033J53033D01*
G01*
X86091343Y16080514D01*
G75*
G02*
X86197409Y16080514I53033J-53033D01*
G01*
X87134325Y15143598D01*
G75*
G02*
X87134325Y15037532I-53033J-53033D01*
G01*
X87028259Y14931466D01*
G75*
G02*
X86922193Y14931466I-53033J53033D01*
G01*
G37*
G36*
G01*
X87275746Y15285019D02*
X86338830Y16221935D01*
G75*
G02*
X86338830Y16328001I53033J53033D01*
G01*
X86444896Y16434067D01*
G75*
G02*
X86550962Y16434067I53033J-53033D01*
G01*
X87487878Y15497151D01*
G75*
G02*
X87487878Y15391085I-53033J-53033D01*
G01*
X87381812Y15285019D01*
G75*
G02*
X87275746Y15285019I-53033J53033D01*
G01*
G37*
G36*
G01*
X87629300Y15638572D02*
X86692384Y16575488D01*
G75*
G02*
X86692384Y16681554I53033J53033D01*
G01*
X86798450Y16787620D01*
G75*
G02*
X86904516Y16787620I53033J-53033D01*
G01*
X87841432Y15850704D01*
G75*
G02*
X87841432Y15744638I-53033J-53033D01*
G01*
X87735366Y15638572D01*
G75*
G02*
X87629300Y15638572I-53033J53033D01*
G01*
G37*
G36*
G01*
X87982853Y15992126D02*
X87045937Y16929042D01*
G75*
G02*
X87045937Y17035108I53033J53033D01*
G01*
X87152003Y17141174D01*
G75*
G02*
X87258069Y17141174I53033J-53033D01*
G01*
X88194985Y16204258D01*
G75*
G02*
X88194985Y16098192I-53033J-53033D01*
G01*
X88088919Y15992126D01*
G75*
G02*
X87982853Y15992126I-53033J53033D01*
G01*
G37*
G36*
G01*
X88336407Y16345679D02*
X87399491Y17282595D01*
G75*
G02*
X87399491Y17388661I53033J53033D01*
G01*
X87505557Y17494727D01*
G75*
G02*
X87611623Y17494727I53033J-53033D01*
G01*
X88548539Y16557811D01*
G75*
G02*
X88548539Y16451745I-53033J-53033D01*
G01*
X88442473Y16345679D01*
G75*
G02*
X88336407Y16345679I-53033J53033D01*
G01*
G37*
G36*
G01*
X87505557Y19050363D02*
X87399491Y19156429D01*
G75*
G02*
X87399491Y19262495I53033J53033D01*
G01*
X88336407Y20199411D01*
G75*
G02*
X88442473Y20199411I53033J-53033D01*
G01*
X88548539Y20093345D01*
G75*
G02*
X88548539Y19987279I-53033J-53033D01*
G01*
X87611623Y19050363D01*
G75*
G02*
X87505557Y19050363I-53033J53033D01*
G01*
G37*
G36*
G01*
X87152003Y19403916D02*
X87045937Y19509982D01*
G75*
G02*
X87045937Y19616048I53033J53033D01*
G01*
X87982853Y20552964D01*
G75*
G02*
X88088919Y20552964I53033J-53033D01*
G01*
X88194985Y20446898D01*
G75*
G02*
X88194985Y20340832I-53033J-53033D01*
G01*
X87258069Y19403916D01*
G75*
G02*
X87152003Y19403916I-53033J53033D01*
G01*
G37*
G36*
G01*
X86798450Y19757470D02*
X86692384Y19863536D01*
G75*
G02*
X86692384Y19969602I53033J53033D01*
G01*
X87629300Y20906518D01*
G75*
G02*
X87735366Y20906518I53033J-53033D01*
G01*
X87841432Y20800452D01*
G75*
G02*
X87841432Y20694386I-53033J-53033D01*
G01*
X86904516Y19757470D01*
G75*
G02*
X86798450Y19757470I-53033J53033D01*
G01*
G37*
G36*
G01*
X86444896Y20111023D02*
X86338830Y20217089D01*
G75*
G02*
X86338830Y20323155I53033J53033D01*
G01*
X87275746Y21260071D01*
G75*
G02*
X87381812Y21260071I53033J-53033D01*
G01*
X87487878Y21154005D01*
G75*
G02*
X87487878Y21047939I-53033J-53033D01*
G01*
X86550962Y20111023D01*
G75*
G02*
X86444896Y20111023I-53033J53033D01*
G01*
G37*
G36*
G01*
X86091343Y20464576D02*
X85985277Y20570642D01*
G75*
G02*
X85985277Y20676708I53033J53033D01*
G01*
X86922193Y21613624D01*
G75*
G02*
X87028259Y21613624I53033J-53033D01*
G01*
X87134325Y21507558D01*
G75*
G02*
X87134325Y21401492I-53033J-53033D01*
G01*
X86197409Y20464576D01*
G75*
G02*
X86091343Y20464576I-53033J53033D01*
G01*
G37*
G36*
G01*
X85737790Y20818130D02*
X85631724Y20924196D01*
G75*
G02*
X85631724Y21030262I53033J53033D01*
G01*
X86568640Y21967178D01*
G75*
G02*
X86674706Y21967178I53033J-53033D01*
G01*
X86780772Y21861112D01*
G75*
G02*
X86780772Y21755046I-53033J-53033D01*
G01*
X85843856Y20818130D01*
G75*
G02*
X85737790Y20818130I-53033J53033D01*
G01*
G37*
G36*
G01*
X85384236Y21171683D02*
X85278170Y21277749D01*
G75*
G02*
X85278170Y21383815I53033J53033D01*
G01*
X86215086Y22320731D01*
G75*
G02*
X86321152Y22320731I53033J-53033D01*
G01*
X86427218Y22214665D01*
G75*
G02*
X86427218Y22108599I-53033J-53033D01*
G01*
X85490302Y21171683D01*
G75*
G02*
X85384236Y21171683I-53033J53033D01*
G01*
G37*
G36*
G01*
X85030683Y21525236D02*
X84924617Y21631302D01*
G75*
G02*
X84924617Y21737368I53033J53033D01*
G01*
X85861533Y22674284D01*
G75*
G02*
X85967599Y22674284I53033J-53033D01*
G01*
X86073665Y22568218D01*
G75*
G02*
X86073665Y22462152I-53033J-53033D01*
G01*
X85136749Y21525236D01*
G75*
G02*
X85030683Y21525236I-53033J53033D01*
G01*
G37*
G36*
G01*
X84677129Y21878790D02*
X84571063Y21984856D01*
G75*
G02*
X84571063Y22090922I53033J53033D01*
G01*
X85507979Y23027838D01*
G75*
G02*
X85614045Y23027838I53033J-53033D01*
G01*
X85720111Y22921772D01*
G75*
G02*
X85720111Y22815706I-53033J-53033D01*
G01*
X84783195Y21878790D01*
G75*
G02*
X84677129Y21878790I-53033J53033D01*
G01*
G37*
G36*
G01*
X84323576Y22232343D02*
X84217510Y22338409D01*
G75*
G02*
X84217510Y22444475I53033J53033D01*
G01*
X85154426Y23381391D01*
G75*
G02*
X85260492Y23381391I53033J-53033D01*
G01*
X85366558Y23275325D01*
G75*
G02*
X85366558Y23169259I-53033J-53033D01*
G01*
X84429642Y22232343D01*
G75*
G02*
X84323576Y22232343I-53033J53033D01*
G01*
G37*
G36*
G01*
X83970023Y22585897D02*
X83863957Y22691963D01*
G75*
G02*
X83863957Y22798029I53033J53033D01*
G01*
X84800873Y23734945D01*
G75*
G02*
X84906939Y23734945I53033J-53033D01*
G01*
X85013005Y23628879D01*
G75*
G02*
X85013005Y23522813I-53033J-53033D01*
G01*
X84076089Y22585897D01*
G75*
G02*
X83970023Y22585897I-53033J53033D01*
G01*
G37*
G36*
G01*
X83616469Y22939450D02*
X83510403Y23045516D01*
G75*
G02*
X83510403Y23151582I53033J53033D01*
G01*
X84447319Y24088498D01*
G75*
G02*
X84553385Y24088498I53033J-53033D01*
G01*
X84659451Y23982432D01*
G75*
G02*
X84659451Y23876366I-53033J-53033D01*
G01*
X83722535Y22939450D01*
G75*
G02*
X83616469Y22939450I-53033J53033D01*
G01*
G37*
G36*
G01*
X83262916Y23293003D02*
X83156850Y23399069D01*
G75*
G02*
X83156850Y23505135I53033J53033D01*
G01*
X84093766Y24442051D01*
G75*
G02*
X84199832Y24442051I53033J-53033D01*
G01*
X84305898Y24335985D01*
G75*
G02*
X84305898Y24229919I-53033J-53033D01*
G01*
X83368982Y23293003D01*
G75*
G02*
X83262916Y23293003I-53033J53033D01*
G01*
G37*
G36*
G01*
X82909363Y23646557D02*
X82803297Y23752623D01*
G75*
G02*
X82803297Y23858689I53033J53033D01*
G01*
X83740213Y24795605D01*
G75*
G02*
X83846279Y24795605I53033J-53033D01*
G01*
X83952345Y24689539D01*
G75*
G02*
X83952345Y24583473I-53033J-53033D01*
G01*
X83015429Y23646557D01*
G75*
G02*
X82909363Y23646557I-53033J53033D01*
G01*
G37*
G36*
G01*
X82555809Y24000110D02*
X82449743Y24106176D01*
G75*
G02*
X82449743Y24212242I53033J53033D01*
G01*
X83386659Y25149158D01*
G75*
G02*
X83492725Y25149158I53033J-53033D01*
G01*
X83598791Y25043092D01*
G75*
G02*
X83598791Y24937026I-53033J-53033D01*
G01*
X82661875Y24000110D01*
G75*
G02*
X82555809Y24000110I-53033J53033D01*
G01*
G37*
G36*
G01*
X82202256Y24353664D02*
X82096190Y24459730D01*
G75*
G02*
X82096190Y24565796I53033J53033D01*
G01*
X83033106Y25502712D01*
G75*
G02*
X83139172Y25502712I53033J-53033D01*
G01*
X83245238Y25396646D01*
G75*
G02*
X83245238Y25290580I-53033J-53033D01*
G01*
X82308322Y24353664D01*
G75*
G02*
X82202256Y24353664I-53033J53033D01*
G01*
G37*
G36*
G01*
X80328422Y24353664D02*
X79391506Y25290580D01*
G75*
G02*
X79391506Y25396646I53033J53033D01*
G01*
X79497572Y25502712D01*
G75*
G02*
X79603638Y25502712I53033J-53033D01*
G01*
X80540554Y24565796D01*
G75*
G02*
X80540554Y24459730I-53033J-53033D01*
G01*
X80434488Y24353664D01*
G75*
G02*
X80328422Y24353664I-53033J53033D01*
G01*
G37*
G36*
G01*
X79974869Y24000110D02*
X79037953Y24937026D01*
G75*
G02*
X79037953Y25043092I53033J53033D01*
G01*
X79144019Y25149158D01*
G75*
G02*
X79250085Y25149158I53033J-53033D01*
G01*
X80187001Y24212242D01*
G75*
G02*
X80187001Y24106176I-53033J-53033D01*
G01*
X80080935Y24000110D01*
G75*
G02*
X79974869Y24000110I-53033J53033D01*
G01*
G37*
G36*
G01*
X79621315Y23646557D02*
X78684399Y24583473D01*
G75*
G02*
X78684399Y24689539I53033J53033D01*
G01*
X78790465Y24795605D01*
G75*
G02*
X78896531Y24795605I53033J-53033D01*
G01*
X79833447Y23858689D01*
G75*
G02*
X79833447Y23752623I-53033J-53033D01*
G01*
X79727381Y23646557D01*
G75*
G02*
X79621315Y23646557I-53033J53033D01*
G01*
G37*
G36*
G01*
X79267762Y23293003D02*
X78330846Y24229919D01*
G75*
G02*
X78330846Y24335985I53033J53033D01*
G01*
X78436912Y24442051D01*
G75*
G02*
X78542978Y24442051I53033J-53033D01*
G01*
X79479894Y23505135D01*
G75*
G02*
X79479894Y23399069I-53033J-53033D01*
G01*
X79373828Y23293003D01*
G75*
G02*
X79267762Y23293003I-53033J53033D01*
G01*
G37*
G36*
G01*
X78914209Y22939450D02*
X77977293Y23876366D01*
G75*
G02*
X77977293Y23982432I53033J53033D01*
G01*
X78083359Y24088498D01*
G75*
G02*
X78189425Y24088498I53033J-53033D01*
G01*
X79126341Y23151582D01*
G75*
G02*
X79126341Y23045516I-53033J-53033D01*
G01*
X79020275Y22939450D01*
G75*
G02*
X78914209Y22939450I-53033J53033D01*
G01*
G37*
G36*
G01*
X78560655Y22585897D02*
X77623739Y23522813D01*
G75*
G02*
X77623739Y23628879I53033J53033D01*
G01*
X77729805Y23734945D01*
G75*
G02*
X77835871Y23734945I53033J-53033D01*
G01*
X78772787Y22798029D01*
G75*
G02*
X78772787Y22691963I-53033J-53033D01*
G01*
X78666721Y22585897D01*
G75*
G02*
X78560655Y22585897I-53033J53033D01*
G01*
G37*
G36*
G01*
X78207102Y22232343D02*
X77270186Y23169259D01*
G75*
G02*
X77270186Y23275325I53033J53033D01*
G01*
X77376252Y23381391D01*
G75*
G02*
X77482318Y23381391I53033J-53033D01*
G01*
X78419234Y22444475D01*
G75*
G02*
X78419234Y22338409I-53033J-53033D01*
G01*
X78313168Y22232343D01*
G75*
G02*
X78207102Y22232343I-53033J53033D01*
G01*
G37*
G36*
G01*
X77853549Y21878790D02*
X76916633Y22815706D01*
G75*
G02*
X76916633Y22921772I53033J53033D01*
G01*
X77022699Y23027838D01*
G75*
G02*
X77128765Y23027838I53033J-53033D01*
G01*
X78065681Y22090922D01*
G75*
G02*
X78065681Y21984856I-53033J-53033D01*
G01*
X77959615Y21878790D01*
G75*
G02*
X77853549Y21878790I-53033J53033D01*
G01*
G37*
G36*
G01*
X77499995Y21525236D02*
X76563079Y22462152D01*
G75*
G02*
X76563079Y22568218I53033J53033D01*
G01*
X76669145Y22674284D01*
G75*
G02*
X76775211Y22674284I53033J-53033D01*
G01*
X77712127Y21737368D01*
G75*
G02*
X77712127Y21631302I-53033J-53033D01*
G01*
X77606061Y21525236D01*
G75*
G02*
X77499995Y21525236I-53033J53033D01*
G01*
G37*
G36*
G01*
X77146442Y21171683D02*
X76209526Y22108599D01*
G75*
G02*
X76209526Y22214665I53033J53033D01*
G01*
X76315592Y22320731D01*
G75*
G02*
X76421658Y22320731I53033J-53033D01*
G01*
X77358574Y21383815D01*
G75*
G02*
X77358574Y21277749I-53033J-53033D01*
G01*
X77252508Y21171683D01*
G75*
G02*
X77146442Y21171683I-53033J53033D01*
G01*
G37*
G36*
G01*
X76792888Y20818130D02*
X75855972Y21755046D01*
G75*
G02*
X75855972Y21861112I53033J53033D01*
G01*
X75962038Y21967178D01*
G75*
G02*
X76068104Y21967178I53033J-53033D01*
G01*
X77005020Y21030262D01*
G75*
G02*
X77005020Y20924196I-53033J-53033D01*
G01*
X76898954Y20818130D01*
G75*
G02*
X76792888Y20818130I-53033J53033D01*
G01*
G37*
G36*
G01*
X76439335Y20464576D02*
X75502419Y21401492D01*
G75*
G02*
X75502419Y21507558I53033J53033D01*
G01*
X75608485Y21613624D01*
G75*
G02*
X75714551Y21613624I53033J-53033D01*
G01*
X76651467Y20676708D01*
G75*
G02*
X76651467Y20570642I-53033J-53033D01*
G01*
X76545401Y20464576D01*
G75*
G02*
X76439335Y20464576I-53033J53033D01*
G01*
G37*
G36*
G01*
X76085782Y20111023D02*
X75148866Y21047939D01*
G75*
G02*
X75148866Y21154005I53033J53033D01*
G01*
X75254932Y21260071D01*
G75*
G02*
X75360998Y21260071I53033J-53033D01*
G01*
X76297914Y20323155D01*
G75*
G02*
X76297914Y20217089I-53033J-53033D01*
G01*
X76191848Y20111023D01*
G75*
G02*
X76085782Y20111023I-53033J53033D01*
G01*
G37*
G36*
G01*
X75732228Y19757470D02*
X74795312Y20694386D01*
G75*
G02*
X74795312Y20800452I53033J53033D01*
G01*
X74901378Y20906518D01*
G75*
G02*
X75007444Y20906518I53033J-53033D01*
G01*
X75944360Y19969602D01*
G75*
G02*
X75944360Y19863536I-53033J-53033D01*
G01*
X75838294Y19757470D01*
G75*
G02*
X75732228Y19757470I-53033J53033D01*
G01*
G37*
G36*
G01*
X75378675Y19403916D02*
X74441759Y20340832D01*
G75*
G02*
X74441759Y20446898I53033J53033D01*
G01*
X74547825Y20552964D01*
G75*
G02*
X74653891Y20552964I53033J-53033D01*
G01*
X75590807Y19616048D01*
G75*
G02*
X75590807Y19509982I-53033J-53033D01*
G01*
X75484741Y19403916D01*
G75*
G02*
X75378675Y19403916I-53033J53033D01*
G01*
G37*
G36*
G01*
X75025121Y19050363D02*
X74088205Y19987279D01*
G75*
G02*
X74088205Y20093345I53033J53033D01*
G01*
X74194271Y20199411D01*
G75*
G02*
X74300337Y20199411I53033J-53033D01*
G01*
X75237253Y19262495D01*
G75*
G02*
X75237253Y19156429I-53033J-53033D01*
G01*
X75131187Y19050363D01*
G75*
G02*
X75025121Y19050363I-53033J53033D01*
G01*
G37*
G36*
G01*
X11218116Y32146745D02*
X11768116Y32146745D01*
G75*
G02*
X11968116Y31946745I0J-200000D01*
G01*
X11968116Y31546745D01*
G75*
G02*
X11768116Y31346745I-200000J0D01*
G01*
X11218116Y31346745D01*
G75*
G02*
X11018116Y31546745I0J200000D01*
G01*
X11018116Y31946745D01*
G75*
G02*
X11218116Y32146745I200000J0D01*
G01*
G37*
G36*
G01*
X11218116Y30496745D02*
X11768116Y30496745D01*
G75*
G02*
X11968116Y30296745I0J-200000D01*
G01*
X11968116Y29896745D01*
G75*
G02*
X11768116Y29696745I-200000J0D01*
G01*
X11218116Y29696745D01*
G75*
G02*
X11018116Y29896745I0J200000D01*
G01*
X11018116Y30296745D01*
G75*
G02*
X11218116Y30496745I200000J0D01*
G01*
G37*
G36*
G01*
X108827722Y11176345D02*
X109340222Y11176345D01*
G75*
G02*
X109558972Y10957595I0J-218750D01*
G01*
X109558972Y10520095D01*
G75*
G02*
X109340222Y10301345I-218750J0D01*
G01*
X108827722Y10301345D01*
G75*
G02*
X108608972Y10520095I0J218750D01*
G01*
X108608972Y10957595D01*
G75*
G02*
X108827722Y11176345I218750J0D01*
G01*
G37*
G36*
G01*
X108827722Y9601345D02*
X109340222Y9601345D01*
G75*
G02*
X109558972Y9382595I0J-218750D01*
G01*
X109558972Y8945095D01*
G75*
G02*
X109340222Y8726345I-218750J0D01*
G01*
X108827722Y8726345D01*
G75*
G02*
X108608972Y8945095I0J218750D01*
G01*
X108608972Y9382595D01*
G75*
G02*
X108827722Y9601345I218750J0D01*
G01*
G37*
G36*
G01*
X122447172Y23342145D02*
X122447172Y22042145D01*
G75*
G02*
X122197172Y21792145I-250000J0D01*
G01*
X121372172Y21792145D01*
G75*
G02*
X121122172Y22042145I0J250000D01*
G01*
X121122172Y23342145D01*
G75*
G02*
X121372172Y23592145I250000J0D01*
G01*
X122197172Y23592145D01*
G75*
G02*
X122447172Y23342145I0J-250000D01*
G01*
G37*
G36*
G01*
X119322172Y23342145D02*
X119322172Y22042145D01*
G75*
G02*
X119072172Y21792145I-250000J0D01*
G01*
X118247172Y21792145D01*
G75*
G02*
X117997172Y22042145I0J250000D01*
G01*
X117997172Y23342145D01*
G75*
G02*
X118247172Y23592145I250000J0D01*
G01*
X119072172Y23592145D01*
G75*
G02*
X119322172Y23342145I0J-250000D01*
G01*
G37*
G36*
G01*
X114191400Y34559745D02*
X114741400Y34559745D01*
G75*
G02*
X114941400Y34359745I0J-200000D01*
G01*
X114941400Y33959745D01*
G75*
G02*
X114741400Y33759745I-200000J0D01*
G01*
X114191400Y33759745D01*
G75*
G02*
X113991400Y33959745I0J200000D01*
G01*
X113991400Y34359745D01*
G75*
G02*
X114191400Y34559745I200000J0D01*
G01*
G37*
G36*
G01*
X114191400Y32909745D02*
X114741400Y32909745D01*
G75*
G02*
X114941400Y32709745I0J-200000D01*
G01*
X114941400Y32309745D01*
G75*
G02*
X114741400Y32109745I-200000J0D01*
G01*
X114191400Y32109745D01*
G75*
G02*
X113991400Y32309745I0J200000D01*
G01*
X113991400Y32709745D01*
G75*
G02*
X114191400Y32909745I200000J0D01*
G01*
G37*
G36*
G01*
X123221572Y25707145D02*
X120321572Y25707145D01*
G75*
G02*
X120071572Y25957145I0J250000D01*
G01*
X120071572Y26582145D01*
G75*
G02*
X120321572Y26832145I250000J0D01*
G01*
X123221572Y26832145D01*
G75*
G02*
X123471572Y26582145I0J-250000D01*
G01*
X123471572Y25957145D01*
G75*
G02*
X123221572Y25707145I-250000J0D01*
G01*
G37*
G36*
G01*
X123221572Y29982145D02*
X120321572Y29982145D01*
G75*
G02*
X120071572Y30232145I0J250000D01*
G01*
X120071572Y30857145D01*
G75*
G02*
X120321572Y31107145I250000J0D01*
G01*
X123221572Y31107145D01*
G75*
G02*
X123471572Y30857145I0J-250000D01*
G01*
X123471572Y30232145D01*
G75*
G02*
X123221572Y29982145I-250000J0D01*
G01*
G37*
G36*
G01*
X42135772Y21814045D02*
X42335772Y21814045D01*
G75*
G02*
X42435772Y21714045I0J-100000D01*
G01*
X42435772Y20439045D01*
G75*
G02*
X42335772Y20339045I-100000J0D01*
G01*
X42135772Y20339045D01*
G75*
G02*
X42035772Y20439045I0J100000D01*
G01*
X42035772Y21714045D01*
G75*
G02*
X42135772Y21814045I100000J0D01*
G01*
G37*
G36*
G01*
X41485772Y21814045D02*
X41685772Y21814045D01*
G75*
G02*
X41785772Y21714045I0J-100000D01*
G01*
X41785772Y20439045D01*
G75*
G02*
X41685772Y20339045I-100000J0D01*
G01*
X41485772Y20339045D01*
G75*
G02*
X41385772Y20439045I0J100000D01*
G01*
X41385772Y21714045D01*
G75*
G02*
X41485772Y21814045I100000J0D01*
G01*
G37*
G36*
G01*
X40835772Y21814045D02*
X41035772Y21814045D01*
G75*
G02*
X41135772Y21714045I0J-100000D01*
G01*
X41135772Y20439045D01*
G75*
G02*
X41035772Y20339045I-100000J0D01*
G01*
X40835772Y20339045D01*
G75*
G02*
X40735772Y20439045I0J100000D01*
G01*
X40735772Y21714045D01*
G75*
G02*
X40835772Y21814045I100000J0D01*
G01*
G37*
G36*
G01*
X40185772Y21814045D02*
X40385772Y21814045D01*
G75*
G02*
X40485772Y21714045I0J-100000D01*
G01*
X40485772Y20439045D01*
G75*
G02*
X40385772Y20339045I-100000J0D01*
G01*
X40185772Y20339045D01*
G75*
G02*
X40085772Y20439045I0J100000D01*
G01*
X40085772Y21714045D01*
G75*
G02*
X40185772Y21814045I100000J0D01*
G01*
G37*
G36*
G01*
X39535772Y21814045D02*
X39735772Y21814045D01*
G75*
G02*
X39835772Y21714045I0J-100000D01*
G01*
X39835772Y20439045D01*
G75*
G02*
X39735772Y20339045I-100000J0D01*
G01*
X39535772Y20339045D01*
G75*
G02*
X39435772Y20439045I0J100000D01*
G01*
X39435772Y21714045D01*
G75*
G02*
X39535772Y21814045I100000J0D01*
G01*
G37*
G36*
G01*
X38885772Y21814045D02*
X39085772Y21814045D01*
G75*
G02*
X39185772Y21714045I0J-100000D01*
G01*
X39185772Y20439045D01*
G75*
G02*
X39085772Y20339045I-100000J0D01*
G01*
X38885772Y20339045D01*
G75*
G02*
X38785772Y20439045I0J100000D01*
G01*
X38785772Y21714045D01*
G75*
G02*
X38885772Y21814045I100000J0D01*
G01*
G37*
G36*
G01*
X38235772Y21814045D02*
X38435772Y21814045D01*
G75*
G02*
X38535772Y21714045I0J-100000D01*
G01*
X38535772Y20439045D01*
G75*
G02*
X38435772Y20339045I-100000J0D01*
G01*
X38235772Y20339045D01*
G75*
G02*
X38135772Y20439045I0J100000D01*
G01*
X38135772Y21714045D01*
G75*
G02*
X38235772Y21814045I100000J0D01*
G01*
G37*
G36*
G01*
X37585772Y21814045D02*
X37785772Y21814045D01*
G75*
G02*
X37885772Y21714045I0J-100000D01*
G01*
X37885772Y20439045D01*
G75*
G02*
X37785772Y20339045I-100000J0D01*
G01*
X37585772Y20339045D01*
G75*
G02*
X37485772Y20439045I0J100000D01*
G01*
X37485772Y21714045D01*
G75*
G02*
X37585772Y21814045I100000J0D01*
G01*
G37*
G36*
G01*
X36935772Y21814045D02*
X37135772Y21814045D01*
G75*
G02*
X37235772Y21714045I0J-100000D01*
G01*
X37235772Y20439045D01*
G75*
G02*
X37135772Y20339045I-100000J0D01*
G01*
X36935772Y20339045D01*
G75*
G02*
X36835772Y20439045I0J100000D01*
G01*
X36835772Y21714045D01*
G75*
G02*
X36935772Y21814045I100000J0D01*
G01*
G37*
G36*
G01*
X36285772Y21814045D02*
X36485772Y21814045D01*
G75*
G02*
X36585772Y21714045I0J-100000D01*
G01*
X36585772Y20439045D01*
G75*
G02*
X36485772Y20339045I-100000J0D01*
G01*
X36285772Y20339045D01*
G75*
G02*
X36185772Y20439045I0J100000D01*
G01*
X36185772Y21714045D01*
G75*
G02*
X36285772Y21814045I100000J0D01*
G01*
G37*
G36*
G01*
X36285772Y16089045D02*
X36485772Y16089045D01*
G75*
G02*
X36585772Y15989045I0J-100000D01*
G01*
X36585772Y14714045D01*
G75*
G02*
X36485772Y14614045I-100000J0D01*
G01*
X36285772Y14614045D01*
G75*
G02*
X36185772Y14714045I0J100000D01*
G01*
X36185772Y15989045D01*
G75*
G02*
X36285772Y16089045I100000J0D01*
G01*
G37*
G36*
G01*
X36935772Y16089045D02*
X37135772Y16089045D01*
G75*
G02*
X37235772Y15989045I0J-100000D01*
G01*
X37235772Y14714045D01*
G75*
G02*
X37135772Y14614045I-100000J0D01*
G01*
X36935772Y14614045D01*
G75*
G02*
X36835772Y14714045I0J100000D01*
G01*
X36835772Y15989045D01*
G75*
G02*
X36935772Y16089045I100000J0D01*
G01*
G37*
G36*
G01*
X37585772Y16089045D02*
X37785772Y16089045D01*
G75*
G02*
X37885772Y15989045I0J-100000D01*
G01*
X37885772Y14714045D01*
G75*
G02*
X37785772Y14614045I-100000J0D01*
G01*
X37585772Y14614045D01*
G75*
G02*
X37485772Y14714045I0J100000D01*
G01*
X37485772Y15989045D01*
G75*
G02*
X37585772Y16089045I100000J0D01*
G01*
G37*
G36*
G01*
X38235772Y16089045D02*
X38435772Y16089045D01*
G75*
G02*
X38535772Y15989045I0J-100000D01*
G01*
X38535772Y14714045D01*
G75*
G02*
X38435772Y14614045I-100000J0D01*
G01*
X38235772Y14614045D01*
G75*
G02*
X38135772Y14714045I0J100000D01*
G01*
X38135772Y15989045D01*
G75*
G02*
X38235772Y16089045I100000J0D01*
G01*
G37*
G36*
G01*
X38885772Y16089045D02*
X39085772Y16089045D01*
G75*
G02*
X39185772Y15989045I0J-100000D01*
G01*
X39185772Y14714045D01*
G75*
G02*
X39085772Y14614045I-100000J0D01*
G01*
X38885772Y14614045D01*
G75*
G02*
X38785772Y14714045I0J100000D01*
G01*
X38785772Y15989045D01*
G75*
G02*
X38885772Y16089045I100000J0D01*
G01*
G37*
G36*
G01*
X39535772Y16089045D02*
X39735772Y16089045D01*
G75*
G02*
X39835772Y15989045I0J-100000D01*
G01*
X39835772Y14714045D01*
G75*
G02*
X39735772Y14614045I-100000J0D01*
G01*
X39535772Y14614045D01*
G75*
G02*
X39435772Y14714045I0J100000D01*
G01*
X39435772Y15989045D01*
G75*
G02*
X39535772Y16089045I100000J0D01*
G01*
G37*
G36*
G01*
X40185772Y16089045D02*
X40385772Y16089045D01*
G75*
G02*
X40485772Y15989045I0J-100000D01*
G01*
X40485772Y14714045D01*
G75*
G02*
X40385772Y14614045I-100000J0D01*
G01*
X40185772Y14614045D01*
G75*
G02*
X40085772Y14714045I0J100000D01*
G01*
X40085772Y15989045D01*
G75*
G02*
X40185772Y16089045I100000J0D01*
G01*
G37*
G36*
G01*
X40835772Y16089045D02*
X41035772Y16089045D01*
G75*
G02*
X41135772Y15989045I0J-100000D01*
G01*
X41135772Y14714045D01*
G75*
G02*
X41035772Y14614045I-100000J0D01*
G01*
X40835772Y14614045D01*
G75*
G02*
X40735772Y14714045I0J100000D01*
G01*
X40735772Y15989045D01*
G75*
G02*
X40835772Y16089045I100000J0D01*
G01*
G37*
G36*
G01*
X41485772Y16089045D02*
X41685772Y16089045D01*
G75*
G02*
X41785772Y15989045I0J-100000D01*
G01*
X41785772Y14714045D01*
G75*
G02*
X41685772Y14614045I-100000J0D01*
G01*
X41485772Y14614045D01*
G75*
G02*
X41385772Y14714045I0J100000D01*
G01*
X41385772Y15989045D01*
G75*
G02*
X41485772Y16089045I100000J0D01*
G01*
G37*
G36*
G01*
X42135772Y16089045D02*
X42335772Y16089045D01*
G75*
G02*
X42435772Y15989045I0J-100000D01*
G01*
X42435772Y14714045D01*
G75*
G02*
X42335772Y14614045I-100000J0D01*
G01*
X42135772Y14614045D01*
G75*
G02*
X42035772Y14714045I0J100000D01*
G01*
X42035772Y15989045D01*
G75*
G02*
X42135772Y16089045I100000J0D01*
G01*
G37*
G36*
G01*
X9470316Y24611545D02*
X9470316Y25161545D01*
G75*
G02*
X9670316Y25361545I200000J0D01*
G01*
X10070316Y25361545D01*
G75*
G02*
X10270316Y25161545I0J-200000D01*
G01*
X10270316Y24611545D01*
G75*
G02*
X10070316Y24411545I-200000J0D01*
G01*
X9670316Y24411545D01*
G75*
G02*
X9470316Y24611545I0J200000D01*
G01*
G37*
G36*
G01*
X11120316Y24611545D02*
X11120316Y25161545D01*
G75*
G02*
X11320316Y25361545I200000J0D01*
G01*
X11720316Y25361545D01*
G75*
G02*
X11920316Y25161545I0J-200000D01*
G01*
X11920316Y24611545D01*
G75*
G02*
X11720316Y24411545I-200000J0D01*
G01*
X11320316Y24411545D01*
G75*
G02*
X11120316Y24611545I0J200000D01*
G01*
G37*
G36*
G01*
X43463800Y34559745D02*
X44013800Y34559745D01*
G75*
G02*
X44213800Y34359745I0J-200000D01*
G01*
X44213800Y33959745D01*
G75*
G02*
X44013800Y33759745I-200000J0D01*
G01*
X43463800Y33759745D01*
G75*
G02*
X43263800Y33959745I0J200000D01*
G01*
X43263800Y34359745D01*
G75*
G02*
X43463800Y34559745I200000J0D01*
G01*
G37*
G36*
G01*
X43463800Y32909745D02*
X44013800Y32909745D01*
G75*
G02*
X44213800Y32709745I0J-200000D01*
G01*
X44213800Y32309745D01*
G75*
G02*
X44013800Y32109745I-200000J0D01*
G01*
X43463800Y32109745D01*
G75*
G02*
X43263800Y32309745I0J200000D01*
G01*
X43263800Y32709745D01*
G75*
G02*
X43463800Y32909745I200000J0D01*
G01*
G37*
G36*
G01*
X110092000Y17318445D02*
X109592000Y17318445D01*
G75*
G02*
X109367000Y17543445I0J225000D01*
G01*
X109367000Y17993445D01*
G75*
G02*
X109592000Y18218445I225000J0D01*
G01*
X110092000Y18218445D01*
G75*
G02*
X110317000Y17993445I0J-225000D01*
G01*
X110317000Y17543445D01*
G75*
G02*
X110092000Y17318445I-225000J0D01*
G01*
G37*
G36*
G01*
X110092000Y18868445D02*
X109592000Y18868445D01*
G75*
G02*
X109367000Y19093445I0J225000D01*
G01*
X109367000Y19543445D01*
G75*
G02*
X109592000Y19768445I225000J0D01*
G01*
X110092000Y19768445D01*
G75*
G02*
X110317000Y19543445I0J-225000D01*
G01*
X110317000Y19093445D01*
G75*
G02*
X110092000Y18868445I-225000J0D01*
G01*
G37*
G36*
G01*
X12983800Y32146745D02*
X13533800Y32146745D01*
G75*
G02*
X13733800Y31946745I0J-200000D01*
G01*
X13733800Y31546745D01*
G75*
G02*
X13533800Y31346745I-200000J0D01*
G01*
X12983800Y31346745D01*
G75*
G02*
X12783800Y31546745I0J200000D01*
G01*
X12783800Y31946745D01*
G75*
G02*
X12983800Y32146745I200000J0D01*
G01*
G37*
G36*
G01*
X12983800Y30496745D02*
X13533800Y30496745D01*
G75*
G02*
X13733800Y30296745I0J-200000D01*
G01*
X13733800Y29896745D01*
G75*
G02*
X13533800Y29696745I-200000J0D01*
G01*
X12983800Y29696745D01*
G75*
G02*
X12783800Y29896745I0J200000D01*
G01*
X12783800Y30296745D01*
G75*
G02*
X12983800Y30496745I200000J0D01*
G01*
G37*
G36*
G01*
X87816300Y21973220D02*
X87462746Y22326774D01*
G75*
G02*
X87462746Y22644972I159099J159099D01*
G01*
X87780944Y22963170D01*
G75*
G02*
X88099142Y22963170I159099J-159099D01*
G01*
X88452696Y22609616D01*
G75*
G02*
X88452696Y22291418I-159099J-159099D01*
G01*
X88134498Y21973220D01*
G75*
G02*
X87816300Y21973220I-159099J159099D01*
G01*
G37*
G36*
G01*
X88912316Y23069236D02*
X88558762Y23422790D01*
G75*
G02*
X88558762Y23740988I159099J159099D01*
G01*
X88876960Y24059186D01*
G75*
G02*
X89195158Y24059186I159099J-159099D01*
G01*
X89548712Y23705632D01*
G75*
G02*
X89548712Y23387434I-159099J-159099D01*
G01*
X89230514Y23069236D01*
G75*
G02*
X88912316Y23069236I-159099J159099D01*
G01*
G37*
G36*
G01*
X108624772Y14327545D02*
X108624772Y14177545D01*
G75*
G02*
X108549772Y14102545I-75000J0D01*
G01*
X107149772Y14102545D01*
G75*
G02*
X107074772Y14177545I0J75000D01*
G01*
X107074772Y14327545D01*
G75*
G02*
X107149772Y14402545I75000J0D01*
G01*
X108549772Y14402545D01*
G75*
G02*
X108624772Y14327545I0J-75000D01*
G01*
G37*
G36*
G01*
X108624772Y14827545D02*
X108624772Y14677545D01*
G75*
G02*
X108549772Y14602545I-75000J0D01*
G01*
X107149772Y14602545D01*
G75*
G02*
X107074772Y14677545I0J75000D01*
G01*
X107074772Y14827545D01*
G75*
G02*
X107149772Y14902545I75000J0D01*
G01*
X108549772Y14902545D01*
G75*
G02*
X108624772Y14827545I0J-75000D01*
G01*
G37*
G36*
G01*
X108624772Y15327545D02*
X108624772Y15177545D01*
G75*
G02*
X108549772Y15102545I-75000J0D01*
G01*
X107149772Y15102545D01*
G75*
G02*
X107074772Y15177545I0J75000D01*
G01*
X107074772Y15327545D01*
G75*
G02*
X107149772Y15402545I75000J0D01*
G01*
X108549772Y15402545D01*
G75*
G02*
X108624772Y15327545I0J-75000D01*
G01*
G37*
G36*
G01*
X108624772Y15827545D02*
X108624772Y15677545D01*
G75*
G02*
X108549772Y15602545I-75000J0D01*
G01*
X107149772Y15602545D01*
G75*
G02*
X107074772Y15677545I0J75000D01*
G01*
X107074772Y15827545D01*
G75*
G02*
X107149772Y15902545I75000J0D01*
G01*
X108549772Y15902545D01*
G75*
G02*
X108624772Y15827545I0J-75000D01*
G01*
G37*
G36*
G01*
X108624772Y16327545D02*
X108624772Y16177545D01*
G75*
G02*
X108549772Y16102545I-75000J0D01*
G01*
X107149772Y16102545D01*
G75*
G02*
X107074772Y16177545I0J75000D01*
G01*
X107074772Y16327545D01*
G75*
G02*
X107149772Y16402545I75000J0D01*
G01*
X108549772Y16402545D01*
G75*
G02*
X108624772Y16327545I0J-75000D01*
G01*
G37*
G36*
G01*
X108624772Y16827545D02*
X108624772Y16677545D01*
G75*
G02*
X108549772Y16602545I-75000J0D01*
G01*
X107149772Y16602545D01*
G75*
G02*
X107074772Y16677545I0J75000D01*
G01*
X107074772Y16827545D01*
G75*
G02*
X107149772Y16902545I75000J0D01*
G01*
X108549772Y16902545D01*
G75*
G02*
X108624772Y16827545I0J-75000D01*
G01*
G37*
G36*
G01*
X108624772Y17327545D02*
X108624772Y17177545D01*
G75*
G02*
X108549772Y17102545I-75000J0D01*
G01*
X107149772Y17102545D01*
G75*
G02*
X107074772Y17177545I0J75000D01*
G01*
X107074772Y17327545D01*
G75*
G02*
X107149772Y17402545I75000J0D01*
G01*
X108549772Y17402545D01*
G75*
G02*
X108624772Y17327545I0J-75000D01*
G01*
G37*
G36*
G01*
X108624772Y17827545D02*
X108624772Y17677545D01*
G75*
G02*
X108549772Y17602545I-75000J0D01*
G01*
X107149772Y17602545D01*
G75*
G02*
X107074772Y17677545I0J75000D01*
G01*
X107074772Y17827545D01*
G75*
G02*
X107149772Y17902545I75000J0D01*
G01*
X108549772Y17902545D01*
G75*
G02*
X108624772Y17827545I0J-75000D01*
G01*
G37*
G36*
G01*
X108624772Y18327545D02*
X108624772Y18177545D01*
G75*
G02*
X108549772Y18102545I-75000J0D01*
G01*
X107149772Y18102545D01*
G75*
G02*
X107074772Y18177545I0J75000D01*
G01*
X107074772Y18327545D01*
G75*
G02*
X107149772Y18402545I75000J0D01*
G01*
X108549772Y18402545D01*
G75*
G02*
X108624772Y18327545I0J-75000D01*
G01*
G37*
G36*
G01*
X108624772Y18827545D02*
X108624772Y18677545D01*
G75*
G02*
X108549772Y18602545I-75000J0D01*
G01*
X107149772Y18602545D01*
G75*
G02*
X107074772Y18677545I0J75000D01*
G01*
X107074772Y18827545D01*
G75*
G02*
X107149772Y18902545I75000J0D01*
G01*
X108549772Y18902545D01*
G75*
G02*
X108624772Y18827545I0J-75000D01*
G01*
G37*
G36*
G01*
X108624772Y19327545D02*
X108624772Y19177545D01*
G75*
G02*
X108549772Y19102545I-75000J0D01*
G01*
X107149772Y19102545D01*
G75*
G02*
X107074772Y19177545I0J75000D01*
G01*
X107074772Y19327545D01*
G75*
G02*
X107149772Y19402545I75000J0D01*
G01*
X108549772Y19402545D01*
G75*
G02*
X108624772Y19327545I0J-75000D01*
G01*
G37*
G36*
G01*
X108624772Y19827545D02*
X108624772Y19677545D01*
G75*
G02*
X108549772Y19602545I-75000J0D01*
G01*
X107149772Y19602545D01*
G75*
G02*
X107074772Y19677545I0J75000D01*
G01*
X107074772Y19827545D01*
G75*
G02*
X107149772Y19902545I75000J0D01*
G01*
X108549772Y19902545D01*
G75*
G02*
X108624772Y19827545I0J-75000D01*
G01*
G37*
G36*
G01*
X108624772Y20327545D02*
X108624772Y20177545D01*
G75*
G02*
X108549772Y20102545I-75000J0D01*
G01*
X107149772Y20102545D01*
G75*
G02*
X107074772Y20177545I0J75000D01*
G01*
X107074772Y20327545D01*
G75*
G02*
X107149772Y20402545I75000J0D01*
G01*
X108549772Y20402545D01*
G75*
G02*
X108624772Y20327545I0J-75000D01*
G01*
G37*
G36*
G01*
X108624772Y20827545D02*
X108624772Y20677545D01*
G75*
G02*
X108549772Y20602545I-75000J0D01*
G01*
X107149772Y20602545D01*
G75*
G02*
X107074772Y20677545I0J75000D01*
G01*
X107074772Y20827545D01*
G75*
G02*
X107149772Y20902545I75000J0D01*
G01*
X108549772Y20902545D01*
G75*
G02*
X108624772Y20827545I0J-75000D01*
G01*
G37*
G36*
G01*
X108624772Y21327545D02*
X108624772Y21177545D01*
G75*
G02*
X108549772Y21102545I-75000J0D01*
G01*
X107149772Y21102545D01*
G75*
G02*
X107074772Y21177545I0J75000D01*
G01*
X107074772Y21327545D01*
G75*
G02*
X107149772Y21402545I75000J0D01*
G01*
X108549772Y21402545D01*
G75*
G02*
X108624772Y21327545I0J-75000D01*
G01*
G37*
G36*
G01*
X108624772Y21827545D02*
X108624772Y21677545D01*
G75*
G02*
X108549772Y21602545I-75000J0D01*
G01*
X107149772Y21602545D01*
G75*
G02*
X107074772Y21677545I0J75000D01*
G01*
X107074772Y21827545D01*
G75*
G02*
X107149772Y21902545I75000J0D01*
G01*
X108549772Y21902545D01*
G75*
G02*
X108624772Y21827545I0J-75000D01*
G01*
G37*
G36*
G01*
X95774772Y21827545D02*
X95774772Y21677545D01*
G75*
G02*
X95699772Y21602545I-75000J0D01*
G01*
X94299772Y21602545D01*
G75*
G02*
X94224772Y21677545I0J75000D01*
G01*
X94224772Y21827545D01*
G75*
G02*
X94299772Y21902545I75000J0D01*
G01*
X95699772Y21902545D01*
G75*
G02*
X95774772Y21827545I0J-75000D01*
G01*
G37*
G36*
G01*
X95774772Y21327545D02*
X95774772Y21177545D01*
G75*
G02*
X95699772Y21102545I-75000J0D01*
G01*
X94299772Y21102545D01*
G75*
G02*
X94224772Y21177545I0J75000D01*
G01*
X94224772Y21327545D01*
G75*
G02*
X94299772Y21402545I75000J0D01*
G01*
X95699772Y21402545D01*
G75*
G02*
X95774772Y21327545I0J-75000D01*
G01*
G37*
G36*
G01*
X95774772Y20827545D02*
X95774772Y20677545D01*
G75*
G02*
X95699772Y20602545I-75000J0D01*
G01*
X94299772Y20602545D01*
G75*
G02*
X94224772Y20677545I0J75000D01*
G01*
X94224772Y20827545D01*
G75*
G02*
X94299772Y20902545I75000J0D01*
G01*
X95699772Y20902545D01*
G75*
G02*
X95774772Y20827545I0J-75000D01*
G01*
G37*
G36*
G01*
X95774772Y20327545D02*
X95774772Y20177545D01*
G75*
G02*
X95699772Y20102545I-75000J0D01*
G01*
X94299772Y20102545D01*
G75*
G02*
X94224772Y20177545I0J75000D01*
G01*
X94224772Y20327545D01*
G75*
G02*
X94299772Y20402545I75000J0D01*
G01*
X95699772Y20402545D01*
G75*
G02*
X95774772Y20327545I0J-75000D01*
G01*
G37*
G36*
G01*
X95774772Y19827545D02*
X95774772Y19677545D01*
G75*
G02*
X95699772Y19602545I-75000J0D01*
G01*
X94299772Y19602545D01*
G75*
G02*
X94224772Y19677545I0J75000D01*
G01*
X94224772Y19827545D01*
G75*
G02*
X94299772Y19902545I75000J0D01*
G01*
X95699772Y19902545D01*
G75*
G02*
X95774772Y19827545I0J-75000D01*
G01*
G37*
G36*
G01*
X95774772Y19327545D02*
X95774772Y19177545D01*
G75*
G02*
X95699772Y19102545I-75000J0D01*
G01*
X94299772Y19102545D01*
G75*
G02*
X94224772Y19177545I0J75000D01*
G01*
X94224772Y19327545D01*
G75*
G02*
X94299772Y19402545I75000J0D01*
G01*
X95699772Y19402545D01*
G75*
G02*
X95774772Y19327545I0J-75000D01*
G01*
G37*
G36*
G01*
X95774772Y18827545D02*
X95774772Y18677545D01*
G75*
G02*
X95699772Y18602545I-75000J0D01*
G01*
X94299772Y18602545D01*
G75*
G02*
X94224772Y18677545I0J75000D01*
G01*
X94224772Y18827545D01*
G75*
G02*
X94299772Y18902545I75000J0D01*
G01*
X95699772Y18902545D01*
G75*
G02*
X95774772Y18827545I0J-75000D01*
G01*
G37*
G36*
G01*
X95774772Y18327545D02*
X95774772Y18177545D01*
G75*
G02*
X95699772Y18102545I-75000J0D01*
G01*
X94299772Y18102545D01*
G75*
G02*
X94224772Y18177545I0J75000D01*
G01*
X94224772Y18327545D01*
G75*
G02*
X94299772Y18402545I75000J0D01*
G01*
X95699772Y18402545D01*
G75*
G02*
X95774772Y18327545I0J-75000D01*
G01*
G37*
G36*
G01*
X95774772Y17827545D02*
X95774772Y17677545D01*
G75*
G02*
X95699772Y17602545I-75000J0D01*
G01*
X94299772Y17602545D01*
G75*
G02*
X94224772Y17677545I0J75000D01*
G01*
X94224772Y17827545D01*
G75*
G02*
X94299772Y17902545I75000J0D01*
G01*
X95699772Y17902545D01*
G75*
G02*
X95774772Y17827545I0J-75000D01*
G01*
G37*
G36*
G01*
X95774772Y17327545D02*
X95774772Y17177545D01*
G75*
G02*
X95699772Y17102545I-75000J0D01*
G01*
X94299772Y17102545D01*
G75*
G02*
X94224772Y17177545I0J75000D01*
G01*
X94224772Y17327545D01*
G75*
G02*
X94299772Y17402545I75000J0D01*
G01*
X95699772Y17402545D01*
G75*
G02*
X95774772Y17327545I0J-75000D01*
G01*
G37*
G36*
G01*
X95774772Y16827545D02*
X95774772Y16677545D01*
G75*
G02*
X95699772Y16602545I-75000J0D01*
G01*
X94299772Y16602545D01*
G75*
G02*
X94224772Y16677545I0J75000D01*
G01*
X94224772Y16827545D01*
G75*
G02*
X94299772Y16902545I75000J0D01*
G01*
X95699772Y16902545D01*
G75*
G02*
X95774772Y16827545I0J-75000D01*
G01*
G37*
G36*
G01*
X95774772Y16327545D02*
X95774772Y16177545D01*
G75*
G02*
X95699772Y16102545I-75000J0D01*
G01*
X94299772Y16102545D01*
G75*
G02*
X94224772Y16177545I0J75000D01*
G01*
X94224772Y16327545D01*
G75*
G02*
X94299772Y16402545I75000J0D01*
G01*
X95699772Y16402545D01*
G75*
G02*
X95774772Y16327545I0J-75000D01*
G01*
G37*
G36*
G01*
X95774772Y15827545D02*
X95774772Y15677545D01*
G75*
G02*
X95699772Y15602545I-75000J0D01*
G01*
X94299772Y15602545D01*
G75*
G02*
X94224772Y15677545I0J75000D01*
G01*
X94224772Y15827545D01*
G75*
G02*
X94299772Y15902545I75000J0D01*
G01*
X95699772Y15902545D01*
G75*
G02*
X95774772Y15827545I0J-75000D01*
G01*
G37*
G36*
G01*
X95774772Y15327545D02*
X95774772Y15177545D01*
G75*
G02*
X95699772Y15102545I-75000J0D01*
G01*
X94299772Y15102545D01*
G75*
G02*
X94224772Y15177545I0J75000D01*
G01*
X94224772Y15327545D01*
G75*
G02*
X94299772Y15402545I75000J0D01*
G01*
X95699772Y15402545D01*
G75*
G02*
X95774772Y15327545I0J-75000D01*
G01*
G37*
G36*
G01*
X95774772Y14827545D02*
X95774772Y14677545D01*
G75*
G02*
X95699772Y14602545I-75000J0D01*
G01*
X94299772Y14602545D01*
G75*
G02*
X94224772Y14677545I0J75000D01*
G01*
X94224772Y14827545D01*
G75*
G02*
X94299772Y14902545I75000J0D01*
G01*
X95699772Y14902545D01*
G75*
G02*
X95774772Y14827545I0J-75000D01*
G01*
G37*
G36*
G01*
X95774772Y14327545D02*
X95774772Y14177545D01*
G75*
G02*
X95699772Y14102545I-75000J0D01*
G01*
X94299772Y14102545D01*
G75*
G02*
X94224772Y14177545I0J75000D01*
G01*
X94224772Y14327545D01*
G75*
G02*
X94299772Y14402545I75000J0D01*
G01*
X95699772Y14402545D01*
G75*
G02*
X95774772Y14327545I0J-75000D01*
G01*
G37*
D10*
X118834000Y15566145D03*
D11*
X112534000Y17866145D03*
D10*
X118834000Y17866145D03*
X118834000Y20166145D03*
G36*
G01*
X76647383Y23768716D02*
X76293829Y23415162D01*
G75*
G02*
X75975631Y23415162I-159099J159099D01*
G01*
X75657433Y23733360D01*
G75*
G02*
X75657433Y24051558I159099J159099D01*
G01*
X76010987Y24405112D01*
G75*
G02*
X76329185Y24405112I159099J-159099D01*
G01*
X76647383Y24086914D01*
G75*
G02*
X76647383Y23768716I-159099J-159099D01*
G01*
G37*
G36*
G01*
X75551367Y24864732D02*
X75197813Y24511178D01*
G75*
G02*
X74879615Y24511178I-159099J159099D01*
G01*
X74561417Y24829376D01*
G75*
G02*
X74561417Y25147574I159099J159099D01*
G01*
X74914971Y25501128D01*
G75*
G02*
X75233169Y25501128I159099J-159099D01*
G01*
X75551367Y25182930D01*
G75*
G02*
X75551367Y24864732I-159099J-159099D01*
G01*
G37*
G36*
G01*
X30037972Y15101545D02*
X30037972Y15601545D01*
G75*
G02*
X30262972Y15826545I225000J0D01*
G01*
X30712972Y15826545D01*
G75*
G02*
X30937972Y15601545I0J-225000D01*
G01*
X30937972Y15101545D01*
G75*
G02*
X30712972Y14876545I-225000J0D01*
G01*
X30262972Y14876545D01*
G75*
G02*
X30037972Y15101545I0J225000D01*
G01*
G37*
G36*
G01*
X31587972Y15101545D02*
X31587972Y15601545D01*
G75*
G02*
X31812972Y15826545I225000J0D01*
G01*
X32262972Y15826545D01*
G75*
G02*
X32487972Y15601545I0J-225000D01*
G01*
X32487972Y15101545D01*
G75*
G02*
X32262972Y14876545I-225000J0D01*
G01*
X31812972Y14876545D01*
G75*
G02*
X31587972Y15101545I0J225000D01*
G01*
G37*
G36*
G01*
X55597772Y21814045D02*
X55797772Y21814045D01*
G75*
G02*
X55897772Y21714045I0J-100000D01*
G01*
X55897772Y20439045D01*
G75*
G02*
X55797772Y20339045I-100000J0D01*
G01*
X55597772Y20339045D01*
G75*
G02*
X55497772Y20439045I0J100000D01*
G01*
X55497772Y21714045D01*
G75*
G02*
X55597772Y21814045I100000J0D01*
G01*
G37*
G36*
G01*
X54947772Y21814045D02*
X55147772Y21814045D01*
G75*
G02*
X55247772Y21714045I0J-100000D01*
G01*
X55247772Y20439045D01*
G75*
G02*
X55147772Y20339045I-100000J0D01*
G01*
X54947772Y20339045D01*
G75*
G02*
X54847772Y20439045I0J100000D01*
G01*
X54847772Y21714045D01*
G75*
G02*
X54947772Y21814045I100000J0D01*
G01*
G37*
G36*
G01*
X54297772Y21814045D02*
X54497772Y21814045D01*
G75*
G02*
X54597772Y21714045I0J-100000D01*
G01*
X54597772Y20439045D01*
G75*
G02*
X54497772Y20339045I-100000J0D01*
G01*
X54297772Y20339045D01*
G75*
G02*
X54197772Y20439045I0J100000D01*
G01*
X54197772Y21714045D01*
G75*
G02*
X54297772Y21814045I100000J0D01*
G01*
G37*
G36*
G01*
X53647772Y21814045D02*
X53847772Y21814045D01*
G75*
G02*
X53947772Y21714045I0J-100000D01*
G01*
X53947772Y20439045D01*
G75*
G02*
X53847772Y20339045I-100000J0D01*
G01*
X53647772Y20339045D01*
G75*
G02*
X53547772Y20439045I0J100000D01*
G01*
X53547772Y21714045D01*
G75*
G02*
X53647772Y21814045I100000J0D01*
G01*
G37*
G36*
G01*
X52997772Y21814045D02*
X53197772Y21814045D01*
G75*
G02*
X53297772Y21714045I0J-100000D01*
G01*
X53297772Y20439045D01*
G75*
G02*
X53197772Y20339045I-100000J0D01*
G01*
X52997772Y20339045D01*
G75*
G02*
X52897772Y20439045I0J100000D01*
G01*
X52897772Y21714045D01*
G75*
G02*
X52997772Y21814045I100000J0D01*
G01*
G37*
G36*
G01*
X52347772Y21814045D02*
X52547772Y21814045D01*
G75*
G02*
X52647772Y21714045I0J-100000D01*
G01*
X52647772Y20439045D01*
G75*
G02*
X52547772Y20339045I-100000J0D01*
G01*
X52347772Y20339045D01*
G75*
G02*
X52247772Y20439045I0J100000D01*
G01*
X52247772Y21714045D01*
G75*
G02*
X52347772Y21814045I100000J0D01*
G01*
G37*
G36*
G01*
X51697772Y21814045D02*
X51897772Y21814045D01*
G75*
G02*
X51997772Y21714045I0J-100000D01*
G01*
X51997772Y20439045D01*
G75*
G02*
X51897772Y20339045I-100000J0D01*
G01*
X51697772Y20339045D01*
G75*
G02*
X51597772Y20439045I0J100000D01*
G01*
X51597772Y21714045D01*
G75*
G02*
X51697772Y21814045I100000J0D01*
G01*
G37*
G36*
G01*
X51047772Y21814045D02*
X51247772Y21814045D01*
G75*
G02*
X51347772Y21714045I0J-100000D01*
G01*
X51347772Y20439045D01*
G75*
G02*
X51247772Y20339045I-100000J0D01*
G01*
X51047772Y20339045D01*
G75*
G02*
X50947772Y20439045I0J100000D01*
G01*
X50947772Y21714045D01*
G75*
G02*
X51047772Y21814045I100000J0D01*
G01*
G37*
G36*
G01*
X50397772Y21814045D02*
X50597772Y21814045D01*
G75*
G02*
X50697772Y21714045I0J-100000D01*
G01*
X50697772Y20439045D01*
G75*
G02*
X50597772Y20339045I-100000J0D01*
G01*
X50397772Y20339045D01*
G75*
G02*
X50297772Y20439045I0J100000D01*
G01*
X50297772Y21714045D01*
G75*
G02*
X50397772Y21814045I100000J0D01*
G01*
G37*
G36*
G01*
X49747772Y21814045D02*
X49947772Y21814045D01*
G75*
G02*
X50047772Y21714045I0J-100000D01*
G01*
X50047772Y20439045D01*
G75*
G02*
X49947772Y20339045I-100000J0D01*
G01*
X49747772Y20339045D01*
G75*
G02*
X49647772Y20439045I0J100000D01*
G01*
X49647772Y21714045D01*
G75*
G02*
X49747772Y21814045I100000J0D01*
G01*
G37*
G36*
G01*
X49747772Y16089045D02*
X49947772Y16089045D01*
G75*
G02*
X50047772Y15989045I0J-100000D01*
G01*
X50047772Y14714045D01*
G75*
G02*
X49947772Y14614045I-100000J0D01*
G01*
X49747772Y14614045D01*
G75*
G02*
X49647772Y14714045I0J100000D01*
G01*
X49647772Y15989045D01*
G75*
G02*
X49747772Y16089045I100000J0D01*
G01*
G37*
G36*
G01*
X50397772Y16089045D02*
X50597772Y16089045D01*
G75*
G02*
X50697772Y15989045I0J-100000D01*
G01*
X50697772Y14714045D01*
G75*
G02*
X50597772Y14614045I-100000J0D01*
G01*
X50397772Y14614045D01*
G75*
G02*
X50297772Y14714045I0J100000D01*
G01*
X50297772Y15989045D01*
G75*
G02*
X50397772Y16089045I100000J0D01*
G01*
G37*
G36*
G01*
X51047772Y16089045D02*
X51247772Y16089045D01*
G75*
G02*
X51347772Y15989045I0J-100000D01*
G01*
X51347772Y14714045D01*
G75*
G02*
X51247772Y14614045I-100000J0D01*
G01*
X51047772Y14614045D01*
G75*
G02*
X50947772Y14714045I0J100000D01*
G01*
X50947772Y15989045D01*
G75*
G02*
X51047772Y16089045I100000J0D01*
G01*
G37*
G36*
G01*
X51697772Y16089045D02*
X51897772Y16089045D01*
G75*
G02*
X51997772Y15989045I0J-100000D01*
G01*
X51997772Y14714045D01*
G75*
G02*
X51897772Y14614045I-100000J0D01*
G01*
X51697772Y14614045D01*
G75*
G02*
X51597772Y14714045I0J100000D01*
G01*
X51597772Y15989045D01*
G75*
G02*
X51697772Y16089045I100000J0D01*
G01*
G37*
G36*
G01*
X52347772Y16089045D02*
X52547772Y16089045D01*
G75*
G02*
X52647772Y15989045I0J-100000D01*
G01*
X52647772Y14714045D01*
G75*
G02*
X52547772Y14614045I-100000J0D01*
G01*
X52347772Y14614045D01*
G75*
G02*
X52247772Y14714045I0J100000D01*
G01*
X52247772Y15989045D01*
G75*
G02*
X52347772Y16089045I100000J0D01*
G01*
G37*
G36*
G01*
X52997772Y16089045D02*
X53197772Y16089045D01*
G75*
G02*
X53297772Y15989045I0J-100000D01*
G01*
X53297772Y14714045D01*
G75*
G02*
X53197772Y14614045I-100000J0D01*
G01*
X52997772Y14614045D01*
G75*
G02*
X52897772Y14714045I0J100000D01*
G01*
X52897772Y15989045D01*
G75*
G02*
X52997772Y16089045I100000J0D01*
G01*
G37*
G36*
G01*
X53647772Y16089045D02*
X53847772Y16089045D01*
G75*
G02*
X53947772Y15989045I0J-100000D01*
G01*
X53947772Y14714045D01*
G75*
G02*
X53847772Y14614045I-100000J0D01*
G01*
X53647772Y14614045D01*
G75*
G02*
X53547772Y14714045I0J100000D01*
G01*
X53547772Y15989045D01*
G75*
G02*
X53647772Y16089045I100000J0D01*
G01*
G37*
G36*
G01*
X54297772Y16089045D02*
X54497772Y16089045D01*
G75*
G02*
X54597772Y15989045I0J-100000D01*
G01*
X54597772Y14714045D01*
G75*
G02*
X54497772Y14614045I-100000J0D01*
G01*
X54297772Y14614045D01*
G75*
G02*
X54197772Y14714045I0J100000D01*
G01*
X54197772Y15989045D01*
G75*
G02*
X54297772Y16089045I100000J0D01*
G01*
G37*
G36*
G01*
X54947772Y16089045D02*
X55147772Y16089045D01*
G75*
G02*
X55247772Y15989045I0J-100000D01*
G01*
X55247772Y14714045D01*
G75*
G02*
X55147772Y14614045I-100000J0D01*
G01*
X54947772Y14614045D01*
G75*
G02*
X54847772Y14714045I0J100000D01*
G01*
X54847772Y15989045D01*
G75*
G02*
X54947772Y16089045I100000J0D01*
G01*
G37*
G36*
G01*
X55597772Y16089045D02*
X55797772Y16089045D01*
G75*
G02*
X55897772Y15989045I0J-100000D01*
G01*
X55897772Y14714045D01*
G75*
G02*
X55797772Y14614045I-100000J0D01*
G01*
X55597772Y14614045D01*
G75*
G02*
X55497772Y14714045I0J100000D01*
G01*
X55497772Y15989045D01*
G75*
G02*
X55597772Y16089045I100000J0D01*
G01*
G37*
G36*
G01*
X74089139Y15289206D02*
X74442693Y14935652D01*
G75*
G02*
X74442693Y14617454I-159099J-159099D01*
G01*
X74124495Y14299256D01*
G75*
G02*
X73806297Y14299256I-159099J159099D01*
G01*
X73452743Y14652810D01*
G75*
G02*
X73452743Y14971008I159099J159099D01*
G01*
X73770941Y15289206D01*
G75*
G02*
X74089139Y15289206I159099J-159099D01*
G01*
G37*
G36*
G01*
X72993123Y14193190D02*
X73346677Y13839636D01*
G75*
G02*
X73346677Y13521438I-159099J-159099D01*
G01*
X73028479Y13203240D01*
G75*
G02*
X72710281Y13203240I-159099J159099D01*
G01*
X72356727Y13556794D01*
G75*
G02*
X72356727Y13874992I159099J159099D01*
G01*
X72674925Y14193190D01*
G75*
G02*
X72993123Y14193190I159099J-159099D01*
G01*
G37*
G36*
G01*
X86827746Y13456312D02*
X87181300Y13809866D01*
G75*
G02*
X87499498Y13809866I159099J-159099D01*
G01*
X87817696Y13491668D01*
G75*
G02*
X87817696Y13173470I-159099J-159099D01*
G01*
X87464142Y12819916D01*
G75*
G02*
X87145944Y12819916I-159099J159099D01*
G01*
X86827746Y13138114D01*
G75*
G02*
X86827746Y13456312I159099J159099D01*
G01*
G37*
G36*
G01*
X87923762Y12360296D02*
X88277316Y12713850D01*
G75*
G02*
X88595514Y12713850I159099J-159099D01*
G01*
X88913712Y12395652D01*
G75*
G02*
X88913712Y12077454I-159099J-159099D01*
G01*
X88560158Y11723900D01*
G75*
G02*
X88241960Y11723900I-159099J159099D01*
G01*
X87923762Y12042098D01*
G75*
G02*
X87923762Y12360296I159099J159099D01*
G01*
G37*
G36*
G01*
X43499972Y15101545D02*
X43499972Y15601545D01*
G75*
G02*
X43724972Y15826545I225000J0D01*
G01*
X44174972Y15826545D01*
G75*
G02*
X44399972Y15601545I0J-225000D01*
G01*
X44399972Y15101545D01*
G75*
G02*
X44174972Y14876545I-225000J0D01*
G01*
X43724972Y14876545D01*
G75*
G02*
X43499972Y15101545I0J225000D01*
G01*
G37*
G36*
G01*
X45049972Y15101545D02*
X45049972Y15601545D01*
G75*
G02*
X45274972Y15826545I225000J0D01*
G01*
X45724972Y15826545D01*
G75*
G02*
X45949972Y15601545I0J-225000D01*
G01*
X45949972Y15101545D01*
G75*
G02*
X45724972Y14876545I-225000J0D01*
G01*
X45274972Y14876545D01*
G75*
G02*
X45049972Y15101545I0J225000D01*
G01*
G37*
M02*
