G04 #@! TF.GenerationSoftware,KiCad,Pcbnew,8.0.1+dfsg-1*
G04 #@! TF.CreationDate,2024-08-28T09:08:02+00:00*
G04 #@! TF.ProjectId,RIPPLE,52495050-4c45-42e6-9b69-6361645f7063,rev?*
G04 #@! TF.SameCoordinates,Original*
G04 #@! TF.FileFunction,Soldermask,Bot*
G04 #@! TF.FilePolarity,Negative*
%FSLAX46Y46*%
G04 Gerber Fmt 4.6, Leading zero omitted, Abs format (unit mm)*
G04 Created by KiCad (PCBNEW 8.0.1+dfsg-1) date 2024-08-28 09:08:02*
%MOMM*%
%LPD*%
G01*
G04 APERTURE LIST*
%ADD10C,0.100000*%
%ADD11R,1.700000X1.700000*%
%ADD12O,1.700000X1.700000*%
%ADD13C,1.700000*%
%ADD14R,1.600000X1.600000*%
%ADD15C,1.600000*%
%ADD16R,1.524000X6.754000*%
G04 APERTURE END LIST*
D10*
X130670000Y-1133555D02*
X-1410000Y-1133555D01*
X-1410000Y7756445D01*
X130670000Y7756445D01*
X130670000Y-1133555D01*
G36*
X130670000Y-1133555D02*
G01*
X-1410000Y-1133555D01*
X-1410000Y7756445D01*
X130670000Y7756445D01*
X130670000Y-1133555D01*
G37*
D11*
X8166372Y24774945D03*
D12*
X5626372Y24774945D03*
D11*
X2984772Y29925946D03*
D12*
X5524772Y29925946D03*
X8064772Y29925946D03*
X10604772Y29925946D03*
G36*
G01*
X11280972Y35785845D02*
X10080972Y35785845D01*
G75*
G02*
X9830972Y36035845I0J250000D01*
G01*
X9830972Y37235845D01*
G75*
G02*
X10080972Y37485845I250000J0D01*
G01*
X11280972Y37485845D01*
G75*
G02*
X11530972Y37235845I0J-250000D01*
G01*
X11530972Y36035845D01*
G75*
G02*
X11280972Y35785845I-250000J0D01*
G01*
G37*
D13*
X10680972Y39175845D03*
X13220972Y36635845D03*
X13220972Y39175845D03*
X15760972Y36635845D03*
X15760972Y39175845D03*
X18300972Y36635845D03*
X18300972Y39175845D03*
X20840972Y36635845D03*
X20840972Y39175845D03*
X23380972Y36635845D03*
X23380972Y39175845D03*
X25920972Y36635845D03*
X25920972Y39175845D03*
X28460972Y36635845D03*
X28460972Y39175845D03*
X31000972Y36635845D03*
X31000972Y39175845D03*
X33540972Y36635845D03*
X33540972Y39175845D03*
X36080972Y36635845D03*
X36080972Y39175845D03*
X38620972Y36635845D03*
X38620972Y39175845D03*
X41160972Y36635845D03*
X41160972Y39175845D03*
X43700972Y36635845D03*
X43700972Y39175845D03*
X46240972Y36635845D03*
X46240972Y39175845D03*
X48780972Y36635845D03*
X48780972Y39175845D03*
X51320972Y36635845D03*
X51320972Y39175845D03*
X53860972Y36635845D03*
X53860972Y39175845D03*
X56400972Y36635845D03*
X56400972Y39175845D03*
X58940972Y36635845D03*
X58940972Y39175845D03*
G36*
G01*
X70885800Y35785845D02*
X69685800Y35785845D01*
G75*
G02*
X69435800Y36035845I0J250000D01*
G01*
X69435800Y37235845D01*
G75*
G02*
X69685800Y37485845I250000J0D01*
G01*
X70885800Y37485845D01*
G75*
G02*
X71135800Y37235845I0J-250000D01*
G01*
X71135800Y36035845D01*
G75*
G02*
X70885800Y35785845I-250000J0D01*
G01*
G37*
X70285800Y39175845D03*
X72825800Y36635845D03*
X72825800Y39175845D03*
X75365800Y36635845D03*
X75365800Y39175845D03*
X77905800Y36635845D03*
X77905800Y39175845D03*
X80445800Y36635845D03*
X80445800Y39175845D03*
X82985800Y36635845D03*
X82985800Y39175845D03*
X85525800Y36635845D03*
X85525800Y39175845D03*
X88065800Y36635845D03*
X88065800Y39175845D03*
X90605800Y36635845D03*
X90605800Y39175845D03*
X93145800Y36635845D03*
X93145800Y39175845D03*
X95685800Y36635845D03*
X95685800Y39175845D03*
X98225800Y36635845D03*
X98225800Y39175845D03*
X100765800Y36635845D03*
X100765800Y39175845D03*
X103305800Y36635845D03*
X103305800Y39175845D03*
X105845800Y36635845D03*
X105845800Y39175845D03*
X108385800Y36635845D03*
X108385800Y39175845D03*
X110925800Y36635845D03*
X110925800Y39175845D03*
X113465800Y36635845D03*
X113465800Y39175845D03*
X116005800Y36635845D03*
X116005800Y39175845D03*
X118545800Y36635845D03*
X118545800Y39175845D03*
X127241572Y32445745D03*
D14*
X121742888Y11770145D03*
D15*
X124242888Y11770145D03*
D14*
X13761354Y11770145D03*
D15*
X16261354Y11770145D03*
D11*
X3111116Y38688946D03*
D12*
X3111116Y36148946D03*
D11*
X127241572Y15681745D03*
D12*
X127241572Y18221745D03*
X127241572Y20761745D03*
X127241572Y23301745D03*
X127241572Y25841745D03*
X127241572Y28381745D03*
D16*
X126860000Y4319445D03*
X124320000Y4319445D03*
X121780000Y4319445D03*
X119240000Y4319445D03*
X116700000Y4319445D03*
X114160000Y4319445D03*
X111620000Y4319445D03*
X109080000Y4319445D03*
X106540000Y4319445D03*
X104000000Y4319445D03*
X101460000Y4319445D03*
X98920000Y4319445D03*
X96380000Y4319445D03*
X93840000Y4319445D03*
X91300000Y4319445D03*
X88760000Y4319445D03*
X86220000Y4319445D03*
X83680000Y4319445D03*
X81140000Y4319445D03*
X78600000Y4319445D03*
X76060000Y4319445D03*
X73520000Y4319445D03*
X70980000Y4319445D03*
X68440000Y4319445D03*
X65900000Y4319445D03*
X63360000Y4319445D03*
X60820000Y4319445D03*
X58280000Y4319445D03*
X55740000Y4319445D03*
X53200000Y4319445D03*
X50660000Y4319445D03*
X48120000Y4319445D03*
X45580000Y4319445D03*
X43040000Y4319445D03*
X40500000Y4319445D03*
X37960000Y4319445D03*
X35420000Y4319445D03*
X32880000Y4319445D03*
X30340000Y4319445D03*
X27800000Y4319445D03*
X25260000Y4319445D03*
X22720000Y4319445D03*
X20180000Y4319445D03*
X17640000Y4319445D03*
X15100000Y4319445D03*
X12560000Y4319445D03*
X10020000Y4319445D03*
X7480000Y4319445D03*
X4940000Y4319445D03*
X2400000Y4319445D03*
D11*
X126034800Y36148946D03*
D12*
X126034800Y38688946D03*
M02*
