G04 #@! TF.GenerationSoftware,KiCad,Pcbnew,8.0.6+1*
G04 #@! TF.CreationDate,2025-01-11T21:43:42+00:00*
G04 #@! TF.ProjectId,RIPPLE,52495050-4c45-42e6-9b69-6361645f7063,rev?*
G04 #@! TF.SameCoordinates,Original*
G04 #@! TF.FileFunction,Legend,Top*
G04 #@! TF.FilePolarity,Positive*
%FSLAX46Y46*%
G04 Gerber Fmt 4.6, Leading zero omitted, Abs format (unit mm)*
G04 Created by KiCad (PCBNEW 8.0.6+1) date 2025-01-11 21:43:42*
%MOMM*%
%LPD*%
G01*
G04 APERTURE LIST*
%ADD10C,0.150000*%
%ADD11C,0.127000*%
%ADD12C,0.100000*%
%ADD13C,0.000000*%
%ADD14C,0.120000*%
%ADD15C,0.250000*%
%ADD16R,1.700000X1.700000*%
%ADD17O,1.700000X1.700000*%
%ADD18C,1.700000*%
%ADD19R,0.899000X0.400000*%
%ADD20R,2.000000X1.500000*%
%ADD21R,2.000000X3.800000*%
%ADD22R,1.524000X6.754000*%
G04 APERTURE END LIST*
D10*
X8064772Y32567546D02*
X2984772Y32567546D01*
X2984772Y32567546D02*
X2984772Y31424546D01*
X5524772Y27258946D02*
X10604772Y27258946D01*
X10604772Y27258946D02*
X10604772Y28401946D01*
X5524772Y28401946D02*
X5524772Y27258946D01*
X8064772Y32567546D02*
X8064772Y31424546D01*
D11*
X124575769Y25261174D02*
X124539483Y25188602D01*
X124539483Y25188602D02*
X124539483Y25079745D01*
X124539483Y25079745D02*
X124575769Y24970888D01*
X124575769Y24970888D02*
X124648340Y24898317D01*
X124648340Y24898317D02*
X124720912Y24862031D01*
X124720912Y24862031D02*
X124866055Y24825745D01*
X124866055Y24825745D02*
X124974912Y24825745D01*
X124974912Y24825745D02*
X125120055Y24862031D01*
X125120055Y24862031D02*
X125192626Y24898317D01*
X125192626Y24898317D02*
X125265198Y24970888D01*
X125265198Y24970888D02*
X125301483Y25079745D01*
X125301483Y25079745D02*
X125301483Y25152317D01*
X125301483Y25152317D02*
X125265198Y25261174D01*
X125265198Y25261174D02*
X125228912Y25297460D01*
X125228912Y25297460D02*
X124974912Y25297460D01*
X124974912Y25297460D02*
X124974912Y25152317D01*
X125301483Y25624031D02*
X124539483Y25624031D01*
X124539483Y25624031D02*
X125301483Y26059460D01*
X125301483Y26059460D02*
X124539483Y26059460D01*
X125301483Y26422317D02*
X124539483Y26422317D01*
X124539483Y26422317D02*
X124539483Y26603746D01*
X124539483Y26603746D02*
X124575769Y26712603D01*
X124575769Y26712603D02*
X124648340Y26785174D01*
X124648340Y26785174D02*
X124720912Y26821460D01*
X124720912Y26821460D02*
X124866055Y26857746D01*
X124866055Y26857746D02*
X124974912Y26857746D01*
X124974912Y26857746D02*
X125120055Y26821460D01*
X125120055Y26821460D02*
X125192626Y26785174D01*
X125192626Y26785174D02*
X125265198Y26712603D01*
X125265198Y26712603D02*
X125301483Y26603746D01*
X125301483Y26603746D02*
X125301483Y26422317D01*
D12*
X10561333Y45936450D02*
X10561333Y45365022D01*
X10561333Y45365022D02*
X10523238Y45250736D01*
X10523238Y45250736D02*
X10447047Y45174545D01*
X10447047Y45174545D02*
X10332762Y45136450D01*
X10332762Y45136450D02*
X10256571Y45136450D01*
X11323238Y45136450D02*
X10942286Y45136450D01*
X10942286Y45136450D02*
X10942286Y45936450D01*
X12047048Y45212641D02*
X12008952Y45174545D01*
X12008952Y45174545D02*
X11894667Y45136450D01*
X11894667Y45136450D02*
X11818476Y45136450D01*
X11818476Y45136450D02*
X11704190Y45174545D01*
X11704190Y45174545D02*
X11628000Y45250736D01*
X11628000Y45250736D02*
X11589905Y45326926D01*
X11589905Y45326926D02*
X11551809Y45479307D01*
X11551809Y45479307D02*
X11551809Y45593593D01*
X11551809Y45593593D02*
X11589905Y45745974D01*
X11589905Y45745974D02*
X11628000Y45822165D01*
X11628000Y45822165D02*
X11704190Y45898355D01*
X11704190Y45898355D02*
X11818476Y45936450D01*
X11818476Y45936450D02*
X11894667Y45936450D01*
X11894667Y45936450D02*
X12008952Y45898355D01*
X12008952Y45898355D02*
X12047048Y45860260D01*
X12618476Y45936450D02*
X12618476Y45365022D01*
X12618476Y45365022D02*
X12580381Y45250736D01*
X12580381Y45250736D02*
X12504190Y45174545D01*
X12504190Y45174545D02*
X12389905Y45136450D01*
X12389905Y45136450D02*
X12313714Y45136450D01*
X13380381Y45136450D02*
X12999429Y45136450D01*
X12999429Y45136450D02*
X12999429Y45936450D01*
X14104191Y45212641D02*
X14066095Y45174545D01*
X14066095Y45174545D02*
X13951810Y45136450D01*
X13951810Y45136450D02*
X13875619Y45136450D01*
X13875619Y45136450D02*
X13761333Y45174545D01*
X13761333Y45174545D02*
X13685143Y45250736D01*
X13685143Y45250736D02*
X13647048Y45326926D01*
X13647048Y45326926D02*
X13608952Y45479307D01*
X13608952Y45479307D02*
X13608952Y45593593D01*
X13608952Y45593593D02*
X13647048Y45745974D01*
X13647048Y45745974D02*
X13685143Y45822165D01*
X13685143Y45822165D02*
X13761333Y45898355D01*
X13761333Y45898355D02*
X13875619Y45936450D01*
X13875619Y45936450D02*
X13951810Y45936450D01*
X13951810Y45936450D02*
X14066095Y45898355D01*
X14066095Y45898355D02*
X14104191Y45860260D01*
X14675619Y45936450D02*
X14675619Y45365022D01*
X14675619Y45365022D02*
X14637524Y45250736D01*
X14637524Y45250736D02*
X14561333Y45174545D01*
X14561333Y45174545D02*
X14447048Y45136450D01*
X14447048Y45136450D02*
X14370857Y45136450D01*
X15437524Y45136450D02*
X15056572Y45136450D01*
X15056572Y45136450D02*
X15056572Y45936450D01*
X16161334Y45212641D02*
X16123238Y45174545D01*
X16123238Y45174545D02*
X16008953Y45136450D01*
X16008953Y45136450D02*
X15932762Y45136450D01*
X15932762Y45136450D02*
X15818476Y45174545D01*
X15818476Y45174545D02*
X15742286Y45250736D01*
X15742286Y45250736D02*
X15704191Y45326926D01*
X15704191Y45326926D02*
X15666095Y45479307D01*
X15666095Y45479307D02*
X15666095Y45593593D01*
X15666095Y45593593D02*
X15704191Y45745974D01*
X15704191Y45745974D02*
X15742286Y45822165D01*
X15742286Y45822165D02*
X15818476Y45898355D01*
X15818476Y45898355D02*
X15932762Y45936450D01*
X15932762Y45936450D02*
X16008953Y45936450D01*
X16008953Y45936450D02*
X16123238Y45898355D01*
X16123238Y45898355D02*
X16161334Y45860260D01*
X16732762Y45936450D02*
X16732762Y45365022D01*
X16732762Y45365022D02*
X16694667Y45250736D01*
X16694667Y45250736D02*
X16618476Y45174545D01*
X16618476Y45174545D02*
X16504191Y45136450D01*
X16504191Y45136450D02*
X16428000Y45136450D01*
X17494667Y45136450D02*
X17113715Y45136450D01*
X17113715Y45136450D02*
X17113715Y45936450D01*
X18218477Y45212641D02*
X18180381Y45174545D01*
X18180381Y45174545D02*
X18066096Y45136450D01*
X18066096Y45136450D02*
X17989905Y45136450D01*
X17989905Y45136450D02*
X17875619Y45174545D01*
X17875619Y45174545D02*
X17799429Y45250736D01*
X17799429Y45250736D02*
X17761334Y45326926D01*
X17761334Y45326926D02*
X17723238Y45479307D01*
X17723238Y45479307D02*
X17723238Y45593593D01*
X17723238Y45593593D02*
X17761334Y45745974D01*
X17761334Y45745974D02*
X17799429Y45822165D01*
X17799429Y45822165D02*
X17875619Y45898355D01*
X17875619Y45898355D02*
X17989905Y45936450D01*
X17989905Y45936450D02*
X18066096Y45936450D01*
X18066096Y45936450D02*
X18180381Y45898355D01*
X18180381Y45898355D02*
X18218477Y45860260D01*
D11*
X6431915Y27816549D02*
X6794773Y27816549D01*
X6359344Y27598835D02*
X6613344Y28360835D01*
X6613344Y28360835D02*
X6867344Y27598835D01*
X7447916Y28106835D02*
X7447916Y27598835D01*
X7266487Y28397120D02*
X7085058Y27852835D01*
X7085058Y27852835D02*
X7556773Y27852835D01*
X7992201Y28360835D02*
X8064772Y28360835D01*
X8064772Y28360835D02*
X8137344Y28324549D01*
X8137344Y28324549D02*
X8173630Y28288263D01*
X8173630Y28288263D02*
X8209915Y28215692D01*
X8209915Y28215692D02*
X8246201Y28070549D01*
X8246201Y28070549D02*
X8246201Y27889120D01*
X8246201Y27889120D02*
X8209915Y27743978D01*
X8209915Y27743978D02*
X8173630Y27671406D01*
X8173630Y27671406D02*
X8137344Y27635120D01*
X8137344Y27635120D02*
X8064772Y27598835D01*
X8064772Y27598835D02*
X7992201Y27598835D01*
X7992201Y27598835D02*
X7919630Y27635120D01*
X7919630Y27635120D02*
X7883344Y27671406D01*
X7883344Y27671406D02*
X7847058Y27743978D01*
X7847058Y27743978D02*
X7810772Y27889120D01*
X7810772Y27889120D02*
X7810772Y28070549D01*
X7810772Y28070549D02*
X7847058Y28215692D01*
X7847058Y28215692D02*
X7883344Y28288263D01*
X7883344Y28288263D02*
X7919630Y28324549D01*
X7919630Y28324549D02*
X7992201Y28360835D01*
X8717915Y28360835D02*
X8790486Y28360835D01*
X8790486Y28360835D02*
X8863058Y28324549D01*
X8863058Y28324549D02*
X8899344Y28288263D01*
X8899344Y28288263D02*
X8935629Y28215692D01*
X8935629Y28215692D02*
X8971915Y28070549D01*
X8971915Y28070549D02*
X8971915Y27889120D01*
X8971915Y27889120D02*
X8935629Y27743978D01*
X8935629Y27743978D02*
X8899344Y27671406D01*
X8899344Y27671406D02*
X8863058Y27635120D01*
X8863058Y27635120D02*
X8790486Y27598835D01*
X8790486Y27598835D02*
X8717915Y27598835D01*
X8717915Y27598835D02*
X8645344Y27635120D01*
X8645344Y27635120D02*
X8609058Y27671406D01*
X8609058Y27671406D02*
X8572772Y27743978D01*
X8572772Y27743978D02*
X8536486Y27889120D01*
X8536486Y27889120D02*
X8536486Y28070549D01*
X8536486Y28070549D02*
X8572772Y28215692D01*
X8572772Y28215692D02*
X8609058Y28288263D01*
X8609058Y28288263D02*
X8645344Y28324549D01*
X8645344Y28324549D02*
X8717915Y28360835D01*
X9443629Y28360835D02*
X9516200Y28360835D01*
X9516200Y28360835D02*
X9588772Y28324549D01*
X9588772Y28324549D02*
X9625058Y28288263D01*
X9625058Y28288263D02*
X9661343Y28215692D01*
X9661343Y28215692D02*
X9697629Y28070549D01*
X9697629Y28070549D02*
X9697629Y27889120D01*
X9697629Y27889120D02*
X9661343Y27743978D01*
X9661343Y27743978D02*
X9625058Y27671406D01*
X9625058Y27671406D02*
X9588772Y27635120D01*
X9588772Y27635120D02*
X9516200Y27598835D01*
X9516200Y27598835D02*
X9443629Y27598835D01*
X9443629Y27598835D02*
X9371058Y27635120D01*
X9371058Y27635120D02*
X9334772Y27671406D01*
X9334772Y27671406D02*
X9298486Y27743978D01*
X9298486Y27743978D02*
X9262200Y27889120D01*
X9262200Y27889120D02*
X9262200Y28070549D01*
X9262200Y28070549D02*
X9298486Y28215692D01*
X9298486Y28215692D02*
X9334772Y28288263D01*
X9334772Y28288263D02*
X9371058Y28324549D01*
X9371058Y28324549D02*
X9443629Y28360835D01*
X124539483Y22322032D02*
X124539483Y22757460D01*
X125301483Y22539746D02*
X124539483Y22539746D01*
X125228912Y23446889D02*
X125265198Y23410603D01*
X125265198Y23410603D02*
X125301483Y23301746D01*
X125301483Y23301746D02*
X125301483Y23229174D01*
X125301483Y23229174D02*
X125265198Y23120317D01*
X125265198Y23120317D02*
X125192626Y23047746D01*
X125192626Y23047746D02*
X125120055Y23011460D01*
X125120055Y23011460D02*
X124974912Y22975174D01*
X124974912Y22975174D02*
X124866055Y22975174D01*
X124866055Y22975174D02*
X124720912Y23011460D01*
X124720912Y23011460D02*
X124648340Y23047746D01*
X124648340Y23047746D02*
X124575769Y23120317D01*
X124575769Y23120317D02*
X124539483Y23229174D01*
X124539483Y23229174D02*
X124539483Y23301746D01*
X124539483Y23301746D02*
X124575769Y23410603D01*
X124575769Y23410603D02*
X124612055Y23446889D01*
X125301483Y23773460D02*
X124539483Y23773460D01*
X125301483Y24208889D02*
X124866055Y23882317D01*
X124539483Y24208889D02*
X124974912Y23773460D01*
X124614774Y14609747D02*
X124614774Y15045175D01*
X125376774Y14827461D02*
X124614774Y14827461D01*
X125376774Y15299175D02*
X124614774Y15299175D01*
X124614774Y15299175D02*
X125159060Y15553175D01*
X125159060Y15553175D02*
X124614774Y15807175D01*
X124614774Y15807175D02*
X125376774Y15807175D01*
X125340489Y16133746D02*
X125376774Y16242603D01*
X125376774Y16242603D02*
X125376774Y16424032D01*
X125376774Y16424032D02*
X125340489Y16496603D01*
X125340489Y16496603D02*
X125304203Y16532889D01*
X125304203Y16532889D02*
X125231631Y16569175D01*
X125231631Y16569175D02*
X125159060Y16569175D01*
X125159060Y16569175D02*
X125086489Y16532889D01*
X125086489Y16532889D02*
X125050203Y16496603D01*
X125050203Y16496603D02*
X125013917Y16424032D01*
X125013917Y16424032D02*
X124977631Y16278889D01*
X124977631Y16278889D02*
X124941346Y16206318D01*
X124941346Y16206318D02*
X124905060Y16170032D01*
X124905060Y16170032D02*
X124832489Y16133746D01*
X124832489Y16133746D02*
X124759917Y16133746D01*
X124759917Y16133746D02*
X124687346Y16170032D01*
X124687346Y16170032D02*
X124651060Y16206318D01*
X124651060Y16206318D02*
X124614774Y16278889D01*
X124614774Y16278889D02*
X124614774Y16460318D01*
X124614774Y16460318D02*
X124651060Y16569175D01*
X124539483Y17441603D02*
X124539483Y17877031D01*
X125301483Y17659317D02*
X124539483Y17659317D01*
X125301483Y18131031D02*
X124539483Y18131031D01*
X124539483Y18131031D02*
X124539483Y18312460D01*
X124539483Y18312460D02*
X124575769Y18421317D01*
X124575769Y18421317D02*
X124648340Y18493888D01*
X124648340Y18493888D02*
X124720912Y18530174D01*
X124720912Y18530174D02*
X124866055Y18566460D01*
X124866055Y18566460D02*
X124974912Y18566460D01*
X124974912Y18566460D02*
X125120055Y18530174D01*
X125120055Y18530174D02*
X125192626Y18493888D01*
X125192626Y18493888D02*
X125265198Y18421317D01*
X125265198Y18421317D02*
X125301483Y18312460D01*
X125301483Y18312460D02*
X125301483Y18131031D01*
X125301483Y18893031D02*
X124539483Y18893031D01*
X124539483Y19763889D02*
X124539483Y20199317D01*
X125301483Y19981603D02*
X124539483Y19981603D01*
X125301483Y20453317D02*
X124539483Y20453317D01*
X124539483Y20453317D02*
X124539483Y20634746D01*
X124539483Y20634746D02*
X124575769Y20743603D01*
X124575769Y20743603D02*
X124648340Y20816174D01*
X124648340Y20816174D02*
X124720912Y20852460D01*
X124720912Y20852460D02*
X124866055Y20888746D01*
X124866055Y20888746D02*
X124974912Y20888746D01*
X124974912Y20888746D02*
X125120055Y20852460D01*
X125120055Y20852460D02*
X125192626Y20816174D01*
X125192626Y20816174D02*
X125265198Y20743603D01*
X125265198Y20743603D02*
X125301483Y20634746D01*
X125301483Y20634746D02*
X125301483Y20453317D01*
X124539483Y21360460D02*
X124539483Y21505603D01*
X124539483Y21505603D02*
X124575769Y21578174D01*
X124575769Y21578174D02*
X124648340Y21650746D01*
X124648340Y21650746D02*
X124793483Y21687031D01*
X124793483Y21687031D02*
X125047483Y21687031D01*
X125047483Y21687031D02*
X125192626Y21650746D01*
X125192626Y21650746D02*
X125265198Y21578174D01*
X125265198Y21578174D02*
X125301483Y21505603D01*
X125301483Y21505603D02*
X125301483Y21360460D01*
X125301483Y21360460D02*
X125265198Y21287888D01*
X125265198Y21287888D02*
X125192626Y21215317D01*
X125192626Y21215317D02*
X125047483Y21179031D01*
X125047483Y21179031D02*
X124793483Y21179031D01*
X124793483Y21179031D02*
X124648340Y21215317D01*
X124648340Y21215317D02*
X124575769Y21287888D01*
X124575769Y21287888D02*
X124539483Y21360460D01*
X125011198Y27184317D02*
X125011198Y27764888D01*
X125301483Y27474603D02*
X124720912Y27474603D01*
X124539483Y28055175D02*
X124539483Y28526889D01*
X124539483Y28526889D02*
X124829769Y28272889D01*
X124829769Y28272889D02*
X124829769Y28381746D01*
X124829769Y28381746D02*
X124866055Y28454317D01*
X124866055Y28454317D02*
X124902340Y28490603D01*
X124902340Y28490603D02*
X124974912Y28526889D01*
X124974912Y28526889D02*
X125156340Y28526889D01*
X125156340Y28526889D02*
X125228912Y28490603D01*
X125228912Y28490603D02*
X125265198Y28454317D01*
X125265198Y28454317D02*
X125301483Y28381746D01*
X125301483Y28381746D02*
X125301483Y28164032D01*
X125301483Y28164032D02*
X125265198Y28091460D01*
X125265198Y28091460D02*
X125228912Y28055175D01*
X125228912Y28853460D02*
X125265198Y28889746D01*
X125265198Y28889746D02*
X125301483Y28853460D01*
X125301483Y28853460D02*
X125265198Y28817174D01*
X125265198Y28817174D02*
X125228912Y28853460D01*
X125228912Y28853460D02*
X125301483Y28853460D01*
X124539483Y29143746D02*
X124539483Y29615460D01*
X124539483Y29615460D02*
X124829769Y29361460D01*
X124829769Y29361460D02*
X124829769Y29470317D01*
X124829769Y29470317D02*
X124866055Y29542888D01*
X124866055Y29542888D02*
X124902340Y29579174D01*
X124902340Y29579174D02*
X124974912Y29615460D01*
X124974912Y29615460D02*
X125156340Y29615460D01*
X125156340Y29615460D02*
X125228912Y29579174D01*
X125228912Y29579174D02*
X125265198Y29542888D01*
X125265198Y29542888D02*
X125301483Y29470317D01*
X125301483Y29470317D02*
X125301483Y29252603D01*
X125301483Y29252603D02*
X125265198Y29180031D01*
X125265198Y29180031D02*
X125228912Y29143746D01*
X3891915Y31778949D02*
X4254773Y31778949D01*
X3819344Y31561235D02*
X4073344Y32323235D01*
X4073344Y32323235D02*
X4327344Y31561235D01*
X4545058Y32250663D02*
X4581344Y32286949D01*
X4581344Y32286949D02*
X4653916Y32323235D01*
X4653916Y32323235D02*
X4835344Y32323235D01*
X4835344Y32323235D02*
X4907916Y32286949D01*
X4907916Y32286949D02*
X4944201Y32250663D01*
X4944201Y32250663D02*
X4980487Y32178092D01*
X4980487Y32178092D02*
X4980487Y32105520D01*
X4980487Y32105520D02*
X4944201Y31996663D01*
X4944201Y31996663D02*
X4508773Y31561235D01*
X4508773Y31561235D02*
X4980487Y31561235D01*
X5452201Y32323235D02*
X5524772Y32323235D01*
X5524772Y32323235D02*
X5597344Y32286949D01*
X5597344Y32286949D02*
X5633630Y32250663D01*
X5633630Y32250663D02*
X5669915Y32178092D01*
X5669915Y32178092D02*
X5706201Y32032949D01*
X5706201Y32032949D02*
X5706201Y31851520D01*
X5706201Y31851520D02*
X5669915Y31706378D01*
X5669915Y31706378D02*
X5633630Y31633806D01*
X5633630Y31633806D02*
X5597344Y31597520D01*
X5597344Y31597520D02*
X5524772Y31561235D01*
X5524772Y31561235D02*
X5452201Y31561235D01*
X5452201Y31561235D02*
X5379630Y31597520D01*
X5379630Y31597520D02*
X5343344Y31633806D01*
X5343344Y31633806D02*
X5307058Y31706378D01*
X5307058Y31706378D02*
X5270772Y31851520D01*
X5270772Y31851520D02*
X5270772Y32032949D01*
X5270772Y32032949D02*
X5307058Y32178092D01*
X5307058Y32178092D02*
X5343344Y32250663D01*
X5343344Y32250663D02*
X5379630Y32286949D01*
X5379630Y32286949D02*
X5452201Y32323235D01*
X6177915Y32323235D02*
X6250486Y32323235D01*
X6250486Y32323235D02*
X6323058Y32286949D01*
X6323058Y32286949D02*
X6359344Y32250663D01*
X6359344Y32250663D02*
X6395629Y32178092D01*
X6395629Y32178092D02*
X6431915Y32032949D01*
X6431915Y32032949D02*
X6431915Y31851520D01*
X6431915Y31851520D02*
X6395629Y31706378D01*
X6395629Y31706378D02*
X6359344Y31633806D01*
X6359344Y31633806D02*
X6323058Y31597520D01*
X6323058Y31597520D02*
X6250486Y31561235D01*
X6250486Y31561235D02*
X6177915Y31561235D01*
X6177915Y31561235D02*
X6105344Y31597520D01*
X6105344Y31597520D02*
X6069058Y31633806D01*
X6069058Y31633806D02*
X6032772Y31706378D01*
X6032772Y31706378D02*
X5996486Y31851520D01*
X5996486Y31851520D02*
X5996486Y32032949D01*
X5996486Y32032949D02*
X6032772Y32178092D01*
X6032772Y32178092D02*
X6069058Y32250663D01*
X6069058Y32250663D02*
X6105344Y32286949D01*
X6105344Y32286949D02*
X6177915Y32323235D01*
X6903629Y32323235D02*
X6976200Y32323235D01*
X6976200Y32323235D02*
X7048772Y32286949D01*
X7048772Y32286949D02*
X7085058Y32250663D01*
X7085058Y32250663D02*
X7121343Y32178092D01*
X7121343Y32178092D02*
X7157629Y32032949D01*
X7157629Y32032949D02*
X7157629Y31851520D01*
X7157629Y31851520D02*
X7121343Y31706378D01*
X7121343Y31706378D02*
X7085058Y31633806D01*
X7085058Y31633806D02*
X7048772Y31597520D01*
X7048772Y31597520D02*
X6976200Y31561235D01*
X6976200Y31561235D02*
X6903629Y31561235D01*
X6903629Y31561235D02*
X6831058Y31597520D01*
X6831058Y31597520D02*
X6794772Y31633806D01*
X6794772Y31633806D02*
X6758486Y31706378D01*
X6758486Y31706378D02*
X6722200Y31851520D01*
X6722200Y31851520D02*
X6722200Y32032949D01*
X6722200Y32032949D02*
X6758486Y32178092D01*
X6758486Y32178092D02*
X6794772Y32250663D01*
X6794772Y32250663D02*
X6831058Y32286949D01*
X6831058Y32286949D02*
X6903629Y32323235D01*
D10*
X114894791Y29643890D02*
X114418600Y29310557D01*
X114894791Y29072462D02*
X113894791Y29072462D01*
X113894791Y29072462D02*
X113894791Y29453414D01*
X113894791Y29453414D02*
X113942410Y29548652D01*
X113942410Y29548652D02*
X113990029Y29596271D01*
X113990029Y29596271D02*
X114085267Y29643890D01*
X114085267Y29643890D02*
X114228124Y29643890D01*
X114228124Y29643890D02*
X114323362Y29596271D01*
X114323362Y29596271D02*
X114370981Y29548652D01*
X114370981Y29548652D02*
X114418600Y29453414D01*
X114418600Y29453414D02*
X114418600Y29072462D01*
X114894791Y30596271D02*
X114894791Y30024843D01*
X114894791Y30310557D02*
X113894791Y30310557D01*
X113894791Y30310557D02*
X114037648Y30215319D01*
X114037648Y30215319D02*
X114132886Y30120081D01*
X114132886Y30120081D02*
X114180505Y30024843D01*
X114228124Y31453414D02*
X114894791Y31453414D01*
X113847172Y31215319D02*
X114561457Y30977224D01*
X114561457Y30977224D02*
X114561457Y31596271D01*
X59402773Y29643890D02*
X58926582Y29310557D01*
X59402773Y29072462D02*
X58402773Y29072462D01*
X58402773Y29072462D02*
X58402773Y29453414D01*
X58402773Y29453414D02*
X58450392Y29548652D01*
X58450392Y29548652D02*
X58498011Y29596271D01*
X58498011Y29596271D02*
X58593249Y29643890D01*
X58593249Y29643890D02*
X58736106Y29643890D01*
X58736106Y29643890D02*
X58831344Y29596271D01*
X58831344Y29596271D02*
X58878963Y29548652D01*
X58878963Y29548652D02*
X58926582Y29453414D01*
X58926582Y29453414D02*
X58926582Y29072462D01*
X59402773Y30596271D02*
X59402773Y30024843D01*
X59402773Y30310557D02*
X58402773Y30310557D01*
X58402773Y30310557D02*
X58545630Y30215319D01*
X58545630Y30215319D02*
X58640868Y30120081D01*
X58640868Y30120081D02*
X58688487Y30024843D01*
X58498011Y30977224D02*
X58450392Y31024843D01*
X58450392Y31024843D02*
X58402773Y31120081D01*
X58402773Y31120081D02*
X58402773Y31358176D01*
X58402773Y31358176D02*
X58450392Y31453414D01*
X58450392Y31453414D02*
X58498011Y31501033D01*
X58498011Y31501033D02*
X58593249Y31548652D01*
X58593249Y31548652D02*
X58688487Y31548652D01*
X58688487Y31548652D02*
X58831344Y31501033D01*
X58831344Y31501033D02*
X59402773Y30929605D01*
X59402773Y30929605D02*
X59402773Y31548652D01*
X114686687Y26302167D02*
X114639068Y26254547D01*
X114639068Y26254547D02*
X114496211Y26206928D01*
X114496211Y26206928D02*
X114400973Y26206928D01*
X114400973Y26206928D02*
X114258116Y26254547D01*
X114258116Y26254547D02*
X114162878Y26349786D01*
X114162878Y26349786D02*
X114115259Y26445024D01*
X114115259Y26445024D02*
X114067640Y26635500D01*
X114067640Y26635500D02*
X114067640Y26778357D01*
X114067640Y26778357D02*
X114115259Y26968833D01*
X114115259Y26968833D02*
X114162878Y27064071D01*
X114162878Y27064071D02*
X114258116Y27159309D01*
X114258116Y27159309D02*
X114400973Y27206928D01*
X114400973Y27206928D02*
X114496211Y27206928D01*
X114496211Y27206928D02*
X114639068Y27159309D01*
X114639068Y27159309D02*
X114686687Y27111690D01*
X115020021Y27206928D02*
X115639068Y27206928D01*
X115639068Y27206928D02*
X115305735Y26825976D01*
X115305735Y26825976D02*
X115448592Y26825976D01*
X115448592Y26825976D02*
X115543830Y26778357D01*
X115543830Y26778357D02*
X115591449Y26730738D01*
X115591449Y26730738D02*
X115639068Y26635500D01*
X115639068Y26635500D02*
X115639068Y26397405D01*
X115639068Y26397405D02*
X115591449Y26302167D01*
X115591449Y26302167D02*
X115543830Y26254547D01*
X115543830Y26254547D02*
X115448592Y26206928D01*
X115448592Y26206928D02*
X115162878Y26206928D01*
X115162878Y26206928D02*
X115067640Y26254547D01*
X115067640Y26254547D02*
X115020021Y26302167D01*
X49273619Y30628079D02*
X48797428Y30294746D01*
X49273619Y30056651D02*
X48273619Y30056651D01*
X48273619Y30056651D02*
X48273619Y30437603D01*
X48273619Y30437603D02*
X48321238Y30532841D01*
X48321238Y30532841D02*
X48368857Y30580460D01*
X48368857Y30580460D02*
X48464095Y30628079D01*
X48464095Y30628079D02*
X48606952Y30628079D01*
X48606952Y30628079D02*
X48702190Y30580460D01*
X48702190Y30580460D02*
X48749809Y30532841D01*
X48749809Y30532841D02*
X48797428Y30437603D01*
X48797428Y30437603D02*
X48797428Y30056651D01*
X48273619Y31485222D02*
X48273619Y31294746D01*
X48273619Y31294746D02*
X48321238Y31199508D01*
X48321238Y31199508D02*
X48368857Y31151889D01*
X48368857Y31151889D02*
X48511714Y31056651D01*
X48511714Y31056651D02*
X48702190Y31009032D01*
X48702190Y31009032D02*
X49083142Y31009032D01*
X49083142Y31009032D02*
X49178380Y31056651D01*
X49178380Y31056651D02*
X49226000Y31104270D01*
X49226000Y31104270D02*
X49273619Y31199508D01*
X49273619Y31199508D02*
X49273619Y31389984D01*
X49273619Y31389984D02*
X49226000Y31485222D01*
X49226000Y31485222D02*
X49178380Y31532841D01*
X49178380Y31532841D02*
X49083142Y31580460D01*
X49083142Y31580460D02*
X48845047Y31580460D01*
X48845047Y31580460D02*
X48749809Y31532841D01*
X48749809Y31532841D02*
X48702190Y31485222D01*
X48702190Y31485222D02*
X48654571Y31389984D01*
X48654571Y31389984D02*
X48654571Y31199508D01*
X48654571Y31199508D02*
X48702190Y31104270D01*
X48702190Y31104270D02*
X48749809Y31056651D01*
X48749809Y31056651D02*
X48845047Y31009032D01*
X56855791Y30628079D02*
X56379600Y30294746D01*
X56855791Y30056651D02*
X55855791Y30056651D01*
X55855791Y30056651D02*
X55855791Y30437603D01*
X55855791Y30437603D02*
X55903410Y30532841D01*
X55903410Y30532841D02*
X55951029Y30580460D01*
X55951029Y30580460D02*
X56046267Y30628079D01*
X56046267Y30628079D02*
X56189124Y30628079D01*
X56189124Y30628079D02*
X56284362Y30580460D01*
X56284362Y30580460D02*
X56331981Y30532841D01*
X56331981Y30532841D02*
X56379600Y30437603D01*
X56379600Y30437603D02*
X56379600Y30056651D01*
X55855791Y31532841D02*
X55855791Y31056651D01*
X55855791Y31056651D02*
X56331981Y31009032D01*
X56331981Y31009032D02*
X56284362Y31056651D01*
X56284362Y31056651D02*
X56236743Y31151889D01*
X56236743Y31151889D02*
X56236743Y31389984D01*
X56236743Y31389984D02*
X56284362Y31485222D01*
X56284362Y31485222D02*
X56331981Y31532841D01*
X56331981Y31532841D02*
X56427219Y31580460D01*
X56427219Y31580460D02*
X56665314Y31580460D01*
X56665314Y31580460D02*
X56760552Y31532841D01*
X56760552Y31532841D02*
X56808172Y31485222D01*
X56808172Y31485222D02*
X56855791Y31389984D01*
X56855791Y31389984D02*
X56855791Y31151889D01*
X56855791Y31151889D02*
X56808172Y31056651D01*
X56808172Y31056651D02*
X56760552Y31009032D01*
X58020305Y16421965D02*
X57972686Y16374345D01*
X57972686Y16374345D02*
X57829829Y16326726D01*
X57829829Y16326726D02*
X57734591Y16326726D01*
X57734591Y16326726D02*
X57591734Y16374345D01*
X57591734Y16374345D02*
X57496496Y16469584D01*
X57496496Y16469584D02*
X57448877Y16564822D01*
X57448877Y16564822D02*
X57401258Y16755298D01*
X57401258Y16755298D02*
X57401258Y16898155D01*
X57401258Y16898155D02*
X57448877Y17088631D01*
X57448877Y17088631D02*
X57496496Y17183869D01*
X57496496Y17183869D02*
X57591734Y17279107D01*
X57591734Y17279107D02*
X57734591Y17326726D01*
X57734591Y17326726D02*
X57829829Y17326726D01*
X57829829Y17326726D02*
X57972686Y17279107D01*
X57972686Y17279107D02*
X58020305Y17231488D01*
X58496496Y16326726D02*
X58686972Y16326726D01*
X58686972Y16326726D02*
X58782210Y16374345D01*
X58782210Y16374345D02*
X58829829Y16421965D01*
X58829829Y16421965D02*
X58925067Y16564822D01*
X58925067Y16564822D02*
X58972686Y16755298D01*
X58972686Y16755298D02*
X58972686Y17136250D01*
X58972686Y17136250D02*
X58925067Y17231488D01*
X58925067Y17231488D02*
X58877448Y17279107D01*
X58877448Y17279107D02*
X58782210Y17326726D01*
X58782210Y17326726D02*
X58591734Y17326726D01*
X58591734Y17326726D02*
X58496496Y17279107D01*
X58496496Y17279107D02*
X58448877Y17231488D01*
X58448877Y17231488D02*
X58401258Y17136250D01*
X58401258Y17136250D02*
X58401258Y16898155D01*
X58401258Y16898155D02*
X58448877Y16802917D01*
X58448877Y16802917D02*
X58496496Y16755298D01*
X58496496Y16755298D02*
X58591734Y16707679D01*
X58591734Y16707679D02*
X58782210Y16707679D01*
X58782210Y16707679D02*
X58877448Y16755298D01*
X58877448Y16755298D02*
X58925067Y16802917D01*
X58925067Y16802917D02*
X58972686Y16898155D01*
X17941533Y19957690D02*
X17846295Y20005309D01*
X17846295Y20005309D02*
X17751057Y20100547D01*
X17751057Y20100547D02*
X17608200Y20243405D01*
X17608200Y20243405D02*
X17512962Y20291024D01*
X17512962Y20291024D02*
X17417724Y20291024D01*
X17465343Y20052928D02*
X17370105Y20100547D01*
X17370105Y20100547D02*
X17274867Y20195786D01*
X17274867Y20195786D02*
X17227248Y20386262D01*
X17227248Y20386262D02*
X17227248Y20719595D01*
X17227248Y20719595D02*
X17274867Y20910071D01*
X17274867Y20910071D02*
X17370105Y21005309D01*
X17370105Y21005309D02*
X17465343Y21052928D01*
X17465343Y21052928D02*
X17655819Y21052928D01*
X17655819Y21052928D02*
X17751057Y21005309D01*
X17751057Y21005309D02*
X17846295Y20910071D01*
X17846295Y20910071D02*
X17893914Y20719595D01*
X17893914Y20719595D02*
X17893914Y20386262D01*
X17893914Y20386262D02*
X17846295Y20195786D01*
X17846295Y20195786D02*
X17751057Y20100547D01*
X17751057Y20100547D02*
X17655819Y20052928D01*
X17655819Y20052928D02*
X17465343Y20052928D01*
X18846295Y20052928D02*
X18274867Y20052928D01*
X18560581Y20052928D02*
X18560581Y21052928D01*
X18560581Y21052928D02*
X18465343Y20910071D01*
X18465343Y20910071D02*
X18370105Y20814833D01*
X18370105Y20814833D02*
X18274867Y20767214D01*
X119000619Y30628079D02*
X118524428Y30294746D01*
X119000619Y30056651D02*
X118000619Y30056651D01*
X118000619Y30056651D02*
X118000619Y30437603D01*
X118000619Y30437603D02*
X118048238Y30532841D01*
X118048238Y30532841D02*
X118095857Y30580460D01*
X118095857Y30580460D02*
X118191095Y30628079D01*
X118191095Y30628079D02*
X118333952Y30628079D01*
X118333952Y30628079D02*
X118429190Y30580460D01*
X118429190Y30580460D02*
X118476809Y30532841D01*
X118476809Y30532841D02*
X118524428Y30437603D01*
X118524428Y30437603D02*
X118524428Y30056651D01*
X119000619Y31580460D02*
X119000619Y31009032D01*
X119000619Y31294746D02*
X118000619Y31294746D01*
X118000619Y31294746D02*
X118143476Y31199508D01*
X118143476Y31199508D02*
X118238714Y31104270D01*
X118238714Y31104270D02*
X118286333Y31009032D01*
X16222773Y28215081D02*
X15746582Y27881748D01*
X16222773Y27643653D02*
X15222773Y27643653D01*
X15222773Y27643653D02*
X15222773Y28024605D01*
X15222773Y28024605D02*
X15270392Y28119843D01*
X15270392Y28119843D02*
X15318011Y28167462D01*
X15318011Y28167462D02*
X15413249Y28215081D01*
X15413249Y28215081D02*
X15556106Y28215081D01*
X15556106Y28215081D02*
X15651344Y28167462D01*
X15651344Y28167462D02*
X15698963Y28119843D01*
X15698963Y28119843D02*
X15746582Y28024605D01*
X15746582Y28024605D02*
X15746582Y27643653D01*
X15651344Y28786510D02*
X15603725Y28691272D01*
X15603725Y28691272D02*
X15556106Y28643653D01*
X15556106Y28643653D02*
X15460868Y28596034D01*
X15460868Y28596034D02*
X15413249Y28596034D01*
X15413249Y28596034D02*
X15318011Y28643653D01*
X15318011Y28643653D02*
X15270392Y28691272D01*
X15270392Y28691272D02*
X15222773Y28786510D01*
X15222773Y28786510D02*
X15222773Y28976986D01*
X15222773Y28976986D02*
X15270392Y29072224D01*
X15270392Y29072224D02*
X15318011Y29119843D01*
X15318011Y29119843D02*
X15413249Y29167462D01*
X15413249Y29167462D02*
X15460868Y29167462D01*
X15460868Y29167462D02*
X15556106Y29119843D01*
X15556106Y29119843D02*
X15603725Y29072224D01*
X15603725Y29072224D02*
X15651344Y28976986D01*
X15651344Y28976986D02*
X15651344Y28786510D01*
X15651344Y28786510D02*
X15698963Y28691272D01*
X15698963Y28691272D02*
X15746582Y28643653D01*
X15746582Y28643653D02*
X15841820Y28596034D01*
X15841820Y28596034D02*
X16032296Y28596034D01*
X16032296Y28596034D02*
X16127534Y28643653D01*
X16127534Y28643653D02*
X16175154Y28691272D01*
X16175154Y28691272D02*
X16222773Y28786510D01*
X16222773Y28786510D02*
X16222773Y28976986D01*
X16222773Y28976986D02*
X16175154Y29072224D01*
X16175154Y29072224D02*
X16127534Y29119843D01*
X16127534Y29119843D02*
X16032296Y29167462D01*
X16032296Y29167462D02*
X15841820Y29167462D01*
X15841820Y29167462D02*
X15746582Y29119843D01*
X15746582Y29119843D02*
X15698963Y29072224D01*
X15698963Y29072224D02*
X15651344Y28976986D01*
X108840619Y30628079D02*
X108364428Y30294746D01*
X108840619Y30056651D02*
X107840619Y30056651D01*
X107840619Y30056651D02*
X107840619Y30437603D01*
X107840619Y30437603D02*
X107888238Y30532841D01*
X107888238Y30532841D02*
X107935857Y30580460D01*
X107935857Y30580460D02*
X108031095Y30628079D01*
X108031095Y30628079D02*
X108173952Y30628079D01*
X108173952Y30628079D02*
X108269190Y30580460D01*
X108269190Y30580460D02*
X108316809Y30532841D01*
X108316809Y30532841D02*
X108364428Y30437603D01*
X108364428Y30437603D02*
X108364428Y30056651D01*
X108173952Y31485222D02*
X108840619Y31485222D01*
X107793000Y31247127D02*
X108507285Y31009032D01*
X108507285Y31009032D02*
X108507285Y31628079D01*
X1516173Y32945890D02*
X1039982Y32612557D01*
X1516173Y32374462D02*
X516173Y32374462D01*
X516173Y32374462D02*
X516173Y32755414D01*
X516173Y32755414D02*
X563792Y32850652D01*
X563792Y32850652D02*
X611411Y32898271D01*
X611411Y32898271D02*
X706649Y32945890D01*
X706649Y32945890D02*
X849506Y32945890D01*
X849506Y32945890D02*
X944744Y32898271D01*
X944744Y32898271D02*
X992363Y32850652D01*
X992363Y32850652D02*
X1039982Y32755414D01*
X1039982Y32755414D02*
X1039982Y32374462D01*
X1516173Y33898271D02*
X1516173Y33326843D01*
X1516173Y33612557D02*
X516173Y33612557D01*
X516173Y33612557D02*
X659030Y33517319D01*
X659030Y33517319D02*
X754268Y33422081D01*
X754268Y33422081D02*
X801887Y33326843D01*
X516173Y34231605D02*
X516173Y34898271D01*
X516173Y34898271D02*
X1516173Y34469700D01*
X29503591Y17764641D02*
X30313114Y17764641D01*
X30313114Y17764641D02*
X30408352Y17812260D01*
X30408352Y17812260D02*
X30455972Y17859879D01*
X30455972Y17859879D02*
X30503591Y17955117D01*
X30503591Y17955117D02*
X30503591Y18145593D01*
X30503591Y18145593D02*
X30455972Y18240831D01*
X30455972Y18240831D02*
X30408352Y18288450D01*
X30408352Y18288450D02*
X30313114Y18336069D01*
X30313114Y18336069D02*
X29503591Y18336069D01*
X29503591Y19240831D02*
X29503591Y19050355D01*
X29503591Y19050355D02*
X29551210Y18955117D01*
X29551210Y18955117D02*
X29598829Y18907498D01*
X29598829Y18907498D02*
X29741686Y18812260D01*
X29741686Y18812260D02*
X29932162Y18764641D01*
X29932162Y18764641D02*
X30313114Y18764641D01*
X30313114Y18764641D02*
X30408352Y18812260D01*
X30408352Y18812260D02*
X30455972Y18859879D01*
X30455972Y18859879D02*
X30503591Y18955117D01*
X30503591Y18955117D02*
X30503591Y19145593D01*
X30503591Y19145593D02*
X30455972Y19240831D01*
X30455972Y19240831D02*
X30408352Y19288450D01*
X30408352Y19288450D02*
X30313114Y19336069D01*
X30313114Y19336069D02*
X30075019Y19336069D01*
X30075019Y19336069D02*
X29979781Y19288450D01*
X29979781Y19288450D02*
X29932162Y19240831D01*
X29932162Y19240831D02*
X29884543Y19145593D01*
X29884543Y19145593D02*
X29884543Y18955117D01*
X29884543Y18955117D02*
X29932162Y18859879D01*
X29932162Y18859879D02*
X29979781Y18812260D01*
X29979781Y18812260D02*
X30075019Y18764641D01*
X29018896Y12864728D02*
X28685563Y13340919D01*
X28447468Y12864728D02*
X28447468Y13864728D01*
X28447468Y13864728D02*
X28828420Y13864728D01*
X28828420Y13864728D02*
X28923658Y13817109D01*
X28923658Y13817109D02*
X28971277Y13769490D01*
X28971277Y13769490D02*
X29018896Y13674252D01*
X29018896Y13674252D02*
X29018896Y13531395D01*
X29018896Y13531395D02*
X28971277Y13436157D01*
X28971277Y13436157D02*
X28923658Y13388538D01*
X28923658Y13388538D02*
X28828420Y13340919D01*
X28828420Y13340919D02*
X28447468Y13340919D01*
X29971277Y12864728D02*
X29399849Y12864728D01*
X29685563Y12864728D02*
X29685563Y13864728D01*
X29685563Y13864728D02*
X29590325Y13721871D01*
X29590325Y13721871D02*
X29495087Y13626633D01*
X29495087Y13626633D02*
X29399849Y13579014D01*
X30542706Y13436157D02*
X30447468Y13483776D01*
X30447468Y13483776D02*
X30399849Y13531395D01*
X30399849Y13531395D02*
X30352230Y13626633D01*
X30352230Y13626633D02*
X30352230Y13674252D01*
X30352230Y13674252D02*
X30399849Y13769490D01*
X30399849Y13769490D02*
X30447468Y13817109D01*
X30447468Y13817109D02*
X30542706Y13864728D01*
X30542706Y13864728D02*
X30733182Y13864728D01*
X30733182Y13864728D02*
X30828420Y13817109D01*
X30828420Y13817109D02*
X30876039Y13769490D01*
X30876039Y13769490D02*
X30923658Y13674252D01*
X30923658Y13674252D02*
X30923658Y13626633D01*
X30923658Y13626633D02*
X30876039Y13531395D01*
X30876039Y13531395D02*
X30828420Y13483776D01*
X30828420Y13483776D02*
X30733182Y13436157D01*
X30733182Y13436157D02*
X30542706Y13436157D01*
X30542706Y13436157D02*
X30447468Y13388538D01*
X30447468Y13388538D02*
X30399849Y13340919D01*
X30399849Y13340919D02*
X30352230Y13245681D01*
X30352230Y13245681D02*
X30352230Y13055205D01*
X30352230Y13055205D02*
X30399849Y12959967D01*
X30399849Y12959967D02*
X30447468Y12912347D01*
X30447468Y12912347D02*
X30542706Y12864728D01*
X30542706Y12864728D02*
X30733182Y12864728D01*
X30733182Y12864728D02*
X30828420Y12912347D01*
X30828420Y12912347D02*
X30876039Y12959967D01*
X30876039Y12959967D02*
X30923658Y13055205D01*
X30923658Y13055205D02*
X30923658Y13245681D01*
X30923658Y13245681D02*
X30876039Y13340919D01*
X30876039Y13340919D02*
X30828420Y13388538D01*
X30828420Y13388538D02*
X30733182Y13436157D01*
X116460619Y30628079D02*
X115984428Y30294746D01*
X116460619Y30056651D02*
X115460619Y30056651D01*
X115460619Y30056651D02*
X115460619Y30437603D01*
X115460619Y30437603D02*
X115508238Y30532841D01*
X115508238Y30532841D02*
X115555857Y30580460D01*
X115555857Y30580460D02*
X115651095Y30628079D01*
X115651095Y30628079D02*
X115793952Y30628079D01*
X115793952Y30628079D02*
X115889190Y30580460D01*
X115889190Y30580460D02*
X115936809Y30532841D01*
X115936809Y30532841D02*
X115984428Y30437603D01*
X115984428Y30437603D02*
X115984428Y30056651D01*
X115555857Y31009032D02*
X115508238Y31056651D01*
X115508238Y31056651D02*
X115460619Y31151889D01*
X115460619Y31151889D02*
X115460619Y31389984D01*
X115460619Y31389984D02*
X115508238Y31485222D01*
X115508238Y31485222D02*
X115555857Y31532841D01*
X115555857Y31532841D02*
X115651095Y31580460D01*
X115651095Y31580460D02*
X115746333Y31580460D01*
X115746333Y31580460D02*
X115889190Y31532841D01*
X115889190Y31532841D02*
X116460619Y30961413D01*
X116460619Y30961413D02*
X116460619Y31580460D01*
X64501191Y29714889D02*
X64025000Y29381556D01*
X64501191Y29143461D02*
X63501191Y29143461D01*
X63501191Y29143461D02*
X63501191Y29524413D01*
X63501191Y29524413D02*
X63548810Y29619651D01*
X63548810Y29619651D02*
X63596429Y29667270D01*
X63596429Y29667270D02*
X63691667Y29714889D01*
X63691667Y29714889D02*
X63834524Y29714889D01*
X63834524Y29714889D02*
X63929762Y29667270D01*
X63929762Y29667270D02*
X63977381Y29619651D01*
X63977381Y29619651D02*
X64025000Y29524413D01*
X64025000Y29524413D02*
X64025000Y29143461D01*
X64501191Y30667270D02*
X64501191Y30095842D01*
X64501191Y30381556D02*
X63501191Y30381556D01*
X63501191Y30381556D02*
X63644048Y30286318D01*
X63644048Y30286318D02*
X63739286Y30191080D01*
X63739286Y30191080D02*
X63786905Y30095842D01*
X63501191Y31000604D02*
X63501191Y31619651D01*
X63501191Y31619651D02*
X63882143Y31286318D01*
X63882143Y31286318D02*
X63882143Y31429175D01*
X63882143Y31429175D02*
X63929762Y31524413D01*
X63929762Y31524413D02*
X63977381Y31572032D01*
X63977381Y31572032D02*
X64072619Y31619651D01*
X64072619Y31619651D02*
X64310714Y31619651D01*
X64310714Y31619651D02*
X64405952Y31572032D01*
X64405952Y31572032D02*
X64453572Y31524413D01*
X64453572Y31524413D02*
X64501191Y31429175D01*
X64501191Y31429175D02*
X64501191Y31143461D01*
X64501191Y31143461D02*
X64453572Y31048223D01*
X64453572Y31048223D02*
X64405952Y31000604D01*
X72647122Y21166399D02*
X73219542Y20593979D01*
X73219542Y20593979D02*
X73320557Y20560307D01*
X73320557Y20560307D02*
X73387901Y20560307D01*
X73387901Y20560307D02*
X73488916Y20593979D01*
X73488916Y20593979D02*
X73623603Y20728666D01*
X73623603Y20728666D02*
X73657275Y20829681D01*
X73657275Y20829681D02*
X73657275Y20897025D01*
X73657275Y20897025D02*
X73623603Y20998040D01*
X73623603Y20998040D02*
X73051183Y21570460D01*
X73320557Y21839834D02*
X73758290Y22277566D01*
X73758290Y22277566D02*
X73791962Y21772490D01*
X73791962Y21772490D02*
X73892977Y21873505D01*
X73892977Y21873505D02*
X73993992Y21907177D01*
X73993992Y21907177D02*
X74061336Y21907177D01*
X74061336Y21907177D02*
X74162351Y21873505D01*
X74162351Y21873505D02*
X74330710Y21705147D01*
X74330710Y21705147D02*
X74364382Y21604131D01*
X74364382Y21604131D02*
X74364382Y21536788D01*
X74364382Y21536788D02*
X74330710Y21435773D01*
X74330710Y21435773D02*
X74128679Y21233742D01*
X74128679Y21233742D02*
X74027664Y21200070D01*
X74027664Y21200070D02*
X73960321Y21200070D01*
D11*
X124575769Y31865174D02*
X124539483Y31792602D01*
X124539483Y31792602D02*
X124539483Y31683745D01*
X124539483Y31683745D02*
X124575769Y31574888D01*
X124575769Y31574888D02*
X124648340Y31502317D01*
X124648340Y31502317D02*
X124720912Y31466031D01*
X124720912Y31466031D02*
X124866055Y31429745D01*
X124866055Y31429745D02*
X124974912Y31429745D01*
X124974912Y31429745D02*
X125120055Y31466031D01*
X125120055Y31466031D02*
X125192626Y31502317D01*
X125192626Y31502317D02*
X125265198Y31574888D01*
X125265198Y31574888D02*
X125301483Y31683745D01*
X125301483Y31683745D02*
X125301483Y31756317D01*
X125301483Y31756317D02*
X125265198Y31865174D01*
X125265198Y31865174D02*
X125228912Y31901460D01*
X125228912Y31901460D02*
X124974912Y31901460D01*
X124974912Y31901460D02*
X124974912Y31756317D01*
X125301483Y32228031D02*
X124539483Y32228031D01*
X124539483Y32228031D02*
X125301483Y32663460D01*
X125301483Y32663460D02*
X124539483Y32663460D01*
X125301483Y33026317D02*
X124539483Y33026317D01*
X124539483Y33026317D02*
X124539483Y33207746D01*
X124539483Y33207746D02*
X124575769Y33316603D01*
X124575769Y33316603D02*
X124648340Y33389174D01*
X124648340Y33389174D02*
X124720912Y33425460D01*
X124720912Y33425460D02*
X124866055Y33461746D01*
X124866055Y33461746D02*
X124974912Y33461746D01*
X124974912Y33461746D02*
X125120055Y33425460D01*
X125120055Y33425460D02*
X125192626Y33389174D01*
X125192626Y33389174D02*
X125265198Y33316603D01*
X125265198Y33316603D02*
X125301483Y33207746D01*
X125301483Y33207746D02*
X125301483Y33026317D01*
D10*
X33648059Y8953128D02*
X33648059Y9953128D01*
X33648059Y9953128D02*
X33886154Y9953128D01*
X33886154Y9953128D02*
X34029011Y9905509D01*
X34029011Y9905509D02*
X34124249Y9810271D01*
X34124249Y9810271D02*
X34171868Y9715033D01*
X34171868Y9715033D02*
X34219487Y9524557D01*
X34219487Y9524557D02*
X34219487Y9381700D01*
X34219487Y9381700D02*
X34171868Y9191224D01*
X34171868Y9191224D02*
X34124249Y9095986D01*
X34124249Y9095986D02*
X34029011Y9000747D01*
X34029011Y9000747D02*
X33886154Y8953128D01*
X33886154Y8953128D02*
X33648059Y8953128D01*
X34552821Y9953128D02*
X35171868Y9953128D01*
X35171868Y9953128D02*
X34838535Y9572176D01*
X34838535Y9572176D02*
X34981392Y9572176D01*
X34981392Y9572176D02*
X35076630Y9524557D01*
X35076630Y9524557D02*
X35124249Y9476938D01*
X35124249Y9476938D02*
X35171868Y9381700D01*
X35171868Y9381700D02*
X35171868Y9143605D01*
X35171868Y9143605D02*
X35124249Y9048367D01*
X35124249Y9048367D02*
X35076630Y9000747D01*
X35076630Y9000747D02*
X34981392Y8953128D01*
X34981392Y8953128D02*
X34695678Y8953128D01*
X34695678Y8953128D02*
X34600440Y9000747D01*
X34600440Y9000747D02*
X34552821Y9048367D01*
X14305314Y24345526D02*
X13971981Y24821717D01*
X13733886Y24345526D02*
X13733886Y25345526D01*
X13733886Y25345526D02*
X14114838Y25345526D01*
X14114838Y25345526D02*
X14210076Y25297907D01*
X14210076Y25297907D02*
X14257695Y25250288D01*
X14257695Y25250288D02*
X14305314Y25155050D01*
X14305314Y25155050D02*
X14305314Y25012193D01*
X14305314Y25012193D02*
X14257695Y24916955D01*
X14257695Y24916955D02*
X14210076Y24869336D01*
X14210076Y24869336D02*
X14114838Y24821717D01*
X14114838Y24821717D02*
X13733886Y24821717D01*
X15257695Y24345526D02*
X14686267Y24345526D01*
X14971981Y24345526D02*
X14971981Y25345526D01*
X14971981Y25345526D02*
X14876743Y25202669D01*
X14876743Y25202669D02*
X14781505Y25107431D01*
X14781505Y25107431D02*
X14686267Y25059812D01*
X15876743Y25345526D02*
X15971981Y25345526D01*
X15971981Y25345526D02*
X16067219Y25297907D01*
X16067219Y25297907D02*
X16114838Y25250288D01*
X16114838Y25250288D02*
X16162457Y25155050D01*
X16162457Y25155050D02*
X16210076Y24964574D01*
X16210076Y24964574D02*
X16210076Y24726479D01*
X16210076Y24726479D02*
X16162457Y24536003D01*
X16162457Y24536003D02*
X16114838Y24440765D01*
X16114838Y24440765D02*
X16067219Y24393145D01*
X16067219Y24393145D02*
X15971981Y24345526D01*
X15971981Y24345526D02*
X15876743Y24345526D01*
X15876743Y24345526D02*
X15781505Y24393145D01*
X15781505Y24393145D02*
X15733886Y24440765D01*
X15733886Y24440765D02*
X15686267Y24536003D01*
X15686267Y24536003D02*
X15638648Y24726479D01*
X15638648Y24726479D02*
X15638648Y24964574D01*
X15638648Y24964574D02*
X15686267Y25155050D01*
X15686267Y25155050D02*
X15733886Y25250288D01*
X15733886Y25250288D02*
X15781505Y25297907D01*
X15781505Y25297907D02*
X15876743Y25345526D01*
X119360287Y8853567D02*
X119312668Y8805947D01*
X119312668Y8805947D02*
X119169811Y8758328D01*
X119169811Y8758328D02*
X119074573Y8758328D01*
X119074573Y8758328D02*
X118931716Y8805947D01*
X118931716Y8805947D02*
X118836478Y8901186D01*
X118836478Y8901186D02*
X118788859Y8996424D01*
X118788859Y8996424D02*
X118741240Y9186900D01*
X118741240Y9186900D02*
X118741240Y9329757D01*
X118741240Y9329757D02*
X118788859Y9520233D01*
X118788859Y9520233D02*
X118836478Y9615471D01*
X118836478Y9615471D02*
X118931716Y9710709D01*
X118931716Y9710709D02*
X119074573Y9758328D01*
X119074573Y9758328D02*
X119169811Y9758328D01*
X119169811Y9758328D02*
X119312668Y9710709D01*
X119312668Y9710709D02*
X119360287Y9663090D01*
X120312668Y8758328D02*
X119741240Y8758328D01*
X120026954Y8758328D02*
X120026954Y9758328D01*
X120026954Y9758328D02*
X119931716Y9615471D01*
X119931716Y9615471D02*
X119836478Y9520233D01*
X119836478Y9520233D02*
X119741240Y9472614D01*
X17612791Y28216289D02*
X17136600Y27882956D01*
X17612791Y27644861D02*
X16612791Y27644861D01*
X16612791Y27644861D02*
X16612791Y28025813D01*
X16612791Y28025813D02*
X16660410Y28121051D01*
X16660410Y28121051D02*
X16708029Y28168670D01*
X16708029Y28168670D02*
X16803267Y28216289D01*
X16803267Y28216289D02*
X16946124Y28216289D01*
X16946124Y28216289D02*
X17041362Y28168670D01*
X17041362Y28168670D02*
X17088981Y28121051D01*
X17088981Y28121051D02*
X17136600Y28025813D01*
X17136600Y28025813D02*
X17136600Y27644861D01*
X17612791Y29168670D02*
X17612791Y28597242D01*
X17612791Y28882956D02*
X16612791Y28882956D01*
X16612791Y28882956D02*
X16755648Y28787718D01*
X16755648Y28787718D02*
X16850886Y28692480D01*
X16850886Y28692480D02*
X16898505Y28597242D01*
X16612791Y30073432D02*
X16612791Y29597242D01*
X16612791Y29597242D02*
X17088981Y29549623D01*
X17088981Y29549623D02*
X17041362Y29597242D01*
X17041362Y29597242D02*
X16993743Y29692480D01*
X16993743Y29692480D02*
X16993743Y29930575D01*
X16993743Y29930575D02*
X17041362Y30025813D01*
X17041362Y30025813D02*
X17088981Y30073432D01*
X17088981Y30073432D02*
X17184219Y30121051D01*
X17184219Y30121051D02*
X17422314Y30121051D01*
X17422314Y30121051D02*
X17517552Y30073432D01*
X17517552Y30073432D02*
X17565172Y30025813D01*
X17565172Y30025813D02*
X17612791Y29930575D01*
X17612791Y29930575D02*
X17612791Y29692480D01*
X17612791Y29692480D02*
X17565172Y29597242D01*
X17565172Y29597242D02*
X17517552Y29549623D01*
X19238391Y28216289D02*
X18762200Y27882956D01*
X19238391Y27644861D02*
X18238391Y27644861D01*
X18238391Y27644861D02*
X18238391Y28025813D01*
X18238391Y28025813D02*
X18286010Y28121051D01*
X18286010Y28121051D02*
X18333629Y28168670D01*
X18333629Y28168670D02*
X18428867Y28216289D01*
X18428867Y28216289D02*
X18571724Y28216289D01*
X18571724Y28216289D02*
X18666962Y28168670D01*
X18666962Y28168670D02*
X18714581Y28121051D01*
X18714581Y28121051D02*
X18762200Y28025813D01*
X18762200Y28025813D02*
X18762200Y27644861D01*
X19238391Y29168670D02*
X19238391Y28597242D01*
X19238391Y28882956D02*
X18238391Y28882956D01*
X18238391Y28882956D02*
X18381248Y28787718D01*
X18381248Y28787718D02*
X18476486Y28692480D01*
X18476486Y28692480D02*
X18524105Y28597242D01*
X18238391Y30025813D02*
X18238391Y29835337D01*
X18238391Y29835337D02*
X18286010Y29740099D01*
X18286010Y29740099D02*
X18333629Y29692480D01*
X18333629Y29692480D02*
X18476486Y29597242D01*
X18476486Y29597242D02*
X18666962Y29549623D01*
X18666962Y29549623D02*
X19047914Y29549623D01*
X19047914Y29549623D02*
X19143152Y29597242D01*
X19143152Y29597242D02*
X19190772Y29644861D01*
X19190772Y29644861D02*
X19238391Y29740099D01*
X19238391Y29740099D02*
X19238391Y29930575D01*
X19238391Y29930575D02*
X19190772Y30025813D01*
X19190772Y30025813D02*
X19143152Y30073432D01*
X19143152Y30073432D02*
X19047914Y30121051D01*
X19047914Y30121051D02*
X18809819Y30121051D01*
X18809819Y30121051D02*
X18714581Y30073432D01*
X18714581Y30073432D02*
X18666962Y30025813D01*
X18666962Y30025813D02*
X18619343Y29930575D01*
X18619343Y29930575D02*
X18619343Y29740099D01*
X18619343Y29740099D02*
X18666962Y29644861D01*
X18666962Y29644861D02*
X18714581Y29597242D01*
X18714581Y29597242D02*
X18809819Y29549623D01*
X120055505Y26382567D02*
X120007886Y26334947D01*
X120007886Y26334947D02*
X119865029Y26287328D01*
X119865029Y26287328D02*
X119769791Y26287328D01*
X119769791Y26287328D02*
X119626934Y26334947D01*
X119626934Y26334947D02*
X119531696Y26430186D01*
X119531696Y26430186D02*
X119484077Y26525424D01*
X119484077Y26525424D02*
X119436458Y26715900D01*
X119436458Y26715900D02*
X119436458Y26858757D01*
X119436458Y26858757D02*
X119484077Y27049233D01*
X119484077Y27049233D02*
X119531696Y27144471D01*
X119531696Y27144471D02*
X119626934Y27239709D01*
X119626934Y27239709D02*
X119769791Y27287328D01*
X119769791Y27287328D02*
X119865029Y27287328D01*
X119865029Y27287328D02*
X120007886Y27239709D01*
X120007886Y27239709D02*
X120055505Y27192090D01*
X120436458Y27192090D02*
X120484077Y27239709D01*
X120484077Y27239709D02*
X120579315Y27287328D01*
X120579315Y27287328D02*
X120817410Y27287328D01*
X120817410Y27287328D02*
X120912648Y27239709D01*
X120912648Y27239709D02*
X120960267Y27192090D01*
X120960267Y27192090D02*
X121007886Y27096852D01*
X121007886Y27096852D02*
X121007886Y27001614D01*
X121007886Y27001614D02*
X120960267Y26858757D01*
X120960267Y26858757D02*
X120388839Y26287328D01*
X120388839Y26287328D02*
X121007886Y26287328D01*
X55331791Y30628079D02*
X54855600Y30294746D01*
X55331791Y30056651D02*
X54331791Y30056651D01*
X54331791Y30056651D02*
X54331791Y30437603D01*
X54331791Y30437603D02*
X54379410Y30532841D01*
X54379410Y30532841D02*
X54427029Y30580460D01*
X54427029Y30580460D02*
X54522267Y30628079D01*
X54522267Y30628079D02*
X54665124Y30628079D01*
X54665124Y30628079D02*
X54760362Y30580460D01*
X54760362Y30580460D02*
X54807981Y30532841D01*
X54807981Y30532841D02*
X54855600Y30437603D01*
X54855600Y30437603D02*
X54855600Y30056651D01*
X54331791Y30961413D02*
X54331791Y31580460D01*
X54331791Y31580460D02*
X54712743Y31247127D01*
X54712743Y31247127D02*
X54712743Y31389984D01*
X54712743Y31389984D02*
X54760362Y31485222D01*
X54760362Y31485222D02*
X54807981Y31532841D01*
X54807981Y31532841D02*
X54903219Y31580460D01*
X54903219Y31580460D02*
X55141314Y31580460D01*
X55141314Y31580460D02*
X55236552Y31532841D01*
X55236552Y31532841D02*
X55284172Y31485222D01*
X55284172Y31485222D02*
X55331791Y31389984D01*
X55331791Y31389984D02*
X55331791Y31104270D01*
X55331791Y31104270D02*
X55284172Y31009032D01*
X55284172Y31009032D02*
X55236552Y30961413D01*
X119178563Y28454814D02*
X119178563Y28121481D01*
X119702373Y28121481D02*
X118702373Y28121481D01*
X118702373Y28121481D02*
X118702373Y28597671D01*
X119702373Y29502433D02*
X119702373Y28931005D01*
X119702373Y29216719D02*
X118702373Y29216719D01*
X118702373Y29216719D02*
X118845230Y29121481D01*
X118845230Y29121481D02*
X118940468Y29026243D01*
X118940468Y29026243D02*
X118988087Y28931005D01*
X93466649Y25675728D02*
X93466649Y24866205D01*
X93466649Y24866205D02*
X93514268Y24770967D01*
X93514268Y24770967D02*
X93561887Y24723347D01*
X93561887Y24723347D02*
X93657125Y24675728D01*
X93657125Y24675728D02*
X93847601Y24675728D01*
X93847601Y24675728D02*
X93942839Y24723347D01*
X93942839Y24723347D02*
X93990458Y24770967D01*
X93990458Y24770967D02*
X94038077Y24866205D01*
X94038077Y24866205D02*
X94038077Y25675728D01*
X94466649Y25580490D02*
X94514268Y25628109D01*
X94514268Y25628109D02*
X94609506Y25675728D01*
X94609506Y25675728D02*
X94847601Y25675728D01*
X94847601Y25675728D02*
X94942839Y25628109D01*
X94942839Y25628109D02*
X94990458Y25580490D01*
X94990458Y25580490D02*
X95038077Y25485252D01*
X95038077Y25485252D02*
X95038077Y25390014D01*
X95038077Y25390014D02*
X94990458Y25247157D01*
X94990458Y25247157D02*
X94419030Y24675728D01*
X94419030Y24675728D02*
X95038077Y24675728D01*
X16712715Y16257143D02*
X16665096Y16209523D01*
X16665096Y16209523D02*
X16522239Y16161904D01*
X16522239Y16161904D02*
X16427001Y16161904D01*
X16427001Y16161904D02*
X16284144Y16209523D01*
X16284144Y16209523D02*
X16188906Y16304762D01*
X16188906Y16304762D02*
X16141287Y16400000D01*
X16141287Y16400000D02*
X16093668Y16590476D01*
X16093668Y16590476D02*
X16093668Y16733333D01*
X16093668Y16733333D02*
X16141287Y16923809D01*
X16141287Y16923809D02*
X16188906Y17019047D01*
X16188906Y17019047D02*
X16284144Y17114285D01*
X16284144Y17114285D02*
X16427001Y17161904D01*
X16427001Y17161904D02*
X16522239Y17161904D01*
X16522239Y17161904D02*
X16665096Y17114285D01*
X16665096Y17114285D02*
X16712715Y17066666D01*
X17665096Y16161904D02*
X17093668Y16161904D01*
X17379382Y16161904D02*
X17379382Y17161904D01*
X17379382Y17161904D02*
X17284144Y17019047D01*
X17284144Y17019047D02*
X17188906Y16923809D01*
X17188906Y16923809D02*
X17093668Y16876190D01*
X18046049Y17066666D02*
X18093668Y17114285D01*
X18093668Y17114285D02*
X18188906Y17161904D01*
X18188906Y17161904D02*
X18427001Y17161904D01*
X18427001Y17161904D02*
X18522239Y17114285D01*
X18522239Y17114285D02*
X18569858Y17066666D01*
X18569858Y17066666D02*
X18617477Y16971428D01*
X18617477Y16971428D02*
X18617477Y16876190D01*
X18617477Y16876190D02*
X18569858Y16733333D01*
X18569858Y16733333D02*
X17998430Y16161904D01*
X17998430Y16161904D02*
X18617477Y16161904D01*
X42965591Y17764641D02*
X43775114Y17764641D01*
X43775114Y17764641D02*
X43870352Y17812260D01*
X43870352Y17812260D02*
X43917972Y17859879D01*
X43917972Y17859879D02*
X43965591Y17955117D01*
X43965591Y17955117D02*
X43965591Y18145593D01*
X43965591Y18145593D02*
X43917972Y18240831D01*
X43917972Y18240831D02*
X43870352Y18288450D01*
X43870352Y18288450D02*
X43775114Y18336069D01*
X43775114Y18336069D02*
X42965591Y18336069D01*
X42965591Y19288450D02*
X42965591Y18812260D01*
X42965591Y18812260D02*
X43441781Y18764641D01*
X43441781Y18764641D02*
X43394162Y18812260D01*
X43394162Y18812260D02*
X43346543Y18907498D01*
X43346543Y18907498D02*
X43346543Y19145593D01*
X43346543Y19145593D02*
X43394162Y19240831D01*
X43394162Y19240831D02*
X43441781Y19288450D01*
X43441781Y19288450D02*
X43537019Y19336069D01*
X43537019Y19336069D02*
X43775114Y19336069D01*
X43775114Y19336069D02*
X43870352Y19288450D01*
X43870352Y19288450D02*
X43917972Y19240831D01*
X43917972Y19240831D02*
X43965591Y19145593D01*
X43965591Y19145593D02*
X43965591Y18907498D01*
X43965591Y18907498D02*
X43917972Y18812260D01*
X43917972Y18812260D02*
X43870352Y18764641D01*
X14305314Y25869526D02*
X13971981Y26345717D01*
X13733886Y25869526D02*
X13733886Y26869526D01*
X13733886Y26869526D02*
X14114838Y26869526D01*
X14114838Y26869526D02*
X14210076Y26821907D01*
X14210076Y26821907D02*
X14257695Y26774288D01*
X14257695Y26774288D02*
X14305314Y26679050D01*
X14305314Y26679050D02*
X14305314Y26536193D01*
X14305314Y26536193D02*
X14257695Y26440955D01*
X14257695Y26440955D02*
X14210076Y26393336D01*
X14210076Y26393336D02*
X14114838Y26345717D01*
X14114838Y26345717D02*
X13733886Y26345717D01*
X15257695Y25869526D02*
X14686267Y25869526D01*
X14971981Y25869526D02*
X14971981Y26869526D01*
X14971981Y26869526D02*
X14876743Y26726669D01*
X14876743Y26726669D02*
X14781505Y26631431D01*
X14781505Y26631431D02*
X14686267Y26583812D01*
X16210076Y25869526D02*
X15638648Y25869526D01*
X15924362Y25869526D02*
X15924362Y26869526D01*
X15924362Y26869526D02*
X15829124Y26726669D01*
X15829124Y26726669D02*
X15733886Y26631431D01*
X15733886Y26631431D02*
X15638648Y26583812D01*
X44193619Y30628079D02*
X43717428Y30294746D01*
X44193619Y30056651D02*
X43193619Y30056651D01*
X43193619Y30056651D02*
X43193619Y30437603D01*
X43193619Y30437603D02*
X43241238Y30532841D01*
X43241238Y30532841D02*
X43288857Y30580460D01*
X43288857Y30580460D02*
X43384095Y30628079D01*
X43384095Y30628079D02*
X43526952Y30628079D01*
X43526952Y30628079D02*
X43622190Y30580460D01*
X43622190Y30580460D02*
X43669809Y30532841D01*
X43669809Y30532841D02*
X43717428Y30437603D01*
X43717428Y30437603D02*
X43717428Y30056651D01*
X43193619Y30961413D02*
X43193619Y31628079D01*
X43193619Y31628079D02*
X44193619Y31199508D01*
X113696087Y10521567D02*
X113648468Y10473947D01*
X113648468Y10473947D02*
X113505611Y10426328D01*
X113505611Y10426328D02*
X113410373Y10426328D01*
X113410373Y10426328D02*
X113267516Y10473947D01*
X113267516Y10473947D02*
X113172278Y10569186D01*
X113172278Y10569186D02*
X113124659Y10664424D01*
X113124659Y10664424D02*
X113077040Y10854900D01*
X113077040Y10854900D02*
X113077040Y10997757D01*
X113077040Y10997757D02*
X113124659Y11188233D01*
X113124659Y11188233D02*
X113172278Y11283471D01*
X113172278Y11283471D02*
X113267516Y11378709D01*
X113267516Y11378709D02*
X113410373Y11426328D01*
X113410373Y11426328D02*
X113505611Y11426328D01*
X113505611Y11426328D02*
X113648468Y11378709D01*
X113648468Y11378709D02*
X113696087Y11331090D01*
X114553230Y11092995D02*
X114553230Y10426328D01*
X114315135Y11473947D02*
X114077040Y10759662D01*
X114077040Y10759662D02*
X114696087Y10759662D01*
X13682773Y28215081D02*
X13206582Y27881748D01*
X13682773Y27643653D02*
X12682773Y27643653D01*
X12682773Y27643653D02*
X12682773Y28024605D01*
X12682773Y28024605D02*
X12730392Y28119843D01*
X12730392Y28119843D02*
X12778011Y28167462D01*
X12778011Y28167462D02*
X12873249Y28215081D01*
X12873249Y28215081D02*
X13016106Y28215081D01*
X13016106Y28215081D02*
X13111344Y28167462D01*
X13111344Y28167462D02*
X13158963Y28119843D01*
X13158963Y28119843D02*
X13206582Y28024605D01*
X13206582Y28024605D02*
X13206582Y27643653D01*
X13682773Y28691272D02*
X13682773Y28881748D01*
X13682773Y28881748D02*
X13635154Y28976986D01*
X13635154Y28976986D02*
X13587534Y29024605D01*
X13587534Y29024605D02*
X13444677Y29119843D01*
X13444677Y29119843D02*
X13254201Y29167462D01*
X13254201Y29167462D02*
X12873249Y29167462D01*
X12873249Y29167462D02*
X12778011Y29119843D01*
X12778011Y29119843D02*
X12730392Y29072224D01*
X12730392Y29072224D02*
X12682773Y28976986D01*
X12682773Y28976986D02*
X12682773Y28786510D01*
X12682773Y28786510D02*
X12730392Y28691272D01*
X12730392Y28691272D02*
X12778011Y28643653D01*
X12778011Y28643653D02*
X12873249Y28596034D01*
X12873249Y28596034D02*
X13111344Y28596034D01*
X13111344Y28596034D02*
X13206582Y28643653D01*
X13206582Y28643653D02*
X13254201Y28691272D01*
X13254201Y28691272D02*
X13301820Y28786510D01*
X13301820Y28786510D02*
X13301820Y28976986D01*
X13301820Y28976986D02*
X13254201Y29072224D01*
X13254201Y29072224D02*
X13206582Y29119843D01*
X13206582Y29119843D02*
X13111344Y29167462D01*
X87994402Y23585198D02*
X87994402Y23517854D01*
X87994402Y23517854D02*
X87927058Y23383167D01*
X87927058Y23383167D02*
X87859715Y23315824D01*
X87859715Y23315824D02*
X87725028Y23248480D01*
X87725028Y23248480D02*
X87590341Y23248480D01*
X87590341Y23248480D02*
X87489326Y23282152D01*
X87489326Y23282152D02*
X87320967Y23383167D01*
X87320967Y23383167D02*
X87219952Y23484182D01*
X87219952Y23484182D02*
X87118936Y23652541D01*
X87118936Y23652541D02*
X87085265Y23753556D01*
X87085265Y23753556D02*
X87085265Y23888243D01*
X87085265Y23888243D02*
X87152608Y24022930D01*
X87152608Y24022930D02*
X87219952Y24090274D01*
X87219952Y24090274D02*
X87354639Y24157617D01*
X87354639Y24157617D02*
X87421982Y24157617D01*
X87994402Y24864724D02*
X87657684Y24528007D01*
X87657684Y24528007D02*
X87960730Y24157617D01*
X87960730Y24157617D02*
X87960730Y24224961D01*
X87960730Y24224961D02*
X87994402Y24325976D01*
X87994402Y24325976D02*
X88162761Y24494335D01*
X88162761Y24494335D02*
X88263776Y24528007D01*
X88263776Y24528007D02*
X88331119Y24528007D01*
X88331119Y24528007D02*
X88432135Y24494335D01*
X88432135Y24494335D02*
X88600493Y24325976D01*
X88600493Y24325976D02*
X88634165Y24224961D01*
X88634165Y24224961D02*
X88634165Y24157617D01*
X88634165Y24157617D02*
X88600493Y24056602D01*
X88600493Y24056602D02*
X88432135Y23888243D01*
X88432135Y23888243D02*
X88331119Y23854572D01*
X88331119Y23854572D02*
X88263776Y23854572D01*
X112491249Y23313528D02*
X112491249Y22504005D01*
X112491249Y22504005D02*
X112538868Y22408767D01*
X112538868Y22408767D02*
X112586487Y22361147D01*
X112586487Y22361147D02*
X112681725Y22313528D01*
X112681725Y22313528D02*
X112872201Y22313528D01*
X112872201Y22313528D02*
X112967439Y22361147D01*
X112967439Y22361147D02*
X113015058Y22408767D01*
X113015058Y22408767D02*
X113062677Y22504005D01*
X113062677Y22504005D02*
X113062677Y23313528D01*
X114062677Y22313528D02*
X113491249Y22313528D01*
X113776963Y22313528D02*
X113776963Y23313528D01*
X113776963Y23313528D02*
X113681725Y23170671D01*
X113681725Y23170671D02*
X113586487Y23075433D01*
X113586487Y23075433D02*
X113491249Y23027814D01*
X74252478Y23424173D02*
X74185134Y23424173D01*
X74185134Y23424173D02*
X74050447Y23491517D01*
X74050447Y23491517D02*
X73983104Y23558860D01*
X73983104Y23558860D02*
X73915760Y23693547D01*
X73915760Y23693547D02*
X73915760Y23828234D01*
X73915760Y23828234D02*
X73949432Y23929249D01*
X73949432Y23929249D02*
X74050447Y24097608D01*
X74050447Y24097608D02*
X74151462Y24198623D01*
X74151462Y24198623D02*
X74319821Y24299639D01*
X74319821Y24299639D02*
X74420836Y24333310D01*
X74420836Y24333310D02*
X74555523Y24333310D01*
X74555523Y24333310D02*
X74690210Y24265967D01*
X74690210Y24265967D02*
X74757554Y24198623D01*
X74757554Y24198623D02*
X74824897Y24063936D01*
X74824897Y24063936D02*
X74824897Y23996593D01*
X75127943Y23828234D02*
X75599348Y23356830D01*
X75599348Y23356830D02*
X74589195Y22952769D01*
X30620114Y16421965D02*
X30572495Y16374345D01*
X30572495Y16374345D02*
X30429638Y16326726D01*
X30429638Y16326726D02*
X30334400Y16326726D01*
X30334400Y16326726D02*
X30191543Y16374345D01*
X30191543Y16374345D02*
X30096305Y16469584D01*
X30096305Y16469584D02*
X30048686Y16564822D01*
X30048686Y16564822D02*
X30001067Y16755298D01*
X30001067Y16755298D02*
X30001067Y16898155D01*
X30001067Y16898155D02*
X30048686Y17088631D01*
X30048686Y17088631D02*
X30096305Y17183869D01*
X30096305Y17183869D02*
X30191543Y17279107D01*
X30191543Y17279107D02*
X30334400Y17326726D01*
X30334400Y17326726D02*
X30429638Y17326726D01*
X30429638Y17326726D02*
X30572495Y17279107D01*
X30572495Y17279107D02*
X30620114Y17231488D01*
X31572495Y16326726D02*
X31001067Y16326726D01*
X31286781Y16326726D02*
X31286781Y17326726D01*
X31286781Y17326726D02*
X31191543Y17183869D01*
X31191543Y17183869D02*
X31096305Y17088631D01*
X31096305Y17088631D02*
X31001067Y17041012D01*
X32524876Y16326726D02*
X31953448Y16326726D01*
X32239162Y16326726D02*
X32239162Y17326726D01*
X32239162Y17326726D02*
X32143924Y17183869D01*
X32143924Y17183869D02*
X32048686Y17088631D01*
X32048686Y17088631D02*
X31953448Y17041012D01*
X62018973Y28913653D02*
X61018973Y28913653D01*
X61018973Y28913653D02*
X61018973Y29151748D01*
X61018973Y29151748D02*
X61066592Y29294605D01*
X61066592Y29294605D02*
X61161830Y29389843D01*
X61161830Y29389843D02*
X61257068Y29437462D01*
X61257068Y29437462D02*
X61447544Y29485081D01*
X61447544Y29485081D02*
X61590401Y29485081D01*
X61590401Y29485081D02*
X61780877Y29437462D01*
X61780877Y29437462D02*
X61876115Y29389843D01*
X61876115Y29389843D02*
X61971354Y29294605D01*
X61971354Y29294605D02*
X62018973Y29151748D01*
X62018973Y29151748D02*
X62018973Y28913653D01*
X62018973Y30437462D02*
X62018973Y29866034D01*
X62018973Y30151748D02*
X61018973Y30151748D01*
X61018973Y30151748D02*
X61161830Y30056510D01*
X61161830Y30056510D02*
X61257068Y29961272D01*
X61257068Y29961272D02*
X61304687Y29866034D01*
X56427591Y17452141D02*
X57237114Y17452141D01*
X57237114Y17452141D02*
X57332352Y17499760D01*
X57332352Y17499760D02*
X57379972Y17547379D01*
X57379972Y17547379D02*
X57427591Y17642617D01*
X57427591Y17642617D02*
X57427591Y17833093D01*
X57427591Y17833093D02*
X57379972Y17928331D01*
X57379972Y17928331D02*
X57332352Y17975950D01*
X57332352Y17975950D02*
X57237114Y18023569D01*
X57237114Y18023569D02*
X56427591Y18023569D01*
X56760924Y18928331D02*
X57427591Y18928331D01*
X56379972Y18690236D02*
X57094257Y18452141D01*
X57094257Y18452141D02*
X57094257Y19071188D01*
X74547284Y12862948D02*
X74547284Y12795604D01*
X74547284Y12795604D02*
X74479940Y12660917D01*
X74479940Y12660917D02*
X74412597Y12593574D01*
X74412597Y12593574D02*
X74277910Y12526230D01*
X74277910Y12526230D02*
X74143223Y12526230D01*
X74143223Y12526230D02*
X74042208Y12559902D01*
X74042208Y12559902D02*
X73873849Y12660917D01*
X73873849Y12660917D02*
X73772834Y12761932D01*
X73772834Y12761932D02*
X73671818Y12930291D01*
X73671818Y12930291D02*
X73638147Y13031306D01*
X73638147Y13031306D02*
X73638147Y13165993D01*
X73638147Y13165993D02*
X73705490Y13300680D01*
X73705490Y13300680D02*
X73772834Y13368024D01*
X73772834Y13368024D02*
X73907521Y13435367D01*
X73907521Y13435367D02*
X73974864Y13435367D01*
X74614627Y13603726D02*
X74513612Y13570054D01*
X74513612Y13570054D02*
X74446269Y13570054D01*
X74446269Y13570054D02*
X74345253Y13603726D01*
X74345253Y13603726D02*
X74311582Y13637398D01*
X74311582Y13637398D02*
X74277910Y13738413D01*
X74277910Y13738413D02*
X74277910Y13805757D01*
X74277910Y13805757D02*
X74311582Y13906772D01*
X74311582Y13906772D02*
X74446269Y14041459D01*
X74446269Y14041459D02*
X74547284Y14075131D01*
X74547284Y14075131D02*
X74614627Y14075131D01*
X74614627Y14075131D02*
X74715643Y14041459D01*
X74715643Y14041459D02*
X74749314Y14007787D01*
X74749314Y14007787D02*
X74782986Y13906772D01*
X74782986Y13906772D02*
X74782986Y13839428D01*
X74782986Y13839428D02*
X74749314Y13738413D01*
X74749314Y13738413D02*
X74614627Y13603726D01*
X74614627Y13603726D02*
X74580956Y13502711D01*
X74580956Y13502711D02*
X74580956Y13435367D01*
X74580956Y13435367D02*
X74614627Y13334352D01*
X74614627Y13334352D02*
X74749314Y13199665D01*
X74749314Y13199665D02*
X74850330Y13165993D01*
X74850330Y13165993D02*
X74917673Y13165993D01*
X74917673Y13165993D02*
X75018688Y13199665D01*
X75018688Y13199665D02*
X75153375Y13334352D01*
X75153375Y13334352D02*
X75187047Y13435367D01*
X75187047Y13435367D02*
X75187047Y13502711D01*
X75187047Y13502711D02*
X75153375Y13603726D01*
X75153375Y13603726D02*
X75018688Y13738413D01*
X75018688Y13738413D02*
X74917673Y13772085D01*
X74917673Y13772085D02*
X74850330Y13772085D01*
X74850330Y13772085D02*
X74749314Y13738413D01*
X88509779Y13641635D02*
X88442435Y13641635D01*
X88442435Y13641635D02*
X88307748Y13708979D01*
X88307748Y13708979D02*
X88240405Y13776322D01*
X88240405Y13776322D02*
X88173061Y13911009D01*
X88173061Y13911009D02*
X88173061Y14045696D01*
X88173061Y14045696D02*
X88206733Y14146711D01*
X88206733Y14146711D02*
X88307748Y14315070D01*
X88307748Y14315070D02*
X88408763Y14416085D01*
X88408763Y14416085D02*
X88577122Y14517101D01*
X88577122Y14517101D02*
X88678137Y14550772D01*
X88678137Y14550772D02*
X88812824Y14550772D01*
X88812824Y14550772D02*
X88947511Y14483429D01*
X88947511Y14483429D02*
X89014855Y14416085D01*
X89014855Y14416085D02*
X89082198Y14281398D01*
X89082198Y14281398D02*
X89082198Y14214055D01*
X89755633Y13675307D02*
X89620946Y13809994D01*
X89620946Y13809994D02*
X89519931Y13843666D01*
X89519931Y13843666D02*
X89452588Y13843666D01*
X89452588Y13843666D02*
X89284229Y13809994D01*
X89284229Y13809994D02*
X89115870Y13708979D01*
X89115870Y13708979D02*
X88846496Y13439605D01*
X88846496Y13439605D02*
X88812824Y13338589D01*
X88812824Y13338589D02*
X88812824Y13271246D01*
X88812824Y13271246D02*
X88846496Y13170231D01*
X88846496Y13170231D02*
X88981183Y13035544D01*
X88981183Y13035544D02*
X89082198Y13001872D01*
X89082198Y13001872D02*
X89149542Y13001872D01*
X89149542Y13001872D02*
X89250557Y13035544D01*
X89250557Y13035544D02*
X89418916Y13203902D01*
X89418916Y13203902D02*
X89452588Y13304918D01*
X89452588Y13304918D02*
X89452588Y13372261D01*
X89452588Y13372261D02*
X89418916Y13473276D01*
X89418916Y13473276D02*
X89284229Y13607963D01*
X89284229Y13607963D02*
X89183214Y13641635D01*
X89183214Y13641635D02*
X89115870Y13641635D01*
X89115870Y13641635D02*
X89014855Y13607963D01*
X8596677Y33103327D02*
X8596677Y34103327D01*
X8596677Y34103327D02*
X8834772Y34103327D01*
X8834772Y34103327D02*
X8977629Y34055708D01*
X8977629Y34055708D02*
X9072867Y33960470D01*
X9072867Y33960470D02*
X9120486Y33865232D01*
X9120486Y33865232D02*
X9168105Y33674756D01*
X9168105Y33674756D02*
X9168105Y33531899D01*
X9168105Y33531899D02*
X9120486Y33341423D01*
X9120486Y33341423D02*
X9072867Y33246185D01*
X9072867Y33246185D02*
X8977629Y33150946D01*
X8977629Y33150946D02*
X8834772Y33103327D01*
X8834772Y33103327D02*
X8596677Y33103327D01*
X9549058Y34008089D02*
X9596677Y34055708D01*
X9596677Y34055708D02*
X9691915Y34103327D01*
X9691915Y34103327D02*
X9930010Y34103327D01*
X9930010Y34103327D02*
X10025248Y34055708D01*
X10025248Y34055708D02*
X10072867Y34008089D01*
X10072867Y34008089D02*
X10120486Y33912851D01*
X10120486Y33912851D02*
X10120486Y33817613D01*
X10120486Y33817613D02*
X10072867Y33674756D01*
X10072867Y33674756D02*
X9501439Y33103327D01*
X9501439Y33103327D02*
X10120486Y33103327D01*
X44082114Y16421965D02*
X44034495Y16374345D01*
X44034495Y16374345D02*
X43891638Y16326726D01*
X43891638Y16326726D02*
X43796400Y16326726D01*
X43796400Y16326726D02*
X43653543Y16374345D01*
X43653543Y16374345D02*
X43558305Y16469584D01*
X43558305Y16469584D02*
X43510686Y16564822D01*
X43510686Y16564822D02*
X43463067Y16755298D01*
X43463067Y16755298D02*
X43463067Y16898155D01*
X43463067Y16898155D02*
X43510686Y17088631D01*
X43510686Y17088631D02*
X43558305Y17183869D01*
X43558305Y17183869D02*
X43653543Y17279107D01*
X43653543Y17279107D02*
X43796400Y17326726D01*
X43796400Y17326726D02*
X43891638Y17326726D01*
X43891638Y17326726D02*
X44034495Y17279107D01*
X44034495Y17279107D02*
X44082114Y17231488D01*
X45034495Y16326726D02*
X44463067Y16326726D01*
X44748781Y16326726D02*
X44748781Y17326726D01*
X44748781Y17326726D02*
X44653543Y17183869D01*
X44653543Y17183869D02*
X44558305Y17088631D01*
X44558305Y17088631D02*
X44463067Y17041012D01*
X45653543Y17326726D02*
X45748781Y17326726D01*
X45748781Y17326726D02*
X45844019Y17279107D01*
X45844019Y17279107D02*
X45891638Y17231488D01*
X45891638Y17231488D02*
X45939257Y17136250D01*
X45939257Y17136250D02*
X45986876Y16945774D01*
X45986876Y16945774D02*
X45986876Y16707679D01*
X45986876Y16707679D02*
X45939257Y16517203D01*
X45939257Y16517203D02*
X45891638Y16421965D01*
X45891638Y16421965D02*
X45844019Y16374345D01*
X45844019Y16374345D02*
X45748781Y16326726D01*
X45748781Y16326726D02*
X45653543Y16326726D01*
X45653543Y16326726D02*
X45558305Y16374345D01*
X45558305Y16374345D02*
X45510686Y16421965D01*
X45510686Y16421965D02*
X45463067Y16517203D01*
X45463067Y16517203D02*
X45415448Y16707679D01*
X45415448Y16707679D02*
X45415448Y16945774D01*
X45415448Y16945774D02*
X45463067Y17136250D01*
X45463067Y17136250D02*
X45510686Y17231488D01*
X45510686Y17231488D02*
X45558305Y17279107D01*
X45558305Y17279107D02*
X45653543Y17326726D01*
D13*
G36*
X17048887Y33814964D02*
G01*
X17346543Y34410276D01*
X17445762Y34410276D01*
X17445762Y34212614D01*
X17148106Y33617301D01*
X17148881Y33023539D01*
X16951219Y33023539D01*
X16949668Y33617301D01*
X16652012Y34212614D01*
X16652012Y34410276D01*
X16751231Y34410276D01*
X17048887Y33814964D01*
G37*
G36*
X14082402Y34207963D02*
G01*
X13983183Y34207963D01*
X13983183Y33223527D01*
X14082402Y33223527D01*
X14082402Y33017338D01*
X13677775Y33017338D01*
X13677775Y33223527D01*
X13776994Y33223527D01*
X13776994Y34207963D01*
X13677775Y34207963D01*
X13677775Y34414152D01*
X14082402Y34414152D01*
X14082402Y34207963D01*
G37*
G36*
X14620353Y33921934D02*
G01*
X14868400Y34414152D01*
X14973820Y34414152D01*
X14973820Y33017338D01*
X14767631Y33017338D01*
X14767631Y33797911D01*
X14625779Y33508006D01*
X14477726Y33798686D01*
X14477726Y33017338D01*
X14271537Y33017338D01*
X14271537Y34414152D01*
X14376957Y34414152D01*
X14620353Y33921934D01*
G37*
G36*
X12491801Y34362217D02*
G01*
X12564665Y34282377D01*
X12597221Y34156803D01*
X12596446Y33877751D01*
X12565440Y33770005D01*
X12509629Y33670787D01*
X12394133Y33612651D01*
X12199571Y33612651D01*
X12199571Y33017338D01*
X11993382Y33017338D01*
X11993382Y33818839D01*
X12199571Y33818839D01*
X12345298Y33818064D01*
X12388707Y33855271D01*
X12403822Y33920190D01*
X12408860Y34021928D01*
X12405760Y34131999D01*
X12382505Y34182383D01*
X12338322Y34207188D01*
X12199571Y34207963D01*
X12199571Y33818839D01*
X11993382Y33818839D01*
X11993382Y34414152D01*
X12394133Y34414152D01*
X12491801Y34362217D01*
G37*
G36*
X15601689Y34402525D02*
G01*
X15644322Y34389347D01*
X15723387Y34323460D01*
X15754199Y34226179D01*
X15764469Y34112620D01*
X15763694Y33018888D01*
X15558280Y33018888D01*
X15557505Y33614201D01*
X15366819Y33614201D01*
X15367594Y33019663D01*
X15162956Y33019663D01*
X15162956Y34125022D01*
X15168422Y34171531D01*
X15366819Y34171531D01*
X15366819Y33820390D01*
X15557505Y33820390D01*
X15557505Y34170756D01*
X15546653Y34197111D01*
X15520298Y34207963D01*
X15409452Y34207963D01*
X15393949Y34202537D01*
X15377671Y34197111D01*
X15366819Y34171531D01*
X15168422Y34171531D01*
X15174777Y34225598D01*
X15210240Y34325785D01*
X15287754Y34391673D01*
X15326512Y34404075D01*
X15362944Y34414152D01*
X15561381Y34414152D01*
X15601689Y34402525D01*
G37*
G36*
X13284001Y34362217D02*
G01*
X13356864Y34282377D01*
X13389421Y34156803D01*
X13388645Y33877751D01*
X13377793Y33838993D01*
X13357640Y33762254D01*
X13311325Y33681251D01*
X13249894Y33621177D01*
X13285357Y33537074D01*
X13335936Y33419639D01*
X13377793Y33335923D01*
X13389421Y33245231D01*
X13389421Y33017338D01*
X13183232Y33017338D01*
X13185751Y33150663D01*
X13180906Y33242130D01*
X13159008Y33347550D01*
X13118119Y33452970D01*
X13040605Y33612651D01*
X12994096Y33612651D01*
X12994096Y33017338D01*
X12787907Y33017338D01*
X12787907Y33818839D01*
X12994096Y33818839D01*
X13139823Y33818064D01*
X13182457Y33855271D01*
X13196409Y33919996D01*
X13201060Y34021153D01*
X13197959Y34131999D01*
X13177030Y34182383D01*
X13132847Y34207188D01*
X12994096Y34207963D01*
X12994096Y33818839D01*
X12787907Y33818839D01*
X12787907Y34414152D01*
X13186332Y34414152D01*
X13284001Y34362217D01*
G37*
G36*
X16452800Y34362217D02*
G01*
X16525663Y34282377D01*
X16558219Y34156803D01*
X16557444Y33877751D01*
X16546592Y33838993D01*
X16526438Y33762254D01*
X16480123Y33681251D01*
X16418693Y33621177D01*
X16454156Y33537074D01*
X16504734Y33419639D01*
X16546592Y33335923D01*
X16558219Y33245231D01*
X16558219Y33017338D01*
X16352030Y33017338D01*
X16354550Y33150663D01*
X16349705Y33242130D01*
X16327807Y33347550D01*
X16286918Y33452970D01*
X16209404Y33612651D01*
X16162895Y33612651D01*
X16162895Y33017338D01*
X15956706Y33017338D01*
X15956706Y33818839D01*
X16162895Y33818839D01*
X16308622Y33818064D01*
X16351255Y33855271D01*
X16365208Y33919996D01*
X16369859Y34021153D01*
X16366758Y34131999D01*
X16345829Y34182383D01*
X16301646Y34207188D01*
X16162895Y34207963D01*
X16162895Y33818839D01*
X15956706Y33818839D01*
X15956706Y34414152D01*
X16355131Y34414152D01*
X16452800Y34362217D01*
G37*
D14*
X4296372Y26104945D02*
X4296372Y23444945D01*
X6896372Y26104945D02*
X4296372Y26104945D01*
X6896372Y26104945D02*
X6896372Y23444945D01*
X6896372Y23444945D02*
X4296372Y23444945D01*
X8166372Y26104945D02*
X9496372Y26104945D01*
X9496372Y26104945D02*
X9496372Y24774945D01*
X113917472Y33589469D02*
X113917472Y33080021D01*
X114962472Y33589469D02*
X114962472Y33080021D01*
X58418472Y33589469D02*
X58418472Y33080021D01*
X59463472Y33589469D02*
X59463472Y33080021D01*
X111805354Y25065747D02*
X111805354Y24557747D01*
X112059354Y24811747D02*
X111551354Y24811747D01*
X114142102Y25721747D02*
X115564606Y25721747D01*
X114142102Y23901747D02*
X115564606Y23901747D01*
X48296300Y33589469D02*
X48296300Y33080021D01*
X49341300Y33589469D02*
X49341300Y33080021D01*
X55878472Y33080021D02*
X55878472Y33589469D01*
X56923472Y33080021D02*
X56923472Y33589469D01*
X1654772Y28595946D02*
X1654772Y29925946D01*
X2984772Y28595946D02*
X1654772Y28595946D01*
X4254772Y31255946D02*
X11934772Y31255946D01*
X4254772Y28595946D02*
X4254772Y31255946D01*
X4254772Y28595946D02*
X11934772Y28595946D01*
X11934772Y28595946D02*
X11934772Y31255946D01*
X58040705Y15861545D02*
X58333239Y15861545D01*
X58040705Y14841545D02*
X58333239Y14841545D01*
X5470972Y50025845D02*
X64150972Y50025845D01*
X5470972Y40905845D02*
X5470972Y50025845D01*
X10180972Y34285845D02*
X11180972Y34285845D01*
X10680972Y35285845D02*
X10180972Y34285845D01*
X11180972Y34285845D02*
X10680972Y35285845D01*
X32760972Y40905845D02*
X32760972Y50025845D01*
X36860972Y40905845D02*
X36860972Y50025845D01*
X64150972Y50025845D02*
X64150972Y40905845D01*
X64150972Y40905845D02*
X5470972Y40905845D01*
X17336772Y21430547D02*
X18736772Y21430547D01*
X18736772Y23750547D02*
X16836772Y23750547D01*
X118023300Y33589469D02*
X118023300Y33080021D01*
X119068300Y33589469D02*
X119068300Y33080021D01*
D13*
G36*
X121811748Y38302315D02*
G01*
X122103203Y38885225D01*
X122310168Y38885225D01*
X121964452Y38193795D01*
X122310168Y37488411D01*
X122103203Y37488411D01*
X121811748Y38071322D01*
X121811748Y37488411D01*
X121605559Y37488411D01*
X121605559Y38885225D01*
X121811748Y38885225D01*
X121811748Y38302315D01*
G37*
G36*
X123590710Y38286037D02*
G01*
X123888366Y38881350D01*
X123987585Y38881350D01*
X123987585Y38683687D01*
X123689928Y38088375D01*
X123690703Y37494613D01*
X123493041Y37494613D01*
X123491491Y38088375D01*
X123193835Y38683687D01*
X123193835Y38881350D01*
X123293053Y38881350D01*
X123590710Y38286037D01*
G37*
G36*
X122596717Y36115056D02*
G01*
X122743694Y36403622D01*
X122884514Y36115825D01*
X122884514Y36890722D01*
X123089204Y36890722D01*
X123089204Y35504065D01*
X122984550Y35504065D01*
X122738307Y35992704D01*
X122496681Y35504065D01*
X122392027Y35504065D01*
X122392027Y36890722D01*
X122596717Y36890722D01*
X122596717Y36115056D01*
G37*
G36*
X123100042Y38679036D02*
G01*
X122703167Y38679036D01*
X122703167Y38289913D01*
X122901604Y38289913D01*
X122901604Y38083724D01*
X122703167Y38083724D01*
X122703167Y37694600D01*
X123100042Y37694600D01*
X123100042Y37489962D01*
X122496978Y37489962D01*
X122496978Y38885225D01*
X123100042Y38885225D01*
X123100042Y38679036D01*
G37*
G36*
X122198111Y36839165D02*
G01*
X122270445Y36759906D01*
X122302764Y36635245D01*
X122301995Y36358221D01*
X122271214Y36251259D01*
X122215809Y36152762D01*
X122101152Y36095049D01*
X121908005Y36095049D01*
X121908005Y35504065D01*
X121703315Y35504065D01*
X121703315Y36299738D01*
X121908005Y36299738D01*
X122052673Y36298969D01*
X122095766Y36335905D01*
X122110771Y36400352D01*
X122115773Y36501350D01*
X122112695Y36610621D01*
X122089610Y36660639D01*
X122045748Y36685263D01*
X121908005Y36686033D01*
X121908005Y36299738D01*
X121703315Y36299738D01*
X121703315Y36890722D01*
X122101152Y36890722D01*
X122198111Y36839165D01*
G37*
G36*
X123770990Y36839165D02*
G01*
X123843324Y36759906D01*
X123875643Y36635245D01*
X123874874Y36358221D01*
X123864101Y36319746D01*
X123844093Y36243564D01*
X123798115Y36163150D01*
X123737131Y36103513D01*
X123772337Y36020021D01*
X123822547Y35903441D01*
X123864101Y35820333D01*
X123875643Y35730301D01*
X123875643Y35504065D01*
X123670954Y35504065D01*
X123673454Y35636420D01*
X123668645Y35727223D01*
X123646906Y35831876D01*
X123606315Y35936529D01*
X123529364Y36095049D01*
X123483193Y36095049D01*
X123483193Y35504065D01*
X123278503Y35504065D01*
X123278503Y36299738D01*
X123483193Y36299738D01*
X123627861Y36298969D01*
X123670184Y36335905D01*
X123684035Y36400159D01*
X123688652Y36500581D01*
X123685574Y36610621D01*
X123664797Y36660639D01*
X123620935Y36685263D01*
X123483193Y36686033D01*
X123483193Y36299738D01*
X123278503Y36299738D01*
X123278503Y36890722D01*
X123674032Y36890722D01*
X123770990Y36839165D01*
G37*
D14*
X15245454Y31176471D02*
X15245454Y30667023D01*
X16290454Y31176471D02*
X16290454Y30667023D01*
X107863300Y33589469D02*
X107863300Y33080021D01*
X108908300Y33589469D02*
X108908300Y33080021D01*
X3111048Y34080646D02*
X3620496Y34080646D01*
X3111048Y33035646D02*
X3620496Y33035646D01*
X65075800Y50025845D02*
X123755800Y50025845D01*
X65075800Y40905845D02*
X65075800Y50025845D01*
X69785800Y34285845D02*
X70785800Y34285845D01*
X70285800Y35285845D02*
X69785800Y34285845D01*
X70785800Y34285845D02*
X70285800Y35285845D01*
X92365800Y40905845D02*
X92365800Y50025845D01*
X96465800Y40905845D02*
X96465800Y50025845D01*
X123755800Y50025845D02*
X123755800Y40905845D01*
X123755800Y40905845D02*
X65075800Y40905845D01*
X22463772Y18214045D02*
X22463772Y20414045D01*
X22463772Y18214045D02*
X22463772Y16014045D01*
X29233772Y18214045D02*
X29233772Y21814045D01*
X29233772Y18214045D02*
X29233772Y16014045D01*
D15*
X28900772Y22346545D02*
G75*
G02*
X28646772Y22346545I-127000J0D01*
G01*
X28646772Y22346545D02*
G75*
G02*
X28900772Y22346545I127000J0D01*
G01*
D14*
X28926754Y10905011D02*
X28926754Y10450883D01*
X30396754Y10905011D02*
X30396754Y10450883D01*
X115483300Y33589469D02*
X115483300Y33080021D01*
X116528300Y33589469D02*
X116528300Y33080021D01*
X63523872Y33080021D02*
X63523872Y33589469D01*
X64568872Y33080021D02*
X64568872Y33589469D01*
X74091741Y18272545D02*
X74763492Y17600794D01*
X74763492Y18944296D02*
X74091741Y18272545D01*
X74763492Y17600794D02*
X73851324Y16688626D01*
X80646621Y24827425D02*
X81318372Y25499176D01*
X81318372Y25499176D02*
X81990123Y24827425D01*
X81318372Y11045914D02*
X80646621Y11717665D01*
X81990123Y11717665D02*
X81318372Y11045914D01*
X87873252Y17600794D02*
X88545003Y18272545D01*
X88545003Y18272545D02*
X87873252Y18944296D01*
X73891703Y16022178D02*
G75*
G02*
X73637705Y16022178I-126999J0D01*
G01*
X73637705Y16022178D02*
G75*
G02*
X73891703Y16022178I126999J0D01*
G01*
D15*
X73891703Y16022178D02*
G75*
G02*
X73637705Y16022178I-126999J0D01*
G01*
X73637705Y16022178D02*
G75*
G02*
X73891703Y16022178I126999J0D01*
G01*
D14*
X32026154Y12312947D02*
X32026154Y10312947D01*
X32026154Y12312947D02*
X36036154Y12312947D01*
X32026154Y10312947D02*
X36036154Y10312947D01*
D12*
X33636154Y11312947D02*
X34036154Y11312947D01*
X34036154Y11312947D02*
X34036154Y11862947D01*
X34036154Y11312947D02*
X34036154Y10762947D01*
X34036154Y11312947D02*
X34636154Y11712947D01*
X34636154Y11712947D02*
X34636154Y10912947D01*
X34636154Y11312947D02*
X35136154Y11312947D01*
X34636154Y10912947D02*
X34036154Y11312947D01*
D14*
X12027896Y26846845D02*
X11518448Y26846845D01*
X12027896Y25801845D02*
X11518448Y25801845D01*
X116766954Y15673147D02*
X116766954Y13973147D01*
X116766954Y10153147D02*
X116766954Y11853147D01*
X121222517Y15673147D02*
X116766954Y15673147D01*
X121222517Y10153147D02*
X116766954Y10153147D01*
X122286954Y14608710D02*
X121222517Y15673147D01*
X122286954Y14608710D02*
X122286954Y13973147D01*
X122286954Y11217584D02*
X121222517Y10153147D01*
X122286954Y11217584D02*
X122286954Y11853147D01*
X122839454Y10915647D02*
X122839454Y11540647D01*
X123151954Y11228147D02*
X122526954Y11228147D01*
X16635472Y25938870D02*
X16635472Y25429422D01*
X17680472Y25938870D02*
X17680472Y25429422D01*
X18261072Y25938870D02*
X18261072Y25429422D01*
X19306072Y25938870D02*
X19306072Y25429422D01*
X120933424Y25721747D02*
X119510920Y25721747D01*
X120933424Y23901747D02*
X119510920Y23901747D01*
X121746172Y26081747D02*
X121746172Y26589747D01*
X122000172Y26335747D02*
X121492172Y26335747D01*
X54354472Y33080021D02*
X54354472Y33589469D01*
X55399472Y33080021D02*
X55399472Y33589469D01*
D13*
G36*
X75474019Y33725822D02*
G01*
X75474019Y34414152D01*
X75680208Y34414152D01*
X75680208Y33017338D01*
X75474019Y33017338D01*
X75474019Y33299491D01*
X75184114Y33879301D01*
X75184114Y33017338D01*
X74977925Y33017338D01*
X74977925Y34414152D01*
X75135280Y34414152D01*
X75474019Y33725822D01*
G37*
G36*
X78547474Y33814964D02*
G01*
X78845131Y34410276D01*
X78944349Y34410276D01*
X78944349Y34212614D01*
X78646693Y33617301D01*
X78647468Y33023539D01*
X78449806Y33023539D01*
X78448256Y33617301D01*
X78150599Y34212614D01*
X78150599Y34410276D01*
X78249818Y34410276D01*
X78547474Y33814964D01*
G37*
G36*
X73303608Y34207963D02*
G01*
X72906733Y34207963D01*
X72906733Y33818839D01*
X73105171Y33818839D01*
X73105171Y33612651D01*
X72906733Y33612651D01*
X72906733Y33223527D01*
X73303608Y33223527D01*
X73303608Y33018888D01*
X72700545Y33018888D01*
X72700545Y34414152D01*
X73303608Y34414152D01*
X73303608Y34207963D01*
G37*
G36*
X77100276Y34402525D02*
G01*
X77142909Y34389347D01*
X77221974Y34323460D01*
X77252786Y34226179D01*
X77263057Y34112620D01*
X77262282Y33018888D01*
X77056868Y33018888D01*
X77056093Y33614201D01*
X76865407Y33614201D01*
X76866182Y33019663D01*
X76661543Y33019663D01*
X76661543Y34125022D01*
X76667009Y34171531D01*
X76865407Y34171531D01*
X76865407Y33820390D01*
X77056093Y33820390D01*
X77056093Y34170756D01*
X77045241Y34197111D01*
X77018886Y34207963D01*
X76908040Y34207963D01*
X76892537Y34202537D01*
X76876259Y34197111D01*
X76865407Y34171531D01*
X76667009Y34171531D01*
X76673364Y34225598D01*
X76708827Y34325785D01*
X76786342Y34391673D01*
X76825099Y34404075D01*
X76861531Y34414152D01*
X77059968Y34414152D01*
X77100276Y34402525D01*
G37*
G36*
X76182761Y34397443D02*
G01*
X76272936Y34347317D01*
X76342958Y34263774D01*
X76376289Y34201762D01*
X76417372Y34113395D01*
X76455742Y34016889D01*
X76468532Y33959916D01*
X76468532Y33472349D01*
X76455742Y33414794D01*
X76417372Y33318095D01*
X76376483Y33228953D01*
X76343733Y33167716D01*
X76274314Y33084604D01*
X76183881Y33034736D01*
X76072432Y33018113D01*
X75870119Y33018113D01*
X75870119Y33225852D01*
X76076307Y33225852D01*
X76162930Y33268873D01*
X76211958Y33326621D01*
X76242964Y33415763D01*
X76264668Y33502580D01*
X76264668Y33921159D01*
X76240639Y34006425D01*
X76208858Y34096342D01*
X76160605Y34156610D01*
X76076307Y34204087D01*
X76076307Y33225852D01*
X75870119Y33225852D01*
X75870119Y34414152D01*
X76072432Y34414152D01*
X76182761Y34397443D01*
G37*
G36*
X77951387Y34362217D02*
G01*
X78024251Y34282377D01*
X78056807Y34156803D01*
X78056032Y33877751D01*
X78045180Y33838993D01*
X78025026Y33762254D01*
X77978711Y33681251D01*
X77917280Y33621177D01*
X77952743Y33537074D01*
X78003322Y33419639D01*
X78045180Y33335923D01*
X78056807Y33245231D01*
X78056807Y33017338D01*
X77850618Y33017338D01*
X77853137Y33150663D01*
X77848292Y33242130D01*
X77826394Y33347550D01*
X77785505Y33452970D01*
X77707991Y33612651D01*
X77661482Y33612651D01*
X77661482Y33017338D01*
X77455293Y33017338D01*
X77455293Y33818839D01*
X77661482Y33818839D01*
X77807210Y33818064D01*
X77849843Y33855271D01*
X77863795Y33919996D01*
X77868446Y34021153D01*
X77865346Y34131999D01*
X77844417Y34182383D01*
X77800233Y34207188D01*
X77661482Y34207963D01*
X77661482Y33818839D01*
X77455293Y33818839D01*
X77455293Y34414152D01*
X77853718Y34414152D01*
X77951387Y34362217D01*
G37*
G36*
X74095808Y34207963D02*
G01*
X73997171Y34206413D01*
X73940004Y34201762D01*
X73819081Y34152928D01*
X73760170Y34089366D01*
X73712111Y33965342D01*
X73701065Y33903137D01*
X73697383Y33820390D01*
X73697383Y33623503D01*
X73703778Y33554127D01*
X73713661Y33473124D01*
X73768115Y33336698D01*
X73819856Y33276237D01*
X73924501Y33234379D01*
X73983606Y33229147D01*
X74095808Y33227403D01*
X74095808Y33021214D01*
X73792726Y33019663D01*
X73704704Y33087101D01*
X73635974Y33158156D01*
X73586537Y33232829D01*
X73562120Y33285926D01*
X73526076Y33370805D01*
X73511542Y33429522D01*
X73498945Y33515757D01*
X73490419Y33628153D01*
X73490419Y33820390D01*
X73499721Y33931236D01*
X73511542Y34010107D01*
X73525300Y34063786D01*
X73555144Y34140719D01*
X73585762Y34200987D01*
X73637697Y34272559D01*
X73706685Y34343614D01*
X73792726Y34414152D01*
X74095808Y34414152D01*
X74095808Y34207963D01*
G37*
G36*
X74780263Y34391673D02*
G01*
X74854677Y34297880D01*
X74886458Y34183158D01*
X74886458Y33247557D01*
X74871730Y33204923D01*
X74811850Y33087489D01*
X74732979Y33023539D01*
X74448500Y33023539D01*
X74391333Y33058808D01*
X74343855Y33110356D01*
X74307811Y33181669D01*
X74284944Y33255308D01*
X74284944Y34156028D01*
X74491133Y34156028D01*
X74491133Y33265385D01*
X74496559Y33250657D01*
X74501985Y33234379D01*
X74526015Y33223527D01*
X74649263Y33223527D01*
X74677168Y33234379D01*
X74682594Y33248332D01*
X74681819Y34160679D01*
X74676393Y34176957D01*
X74670967Y34194010D01*
X74651588Y34198661D01*
X74632985Y34202537D01*
X74530665Y34202537D01*
X74516713Y34198661D01*
X74501985Y34194010D01*
X74496559Y34174632D01*
X74491133Y34156028D01*
X74284944Y34156028D01*
X74284944Y34177732D01*
X74294246Y34245558D01*
X74322151Y34326560D01*
X74380287Y34389347D01*
X74431447Y34414152D01*
X74722127Y34414152D01*
X74780263Y34391673D01*
G37*
G36*
X72368782Y34391673D02*
G01*
X72452498Y34314158D01*
X72486087Y34230701D01*
X72506241Y34144659D01*
X72512959Y34056034D01*
X72511409Y34009526D01*
X72364131Y34009526D01*
X72345334Y34118046D01*
X72295143Y34197111D01*
X72275764Y34202537D01*
X72257161Y34207963D01*
X72175770Y34207963D01*
X72130812Y34190910D01*
X72114175Y34109900D01*
X72114534Y34013401D01*
X72125386Y33971543D01*
X72137788Y33925035D01*
X72177708Y33871356D01*
X72246309Y33814189D01*
X72336419Y33748301D01*
X72374208Y33718070D01*
X72458699Y33618077D01*
X72509083Y33462272D01*
X72510827Y33419639D01*
X72511409Y33319645D01*
X72509083Y33301817D01*
X72487185Y33211318D01*
X72472651Y33166166D01*
X72443971Y33122370D01*
X72387385Y33052995D01*
X72309871Y33023539D01*
X72109883Y33023539D01*
X72037019Y33052220D01*
X71967256Y33128959D01*
X71921910Y33236898D01*
X71906795Y33374681D01*
X71908345Y33421964D01*
X72079652Y33421964D01*
X72085466Y33345806D01*
X72102907Y33275462D01*
X72157942Y33223527D01*
X72239332Y33223527D01*
X72263362Y33228953D01*
X72288942Y33234379D01*
X72305549Y33314649D01*
X72305414Y33324877D01*
X72305220Y33418089D01*
X72294368Y33476225D01*
X72261812Y33545213D01*
X72174995Y33622727D01*
X72125967Y33651602D01*
X72059498Y33694816D01*
X71990510Y33776982D01*
X71971325Y33817677D01*
X71924623Y33921159D01*
X71916871Y34009526D01*
X71908345Y34099443D01*
X71923073Y34208738D01*
X71967256Y34308732D01*
X72048646Y34392448D01*
X72081202Y34404075D01*
X72110658Y34414152D01*
X72309871Y34414152D01*
X72368782Y34391673D01*
G37*
D14*
X120029220Y29073212D02*
X120029220Y31845716D01*
X123449220Y29073212D02*
X123449220Y31845716D01*
X94169354Y24097545D02*
X95624354Y24097545D01*
X94169354Y22642545D02*
X94169354Y24097545D01*
X94169354Y13902545D02*
X94169354Y12447545D01*
X94169354Y12447545D02*
X95624354Y12447545D01*
X107187136Y24097545D02*
X106904354Y24097545D01*
X108359354Y22925327D02*
X107187136Y24097545D01*
X108359354Y22642545D02*
X108359354Y22925327D01*
X108359354Y13902545D02*
X108359354Y12447545D01*
X108359354Y12447545D02*
X106904354Y12447545D01*
D13*
G36*
X92427736Y29897409D02*
G01*
X93221486Y29897409D01*
X93221486Y29485031D01*
X92015358Y29485031D01*
X92015358Y32278659D01*
X92427736Y32278659D01*
X92427736Y29897409D01*
G37*
G36*
X88269850Y31866281D02*
G01*
X88071413Y31866281D01*
X88071413Y29897409D01*
X88269850Y29897409D01*
X88269850Y29485031D01*
X87460597Y29485031D01*
X87460597Y29897409D01*
X87659035Y29897409D01*
X87659035Y31866281D01*
X87460597Y31866281D01*
X87460597Y32278659D01*
X88269850Y32278659D01*
X88269850Y31866281D01*
G37*
G36*
X94805885Y31866281D02*
G01*
X94012135Y31866281D01*
X94012135Y31088034D01*
X94409010Y31088034D01*
X94409010Y30675656D01*
X94012135Y30675656D01*
X94012135Y29897409D01*
X94805885Y29897409D01*
X94805885Y29488132D01*
X93599757Y29488132D01*
X93599757Y32278659D01*
X94805885Y32278659D01*
X94805885Y31866281D01*
G37*
G36*
X97776247Y31866281D02*
G01*
X97577809Y31866281D01*
X97577809Y29897409D01*
X97776247Y29897409D01*
X97776247Y29485031D01*
X96966994Y29485031D01*
X96966994Y29897409D01*
X97165431Y29897409D01*
X97165431Y31866281D01*
X96966994Y31866281D01*
X96966994Y32278659D01*
X97776247Y32278659D01*
X97776247Y31866281D01*
G37*
G36*
X101143483Y31866281D02*
G01*
X100349733Y31866281D01*
X100349733Y31088034D01*
X100746608Y31088034D01*
X100746608Y30675656D01*
X100349733Y30675656D01*
X100349733Y29897409D01*
X101143483Y29897409D01*
X101143483Y29488132D01*
X99937355Y29488132D01*
X99937355Y32278659D01*
X101143483Y32278659D01*
X101143483Y31866281D01*
G37*
G36*
X89841847Y32174789D02*
G01*
X89987575Y32015109D01*
X90052687Y31763962D01*
X90051137Y31205856D01*
X89989125Y30990366D01*
X89877504Y30791928D01*
X89646510Y30675656D01*
X89257387Y30675656D01*
X89257387Y29485031D01*
X88845009Y29485031D01*
X88845009Y31088034D01*
X89257387Y31088034D01*
X89548842Y31086484D01*
X89635658Y31160898D01*
X89665889Y31290735D01*
X89675966Y31494211D01*
X89669765Y31714352D01*
X89623256Y31815121D01*
X89534889Y31864731D01*
X89257387Y31866281D01*
X89257387Y31088034D01*
X88845009Y31088034D01*
X88845009Y32278659D01*
X89646510Y32278659D01*
X89841847Y32174789D01*
G37*
G36*
X91426247Y32174789D02*
G01*
X91571974Y32015109D01*
X91637087Y31763962D01*
X91635536Y31205856D01*
X91573525Y30990366D01*
X91461903Y30791928D01*
X91230910Y30675656D01*
X90841786Y30675656D01*
X90841786Y29485031D01*
X90429408Y29485031D01*
X90429408Y31088034D01*
X90841786Y31088034D01*
X91133241Y31086484D01*
X91220058Y31160898D01*
X91250288Y31290735D01*
X91260365Y31494211D01*
X91254164Y31714352D01*
X91207655Y31815121D01*
X91119289Y31864731D01*
X90841786Y31866281D01*
X90841786Y31088034D01*
X90429408Y31088034D01*
X90429408Y32278659D01*
X91230910Y32278659D01*
X91426247Y32174789D01*
G37*
G36*
X98979791Y32245242D02*
G01*
X99160142Y32144989D01*
X99300185Y31977902D01*
X99366847Y31853879D01*
X99449013Y31677145D01*
X99525752Y31484134D01*
X99551332Y31370187D01*
X99551332Y30395053D01*
X99525752Y30279944D01*
X99449013Y30086545D01*
X99367235Y29908261D01*
X99301735Y29785788D01*
X99162898Y29619562D01*
X98982030Y29519826D01*
X98759132Y29486581D01*
X98354506Y29486581D01*
X98354506Y29902060D01*
X98766884Y29902060D01*
X98940129Y29988101D01*
X99038185Y30103598D01*
X99100197Y30281882D01*
X99143605Y30455514D01*
X99143605Y31292673D01*
X99095546Y31463205D01*
X99031984Y31643039D01*
X98935478Y31763574D01*
X98766884Y31858530D01*
X98766884Y29902060D01*
X98354506Y29902060D01*
X98354506Y32278659D01*
X98759132Y32278659D01*
X98979791Y32245242D01*
G37*
G36*
X86673048Y32174789D02*
G01*
X86818776Y32015109D01*
X86883888Y31763962D01*
X86882338Y31205856D01*
X86860634Y31128342D01*
X86820326Y30974863D01*
X86727696Y30812857D01*
X86604836Y30692709D01*
X86675761Y30524502D01*
X86776918Y30289633D01*
X86860634Y30122201D01*
X86883888Y29940817D01*
X86883888Y29485031D01*
X86471510Y29485031D01*
X86476549Y29751681D01*
X86466859Y29934616D01*
X86423064Y30145456D01*
X86341286Y30356296D01*
X86186256Y30675656D01*
X86093239Y30675656D01*
X86093239Y29485031D01*
X85680861Y29485031D01*
X85680861Y31088034D01*
X86093239Y31088034D01*
X86384694Y31086484D01*
X86469960Y31160898D01*
X86497865Y31290347D01*
X86507167Y31492660D01*
X86500966Y31714352D01*
X86459108Y31815121D01*
X86370741Y31864731D01*
X86093239Y31866281D01*
X86093239Y31088034D01*
X85680861Y31088034D01*
X85680861Y32278659D01*
X86477712Y32278659D01*
X86673048Y32174789D01*
G37*
G36*
X8385041Y21585128D02*
G01*
X8781916Y21585128D01*
X8781916Y21378939D01*
X8178852Y21378939D01*
X8178852Y22775753D01*
X8385041Y22775753D01*
X8385041Y21585128D01*
G37*
G36*
X5513898Y22569564D02*
G01*
X5414679Y22569564D01*
X5414679Y21585128D01*
X5513898Y21585128D01*
X5513898Y21378939D01*
X5109272Y21378939D01*
X5109272Y21585128D01*
X5208491Y21585128D01*
X5208491Y22569564D01*
X5109272Y22569564D01*
X5109272Y22775753D01*
X5513898Y22775753D01*
X5513898Y22569564D01*
G37*
G36*
X9574116Y22569564D02*
G01*
X9177241Y22569564D01*
X9177241Y22180440D01*
X9375678Y22180440D01*
X9375678Y21974252D01*
X9177241Y21974252D01*
X9177241Y21585128D01*
X9574116Y21585128D01*
X9574116Y21380489D01*
X8971052Y21380489D01*
X8971052Y22775753D01*
X9574116Y22775753D01*
X9574116Y22569564D01*
G37*
G36*
X7033185Y22764126D02*
G01*
X7075818Y22750948D01*
X7154883Y22685061D01*
X7185695Y22587780D01*
X7195966Y22474221D01*
X7195191Y21380489D01*
X6989777Y21380489D01*
X6989002Y21975802D01*
X6798316Y21975802D01*
X6799091Y21381264D01*
X6594452Y21381264D01*
X6594452Y22486623D01*
X6599918Y22533132D01*
X6798316Y22533132D01*
X6798316Y22181991D01*
X6989002Y22181991D01*
X6989002Y22532357D01*
X6978150Y22558712D01*
X6951795Y22569564D01*
X6840949Y22569564D01*
X6825446Y22564138D01*
X6809168Y22558712D01*
X6798316Y22533132D01*
X6599918Y22533132D01*
X6606273Y22587199D01*
X6641736Y22687386D01*
X6719251Y22753274D01*
X6758008Y22765676D01*
X6794440Y22775753D01*
X6992878Y22775753D01*
X7033185Y22764126D01*
G37*
G36*
X4531271Y22759044D02*
G01*
X4621446Y22708918D01*
X4691468Y22625375D01*
X4724799Y22563363D01*
X4765882Y22474996D01*
X4804252Y22378490D01*
X4817042Y22321517D01*
X4817042Y21833950D01*
X4804252Y21776395D01*
X4765882Y21679696D01*
X4724993Y21590554D01*
X4692243Y21529317D01*
X4622824Y21446205D01*
X4532391Y21396337D01*
X4420942Y21379714D01*
X4218628Y21379714D01*
X4218628Y21587453D01*
X4424817Y21587453D01*
X4511440Y21630474D01*
X4560468Y21688222D01*
X4591474Y21777364D01*
X4613178Y21864181D01*
X4613178Y22282760D01*
X4589148Y22368026D01*
X4557367Y22457943D01*
X4509115Y22518211D01*
X4424817Y22565688D01*
X4424817Y21587453D01*
X4218628Y21587453D01*
X4218628Y22775753D01*
X4420942Y22775753D01*
X4531271Y22759044D01*
G37*
G36*
X7864142Y22740096D02*
G01*
X7924604Y22681185D01*
X7973438Y22588168D01*
X7989716Y22484298D01*
X7989716Y22276559D01*
X7974795Y22218616D01*
X7930030Y22126955D01*
X7878870Y22077346D01*
X7933130Y22036263D01*
X7975570Y21934719D01*
X7989716Y21871932D01*
X7989716Y21664193D01*
X7972663Y21564199D01*
X7923441Y21484940D01*
X7857941Y21413045D01*
X7788178Y21380489D01*
X7388202Y21380489D01*
X7388202Y21974252D01*
X7592841Y21974252D01*
X7592841Y21585128D01*
X7691285Y21585903D01*
X7691285Y21586678D01*
X7772675Y21608382D01*
X7778101Y21630862D01*
X7783527Y21651791D01*
X7783527Y21894411D01*
X7754847Y21950997D01*
X7691285Y21974252D01*
X7592841Y21974252D01*
X7388202Y21974252D01*
X7388202Y22180440D01*
X7592841Y22180440D01*
X7690510Y22179665D01*
X7766474Y22196719D01*
X7783527Y22284310D01*
X7783527Y22519955D01*
X7766474Y22552511D01*
X7728492Y22569564D01*
X7592841Y22569564D01*
X7592841Y22180440D01*
X7388202Y22180440D01*
X7388202Y22775753D01*
X7788178Y22775753D01*
X7864142Y22740096D01*
G37*
G36*
X6262690Y22753274D02*
G01*
X6346406Y22675759D01*
X6379995Y22592302D01*
X6400149Y22506260D01*
X6406867Y22417635D01*
X6405317Y22371127D01*
X6258039Y22371127D01*
X6239242Y22479647D01*
X6189051Y22558712D01*
X6169672Y22564138D01*
X6151069Y22569564D01*
X6069678Y22569564D01*
X6024720Y22552511D01*
X6008083Y22471501D01*
X6008442Y22375002D01*
X6019294Y22333144D01*
X6031696Y22286636D01*
X6071616Y22232957D01*
X6140217Y22175790D01*
X6230327Y22109902D01*
X6268116Y22079671D01*
X6352607Y21979678D01*
X6402991Y21823873D01*
X6404735Y21781240D01*
X6405317Y21681246D01*
X6402991Y21663418D01*
X6381093Y21572919D01*
X6366559Y21527767D01*
X6337879Y21483971D01*
X6281293Y21414596D01*
X6203779Y21385140D01*
X6003791Y21385140D01*
X5930927Y21413821D01*
X5861164Y21490560D01*
X5815818Y21598499D01*
X5800702Y21736282D01*
X5802253Y21783565D01*
X5973560Y21783565D01*
X5979374Y21707407D01*
X5996815Y21637063D01*
X6051850Y21585128D01*
X6133240Y21585128D01*
X6157270Y21590554D01*
X6182850Y21595980D01*
X6199457Y21676250D01*
X6199322Y21686478D01*
X6199128Y21779690D01*
X6188276Y21837826D01*
X6155720Y21906814D01*
X6068903Y21984328D01*
X6019875Y22013203D01*
X5953406Y22056417D01*
X5884418Y22138583D01*
X5865233Y22179278D01*
X5818531Y22282760D01*
X5810779Y22371127D01*
X5802253Y22461044D01*
X5816981Y22570339D01*
X5861164Y22670333D01*
X5942554Y22754049D01*
X5975110Y22765676D01*
X6004566Y22775753D01*
X6203779Y22775753D01*
X6262690Y22753274D01*
G37*
G36*
X5352748Y38683315D02*
G01*
X5644203Y39266225D01*
X5851168Y39266225D01*
X5505452Y38574795D01*
X5851168Y37869411D01*
X5644203Y37869411D01*
X5352748Y38452322D01*
X5352748Y37869411D01*
X5146559Y37869411D01*
X5146559Y39266225D01*
X5352748Y39266225D01*
X5352748Y38683315D01*
G37*
G36*
X7131710Y38667037D02*
G01*
X7429366Y39262350D01*
X7528585Y39262350D01*
X7528585Y39064687D01*
X7230928Y38469375D01*
X7231703Y37875613D01*
X7034041Y37875613D01*
X7032491Y38469375D01*
X6734835Y39064687D01*
X6734835Y39262350D01*
X6834053Y39262350D01*
X7131710Y38667037D01*
G37*
G36*
X6137717Y36496056D02*
G01*
X6284694Y36784622D01*
X6425514Y36496825D01*
X6425514Y37271722D01*
X6630204Y37271722D01*
X6630204Y35885065D01*
X6525550Y35885065D01*
X6279307Y36373704D01*
X6037681Y35885065D01*
X5933027Y35885065D01*
X5933027Y37271722D01*
X6137717Y37271722D01*
X6137717Y36496056D01*
G37*
G36*
X6641042Y39060036D02*
G01*
X6244167Y39060036D01*
X6244167Y38670913D01*
X6442604Y38670913D01*
X6442604Y38464724D01*
X6244167Y38464724D01*
X6244167Y38075600D01*
X6641042Y38075600D01*
X6641042Y37870962D01*
X6037978Y37870962D01*
X6037978Y39266225D01*
X6641042Y39266225D01*
X6641042Y39060036D01*
G37*
G36*
X5739111Y37220165D02*
G01*
X5811445Y37140906D01*
X5843764Y37016245D01*
X5842995Y36739221D01*
X5812214Y36632259D01*
X5756809Y36533762D01*
X5642152Y36476049D01*
X5449005Y36476049D01*
X5449005Y35885065D01*
X5244315Y35885065D01*
X5244315Y36680738D01*
X5449005Y36680738D01*
X5593673Y36679969D01*
X5636766Y36716905D01*
X5651771Y36781352D01*
X5656773Y36882350D01*
X5653695Y36991621D01*
X5630610Y37041639D01*
X5586748Y37066263D01*
X5449005Y37067033D01*
X5449005Y36680738D01*
X5244315Y36680738D01*
X5244315Y37271722D01*
X5642152Y37271722D01*
X5739111Y37220165D01*
G37*
G36*
X7311990Y37220165D02*
G01*
X7384324Y37140906D01*
X7416643Y37016245D01*
X7415874Y36739221D01*
X7405101Y36700746D01*
X7385093Y36624564D01*
X7339115Y36544150D01*
X7278131Y36484513D01*
X7313337Y36401021D01*
X7363547Y36284441D01*
X7405101Y36201333D01*
X7416643Y36111301D01*
X7416643Y35885065D01*
X7211954Y35885065D01*
X7214454Y36017420D01*
X7209645Y36108223D01*
X7187906Y36212876D01*
X7147315Y36317529D01*
X7070364Y36476049D01*
X7024193Y36476049D01*
X7024193Y35885065D01*
X6819503Y35885065D01*
X6819503Y36680738D01*
X7024193Y36680738D01*
X7168861Y36679969D01*
X7211184Y36716905D01*
X7225035Y36781159D01*
X7229652Y36881581D01*
X7226574Y36991621D01*
X7205797Y37041639D01*
X7161935Y37066263D01*
X7024193Y37067033D01*
X7024193Y36680738D01*
X6819503Y36680738D01*
X6819503Y37271722D01*
X7215032Y37271722D01*
X7311990Y37220165D01*
G37*
D14*
X13730573Y14601723D02*
X14355573Y14601723D01*
X14043073Y14914223D02*
X14043073Y14289223D01*
X14595573Y14612286D02*
X14595573Y13976723D01*
X14595573Y14612286D02*
X15660010Y15676723D01*
X14595573Y11221160D02*
X14595573Y11856723D01*
X14595573Y11221160D02*
X15660010Y10156723D01*
X15660010Y15676723D02*
X20115573Y15676723D01*
X15660010Y10156723D02*
X20115573Y10156723D01*
X20115573Y15676723D02*
X20115573Y13976723D01*
X20115573Y10156723D02*
X20115573Y11856723D01*
X35925772Y18214045D02*
X35925772Y20414045D01*
X35925772Y18214045D02*
X35925772Y16014045D01*
X42695772Y18214045D02*
X42695772Y21814045D01*
X42695772Y18214045D02*
X42695772Y16014045D01*
D15*
X42362772Y22346545D02*
G75*
G02*
X42108772Y22346545I-127000J0D01*
G01*
X42108772Y22346545D02*
G75*
G02*
X42362772Y22346545I127000J0D01*
G01*
D14*
X11518448Y25322845D02*
X12027896Y25322845D01*
X11518448Y24277845D02*
X12027896Y24277845D01*
X43216300Y33589469D02*
X43216300Y33080021D01*
X44261300Y33589469D02*
X44261300Y33080021D01*
X111752554Y11052814D02*
X111752554Y10760280D01*
X112772554Y11052814D02*
X112772554Y10760280D01*
X12705454Y31176471D02*
X12705454Y30667023D01*
X13750454Y31176471D02*
X13750454Y30667023D01*
X1781116Y40018946D02*
X3111116Y40018946D01*
X1781116Y38688946D02*
X1781116Y40018946D01*
X1781116Y37418946D02*
X1781116Y34818946D01*
X1781116Y37418946D02*
X4441116Y37418946D01*
X1781116Y34818946D02*
X4441116Y34818946D01*
X4441116Y37418946D02*
X4441116Y34818946D01*
X88405103Y23203345D02*
X88611956Y23410198D01*
X89126352Y22482096D02*
X89333205Y22688949D01*
X114492354Y23395747D02*
X114492354Y22135747D01*
X114492354Y16575747D02*
X114492354Y17835747D01*
X118252354Y23395747D02*
X114492354Y23395747D01*
X120502354Y16575747D02*
X114492354Y16575747D01*
D13*
G36*
X93315666Y28287320D02*
G01*
X93315666Y28081131D01*
X92712602Y28081907D01*
X92712602Y28288096D01*
X93315666Y28287320D01*
G37*
G36*
X95493828Y28676444D02*
G01*
X95289189Y28676444D01*
X95289189Y28882633D01*
X95493828Y28882633D01*
X95493828Y28676444D01*
G37*
G36*
X99454826Y27485819D02*
G01*
X99248637Y27485819D01*
X99248637Y27890445D01*
X99454826Y27890445D01*
X99454826Y27485819D01*
G37*
G36*
X102864696Y28682645D02*
G01*
X102275584Y27489695D01*
X102169389Y27489695D01*
X102169389Y27692783D01*
X102759276Y28885733D01*
X102864696Y28885733D01*
X102864696Y28682645D01*
G37*
G36*
X103217387Y27692008D02*
G01*
X103614262Y27692008D01*
X103614262Y27485819D01*
X103011198Y27485819D01*
X103011198Y28882633D01*
X103217387Y28882633D01*
X103217387Y27692008D01*
G37*
G36*
X89948430Y27692008D02*
G01*
X90042223Y27695108D01*
X90042223Y27489695D01*
X89926726Y27486594D01*
X89854207Y27525954D01*
X89795812Y27589258D01*
X89751543Y27676505D01*
X89743791Y27776499D01*
X89742241Y28882633D01*
X89948430Y28882633D01*
X89948430Y27692008D01*
G37*
G36*
X95493828Y27692008D02*
G01*
X95587621Y27695108D01*
X95587621Y27489695D01*
X95472124Y27486594D01*
X95399605Y27525954D01*
X95341210Y27589258D01*
X95296941Y27676505D01*
X95289189Y27776499D01*
X95289189Y28485758D01*
X95493828Y28485758D01*
X95493828Y27692008D01*
G37*
G36*
X83455803Y28390415D02*
G01*
X83703850Y28882633D01*
X83809270Y28882633D01*
X83809270Y27485819D01*
X83603081Y27485819D01*
X83603081Y28266391D01*
X83461229Y27976487D01*
X83313176Y28267167D01*
X83313176Y27485819D01*
X83106987Y27485819D01*
X83106987Y28882633D01*
X83212407Y28882633D01*
X83455803Y28390415D01*
G37*
G36*
X87373393Y28287320D02*
G01*
X87564079Y28287320D01*
X87564079Y28882633D01*
X87770268Y28882633D01*
X87770268Y27485819D01*
X87564079Y27485819D01*
X87564079Y28081131D01*
X87373393Y28081131D01*
X87373393Y27485819D01*
X87167204Y27485819D01*
X87167204Y28882633D01*
X87373393Y28882633D01*
X87373393Y28287320D01*
G37*
G36*
X104307243Y28676444D02*
G01*
X104208025Y28676444D01*
X104208025Y27692008D01*
X104307243Y27692008D01*
X104307243Y27485819D01*
X103902617Y27485819D01*
X103902617Y27692008D01*
X104001836Y27692008D01*
X104001836Y28676444D01*
X103902617Y28676444D01*
X103902617Y28882633D01*
X104307243Y28882633D01*
X104307243Y28676444D01*
G37*
G36*
X90542192Y27792002D02*
G01*
X90550719Y27760221D01*
X90559245Y27726114D01*
X90632109Y27692783D01*
X90732878Y27692783D01*
X90732878Y28484983D01*
X90939067Y28484983D01*
X90939842Y27486594D01*
X90537541Y27486594D01*
X90422044Y27544730D01*
X90369334Y27636197D01*
X90336003Y27733091D01*
X90336003Y28485758D01*
X90542192Y28485758D01*
X90542192Y27792002D01*
G37*
G36*
X97671990Y27792002D02*
G01*
X97680516Y27760221D01*
X97689043Y27726114D01*
X97761906Y27692783D01*
X97862676Y27692783D01*
X97862676Y28484983D01*
X98068865Y28484983D01*
X98069640Y27486594D01*
X97667339Y27486594D01*
X97551842Y27544730D01*
X97499132Y27636197D01*
X97465801Y27733091D01*
X97465801Y28485758D01*
X97671990Y28485758D01*
X97671990Y27792002D01*
G37*
G36*
X82224870Y27967185D02*
G01*
X82212662Y27894902D01*
X82176036Y27803629D01*
X81926439Y27288157D01*
X81695445Y27295908D01*
X81845049Y27599765D01*
X81657463Y27823008D01*
X81630139Y27893546D01*
X81621031Y27978037D01*
X81621031Y28483432D01*
X81827220Y28483432D01*
X81827220Y27888120D01*
X82017131Y27888120D01*
X82017131Y28483432D01*
X82224870Y28484208D01*
X82224870Y27967185D01*
G37*
G36*
X89196538Y28470255D02*
G01*
X89268433Y28424715D01*
X89319786Y28348557D01*
X89355443Y28239261D01*
X89354668Y28081131D01*
X89148479Y28081131D01*
X89150029Y28181125D01*
X89141502Y28212906D01*
X89132976Y28246238D01*
X89059337Y28279569D01*
X88959343Y28279569D01*
X88959343Y27487369D01*
X88751604Y27485819D01*
X88752379Y28485758D01*
X89153905Y28485758D01*
X89196538Y28470255D01*
G37*
G36*
X104802562Y28084232D02*
G01*
X104897130Y27895871D01*
X104990923Y28084232D01*
X104990923Y28881083D01*
X105197112Y28881083D01*
X105197112Y28084232D01*
X105185097Y28018345D01*
X105149052Y27926102D01*
X104949840Y27485819D01*
X104843645Y27485819D01*
X104644432Y27926102D01*
X104607806Y28019120D01*
X104595598Y28084232D01*
X104595598Y28881083D01*
X104801787Y28881083D01*
X104802562Y28084232D01*
G37*
G36*
X96880565Y28485758D02*
G01*
X97075127Y28485758D01*
X97191399Y28427622D01*
X97243333Y28336155D01*
X97276665Y28238486D01*
X97276665Y27485819D01*
X97070476Y27485819D01*
X97071251Y28180350D01*
X97062724Y28212131D01*
X97054198Y28245462D01*
X96980559Y28279569D01*
X96880565Y28279569D01*
X96880565Y27486594D01*
X96674376Y27486594D01*
X96674376Y28882633D01*
X96880565Y28882633D01*
X96880565Y28485758D01*
G37*
G36*
X100346245Y28279569D02*
G01*
X100050139Y28279569D01*
X100050139Y27693558D01*
X100346245Y27692008D01*
X100346245Y27485819D01*
X100046263Y27489695D01*
X99981151Y27510624D01*
X99915263Y27547055D01*
X99860616Y27623795D01*
X99842400Y27688132D01*
X99842400Y28283445D01*
X99859259Y28360765D01*
X99909837Y28431498D01*
X99976500Y28472580D01*
X100043938Y28479557D01*
X100346245Y28485758D01*
X100346245Y28279569D01*
G37*
G36*
X91383226Y28249338D02*
G01*
X91526628Y28485758D01*
X91594841Y28485758D01*
X91652589Y28435180D01*
X91698711Y28376462D01*
X91723128Y28295266D01*
X91731267Y28236161D01*
X91731267Y27485819D01*
X91525078Y27485819D01*
X91525078Y28068729D01*
X91432060Y27882694D01*
X91328191Y27882694D01*
X91235173Y28068729D01*
X91235173Y27485819D01*
X91028984Y27485819D01*
X91028984Y28485758D01*
X91233623Y28485758D01*
X91383226Y28249338D01*
G37*
G36*
X101681822Y28249338D02*
G01*
X101825224Y28485758D01*
X101893437Y28485758D01*
X101951186Y28435180D01*
X101997307Y28376462D01*
X102021724Y28295266D01*
X102029863Y28236161D01*
X102029863Y27485819D01*
X101823674Y27485819D01*
X101823674Y28068729D01*
X101730656Y27882694D01*
X101626787Y27882694D01*
X101533769Y28068729D01*
X101533769Y27485819D01*
X101327580Y27485819D01*
X101327580Y28485758D01*
X101532219Y28485758D01*
X101681822Y28249338D01*
G37*
G36*
X85096013Y28485758D02*
G01*
X85294450Y28485758D01*
X85294450Y28279569D01*
X85096013Y28279569D01*
X85096013Y27692008D01*
X85294450Y27692008D01*
X85294450Y27485819D01*
X85092137Y27485819D01*
X85048729Y27501322D01*
X85002220Y27518375D01*
X84937108Y27585813D01*
X84901645Y27674761D01*
X84889824Y27788126D01*
X84889824Y28279569D01*
X84790605Y28279569D01*
X84790605Y28485758D01*
X84889824Y28485758D01*
X84889824Y28882633D01*
X85096013Y28882633D01*
X85096013Y28485758D01*
G37*
G36*
X85888213Y28485758D02*
G01*
X86086650Y28485758D01*
X86086650Y28279569D01*
X85888213Y28279569D01*
X85888213Y27692008D01*
X86086650Y27692008D01*
X86086650Y27485819D01*
X85884337Y27485819D01*
X85840929Y27501322D01*
X85794420Y27518375D01*
X85729308Y27585813D01*
X85693845Y27674761D01*
X85682024Y27788126D01*
X85682024Y28279569D01*
X85582805Y28279569D01*
X85582805Y28485758D01*
X85682024Y28485758D01*
X85682024Y28882633D01*
X85888213Y28882633D01*
X85888213Y28485758D01*
G37*
G36*
X96186809Y28485758D02*
G01*
X96385246Y28485758D01*
X96385246Y28279569D01*
X96186809Y28279569D01*
X96186809Y27692008D01*
X96385246Y27692008D01*
X96385246Y27485819D01*
X96182933Y27485819D01*
X96139525Y27501322D01*
X96093016Y27518375D01*
X96027904Y27585813D01*
X95992441Y27674761D01*
X95980620Y27788126D01*
X95980620Y28279569D01*
X95881401Y28279569D01*
X95881401Y28485758D01*
X95980620Y28485758D01*
X95980620Y28882633D01*
X96186809Y28882633D01*
X96186809Y28485758D01*
G37*
G36*
X98464964Y28485758D02*
G01*
X98659526Y28485758D01*
X98775798Y28427622D01*
X98830833Y28336155D01*
X98862615Y28220658D01*
X98862615Y27743168D01*
X98847112Y27682706D01*
X98830058Y27617594D01*
X98757195Y27537754D01*
X98659526Y27485819D01*
X98258775Y27485819D01*
X98258775Y28279569D01*
X98464964Y28279569D01*
X98464964Y27692008D01*
X98602940Y27692783D01*
X98670378Y27728440D01*
X98667278Y28190427D01*
X98654100Y28243137D01*
X98611467Y28284220D01*
X98464964Y28279569D01*
X98258775Y28279569D01*
X98258775Y28882633D01*
X98464964Y28882633D01*
X98464964Y28485758D01*
G37*
G36*
X101116740Y28446225D02*
G01*
X101177589Y28386152D01*
X101223711Y28309024D01*
X101237663Y28206705D01*
X101238438Y27752469D01*
X101216562Y27645844D01*
X101150933Y27557477D01*
X101041551Y27487369D01*
X100848540Y27487369D01*
X100761723Y27523801D01*
X100703587Y27590464D01*
X100660954Y27671079D01*
X100656039Y27692008D01*
X100840788Y27692008D01*
X101031474Y27692008D01*
X101033025Y28279569D01*
X100842339Y28279569D01*
X100840788Y27692008D01*
X100656039Y27692008D01*
X100636925Y27773398D01*
X100636925Y28195078D01*
X100648746Y28287320D01*
X100684209Y28385764D01*
X100750871Y28451651D01*
X100837688Y28485758D01*
X101018297Y28485758D01*
X101116740Y28446225D01*
G37*
G36*
X84441014Y28474906D02*
G01*
X84482097Y28464054D01*
X84541783Y28421421D01*
X84580541Y28356308D01*
X84601469Y28283445D01*
X84601469Y27485819D01*
X84201494Y27486594D01*
X84115840Y27527289D01*
X84052666Y27585813D01*
X84001506Y27699759D01*
X84001506Y27782700D01*
X84197618Y27782700D01*
X84210021Y27722239D01*
X84243352Y27692008D01*
X84393730Y27692008D01*
X84393730Y27882694D01*
X84239476Y27882694D01*
X84210021Y27854013D01*
X84197618Y27782700D01*
X84001506Y27782700D01*
X84001506Y27871842D01*
X84046658Y27980362D01*
X84112352Y28054776D01*
X84198393Y28088883D01*
X84393730Y28088883D01*
X84393730Y28236161D01*
X84388304Y28269492D01*
X84342571Y28277825D01*
X84251878Y28281119D01*
X84175139Y28280344D01*
X84097624Y28278794D01*
X84097624Y28484983D01*
X84402257Y28484983D01*
X84441014Y28474906D01*
G37*
G36*
X88402013Y28474906D02*
G01*
X88443095Y28464054D01*
X88502782Y28421421D01*
X88541539Y28356308D01*
X88562468Y28283445D01*
X88562468Y27485819D01*
X88162492Y27486594D01*
X88076839Y27527289D01*
X88013664Y27585813D01*
X87962505Y27699759D01*
X87962505Y27782700D01*
X88158617Y27782700D01*
X88171019Y27722239D01*
X88204350Y27692008D01*
X88354729Y27692008D01*
X88354729Y27882694D01*
X88200475Y27882694D01*
X88171019Y27854013D01*
X88158617Y27782700D01*
X87962505Y27782700D01*
X87962505Y27871842D01*
X88007657Y27980362D01*
X88073351Y28054776D01*
X88159392Y28088883D01*
X88354729Y28088883D01*
X88354729Y28236161D01*
X88349303Y28269492D01*
X88303569Y28277825D01*
X88212877Y28281119D01*
X88136137Y28280344D01*
X88058623Y28278794D01*
X88058623Y28484983D01*
X88363255Y28484983D01*
X88402013Y28474906D01*
G37*
G36*
X94798909Y28808413D02*
G01*
X94861308Y28715976D01*
X94887276Y28615014D01*
X94893865Y28478006D01*
X94687676Y28478006D01*
X94688451Y28638462D01*
X94677599Y28666367D01*
X94596983Y28680320D01*
X94546599Y28677994D01*
X94505516Y28661716D01*
X94500090Y28629935D01*
X94500090Y27738517D01*
X94517143Y27705185D01*
X94596983Y27692008D01*
X94641167Y27693558D01*
X94675273Y27707511D01*
X94681474Y27723789D01*
X94686900Y27739292D01*
X94686900Y28082682D01*
X94588457Y28082682D01*
X94588457Y28287320D01*
X94893865Y28287320D01*
X94893865Y27487369D01*
X94493114Y27488919D01*
X94431102Y27514499D01*
X94378198Y27571279D01*
X94335759Y27639298D01*
X94306691Y27716425D01*
X94297002Y27791227D01*
X94297777Y28588077D01*
X94316380Y28677219D01*
X94352812Y28763260D01*
X94406104Y28824497D01*
X94491563Y28882633D01*
X94698528Y28882633D01*
X94798909Y28808413D01*
G37*
G36*
X105862187Y28844457D02*
G01*
X105933501Y28784189D01*
X105966660Y28703832D01*
X105986555Y28604355D01*
X105993187Y28485758D01*
X105990474Y28421808D01*
X105982335Y28349332D01*
X105966444Y28266973D01*
X105946678Y28218332D01*
X105592436Y27692008D01*
X105983885Y27692008D01*
X105983885Y27485819D01*
X105380821Y27485819D01*
X105380821Y27689682D01*
X105593211Y28005167D01*
X105622086Y28046831D01*
X105694756Y28150119D01*
X105753861Y28239843D01*
X105786998Y28302823D01*
X105807346Y28380338D01*
X105814128Y28479557D01*
X105805214Y28555327D01*
X105778471Y28627610D01*
X105730412Y28672568D01*
X105648247Y28672568D01*
X105595537Y28650089D01*
X105576158Y28526841D01*
X105579259Y28474131D01*
X105384697Y28474906D01*
X105384697Y28564823D01*
X105396130Y28666948D01*
X105430431Y28767136D01*
X105494768Y28841550D01*
X105580034Y28877982D01*
X105784673Y28877982D01*
X105862187Y28844457D01*
G37*
G36*
X81307097Y28846976D02*
G01*
X81367558Y28788065D01*
X81416393Y28695047D01*
X81432671Y28591178D01*
X81432671Y28383439D01*
X81417749Y28325496D01*
X81372984Y28233835D01*
X81321825Y28184226D01*
X81376085Y28143143D01*
X81418524Y28041599D01*
X81432671Y27978812D01*
X81432671Y27771073D01*
X81415617Y27671079D01*
X81366396Y27591820D01*
X81300896Y27519925D01*
X81231133Y27487369D01*
X80831157Y27487369D01*
X80831157Y28081131D01*
X81035796Y28081131D01*
X81035796Y27692008D01*
X81134239Y27692783D01*
X81134239Y27693558D01*
X81215630Y27715262D01*
X81221056Y27737742D01*
X81226482Y27758670D01*
X81226482Y28001291D01*
X81197801Y28057877D01*
X81134239Y28081131D01*
X81035796Y28081131D01*
X80831157Y28081131D01*
X80831157Y28287320D01*
X81035796Y28287320D01*
X81133464Y28286545D01*
X81209428Y28303598D01*
X81226482Y28391190D01*
X81226482Y28626835D01*
X81209428Y28659391D01*
X81171446Y28676444D01*
X81035796Y28676444D01*
X81035796Y28287320D01*
X80831157Y28287320D01*
X80831157Y28882633D01*
X81231133Y28882633D01*
X81307097Y28846976D01*
G37*
D14*
X75378556Y24107696D02*
X75171703Y24314549D01*
X76099805Y24828945D02*
X75892952Y25035798D01*
X31116705Y15861545D02*
X31409239Y15861545D01*
X31116705Y14841545D02*
X31409239Y14841545D01*
X59951772Y32459945D02*
X59951772Y33919945D01*
X59951772Y32459945D02*
X60881772Y32459945D01*
X63111772Y33259945D02*
X63111772Y34059945D01*
X63111772Y33259945D02*
X63111772Y32459945D01*
X63111772Y32459945D02*
X62181772Y32459945D01*
X63471772Y34319945D02*
X63141772Y34559945D01*
X63471772Y34799945D01*
X63471772Y34319945D01*
G36*
X63471772Y34319945D02*
G01*
X63141772Y34559945D01*
X63471772Y34799945D01*
X63471772Y34319945D01*
G37*
X49387772Y18214045D02*
X49387772Y20414045D01*
X49387772Y18214045D02*
X49387772Y16014045D01*
X56157772Y18214045D02*
X56157772Y21814045D01*
X56157772Y18214045D02*
X56157772Y16014045D01*
X55824772Y22346545D02*
G75*
G02*
X55570772Y22346545I-127000J0D01*
G01*
X55570772Y22346545D02*
G75*
G02*
X55824772Y22346545I127000J0D01*
G01*
D15*
X55824772Y22346545D02*
G75*
G02*
X55570772Y22346545I-127000J0D01*
G01*
X55570772Y22346545D02*
G75*
G02*
X55824772Y22346545I127000J0D01*
G01*
D14*
X124704800Y37418946D02*
X124704800Y40018946D01*
X127364800Y40018946D02*
X124704800Y40018946D01*
X127364800Y37418946D02*
X124704800Y37418946D01*
X127364800Y37418946D02*
X127364800Y40018946D01*
X127364800Y36148946D02*
X127364800Y34818946D01*
X127364800Y34818946D02*
X126034800Y34818946D01*
D13*
G36*
X2099167Y26766728D02*
G01*
X2496042Y26766728D01*
X2496042Y26560539D01*
X1892978Y26560539D01*
X1892978Y27957353D01*
X2099167Y27957353D01*
X2099167Y26766728D01*
G37*
G36*
X3288242Y27751164D02*
G01*
X2891367Y27751164D01*
X2891367Y27362040D01*
X3089804Y27362040D01*
X3089804Y27155852D01*
X2891367Y27155852D01*
X2891367Y26766728D01*
X3288242Y26766728D01*
X3288242Y26562089D01*
X2685178Y26562089D01*
X2685178Y27957353D01*
X3288242Y27957353D01*
X3288242Y27751164D01*
G37*
G36*
X3790795Y27940644D02*
G01*
X3880971Y27890518D01*
X3950992Y27806975D01*
X3984323Y27744963D01*
X4025406Y27656596D01*
X4063776Y27560090D01*
X4076566Y27503117D01*
X4076566Y27015550D01*
X4063776Y26957995D01*
X4025406Y26861296D01*
X3984517Y26772154D01*
X3951767Y26710917D01*
X3882349Y26627805D01*
X3791915Y26577937D01*
X3680466Y26561314D01*
X3478153Y26561314D01*
X3478153Y26769053D01*
X3684342Y26769053D01*
X3770964Y26812074D01*
X3819992Y26869822D01*
X3850998Y26958964D01*
X3872702Y27045781D01*
X3872702Y27464360D01*
X3848673Y27549626D01*
X3816892Y27639543D01*
X3768639Y27699811D01*
X3684342Y27747288D01*
X3684342Y26769053D01*
X3478153Y26769053D01*
X3478153Y27957353D01*
X3680466Y27957353D01*
X3790795Y27940644D01*
G37*
D14*
X73142512Y14710274D02*
X72935659Y14503421D01*
X73863761Y13989025D02*
X73656908Y13782172D01*
X87406678Y12509685D02*
X87613531Y12302832D01*
X88127927Y13230934D02*
X88334780Y13024081D01*
D13*
G36*
X4896221Y17223433D02*
G01*
X4984587Y17173823D01*
X5026445Y17073054D01*
X5032646Y16851362D01*
X5023345Y16649049D01*
X4995439Y16519600D01*
X4910173Y16445186D01*
X4618718Y16446736D01*
X4618718Y17224983D01*
X4896221Y17223433D01*
G37*
G36*
X6520928Y17206380D02*
G01*
X6559685Y17197078D01*
X6570537Y17162971D01*
X6581389Y17130415D01*
X6582939Y15305720D01*
X6572087Y15277815D01*
X6516277Y15256111D01*
X6269780Y15256111D01*
X6221721Y15277815D01*
X6210869Y15310371D01*
X6200017Y15339827D01*
X6200017Y17121113D01*
X6210869Y17158320D01*
X6221721Y17197078D01*
X6251177Y17206380D01*
X6279082Y17214131D01*
X6483721Y17214131D01*
X6520928Y17206380D01*
G37*
G36*
X2618840Y18298819D02*
G01*
X10171868Y18298819D01*
X10833326Y18298819D01*
X12205508Y18298819D01*
X10833326Y16240547D01*
X12205508Y14182275D01*
X10833326Y14182275D01*
X10171868Y14182275D01*
X2618840Y14182275D01*
X1957382Y14182275D01*
X1514342Y14846834D01*
X2618840Y14846834D01*
X3031218Y14843733D01*
X4206340Y14843733D01*
X4618718Y14843733D01*
X4618718Y16034358D01*
X4711736Y16034358D01*
X4866765Y15714998D01*
X4948543Y15504158D01*
X4992339Y15293318D01*
X5002028Y15110383D01*
X4996990Y14843733D01*
X5409368Y14843733D01*
X7173601Y14843733D01*
X7585979Y14843733D01*
X7585979Y16567659D01*
X8165789Y15408040D01*
X8165789Y14843733D01*
X8578167Y14843733D01*
X8578167Y17224983D01*
X8964189Y17224983D01*
X9354863Y17224983D01*
X9353313Y14843733D01*
X9765691Y14843733D01*
X9767241Y17224983D01*
X10164116Y17224983D01*
X10171868Y17637361D01*
X8965740Y17637361D01*
X8964189Y17224983D01*
X8578167Y17224983D01*
X8578167Y17637361D01*
X8165789Y17637361D01*
X8165789Y16260701D01*
X7488311Y17637361D01*
X7173601Y17637361D01*
X7173601Y14843733D01*
X5409368Y14843733D01*
X5409368Y15299519D01*
X5386113Y15480903D01*
X5302397Y15648335D01*
X5201241Y15883204D01*
X5130315Y16051411D01*
X5253176Y16171559D01*
X5345806Y16333565D01*
X5386113Y16487044D01*
X5407817Y16564558D01*
X5409368Y17122664D01*
X5398516Y17164522D01*
X5787639Y17164522D01*
X5787639Y15319673D01*
X5833373Y15172395D01*
X5905461Y15029768D01*
X6000417Y14926674D01*
X6114751Y14856135D01*
X6683708Y14856135D01*
X6841451Y14984035D01*
X6961211Y15218904D01*
X6990667Y15304170D01*
X6990667Y17175374D01*
X6927104Y17404817D01*
X6778276Y17592402D01*
X6662004Y17637361D01*
X6080645Y17637361D01*
X5978325Y17587752D01*
X5862053Y17462178D01*
X5806243Y17300172D01*
X5787639Y17164522D01*
X5398516Y17164522D01*
X5344255Y17373811D01*
X5198528Y17533491D01*
X5003191Y17637361D01*
X4206340Y17637361D01*
X4206340Y14843733D01*
X3031218Y14843733D01*
X3031218Y16034358D01*
X3428093Y16034358D01*
X3428093Y16446736D01*
X3031218Y16446736D01*
X3031218Y17224983D01*
X3824968Y17224983D01*
X3824968Y17637361D01*
X2618840Y17637361D01*
X2618840Y14846834D01*
X1514342Y14846834D01*
X585200Y16240547D01*
X1957382Y18298819D01*
X2618840Y18298819D01*
G37*
D14*
X5134772Y34293146D02*
X5134772Y32823146D01*
X5134772Y32823146D02*
X7594772Y32823146D01*
X7594772Y34293146D02*
X5134772Y34293146D01*
X44578705Y15861545D02*
X44871239Y15861545D01*
X44578705Y14841545D02*
X44871239Y14841545D01*
%LPC*%
D12*
X130670000Y-1133555D02*
X-1410000Y-1133555D01*
X-1410000Y7756445D01*
X130670000Y7756445D01*
X130670000Y-1133555D01*
G36*
X130670000Y-1133555D02*
G01*
X-1410000Y-1133555D01*
X-1410000Y7756445D01*
X130670000Y7756445D01*
X130670000Y-1133555D01*
G37*
D16*
X8166372Y24774945D03*
D17*
X5626372Y24774945D03*
G36*
G01*
X114202472Y34734745D02*
X114677472Y34734745D01*
G75*
G02*
X114914972Y34497245I0J-237500D01*
G01*
X114914972Y33997245D01*
G75*
G02*
X114677472Y33759745I-237500J0D01*
G01*
X114202472Y33759745D01*
G75*
G02*
X113964972Y33997245I0J237500D01*
G01*
X113964972Y34497245D01*
G75*
G02*
X114202472Y34734745I237500J0D01*
G01*
G37*
G36*
G01*
X114202472Y32909745D02*
X114677472Y32909745D01*
G75*
G02*
X114914972Y32672245I0J-237500D01*
G01*
X114914972Y32172245D01*
G75*
G02*
X114677472Y31934745I-237500J0D01*
G01*
X114202472Y31934745D01*
G75*
G02*
X113964972Y32172245I0J237500D01*
G01*
X113964972Y32672245D01*
G75*
G02*
X114202472Y32909745I237500J0D01*
G01*
G37*
G36*
G01*
X58703472Y34734745D02*
X59178472Y34734745D01*
G75*
G02*
X59415972Y34497245I0J-237500D01*
G01*
X59415972Y33997245D01*
G75*
G02*
X59178472Y33759745I-237500J0D01*
G01*
X58703472Y33759745D01*
G75*
G02*
X58465972Y33997245I0J237500D01*
G01*
X58465972Y34497245D01*
G75*
G02*
X58703472Y34734745I237500J0D01*
G01*
G37*
G36*
G01*
X58703472Y32909745D02*
X59178472Y32909745D01*
G75*
G02*
X59415972Y32672245I0J-237500D01*
G01*
X59415972Y32172245D01*
G75*
G02*
X59178472Y31934745I-237500J0D01*
G01*
X58703472Y31934745D01*
G75*
G02*
X58465972Y32172245I0J237500D01*
G01*
X58465972Y32672245D01*
G75*
G02*
X58703472Y32909745I237500J0D01*
G01*
G37*
G36*
G01*
X112628354Y24161747D02*
X112628354Y25461747D01*
G75*
G02*
X112878354Y25711747I250000J0D01*
G01*
X113703354Y25711747D01*
G75*
G02*
X113953354Y25461747I0J-250000D01*
G01*
X113953354Y24161747D01*
G75*
G02*
X113703354Y23911747I-250000J0D01*
G01*
X112878354Y23911747D01*
G75*
G02*
X112628354Y24161747I0J250000D01*
G01*
G37*
G36*
G01*
X115753354Y24161747D02*
X115753354Y25461747D01*
G75*
G02*
X116003354Y25711747I250000J0D01*
G01*
X116828354Y25711747D01*
G75*
G02*
X117078354Y25461747I0J-250000D01*
G01*
X117078354Y24161747D01*
G75*
G02*
X116828354Y23911747I-250000J0D01*
G01*
X116003354Y23911747D01*
G75*
G02*
X115753354Y24161747I0J250000D01*
G01*
G37*
G36*
G01*
X48581300Y34734745D02*
X49056300Y34734745D01*
G75*
G02*
X49293800Y34497245I0J-237500D01*
G01*
X49293800Y33997245D01*
G75*
G02*
X49056300Y33759745I-237500J0D01*
G01*
X48581300Y33759745D01*
G75*
G02*
X48343800Y33997245I0J237500D01*
G01*
X48343800Y34497245D01*
G75*
G02*
X48581300Y34734745I237500J0D01*
G01*
G37*
G36*
G01*
X48581300Y32909745D02*
X49056300Y32909745D01*
G75*
G02*
X49293800Y32672245I0J-237500D01*
G01*
X49293800Y32172245D01*
G75*
G02*
X49056300Y31934745I-237500J0D01*
G01*
X48581300Y31934745D01*
G75*
G02*
X48343800Y32172245I0J237500D01*
G01*
X48343800Y32672245D01*
G75*
G02*
X48581300Y32909745I237500J0D01*
G01*
G37*
G36*
G01*
X56638472Y31934745D02*
X56163472Y31934745D01*
G75*
G02*
X55925972Y32172245I0J237500D01*
G01*
X55925972Y32672245D01*
G75*
G02*
X56163472Y32909745I237500J0D01*
G01*
X56638472Y32909745D01*
G75*
G02*
X56875972Y32672245I0J-237500D01*
G01*
X56875972Y32172245D01*
G75*
G02*
X56638472Y31934745I-237500J0D01*
G01*
G37*
G36*
G01*
X56638472Y33759745D02*
X56163472Y33759745D01*
G75*
G02*
X55925972Y33997245I0J237500D01*
G01*
X55925972Y34497245D01*
G75*
G02*
X56163472Y34734745I237500J0D01*
G01*
X56638472Y34734745D01*
G75*
G02*
X56875972Y34497245I0J-237500D01*
G01*
X56875972Y33997245D01*
G75*
G02*
X56638472Y33759745I-237500J0D01*
G01*
G37*
D16*
X2984772Y29925946D03*
D17*
X5524772Y29925946D03*
X8064772Y29925946D03*
X10604772Y29925946D03*
G36*
G01*
X56786972Y15114045D02*
X56786972Y15589045D01*
G75*
G02*
X57024472Y15826545I237500J0D01*
G01*
X57624472Y15826545D01*
G75*
G02*
X57861972Y15589045I0J-237500D01*
G01*
X57861972Y15114045D01*
G75*
G02*
X57624472Y14876545I-237500J0D01*
G01*
X57024472Y14876545D01*
G75*
G02*
X56786972Y15114045I0J237500D01*
G01*
G37*
G36*
G01*
X58511972Y15114045D02*
X58511972Y15589045D01*
G75*
G02*
X58749472Y15826545I237500J0D01*
G01*
X59349472Y15826545D01*
G75*
G02*
X59586972Y15589045I0J-237500D01*
G01*
X59586972Y15114045D01*
G75*
G02*
X59349472Y14876545I-237500J0D01*
G01*
X58749472Y14876545D01*
G75*
G02*
X58511972Y15114045I0J237500D01*
G01*
G37*
G36*
G01*
X11280972Y35785845D02*
X10080972Y35785845D01*
G75*
G02*
X9830972Y36035845I0J250000D01*
G01*
X9830972Y37235845D01*
G75*
G02*
X10080972Y37485845I250000J0D01*
G01*
X11280972Y37485845D01*
G75*
G02*
X11530972Y37235845I0J-250000D01*
G01*
X11530972Y36035845D01*
G75*
G02*
X11280972Y35785845I-250000J0D01*
G01*
G37*
D18*
X10680972Y39175845D03*
X13220972Y36635845D03*
X13220972Y39175845D03*
X15760972Y36635845D03*
X15760972Y39175845D03*
X18300972Y36635845D03*
X18300972Y39175845D03*
X20840972Y36635845D03*
X20840972Y39175845D03*
X23380972Y36635845D03*
X23380972Y39175845D03*
X25920972Y36635845D03*
X25920972Y39175845D03*
X28460972Y36635845D03*
X28460972Y39175845D03*
X31000972Y36635845D03*
X31000972Y39175845D03*
X33540972Y36635845D03*
X33540972Y39175845D03*
X36080972Y36635845D03*
X36080972Y39175845D03*
X38620972Y36635845D03*
X38620972Y39175845D03*
X41160972Y36635845D03*
X41160972Y39175845D03*
X43700972Y36635845D03*
X43700972Y39175845D03*
X46240972Y36635845D03*
X46240972Y39175845D03*
X48780972Y36635845D03*
X48780972Y39175845D03*
X51320972Y36635845D03*
X51320972Y39175845D03*
X53860972Y36635845D03*
X53860972Y39175845D03*
X56400972Y36635845D03*
X56400972Y39175845D03*
X58940972Y36635845D03*
X58940972Y39175845D03*
D19*
X16962272Y23240547D03*
X16962272Y22590547D03*
X16962272Y21940547D03*
X19111272Y21940547D03*
X19111272Y22590547D03*
X19111272Y23240547D03*
G36*
G01*
X118308300Y34734745D02*
X118783300Y34734745D01*
G75*
G02*
X119020800Y34497245I0J-237500D01*
G01*
X119020800Y33997245D01*
G75*
G02*
X118783300Y33759745I-237500J0D01*
G01*
X118308300Y33759745D01*
G75*
G02*
X118070800Y33997245I0J237500D01*
G01*
X118070800Y34497245D01*
G75*
G02*
X118308300Y34734745I237500J0D01*
G01*
G37*
G36*
G01*
X118308300Y32909745D02*
X118783300Y32909745D01*
G75*
G02*
X119020800Y32672245I0J-237500D01*
G01*
X119020800Y32172245D01*
G75*
G02*
X118783300Y31934745I-237500J0D01*
G01*
X118308300Y31934745D01*
G75*
G02*
X118070800Y32172245I0J237500D01*
G01*
X118070800Y32672245D01*
G75*
G02*
X118308300Y32909745I237500J0D01*
G01*
G37*
G36*
G01*
X15530454Y32321747D02*
X16005454Y32321747D01*
G75*
G02*
X16242954Y32084247I0J-237500D01*
G01*
X16242954Y31584247D01*
G75*
G02*
X16005454Y31346747I-237500J0D01*
G01*
X15530454Y31346747D01*
G75*
G02*
X15292954Y31584247I0J237500D01*
G01*
X15292954Y32084247D01*
G75*
G02*
X15530454Y32321747I237500J0D01*
G01*
G37*
G36*
G01*
X15530454Y30496747D02*
X16005454Y30496747D01*
G75*
G02*
X16242954Y30259247I0J-237500D01*
G01*
X16242954Y29759247D01*
G75*
G02*
X16005454Y29521747I-237500J0D01*
G01*
X15530454Y29521747D01*
G75*
G02*
X15292954Y29759247I0J237500D01*
G01*
X15292954Y30259247D01*
G75*
G02*
X15530454Y30496747I237500J0D01*
G01*
G37*
G36*
G01*
X108148300Y34734745D02*
X108623300Y34734745D01*
G75*
G02*
X108860800Y34497245I0J-237500D01*
G01*
X108860800Y33997245D01*
G75*
G02*
X108623300Y33759745I-237500J0D01*
G01*
X108148300Y33759745D01*
G75*
G02*
X107910800Y33997245I0J237500D01*
G01*
X107910800Y34497245D01*
G75*
G02*
X108148300Y34734745I237500J0D01*
G01*
G37*
G36*
G01*
X108148300Y32909745D02*
X108623300Y32909745D01*
G75*
G02*
X108860800Y32672245I0J-237500D01*
G01*
X108860800Y32172245D01*
G75*
G02*
X108623300Y31934745I-237500J0D01*
G01*
X108148300Y31934745D01*
G75*
G02*
X107910800Y32172245I0J237500D01*
G01*
X107910800Y32672245D01*
G75*
G02*
X108148300Y32909745I237500J0D01*
G01*
G37*
G36*
G01*
X1965772Y33320646D02*
X1965772Y33795646D01*
G75*
G02*
X2203272Y34033146I237500J0D01*
G01*
X2703272Y34033146D01*
G75*
G02*
X2940772Y33795646I0J-237500D01*
G01*
X2940772Y33320646D01*
G75*
G02*
X2703272Y33083146I-237500J0D01*
G01*
X2203272Y33083146D01*
G75*
G02*
X1965772Y33320646I0J237500D01*
G01*
G37*
G36*
G01*
X3790772Y33320646D02*
X3790772Y33795646D01*
G75*
G02*
X4028272Y34033146I237500J0D01*
G01*
X4528272Y34033146D01*
G75*
G02*
X4765772Y33795646I0J-237500D01*
G01*
X4765772Y33320646D01*
G75*
G02*
X4528272Y33083146I-237500J0D01*
G01*
X4028272Y33083146D01*
G75*
G02*
X3790772Y33320646I0J237500D01*
G01*
G37*
G36*
G01*
X70885800Y35785845D02*
X69685800Y35785845D01*
G75*
G02*
X69435800Y36035845I0J250000D01*
G01*
X69435800Y37235845D01*
G75*
G02*
X69685800Y37485845I250000J0D01*
G01*
X70885800Y37485845D01*
G75*
G02*
X71135800Y37235845I0J-250000D01*
G01*
X71135800Y36035845D01*
G75*
G02*
X70885800Y35785845I-250000J0D01*
G01*
G37*
D18*
X70285800Y39175845D03*
X72825800Y36635845D03*
X72825800Y39175845D03*
X75365800Y36635845D03*
X75365800Y39175845D03*
X77905800Y36635845D03*
X77905800Y39175845D03*
X80445800Y36635845D03*
X80445800Y39175845D03*
X82985800Y36635845D03*
X82985800Y39175845D03*
X85525800Y36635845D03*
X85525800Y39175845D03*
X88065800Y36635845D03*
X88065800Y39175845D03*
X90605800Y36635845D03*
X90605800Y39175845D03*
X93145800Y36635845D03*
X93145800Y39175845D03*
X95685800Y36635845D03*
X95685800Y39175845D03*
X98225800Y36635845D03*
X98225800Y39175845D03*
X100765800Y36635845D03*
X100765800Y39175845D03*
X103305800Y36635845D03*
X103305800Y39175845D03*
X105845800Y36635845D03*
X105845800Y39175845D03*
X108385800Y36635845D03*
X108385800Y39175845D03*
X110925800Y36635845D03*
X110925800Y39175845D03*
X113465800Y36635845D03*
X113465800Y39175845D03*
X116005800Y36635845D03*
X116005800Y39175845D03*
X118545800Y36635845D03*
X118545800Y39175845D03*
G36*
G01*
X28673772Y21814045D02*
X28873772Y21814045D01*
G75*
G02*
X28973772Y21714045I0J-100000D01*
G01*
X28973772Y20439045D01*
G75*
G02*
X28873772Y20339045I-100000J0D01*
G01*
X28673772Y20339045D01*
G75*
G02*
X28573772Y20439045I0J100000D01*
G01*
X28573772Y21714045D01*
G75*
G02*
X28673772Y21814045I100000J0D01*
G01*
G37*
G36*
G01*
X28023772Y21814045D02*
X28223772Y21814045D01*
G75*
G02*
X28323772Y21714045I0J-100000D01*
G01*
X28323772Y20439045D01*
G75*
G02*
X28223772Y20339045I-100000J0D01*
G01*
X28023772Y20339045D01*
G75*
G02*
X27923772Y20439045I0J100000D01*
G01*
X27923772Y21714045D01*
G75*
G02*
X28023772Y21814045I100000J0D01*
G01*
G37*
G36*
G01*
X27373772Y21814045D02*
X27573772Y21814045D01*
G75*
G02*
X27673772Y21714045I0J-100000D01*
G01*
X27673772Y20439045D01*
G75*
G02*
X27573772Y20339045I-100000J0D01*
G01*
X27373772Y20339045D01*
G75*
G02*
X27273772Y20439045I0J100000D01*
G01*
X27273772Y21714045D01*
G75*
G02*
X27373772Y21814045I100000J0D01*
G01*
G37*
G36*
G01*
X26723772Y21814045D02*
X26923772Y21814045D01*
G75*
G02*
X27023772Y21714045I0J-100000D01*
G01*
X27023772Y20439045D01*
G75*
G02*
X26923772Y20339045I-100000J0D01*
G01*
X26723772Y20339045D01*
G75*
G02*
X26623772Y20439045I0J100000D01*
G01*
X26623772Y21714045D01*
G75*
G02*
X26723772Y21814045I100000J0D01*
G01*
G37*
G36*
G01*
X26073772Y21814045D02*
X26273772Y21814045D01*
G75*
G02*
X26373772Y21714045I0J-100000D01*
G01*
X26373772Y20439045D01*
G75*
G02*
X26273772Y20339045I-100000J0D01*
G01*
X26073772Y20339045D01*
G75*
G02*
X25973772Y20439045I0J100000D01*
G01*
X25973772Y21714045D01*
G75*
G02*
X26073772Y21814045I100000J0D01*
G01*
G37*
G36*
G01*
X25423772Y21814045D02*
X25623772Y21814045D01*
G75*
G02*
X25723772Y21714045I0J-100000D01*
G01*
X25723772Y20439045D01*
G75*
G02*
X25623772Y20339045I-100000J0D01*
G01*
X25423772Y20339045D01*
G75*
G02*
X25323772Y20439045I0J100000D01*
G01*
X25323772Y21714045D01*
G75*
G02*
X25423772Y21814045I100000J0D01*
G01*
G37*
G36*
G01*
X24773772Y21814045D02*
X24973772Y21814045D01*
G75*
G02*
X25073772Y21714045I0J-100000D01*
G01*
X25073772Y20439045D01*
G75*
G02*
X24973772Y20339045I-100000J0D01*
G01*
X24773772Y20339045D01*
G75*
G02*
X24673772Y20439045I0J100000D01*
G01*
X24673772Y21714045D01*
G75*
G02*
X24773772Y21814045I100000J0D01*
G01*
G37*
G36*
G01*
X24123772Y21814045D02*
X24323772Y21814045D01*
G75*
G02*
X24423772Y21714045I0J-100000D01*
G01*
X24423772Y20439045D01*
G75*
G02*
X24323772Y20339045I-100000J0D01*
G01*
X24123772Y20339045D01*
G75*
G02*
X24023772Y20439045I0J100000D01*
G01*
X24023772Y21714045D01*
G75*
G02*
X24123772Y21814045I100000J0D01*
G01*
G37*
G36*
G01*
X23473772Y21814045D02*
X23673772Y21814045D01*
G75*
G02*
X23773772Y21714045I0J-100000D01*
G01*
X23773772Y20439045D01*
G75*
G02*
X23673772Y20339045I-100000J0D01*
G01*
X23473772Y20339045D01*
G75*
G02*
X23373772Y20439045I0J100000D01*
G01*
X23373772Y21714045D01*
G75*
G02*
X23473772Y21814045I100000J0D01*
G01*
G37*
G36*
G01*
X22823772Y21814045D02*
X23023772Y21814045D01*
G75*
G02*
X23123772Y21714045I0J-100000D01*
G01*
X23123772Y20439045D01*
G75*
G02*
X23023772Y20339045I-100000J0D01*
G01*
X22823772Y20339045D01*
G75*
G02*
X22723772Y20439045I0J100000D01*
G01*
X22723772Y21714045D01*
G75*
G02*
X22823772Y21814045I100000J0D01*
G01*
G37*
G36*
G01*
X22823772Y16089045D02*
X23023772Y16089045D01*
G75*
G02*
X23123772Y15989045I0J-100000D01*
G01*
X23123772Y14714045D01*
G75*
G02*
X23023772Y14614045I-100000J0D01*
G01*
X22823772Y14614045D01*
G75*
G02*
X22723772Y14714045I0J100000D01*
G01*
X22723772Y15989045D01*
G75*
G02*
X22823772Y16089045I100000J0D01*
G01*
G37*
G36*
G01*
X23473772Y16089045D02*
X23673772Y16089045D01*
G75*
G02*
X23773772Y15989045I0J-100000D01*
G01*
X23773772Y14714045D01*
G75*
G02*
X23673772Y14614045I-100000J0D01*
G01*
X23473772Y14614045D01*
G75*
G02*
X23373772Y14714045I0J100000D01*
G01*
X23373772Y15989045D01*
G75*
G02*
X23473772Y16089045I100000J0D01*
G01*
G37*
G36*
G01*
X24123772Y16089045D02*
X24323772Y16089045D01*
G75*
G02*
X24423772Y15989045I0J-100000D01*
G01*
X24423772Y14714045D01*
G75*
G02*
X24323772Y14614045I-100000J0D01*
G01*
X24123772Y14614045D01*
G75*
G02*
X24023772Y14714045I0J100000D01*
G01*
X24023772Y15989045D01*
G75*
G02*
X24123772Y16089045I100000J0D01*
G01*
G37*
G36*
G01*
X24773772Y16089045D02*
X24973772Y16089045D01*
G75*
G02*
X25073772Y15989045I0J-100000D01*
G01*
X25073772Y14714045D01*
G75*
G02*
X24973772Y14614045I-100000J0D01*
G01*
X24773772Y14614045D01*
G75*
G02*
X24673772Y14714045I0J100000D01*
G01*
X24673772Y15989045D01*
G75*
G02*
X24773772Y16089045I100000J0D01*
G01*
G37*
G36*
G01*
X25423772Y16089045D02*
X25623772Y16089045D01*
G75*
G02*
X25723772Y15989045I0J-100000D01*
G01*
X25723772Y14714045D01*
G75*
G02*
X25623772Y14614045I-100000J0D01*
G01*
X25423772Y14614045D01*
G75*
G02*
X25323772Y14714045I0J100000D01*
G01*
X25323772Y15989045D01*
G75*
G02*
X25423772Y16089045I100000J0D01*
G01*
G37*
G36*
G01*
X26073772Y16089045D02*
X26273772Y16089045D01*
G75*
G02*
X26373772Y15989045I0J-100000D01*
G01*
X26373772Y14714045D01*
G75*
G02*
X26273772Y14614045I-100000J0D01*
G01*
X26073772Y14614045D01*
G75*
G02*
X25973772Y14714045I0J100000D01*
G01*
X25973772Y15989045D01*
G75*
G02*
X26073772Y16089045I100000J0D01*
G01*
G37*
G36*
G01*
X26723772Y16089045D02*
X26923772Y16089045D01*
G75*
G02*
X27023772Y15989045I0J-100000D01*
G01*
X27023772Y14714045D01*
G75*
G02*
X26923772Y14614045I-100000J0D01*
G01*
X26723772Y14614045D01*
G75*
G02*
X26623772Y14714045I0J100000D01*
G01*
X26623772Y15989045D01*
G75*
G02*
X26723772Y16089045I100000J0D01*
G01*
G37*
G36*
G01*
X27373772Y16089045D02*
X27573772Y16089045D01*
G75*
G02*
X27673772Y15989045I0J-100000D01*
G01*
X27673772Y14714045D01*
G75*
G02*
X27573772Y14614045I-100000J0D01*
G01*
X27373772Y14614045D01*
G75*
G02*
X27273772Y14714045I0J100000D01*
G01*
X27273772Y15989045D01*
G75*
G02*
X27373772Y16089045I100000J0D01*
G01*
G37*
G36*
G01*
X28023772Y16089045D02*
X28223772Y16089045D01*
G75*
G02*
X28323772Y15989045I0J-100000D01*
G01*
X28323772Y14714045D01*
G75*
G02*
X28223772Y14614045I-100000J0D01*
G01*
X28023772Y14614045D01*
G75*
G02*
X27923772Y14714045I0J100000D01*
G01*
X27923772Y15989045D01*
G75*
G02*
X28023772Y16089045I100000J0D01*
G01*
G37*
G36*
G01*
X28673772Y16089045D02*
X28873772Y16089045D01*
G75*
G02*
X28973772Y15989045I0J-100000D01*
G01*
X28973772Y14714045D01*
G75*
G02*
X28873772Y14614045I-100000J0D01*
G01*
X28673772Y14614045D01*
G75*
G02*
X28573772Y14714045I0J100000D01*
G01*
X28573772Y15989045D01*
G75*
G02*
X28673772Y16089045I100000J0D01*
G01*
G37*
G36*
G01*
X29211754Y12277947D02*
X30111754Y12277947D01*
G75*
G02*
X30361754Y12027947I0J-250000D01*
G01*
X30361754Y11327947D01*
G75*
G02*
X30111754Y11077947I-250000J0D01*
G01*
X29211754Y11077947D01*
G75*
G02*
X28961754Y11327947I0J250000D01*
G01*
X28961754Y12027947D01*
G75*
G02*
X29211754Y12277947I250000J0D01*
G01*
G37*
G36*
G01*
X29211754Y10277947D02*
X30111754Y10277947D01*
G75*
G02*
X30361754Y10027947I0J-250000D01*
G01*
X30361754Y9327947D01*
G75*
G02*
X30111754Y9077947I-250000J0D01*
G01*
X29211754Y9077947D01*
G75*
G02*
X28961754Y9327947I0J250000D01*
G01*
X28961754Y10027947D01*
G75*
G02*
X29211754Y10277947I250000J0D01*
G01*
G37*
G36*
G01*
X115768300Y34734745D02*
X116243300Y34734745D01*
G75*
G02*
X116480800Y34497245I0J-237500D01*
G01*
X116480800Y33997245D01*
G75*
G02*
X116243300Y33759745I-237500J0D01*
G01*
X115768300Y33759745D01*
G75*
G02*
X115530800Y33997245I0J237500D01*
G01*
X115530800Y34497245D01*
G75*
G02*
X115768300Y34734745I237500J0D01*
G01*
G37*
G36*
G01*
X115768300Y32909745D02*
X116243300Y32909745D01*
G75*
G02*
X116480800Y32672245I0J-237500D01*
G01*
X116480800Y32172245D01*
G75*
G02*
X116243300Y31934745I-237500J0D01*
G01*
X115768300Y31934745D01*
G75*
G02*
X115530800Y32172245I0J237500D01*
G01*
X115530800Y32672245D01*
G75*
G02*
X115768300Y32909745I237500J0D01*
G01*
G37*
G36*
G01*
X64283872Y31934745D02*
X63808872Y31934745D01*
G75*
G02*
X63571372Y32172245I0J237500D01*
G01*
X63571372Y32672245D01*
G75*
G02*
X63808872Y32909745I237500J0D01*
G01*
X64283872Y32909745D01*
G75*
G02*
X64521372Y32672245I0J-237500D01*
G01*
X64521372Y32172245D01*
G75*
G02*
X64283872Y31934745I-237500J0D01*
G01*
G37*
G36*
G01*
X64283872Y33759745D02*
X63808872Y33759745D01*
G75*
G02*
X63571372Y33997245I0J237500D01*
G01*
X63571372Y34497245D01*
G75*
G02*
X63808872Y34734745I237500J0D01*
G01*
X64283872Y34734745D01*
G75*
G02*
X64521372Y34497245I0J-237500D01*
G01*
X64521372Y33997245D01*
G75*
G02*
X64283872Y33759745I-237500J0D01*
G01*
G37*
G36*
G01*
X74194271Y16345679D02*
X74088205Y16451745D01*
G75*
G02*
X74088205Y16557811I53033J53033D01*
G01*
X75025121Y17494727D01*
G75*
G02*
X75131187Y17494727I53033J-53033D01*
G01*
X75237253Y17388661D01*
G75*
G02*
X75237253Y17282595I-53033J-53033D01*
G01*
X74300337Y16345679D01*
G75*
G02*
X74194271Y16345679I-53033J53033D01*
G01*
G37*
G36*
G01*
X74547825Y15992126D02*
X74441759Y16098192D01*
G75*
G02*
X74441759Y16204258I53033J53033D01*
G01*
X75378675Y17141174D01*
G75*
G02*
X75484741Y17141174I53033J-53033D01*
G01*
X75590807Y17035108D01*
G75*
G02*
X75590807Y16929042I-53033J-53033D01*
G01*
X74653891Y15992126D01*
G75*
G02*
X74547825Y15992126I-53033J53033D01*
G01*
G37*
G36*
G01*
X74901378Y15638572D02*
X74795312Y15744638D01*
G75*
G02*
X74795312Y15850704I53033J53033D01*
G01*
X75732228Y16787620D01*
G75*
G02*
X75838294Y16787620I53033J-53033D01*
G01*
X75944360Y16681554D01*
G75*
G02*
X75944360Y16575488I-53033J-53033D01*
G01*
X75007444Y15638572D01*
G75*
G02*
X74901378Y15638572I-53033J53033D01*
G01*
G37*
G36*
G01*
X75254932Y15285019D02*
X75148866Y15391085D01*
G75*
G02*
X75148866Y15497151I53033J53033D01*
G01*
X76085782Y16434067D01*
G75*
G02*
X76191848Y16434067I53033J-53033D01*
G01*
X76297914Y16328001D01*
G75*
G02*
X76297914Y16221935I-53033J-53033D01*
G01*
X75360998Y15285019D01*
G75*
G02*
X75254932Y15285019I-53033J53033D01*
G01*
G37*
G36*
G01*
X75608485Y14931466D02*
X75502419Y15037532D01*
G75*
G02*
X75502419Y15143598I53033J53033D01*
G01*
X76439335Y16080514D01*
G75*
G02*
X76545401Y16080514I53033J-53033D01*
G01*
X76651467Y15974448D01*
G75*
G02*
X76651467Y15868382I-53033J-53033D01*
G01*
X75714551Y14931466D01*
G75*
G02*
X75608485Y14931466I-53033J53033D01*
G01*
G37*
G36*
G01*
X75962038Y14577912D02*
X75855972Y14683978D01*
G75*
G02*
X75855972Y14790044I53033J53033D01*
G01*
X76792888Y15726960D01*
G75*
G02*
X76898954Y15726960I53033J-53033D01*
G01*
X77005020Y15620894D01*
G75*
G02*
X77005020Y15514828I-53033J-53033D01*
G01*
X76068104Y14577912D01*
G75*
G02*
X75962038Y14577912I-53033J53033D01*
G01*
G37*
G36*
G01*
X76315592Y14224359D02*
X76209526Y14330425D01*
G75*
G02*
X76209526Y14436491I53033J53033D01*
G01*
X77146442Y15373407D01*
G75*
G02*
X77252508Y15373407I53033J-53033D01*
G01*
X77358574Y15267341D01*
G75*
G02*
X77358574Y15161275I-53033J-53033D01*
G01*
X76421658Y14224359D01*
G75*
G02*
X76315592Y14224359I-53033J53033D01*
G01*
G37*
G36*
G01*
X76669145Y13870806D02*
X76563079Y13976872D01*
G75*
G02*
X76563079Y14082938I53033J53033D01*
G01*
X77499995Y15019854D01*
G75*
G02*
X77606061Y15019854I53033J-53033D01*
G01*
X77712127Y14913788D01*
G75*
G02*
X77712127Y14807722I-53033J-53033D01*
G01*
X76775211Y13870806D01*
G75*
G02*
X76669145Y13870806I-53033J53033D01*
G01*
G37*
G36*
G01*
X77022699Y13517252D02*
X76916633Y13623318D01*
G75*
G02*
X76916633Y13729384I53033J53033D01*
G01*
X77853549Y14666300D01*
G75*
G02*
X77959615Y14666300I53033J-53033D01*
G01*
X78065681Y14560234D01*
G75*
G02*
X78065681Y14454168I-53033J-53033D01*
G01*
X77128765Y13517252D01*
G75*
G02*
X77022699Y13517252I-53033J53033D01*
G01*
G37*
G36*
G01*
X77376252Y13163699D02*
X77270186Y13269765D01*
G75*
G02*
X77270186Y13375831I53033J53033D01*
G01*
X78207102Y14312747D01*
G75*
G02*
X78313168Y14312747I53033J-53033D01*
G01*
X78419234Y14206681D01*
G75*
G02*
X78419234Y14100615I-53033J-53033D01*
G01*
X77482318Y13163699D01*
G75*
G02*
X77376252Y13163699I-53033J53033D01*
G01*
G37*
G36*
G01*
X77729805Y12810145D02*
X77623739Y12916211D01*
G75*
G02*
X77623739Y13022277I53033J53033D01*
G01*
X78560655Y13959193D01*
G75*
G02*
X78666721Y13959193I53033J-53033D01*
G01*
X78772787Y13853127D01*
G75*
G02*
X78772787Y13747061I-53033J-53033D01*
G01*
X77835871Y12810145D01*
G75*
G02*
X77729805Y12810145I-53033J53033D01*
G01*
G37*
G36*
G01*
X78083359Y12456592D02*
X77977293Y12562658D01*
G75*
G02*
X77977293Y12668724I53033J53033D01*
G01*
X78914209Y13605640D01*
G75*
G02*
X79020275Y13605640I53033J-53033D01*
G01*
X79126341Y13499574D01*
G75*
G02*
X79126341Y13393508I-53033J-53033D01*
G01*
X78189425Y12456592D01*
G75*
G02*
X78083359Y12456592I-53033J53033D01*
G01*
G37*
G36*
G01*
X78436912Y12103039D02*
X78330846Y12209105D01*
G75*
G02*
X78330846Y12315171I53033J53033D01*
G01*
X79267762Y13252087D01*
G75*
G02*
X79373828Y13252087I53033J-53033D01*
G01*
X79479894Y13146021D01*
G75*
G02*
X79479894Y13039955I-53033J-53033D01*
G01*
X78542978Y12103039D01*
G75*
G02*
X78436912Y12103039I-53033J53033D01*
G01*
G37*
G36*
G01*
X78790465Y11749485D02*
X78684399Y11855551D01*
G75*
G02*
X78684399Y11961617I53033J53033D01*
G01*
X79621315Y12898533D01*
G75*
G02*
X79727381Y12898533I53033J-53033D01*
G01*
X79833447Y12792467D01*
G75*
G02*
X79833447Y12686401I-53033J-53033D01*
G01*
X78896531Y11749485D01*
G75*
G02*
X78790465Y11749485I-53033J53033D01*
G01*
G37*
G36*
G01*
X79144019Y11395932D02*
X79037953Y11501998D01*
G75*
G02*
X79037953Y11608064I53033J53033D01*
G01*
X79974869Y12544980D01*
G75*
G02*
X80080935Y12544980I53033J-53033D01*
G01*
X80187001Y12438914D01*
G75*
G02*
X80187001Y12332848I-53033J-53033D01*
G01*
X79250085Y11395932D01*
G75*
G02*
X79144019Y11395932I-53033J53033D01*
G01*
G37*
G36*
G01*
X79497572Y11042378D02*
X79391506Y11148444D01*
G75*
G02*
X79391506Y11254510I53033J53033D01*
G01*
X80328422Y12191426D01*
G75*
G02*
X80434488Y12191426I53033J-53033D01*
G01*
X80540554Y12085360D01*
G75*
G02*
X80540554Y11979294I-53033J-53033D01*
G01*
X79603638Y11042378D01*
G75*
G02*
X79497572Y11042378I-53033J53033D01*
G01*
G37*
G36*
G01*
X83033106Y11042378D02*
X82096190Y11979294D01*
G75*
G02*
X82096190Y12085360I53033J53033D01*
G01*
X82202256Y12191426D01*
G75*
G02*
X82308322Y12191426I53033J-53033D01*
G01*
X83245238Y11254510D01*
G75*
G02*
X83245238Y11148444I-53033J-53033D01*
G01*
X83139172Y11042378D01*
G75*
G02*
X83033106Y11042378I-53033J53033D01*
G01*
G37*
G36*
G01*
X83386659Y11395932D02*
X82449743Y12332848D01*
G75*
G02*
X82449743Y12438914I53033J53033D01*
G01*
X82555809Y12544980D01*
G75*
G02*
X82661875Y12544980I53033J-53033D01*
G01*
X83598791Y11608064D01*
G75*
G02*
X83598791Y11501998I-53033J-53033D01*
G01*
X83492725Y11395932D01*
G75*
G02*
X83386659Y11395932I-53033J53033D01*
G01*
G37*
G36*
G01*
X83740213Y11749485D02*
X82803297Y12686401D01*
G75*
G02*
X82803297Y12792467I53033J53033D01*
G01*
X82909363Y12898533D01*
G75*
G02*
X83015429Y12898533I53033J-53033D01*
G01*
X83952345Y11961617D01*
G75*
G02*
X83952345Y11855551I-53033J-53033D01*
G01*
X83846279Y11749485D01*
G75*
G02*
X83740213Y11749485I-53033J53033D01*
G01*
G37*
G36*
G01*
X84093766Y12103039D02*
X83156850Y13039955D01*
G75*
G02*
X83156850Y13146021I53033J53033D01*
G01*
X83262916Y13252087D01*
G75*
G02*
X83368982Y13252087I53033J-53033D01*
G01*
X84305898Y12315171D01*
G75*
G02*
X84305898Y12209105I-53033J-53033D01*
G01*
X84199832Y12103039D01*
G75*
G02*
X84093766Y12103039I-53033J53033D01*
G01*
G37*
G36*
G01*
X84447319Y12456592D02*
X83510403Y13393508D01*
G75*
G02*
X83510403Y13499574I53033J53033D01*
G01*
X83616469Y13605640D01*
G75*
G02*
X83722535Y13605640I53033J-53033D01*
G01*
X84659451Y12668724D01*
G75*
G02*
X84659451Y12562658I-53033J-53033D01*
G01*
X84553385Y12456592D01*
G75*
G02*
X84447319Y12456592I-53033J53033D01*
G01*
G37*
G36*
G01*
X84800873Y12810145D02*
X83863957Y13747061D01*
G75*
G02*
X83863957Y13853127I53033J53033D01*
G01*
X83970023Y13959193D01*
G75*
G02*
X84076089Y13959193I53033J-53033D01*
G01*
X85013005Y13022277D01*
G75*
G02*
X85013005Y12916211I-53033J-53033D01*
G01*
X84906939Y12810145D01*
G75*
G02*
X84800873Y12810145I-53033J53033D01*
G01*
G37*
G36*
G01*
X85154426Y13163699D02*
X84217510Y14100615D01*
G75*
G02*
X84217510Y14206681I53033J53033D01*
G01*
X84323576Y14312747D01*
G75*
G02*
X84429642Y14312747I53033J-53033D01*
G01*
X85366558Y13375831D01*
G75*
G02*
X85366558Y13269765I-53033J-53033D01*
G01*
X85260492Y13163699D01*
G75*
G02*
X85154426Y13163699I-53033J53033D01*
G01*
G37*
G36*
G01*
X85507979Y13517252D02*
X84571063Y14454168D01*
G75*
G02*
X84571063Y14560234I53033J53033D01*
G01*
X84677129Y14666300D01*
G75*
G02*
X84783195Y14666300I53033J-53033D01*
G01*
X85720111Y13729384D01*
G75*
G02*
X85720111Y13623318I-53033J-53033D01*
G01*
X85614045Y13517252D01*
G75*
G02*
X85507979Y13517252I-53033J53033D01*
G01*
G37*
G36*
G01*
X85861533Y13870806D02*
X84924617Y14807722D01*
G75*
G02*
X84924617Y14913788I53033J53033D01*
G01*
X85030683Y15019854D01*
G75*
G02*
X85136749Y15019854I53033J-53033D01*
G01*
X86073665Y14082938D01*
G75*
G02*
X86073665Y13976872I-53033J-53033D01*
G01*
X85967599Y13870806D01*
G75*
G02*
X85861533Y13870806I-53033J53033D01*
G01*
G37*
G36*
G01*
X86215086Y14224359D02*
X85278170Y15161275D01*
G75*
G02*
X85278170Y15267341I53033J53033D01*
G01*
X85384236Y15373407D01*
G75*
G02*
X85490302Y15373407I53033J-53033D01*
G01*
X86427218Y14436491D01*
G75*
G02*
X86427218Y14330425I-53033J-53033D01*
G01*
X86321152Y14224359D01*
G75*
G02*
X86215086Y14224359I-53033J53033D01*
G01*
G37*
G36*
G01*
X86568640Y14577912D02*
X85631724Y15514828D01*
G75*
G02*
X85631724Y15620894I53033J53033D01*
G01*
X85737790Y15726960D01*
G75*
G02*
X85843856Y15726960I53033J-53033D01*
G01*
X86780772Y14790044D01*
G75*
G02*
X86780772Y14683978I-53033J-53033D01*
G01*
X86674706Y14577912D01*
G75*
G02*
X86568640Y14577912I-53033J53033D01*
G01*
G37*
G36*
G01*
X86922193Y14931466D02*
X85985277Y15868382D01*
G75*
G02*
X85985277Y15974448I53033J53033D01*
G01*
X86091343Y16080514D01*
G75*
G02*
X86197409Y16080514I53033J-53033D01*
G01*
X87134325Y15143598D01*
G75*
G02*
X87134325Y15037532I-53033J-53033D01*
G01*
X87028259Y14931466D01*
G75*
G02*
X86922193Y14931466I-53033J53033D01*
G01*
G37*
G36*
G01*
X87275746Y15285019D02*
X86338830Y16221935D01*
G75*
G02*
X86338830Y16328001I53033J53033D01*
G01*
X86444896Y16434067D01*
G75*
G02*
X86550962Y16434067I53033J-53033D01*
G01*
X87487878Y15497151D01*
G75*
G02*
X87487878Y15391085I-53033J-53033D01*
G01*
X87381812Y15285019D01*
G75*
G02*
X87275746Y15285019I-53033J53033D01*
G01*
G37*
G36*
G01*
X87629300Y15638572D02*
X86692384Y16575488D01*
G75*
G02*
X86692384Y16681554I53033J53033D01*
G01*
X86798450Y16787620D01*
G75*
G02*
X86904516Y16787620I53033J-53033D01*
G01*
X87841432Y15850704D01*
G75*
G02*
X87841432Y15744638I-53033J-53033D01*
G01*
X87735366Y15638572D01*
G75*
G02*
X87629300Y15638572I-53033J53033D01*
G01*
G37*
G36*
G01*
X87982853Y15992126D02*
X87045937Y16929042D01*
G75*
G02*
X87045937Y17035108I53033J53033D01*
G01*
X87152003Y17141174D01*
G75*
G02*
X87258069Y17141174I53033J-53033D01*
G01*
X88194985Y16204258D01*
G75*
G02*
X88194985Y16098192I-53033J-53033D01*
G01*
X88088919Y15992126D01*
G75*
G02*
X87982853Y15992126I-53033J53033D01*
G01*
G37*
G36*
G01*
X88336407Y16345679D02*
X87399491Y17282595D01*
G75*
G02*
X87399491Y17388661I53033J53033D01*
G01*
X87505557Y17494727D01*
G75*
G02*
X87611623Y17494727I53033J-53033D01*
G01*
X88548539Y16557811D01*
G75*
G02*
X88548539Y16451745I-53033J-53033D01*
G01*
X88442473Y16345679D01*
G75*
G02*
X88336407Y16345679I-53033J53033D01*
G01*
G37*
G36*
G01*
X87505557Y19050363D02*
X87399491Y19156429D01*
G75*
G02*
X87399491Y19262495I53033J53033D01*
G01*
X88336407Y20199411D01*
G75*
G02*
X88442473Y20199411I53033J-53033D01*
G01*
X88548539Y20093345D01*
G75*
G02*
X88548539Y19987279I-53033J-53033D01*
G01*
X87611623Y19050363D01*
G75*
G02*
X87505557Y19050363I-53033J53033D01*
G01*
G37*
G36*
G01*
X87152003Y19403916D02*
X87045937Y19509982D01*
G75*
G02*
X87045937Y19616048I53033J53033D01*
G01*
X87982853Y20552964D01*
G75*
G02*
X88088919Y20552964I53033J-53033D01*
G01*
X88194985Y20446898D01*
G75*
G02*
X88194985Y20340832I-53033J-53033D01*
G01*
X87258069Y19403916D01*
G75*
G02*
X87152003Y19403916I-53033J53033D01*
G01*
G37*
G36*
G01*
X86798450Y19757470D02*
X86692384Y19863536D01*
G75*
G02*
X86692384Y19969602I53033J53033D01*
G01*
X87629300Y20906518D01*
G75*
G02*
X87735366Y20906518I53033J-53033D01*
G01*
X87841432Y20800452D01*
G75*
G02*
X87841432Y20694386I-53033J-53033D01*
G01*
X86904516Y19757470D01*
G75*
G02*
X86798450Y19757470I-53033J53033D01*
G01*
G37*
G36*
G01*
X86444896Y20111023D02*
X86338830Y20217089D01*
G75*
G02*
X86338830Y20323155I53033J53033D01*
G01*
X87275746Y21260071D01*
G75*
G02*
X87381812Y21260071I53033J-53033D01*
G01*
X87487878Y21154005D01*
G75*
G02*
X87487878Y21047939I-53033J-53033D01*
G01*
X86550962Y20111023D01*
G75*
G02*
X86444896Y20111023I-53033J53033D01*
G01*
G37*
G36*
G01*
X86091343Y20464576D02*
X85985277Y20570642D01*
G75*
G02*
X85985277Y20676708I53033J53033D01*
G01*
X86922193Y21613624D01*
G75*
G02*
X87028259Y21613624I53033J-53033D01*
G01*
X87134325Y21507558D01*
G75*
G02*
X87134325Y21401492I-53033J-53033D01*
G01*
X86197409Y20464576D01*
G75*
G02*
X86091343Y20464576I-53033J53033D01*
G01*
G37*
G36*
G01*
X85737790Y20818130D02*
X85631724Y20924196D01*
G75*
G02*
X85631724Y21030262I53033J53033D01*
G01*
X86568640Y21967178D01*
G75*
G02*
X86674706Y21967178I53033J-53033D01*
G01*
X86780772Y21861112D01*
G75*
G02*
X86780772Y21755046I-53033J-53033D01*
G01*
X85843856Y20818130D01*
G75*
G02*
X85737790Y20818130I-53033J53033D01*
G01*
G37*
G36*
G01*
X85384236Y21171683D02*
X85278170Y21277749D01*
G75*
G02*
X85278170Y21383815I53033J53033D01*
G01*
X86215086Y22320731D01*
G75*
G02*
X86321152Y22320731I53033J-53033D01*
G01*
X86427218Y22214665D01*
G75*
G02*
X86427218Y22108599I-53033J-53033D01*
G01*
X85490302Y21171683D01*
G75*
G02*
X85384236Y21171683I-53033J53033D01*
G01*
G37*
G36*
G01*
X85030683Y21525236D02*
X84924617Y21631302D01*
G75*
G02*
X84924617Y21737368I53033J53033D01*
G01*
X85861533Y22674284D01*
G75*
G02*
X85967599Y22674284I53033J-53033D01*
G01*
X86073665Y22568218D01*
G75*
G02*
X86073665Y22462152I-53033J-53033D01*
G01*
X85136749Y21525236D01*
G75*
G02*
X85030683Y21525236I-53033J53033D01*
G01*
G37*
G36*
G01*
X84677129Y21878790D02*
X84571063Y21984856D01*
G75*
G02*
X84571063Y22090922I53033J53033D01*
G01*
X85507979Y23027838D01*
G75*
G02*
X85614045Y23027838I53033J-53033D01*
G01*
X85720111Y22921772D01*
G75*
G02*
X85720111Y22815706I-53033J-53033D01*
G01*
X84783195Y21878790D01*
G75*
G02*
X84677129Y21878790I-53033J53033D01*
G01*
G37*
G36*
G01*
X84323576Y22232343D02*
X84217510Y22338409D01*
G75*
G02*
X84217510Y22444475I53033J53033D01*
G01*
X85154426Y23381391D01*
G75*
G02*
X85260492Y23381391I53033J-53033D01*
G01*
X85366558Y23275325D01*
G75*
G02*
X85366558Y23169259I-53033J-53033D01*
G01*
X84429642Y22232343D01*
G75*
G02*
X84323576Y22232343I-53033J53033D01*
G01*
G37*
G36*
G01*
X83970023Y22585897D02*
X83863957Y22691963D01*
G75*
G02*
X83863957Y22798029I53033J53033D01*
G01*
X84800873Y23734945D01*
G75*
G02*
X84906939Y23734945I53033J-53033D01*
G01*
X85013005Y23628879D01*
G75*
G02*
X85013005Y23522813I-53033J-53033D01*
G01*
X84076089Y22585897D01*
G75*
G02*
X83970023Y22585897I-53033J53033D01*
G01*
G37*
G36*
G01*
X83616469Y22939450D02*
X83510403Y23045516D01*
G75*
G02*
X83510403Y23151582I53033J53033D01*
G01*
X84447319Y24088498D01*
G75*
G02*
X84553385Y24088498I53033J-53033D01*
G01*
X84659451Y23982432D01*
G75*
G02*
X84659451Y23876366I-53033J-53033D01*
G01*
X83722535Y22939450D01*
G75*
G02*
X83616469Y22939450I-53033J53033D01*
G01*
G37*
G36*
G01*
X83262916Y23293003D02*
X83156850Y23399069D01*
G75*
G02*
X83156850Y23505135I53033J53033D01*
G01*
X84093766Y24442051D01*
G75*
G02*
X84199832Y24442051I53033J-53033D01*
G01*
X84305898Y24335985D01*
G75*
G02*
X84305898Y24229919I-53033J-53033D01*
G01*
X83368982Y23293003D01*
G75*
G02*
X83262916Y23293003I-53033J53033D01*
G01*
G37*
G36*
G01*
X82909363Y23646557D02*
X82803297Y23752623D01*
G75*
G02*
X82803297Y23858689I53033J53033D01*
G01*
X83740213Y24795605D01*
G75*
G02*
X83846279Y24795605I53033J-53033D01*
G01*
X83952345Y24689539D01*
G75*
G02*
X83952345Y24583473I-53033J-53033D01*
G01*
X83015429Y23646557D01*
G75*
G02*
X82909363Y23646557I-53033J53033D01*
G01*
G37*
G36*
G01*
X82555809Y24000110D02*
X82449743Y24106176D01*
G75*
G02*
X82449743Y24212242I53033J53033D01*
G01*
X83386659Y25149158D01*
G75*
G02*
X83492725Y25149158I53033J-53033D01*
G01*
X83598791Y25043092D01*
G75*
G02*
X83598791Y24937026I-53033J-53033D01*
G01*
X82661875Y24000110D01*
G75*
G02*
X82555809Y24000110I-53033J53033D01*
G01*
G37*
G36*
G01*
X82202256Y24353664D02*
X82096190Y24459730D01*
G75*
G02*
X82096190Y24565796I53033J53033D01*
G01*
X83033106Y25502712D01*
G75*
G02*
X83139172Y25502712I53033J-53033D01*
G01*
X83245238Y25396646D01*
G75*
G02*
X83245238Y25290580I-53033J-53033D01*
G01*
X82308322Y24353664D01*
G75*
G02*
X82202256Y24353664I-53033J53033D01*
G01*
G37*
G36*
G01*
X80328422Y24353664D02*
X79391506Y25290580D01*
G75*
G02*
X79391506Y25396646I53033J53033D01*
G01*
X79497572Y25502712D01*
G75*
G02*
X79603638Y25502712I53033J-53033D01*
G01*
X80540554Y24565796D01*
G75*
G02*
X80540554Y24459730I-53033J-53033D01*
G01*
X80434488Y24353664D01*
G75*
G02*
X80328422Y24353664I-53033J53033D01*
G01*
G37*
G36*
G01*
X79974869Y24000110D02*
X79037953Y24937026D01*
G75*
G02*
X79037953Y25043092I53033J53033D01*
G01*
X79144019Y25149158D01*
G75*
G02*
X79250085Y25149158I53033J-53033D01*
G01*
X80187001Y24212242D01*
G75*
G02*
X80187001Y24106176I-53033J-53033D01*
G01*
X80080935Y24000110D01*
G75*
G02*
X79974869Y24000110I-53033J53033D01*
G01*
G37*
G36*
G01*
X79621315Y23646557D02*
X78684399Y24583473D01*
G75*
G02*
X78684399Y24689539I53033J53033D01*
G01*
X78790465Y24795605D01*
G75*
G02*
X78896531Y24795605I53033J-53033D01*
G01*
X79833447Y23858689D01*
G75*
G02*
X79833447Y23752623I-53033J-53033D01*
G01*
X79727381Y23646557D01*
G75*
G02*
X79621315Y23646557I-53033J53033D01*
G01*
G37*
G36*
G01*
X79267762Y23293003D02*
X78330846Y24229919D01*
G75*
G02*
X78330846Y24335985I53033J53033D01*
G01*
X78436912Y24442051D01*
G75*
G02*
X78542978Y24442051I53033J-53033D01*
G01*
X79479894Y23505135D01*
G75*
G02*
X79479894Y23399069I-53033J-53033D01*
G01*
X79373828Y23293003D01*
G75*
G02*
X79267762Y23293003I-53033J53033D01*
G01*
G37*
G36*
G01*
X78914209Y22939450D02*
X77977293Y23876366D01*
G75*
G02*
X77977293Y23982432I53033J53033D01*
G01*
X78083359Y24088498D01*
G75*
G02*
X78189425Y24088498I53033J-53033D01*
G01*
X79126341Y23151582D01*
G75*
G02*
X79126341Y23045516I-53033J-53033D01*
G01*
X79020275Y22939450D01*
G75*
G02*
X78914209Y22939450I-53033J53033D01*
G01*
G37*
G36*
G01*
X78560655Y22585897D02*
X77623739Y23522813D01*
G75*
G02*
X77623739Y23628879I53033J53033D01*
G01*
X77729805Y23734945D01*
G75*
G02*
X77835871Y23734945I53033J-53033D01*
G01*
X78772787Y22798029D01*
G75*
G02*
X78772787Y22691963I-53033J-53033D01*
G01*
X78666721Y22585897D01*
G75*
G02*
X78560655Y22585897I-53033J53033D01*
G01*
G37*
G36*
G01*
X78207102Y22232343D02*
X77270186Y23169259D01*
G75*
G02*
X77270186Y23275325I53033J53033D01*
G01*
X77376252Y23381391D01*
G75*
G02*
X77482318Y23381391I53033J-53033D01*
G01*
X78419234Y22444475D01*
G75*
G02*
X78419234Y22338409I-53033J-53033D01*
G01*
X78313168Y22232343D01*
G75*
G02*
X78207102Y22232343I-53033J53033D01*
G01*
G37*
G36*
G01*
X77853549Y21878790D02*
X76916633Y22815706D01*
G75*
G02*
X76916633Y22921772I53033J53033D01*
G01*
X77022699Y23027838D01*
G75*
G02*
X77128765Y23027838I53033J-53033D01*
G01*
X78065681Y22090922D01*
G75*
G02*
X78065681Y21984856I-53033J-53033D01*
G01*
X77959615Y21878790D01*
G75*
G02*
X77853549Y21878790I-53033J53033D01*
G01*
G37*
G36*
G01*
X77499995Y21525236D02*
X76563079Y22462152D01*
G75*
G02*
X76563079Y22568218I53033J53033D01*
G01*
X76669145Y22674284D01*
G75*
G02*
X76775211Y22674284I53033J-53033D01*
G01*
X77712127Y21737368D01*
G75*
G02*
X77712127Y21631302I-53033J-53033D01*
G01*
X77606061Y21525236D01*
G75*
G02*
X77499995Y21525236I-53033J53033D01*
G01*
G37*
G36*
G01*
X77146442Y21171683D02*
X76209526Y22108599D01*
G75*
G02*
X76209526Y22214665I53033J53033D01*
G01*
X76315592Y22320731D01*
G75*
G02*
X76421658Y22320731I53033J-53033D01*
G01*
X77358574Y21383815D01*
G75*
G02*
X77358574Y21277749I-53033J-53033D01*
G01*
X77252508Y21171683D01*
G75*
G02*
X77146442Y21171683I-53033J53033D01*
G01*
G37*
G36*
G01*
X76792888Y20818130D02*
X75855972Y21755046D01*
G75*
G02*
X75855972Y21861112I53033J53033D01*
G01*
X75962038Y21967178D01*
G75*
G02*
X76068104Y21967178I53033J-53033D01*
G01*
X77005020Y21030262D01*
G75*
G02*
X77005020Y20924196I-53033J-53033D01*
G01*
X76898954Y20818130D01*
G75*
G02*
X76792888Y20818130I-53033J53033D01*
G01*
G37*
G36*
G01*
X76439335Y20464576D02*
X75502419Y21401492D01*
G75*
G02*
X75502419Y21507558I53033J53033D01*
G01*
X75608485Y21613624D01*
G75*
G02*
X75714551Y21613624I53033J-53033D01*
G01*
X76651467Y20676708D01*
G75*
G02*
X76651467Y20570642I-53033J-53033D01*
G01*
X76545401Y20464576D01*
G75*
G02*
X76439335Y20464576I-53033J53033D01*
G01*
G37*
G36*
G01*
X76085782Y20111023D02*
X75148866Y21047939D01*
G75*
G02*
X75148866Y21154005I53033J53033D01*
G01*
X75254932Y21260071D01*
G75*
G02*
X75360998Y21260071I53033J-53033D01*
G01*
X76297914Y20323155D01*
G75*
G02*
X76297914Y20217089I-53033J-53033D01*
G01*
X76191848Y20111023D01*
G75*
G02*
X76085782Y20111023I-53033J53033D01*
G01*
G37*
G36*
G01*
X75732228Y19757470D02*
X74795312Y20694386D01*
G75*
G02*
X74795312Y20800452I53033J53033D01*
G01*
X74901378Y20906518D01*
G75*
G02*
X75007444Y20906518I53033J-53033D01*
G01*
X75944360Y19969602D01*
G75*
G02*
X75944360Y19863536I-53033J-53033D01*
G01*
X75838294Y19757470D01*
G75*
G02*
X75732228Y19757470I-53033J53033D01*
G01*
G37*
G36*
G01*
X75378675Y19403916D02*
X74441759Y20340832D01*
G75*
G02*
X74441759Y20446898I53033J53033D01*
G01*
X74547825Y20552964D01*
G75*
G02*
X74653891Y20552964I53033J-53033D01*
G01*
X75590807Y19616048D01*
G75*
G02*
X75590807Y19509982I-53033J-53033D01*
G01*
X75484741Y19403916D01*
G75*
G02*
X75378675Y19403916I-53033J53033D01*
G01*
G37*
G36*
G01*
X75025121Y19050363D02*
X74088205Y19987279D01*
G75*
G02*
X74088205Y20093345I53033J53033D01*
G01*
X74194271Y20199411D01*
G75*
G02*
X74300337Y20199411I53033J-53033D01*
G01*
X75237253Y19262495D01*
G75*
G02*
X75237253Y19156429I-53033J-53033D01*
G01*
X75131187Y19050363D01*
G75*
G02*
X75025121Y19050363I-53033J53033D01*
G01*
G37*
X127241572Y32445745D03*
G36*
G01*
X32286154Y10937947D02*
X32286154Y11687947D01*
G75*
G02*
X32511154Y11912947I225000J0D01*
G01*
X32961154Y11912947D01*
G75*
G02*
X33186154Y11687947I0J-225000D01*
G01*
X33186154Y10937947D01*
G75*
G02*
X32961154Y10712947I-225000J0D01*
G01*
X32511154Y10712947D01*
G75*
G02*
X32286154Y10937947I0J225000D01*
G01*
G37*
G36*
G01*
X35586154Y10937947D02*
X35586154Y11687947D01*
G75*
G02*
X35811154Y11912947I225000J0D01*
G01*
X36261154Y11912947D01*
G75*
G02*
X36486154Y11687947I0J-225000D01*
G01*
X36486154Y10937947D01*
G75*
G02*
X36261154Y10712947I-225000J0D01*
G01*
X35811154Y10712947D01*
G75*
G02*
X35586154Y10937947I0J225000D01*
G01*
G37*
G36*
G01*
X13173172Y26561845D02*
X13173172Y26086845D01*
G75*
G02*
X12935672Y25849345I-237500J0D01*
G01*
X12435672Y25849345D01*
G75*
G02*
X12198172Y26086845I0J237500D01*
G01*
X12198172Y26561845D01*
G75*
G02*
X12435672Y26799345I237500J0D01*
G01*
X12935672Y26799345D01*
G75*
G02*
X13173172Y26561845I0J-237500D01*
G01*
G37*
G36*
G01*
X11348172Y26561845D02*
X11348172Y26086845D01*
G75*
G02*
X11110672Y25849345I-237500J0D01*
G01*
X10610672Y25849345D01*
G75*
G02*
X10373172Y26086845I0J237500D01*
G01*
X10373172Y26561845D01*
G75*
G02*
X10610672Y26799345I237500J0D01*
G01*
X11110672Y26799345D01*
G75*
G02*
X11348172Y26561845I0J-237500D01*
G01*
G37*
G36*
G01*
X123226954Y13463147D02*
X123226954Y12363147D01*
G75*
G02*
X122976954Y12113147I-250000J0D01*
G01*
X120476954Y12113147D01*
G75*
G02*
X120226954Y12363147I0J250000D01*
G01*
X120226954Y13463147D01*
G75*
G02*
X120476954Y13713147I250000J0D01*
G01*
X122976954Y13713147D01*
G75*
G02*
X123226954Y13463147I0J-250000D01*
G01*
G37*
G36*
G01*
X118826954Y13463147D02*
X118826954Y12363147D01*
G75*
G02*
X118576954Y12113147I-250000J0D01*
G01*
X116076954Y12113147D01*
G75*
G02*
X115826954Y12363147I0J250000D01*
G01*
X115826954Y13463147D01*
G75*
G02*
X116076954Y13713147I250000J0D01*
G01*
X118576954Y13713147D01*
G75*
G02*
X118826954Y13463147I0J-250000D01*
G01*
G37*
G36*
G01*
X16920472Y27084146D02*
X17395472Y27084146D01*
G75*
G02*
X17632972Y26846646I0J-237500D01*
G01*
X17632972Y26346646D01*
G75*
G02*
X17395472Y26109146I-237500J0D01*
G01*
X16920472Y26109146D01*
G75*
G02*
X16682972Y26346646I0J237500D01*
G01*
X16682972Y26846646D01*
G75*
G02*
X16920472Y27084146I237500J0D01*
G01*
G37*
G36*
G01*
X16920472Y25259146D02*
X17395472Y25259146D01*
G75*
G02*
X17632972Y25021646I0J-237500D01*
G01*
X17632972Y24521646D01*
G75*
G02*
X17395472Y24284146I-237500J0D01*
G01*
X16920472Y24284146D01*
G75*
G02*
X16682972Y24521646I0J237500D01*
G01*
X16682972Y25021646D01*
G75*
G02*
X16920472Y25259146I237500J0D01*
G01*
G37*
G36*
G01*
X18546072Y27084146D02*
X19021072Y27084146D01*
G75*
G02*
X19258572Y26846646I0J-237500D01*
G01*
X19258572Y26346646D01*
G75*
G02*
X19021072Y26109146I-237500J0D01*
G01*
X18546072Y26109146D01*
G75*
G02*
X18308572Y26346646I0J237500D01*
G01*
X18308572Y26846646D01*
G75*
G02*
X18546072Y27084146I237500J0D01*
G01*
G37*
G36*
G01*
X18546072Y25259146D02*
X19021072Y25259146D01*
G75*
G02*
X19258572Y25021646I0J-237500D01*
G01*
X19258572Y24521646D01*
G75*
G02*
X19021072Y24284146I-237500J0D01*
G01*
X18546072Y24284146D01*
G75*
G02*
X18308572Y24521646I0J237500D01*
G01*
X18308572Y25021646D01*
G75*
G02*
X18546072Y25259146I237500J0D01*
G01*
G37*
G36*
G01*
X122447172Y25461747D02*
X122447172Y24161747D01*
G75*
G02*
X122197172Y23911747I-250000J0D01*
G01*
X121372172Y23911747D01*
G75*
G02*
X121122172Y24161747I0J250000D01*
G01*
X121122172Y25461747D01*
G75*
G02*
X121372172Y25711747I250000J0D01*
G01*
X122197172Y25711747D01*
G75*
G02*
X122447172Y25461747I0J-250000D01*
G01*
G37*
G36*
G01*
X119322172Y25461747D02*
X119322172Y24161747D01*
G75*
G02*
X119072172Y23911747I-250000J0D01*
G01*
X118247172Y23911747D01*
G75*
G02*
X117997172Y24161747I0J250000D01*
G01*
X117997172Y25461747D01*
G75*
G02*
X118247172Y25711747I250000J0D01*
G01*
X119072172Y25711747D01*
G75*
G02*
X119322172Y25461747I0J-250000D01*
G01*
G37*
G36*
G01*
X55114472Y31934745D02*
X54639472Y31934745D01*
G75*
G02*
X54401972Y32172245I0J237500D01*
G01*
X54401972Y32672245D01*
G75*
G02*
X54639472Y32909745I237500J0D01*
G01*
X55114472Y32909745D01*
G75*
G02*
X55351972Y32672245I0J-237500D01*
G01*
X55351972Y32172245D01*
G75*
G02*
X55114472Y31934745I-237500J0D01*
G01*
G37*
G36*
G01*
X55114472Y33759745D02*
X54639472Y33759745D01*
G75*
G02*
X54401972Y33997245I0J237500D01*
G01*
X54401972Y34497245D01*
G75*
G02*
X54639472Y34734745I237500J0D01*
G01*
X55114472Y34734745D01*
G75*
G02*
X55351972Y34497245I0J-237500D01*
G01*
X55351972Y33997245D01*
G75*
G02*
X55114472Y33759745I-237500J0D01*
G01*
G37*
G36*
G01*
X123189220Y27584464D02*
X120289220Y27584464D01*
G75*
G02*
X120039220Y27834464I0J250000D01*
G01*
X120039220Y28634464D01*
G75*
G02*
X120289220Y28884464I250000J0D01*
G01*
X123189220Y28884464D01*
G75*
G02*
X123439220Y28634464I0J-250000D01*
G01*
X123439220Y27834464D01*
G75*
G02*
X123189220Y27584464I-250000J0D01*
G01*
G37*
G36*
G01*
X123189220Y32034464D02*
X120289220Y32034464D01*
G75*
G02*
X120039220Y32284464I0J250000D01*
G01*
X120039220Y33084464D01*
G75*
G02*
X120289220Y33334464I250000J0D01*
G01*
X123189220Y33334464D01*
G75*
G02*
X123439220Y33084464I0J-250000D01*
G01*
X123439220Y32284464D01*
G75*
G02*
X123189220Y32034464I-250000J0D01*
G01*
G37*
G36*
G01*
X107244354Y18572545D02*
X109444354Y18572545D01*
G75*
G02*
X109594354Y18422545I0J-150000D01*
G01*
X109594354Y18122545D01*
G75*
G02*
X109444354Y17972545I-150000J0D01*
G01*
X107244354Y17972545D01*
G75*
G02*
X107094354Y18122545I0J150000D01*
G01*
X107094354Y18422545D01*
G75*
G02*
X107244354Y18572545I150000J0D01*
G01*
G37*
G36*
G01*
X107244354Y19842545D02*
X109444354Y19842545D01*
G75*
G02*
X109594354Y19692545I0J-150000D01*
G01*
X109594354Y19392545D01*
G75*
G02*
X109444354Y19242545I-150000J0D01*
G01*
X107244354Y19242545D01*
G75*
G02*
X107094354Y19392545I0J150000D01*
G01*
X107094354Y19692545D01*
G75*
G02*
X107244354Y19842545I150000J0D01*
G01*
G37*
G36*
G01*
X107244354Y21112545D02*
X109444354Y21112545D01*
G75*
G02*
X109594354Y20962545I0J-150000D01*
G01*
X109594354Y20662545D01*
G75*
G02*
X109444354Y20512545I-150000J0D01*
G01*
X107244354Y20512545D01*
G75*
G02*
X107094354Y20662545I0J150000D01*
G01*
X107094354Y20962545D01*
G75*
G02*
X107244354Y21112545I150000J0D01*
G01*
G37*
G36*
G01*
X107244354Y22382545D02*
X109444354Y22382545D01*
G75*
G02*
X109594354Y22232545I0J-150000D01*
G01*
X109594354Y21932545D01*
G75*
G02*
X109444354Y21782545I-150000J0D01*
G01*
X107244354Y21782545D01*
G75*
G02*
X107094354Y21932545I0J150000D01*
G01*
X107094354Y22232545D01*
G75*
G02*
X107244354Y22382545I150000J0D01*
G01*
G37*
G36*
G01*
X106194354Y25332545D02*
X106494354Y25332545D01*
G75*
G02*
X106644354Y25182545I0J-150000D01*
G01*
X106644354Y22982545D01*
G75*
G02*
X106494354Y22832545I-150000J0D01*
G01*
X106194354Y22832545D01*
G75*
G02*
X106044354Y22982545I0J150000D01*
G01*
X106044354Y25182545D01*
G75*
G02*
X106194354Y25332545I150000J0D01*
G01*
G37*
G36*
G01*
X104924354Y25332545D02*
X105224354Y25332545D01*
G75*
G02*
X105374354Y25182545I0J-150000D01*
G01*
X105374354Y22982545D01*
G75*
G02*
X105224354Y22832545I-150000J0D01*
G01*
X104924354Y22832545D01*
G75*
G02*
X104774354Y22982545I0J150000D01*
G01*
X104774354Y25182545D01*
G75*
G02*
X104924354Y25332545I150000J0D01*
G01*
G37*
G36*
G01*
X103654354Y25332545D02*
X103954354Y25332545D01*
G75*
G02*
X104104354Y25182545I0J-150000D01*
G01*
X104104354Y22982545D01*
G75*
G02*
X103954354Y22832545I-150000J0D01*
G01*
X103654354Y22832545D01*
G75*
G02*
X103504354Y22982545I0J150000D01*
G01*
X103504354Y25182545D01*
G75*
G02*
X103654354Y25332545I150000J0D01*
G01*
G37*
G36*
G01*
X102384354Y25332545D02*
X102684354Y25332545D01*
G75*
G02*
X102834354Y25182545I0J-150000D01*
G01*
X102834354Y22982545D01*
G75*
G02*
X102684354Y22832545I-150000J0D01*
G01*
X102384354Y22832545D01*
G75*
G02*
X102234354Y22982545I0J150000D01*
G01*
X102234354Y25182545D01*
G75*
G02*
X102384354Y25332545I150000J0D01*
G01*
G37*
G36*
G01*
X101114354Y25332545D02*
X101414354Y25332545D01*
G75*
G02*
X101564354Y25182545I0J-150000D01*
G01*
X101564354Y22982545D01*
G75*
G02*
X101414354Y22832545I-150000J0D01*
G01*
X101114354Y22832545D01*
G75*
G02*
X100964354Y22982545I0J150000D01*
G01*
X100964354Y25182545D01*
G75*
G02*
X101114354Y25332545I150000J0D01*
G01*
G37*
G36*
G01*
X99844354Y25332545D02*
X100144354Y25332545D01*
G75*
G02*
X100294354Y25182545I0J-150000D01*
G01*
X100294354Y22982545D01*
G75*
G02*
X100144354Y22832545I-150000J0D01*
G01*
X99844354Y22832545D01*
G75*
G02*
X99694354Y22982545I0J150000D01*
G01*
X99694354Y25182545D01*
G75*
G02*
X99844354Y25332545I150000J0D01*
G01*
G37*
G36*
G01*
X98574354Y25332545D02*
X98874354Y25332545D01*
G75*
G02*
X99024354Y25182545I0J-150000D01*
G01*
X99024354Y22982545D01*
G75*
G02*
X98874354Y22832545I-150000J0D01*
G01*
X98574354Y22832545D01*
G75*
G02*
X98424354Y22982545I0J150000D01*
G01*
X98424354Y25182545D01*
G75*
G02*
X98574354Y25332545I150000J0D01*
G01*
G37*
G36*
G01*
X97304354Y25332545D02*
X97604354Y25332545D01*
G75*
G02*
X97754354Y25182545I0J-150000D01*
G01*
X97754354Y22982545D01*
G75*
G02*
X97604354Y22832545I-150000J0D01*
G01*
X97304354Y22832545D01*
G75*
G02*
X97154354Y22982545I0J150000D01*
G01*
X97154354Y25182545D01*
G75*
G02*
X97304354Y25332545I150000J0D01*
G01*
G37*
G36*
G01*
X96034354Y25332545D02*
X96334354Y25332545D01*
G75*
G02*
X96484354Y25182545I0J-150000D01*
G01*
X96484354Y22982545D01*
G75*
G02*
X96334354Y22832545I-150000J0D01*
G01*
X96034354Y22832545D01*
G75*
G02*
X95884354Y22982545I0J150000D01*
G01*
X95884354Y25182545D01*
G75*
G02*
X96034354Y25332545I150000J0D01*
G01*
G37*
G36*
G01*
X93084354Y22382545D02*
X95284354Y22382545D01*
G75*
G02*
X95434354Y22232545I0J-150000D01*
G01*
X95434354Y21932545D01*
G75*
G02*
X95284354Y21782545I-150000J0D01*
G01*
X93084354Y21782545D01*
G75*
G02*
X92934354Y21932545I0J150000D01*
G01*
X92934354Y22232545D01*
G75*
G02*
X93084354Y22382545I150000J0D01*
G01*
G37*
G36*
G01*
X93084354Y21112545D02*
X95284354Y21112545D01*
G75*
G02*
X95434354Y20962545I0J-150000D01*
G01*
X95434354Y20662545D01*
G75*
G02*
X95284354Y20512545I-150000J0D01*
G01*
X93084354Y20512545D01*
G75*
G02*
X92934354Y20662545I0J150000D01*
G01*
X92934354Y20962545D01*
G75*
G02*
X93084354Y21112545I150000J0D01*
G01*
G37*
G36*
G01*
X93084354Y19842545D02*
X95284354Y19842545D01*
G75*
G02*
X95434354Y19692545I0J-150000D01*
G01*
X95434354Y19392545D01*
G75*
G02*
X95284354Y19242545I-150000J0D01*
G01*
X93084354Y19242545D01*
G75*
G02*
X92934354Y19392545I0J150000D01*
G01*
X92934354Y19692545D01*
G75*
G02*
X93084354Y19842545I150000J0D01*
G01*
G37*
G36*
G01*
X93084354Y18572545D02*
X95284354Y18572545D01*
G75*
G02*
X95434354Y18422545I0J-150000D01*
G01*
X95434354Y18122545D01*
G75*
G02*
X95284354Y17972545I-150000J0D01*
G01*
X93084354Y17972545D01*
G75*
G02*
X92934354Y18122545I0J150000D01*
G01*
X92934354Y18422545D01*
G75*
G02*
X93084354Y18572545I150000J0D01*
G01*
G37*
G36*
G01*
X93084354Y17302545D02*
X95284354Y17302545D01*
G75*
G02*
X95434354Y17152545I0J-150000D01*
G01*
X95434354Y16852545D01*
G75*
G02*
X95284354Y16702545I-150000J0D01*
G01*
X93084354Y16702545D01*
G75*
G02*
X92934354Y16852545I0J150000D01*
G01*
X92934354Y17152545D01*
G75*
G02*
X93084354Y17302545I150000J0D01*
G01*
G37*
G36*
G01*
X93084354Y16032545D02*
X95284354Y16032545D01*
G75*
G02*
X95434354Y15882545I0J-150000D01*
G01*
X95434354Y15582545D01*
G75*
G02*
X95284354Y15432545I-150000J0D01*
G01*
X93084354Y15432545D01*
G75*
G02*
X92934354Y15582545I0J150000D01*
G01*
X92934354Y15882545D01*
G75*
G02*
X93084354Y16032545I150000J0D01*
G01*
G37*
G36*
G01*
X93084354Y14762545D02*
X95284354Y14762545D01*
G75*
G02*
X95434354Y14612545I0J-150000D01*
G01*
X95434354Y14312545D01*
G75*
G02*
X95284354Y14162545I-150000J0D01*
G01*
X93084354Y14162545D01*
G75*
G02*
X92934354Y14312545I0J150000D01*
G01*
X92934354Y14612545D01*
G75*
G02*
X93084354Y14762545I150000J0D01*
G01*
G37*
G36*
G01*
X96034354Y13712545D02*
X96334354Y13712545D01*
G75*
G02*
X96484354Y13562545I0J-150000D01*
G01*
X96484354Y11362545D01*
G75*
G02*
X96334354Y11212545I-150000J0D01*
G01*
X96034354Y11212545D01*
G75*
G02*
X95884354Y11362545I0J150000D01*
G01*
X95884354Y13562545D01*
G75*
G02*
X96034354Y13712545I150000J0D01*
G01*
G37*
G36*
G01*
X97304354Y13712545D02*
X97604354Y13712545D01*
G75*
G02*
X97754354Y13562545I0J-150000D01*
G01*
X97754354Y11362545D01*
G75*
G02*
X97604354Y11212545I-150000J0D01*
G01*
X97304354Y11212545D01*
G75*
G02*
X97154354Y11362545I0J150000D01*
G01*
X97154354Y13562545D01*
G75*
G02*
X97304354Y13712545I150000J0D01*
G01*
G37*
G36*
G01*
X98574354Y13712545D02*
X98874354Y13712545D01*
G75*
G02*
X99024354Y13562545I0J-150000D01*
G01*
X99024354Y11362545D01*
G75*
G02*
X98874354Y11212545I-150000J0D01*
G01*
X98574354Y11212545D01*
G75*
G02*
X98424354Y11362545I0J150000D01*
G01*
X98424354Y13562545D01*
G75*
G02*
X98574354Y13712545I150000J0D01*
G01*
G37*
G36*
G01*
X99844354Y13712545D02*
X100144354Y13712545D01*
G75*
G02*
X100294354Y13562545I0J-150000D01*
G01*
X100294354Y11362545D01*
G75*
G02*
X100144354Y11212545I-150000J0D01*
G01*
X99844354Y11212545D01*
G75*
G02*
X99694354Y11362545I0J150000D01*
G01*
X99694354Y13562545D01*
G75*
G02*
X99844354Y13712545I150000J0D01*
G01*
G37*
G36*
G01*
X101114354Y13712545D02*
X101414354Y13712545D01*
G75*
G02*
X101564354Y13562545I0J-150000D01*
G01*
X101564354Y11362545D01*
G75*
G02*
X101414354Y11212545I-150000J0D01*
G01*
X101114354Y11212545D01*
G75*
G02*
X100964354Y11362545I0J150000D01*
G01*
X100964354Y13562545D01*
G75*
G02*
X101114354Y13712545I150000J0D01*
G01*
G37*
G36*
G01*
X102384354Y13712545D02*
X102684354Y13712545D01*
G75*
G02*
X102834354Y13562545I0J-150000D01*
G01*
X102834354Y11362545D01*
G75*
G02*
X102684354Y11212545I-150000J0D01*
G01*
X102384354Y11212545D01*
G75*
G02*
X102234354Y11362545I0J150000D01*
G01*
X102234354Y13562545D01*
G75*
G02*
X102384354Y13712545I150000J0D01*
G01*
G37*
G36*
G01*
X103654354Y13712545D02*
X103954354Y13712545D01*
G75*
G02*
X104104354Y13562545I0J-150000D01*
G01*
X104104354Y11362545D01*
G75*
G02*
X103954354Y11212545I-150000J0D01*
G01*
X103654354Y11212545D01*
G75*
G02*
X103504354Y11362545I0J150000D01*
G01*
X103504354Y13562545D01*
G75*
G02*
X103654354Y13712545I150000J0D01*
G01*
G37*
G36*
G01*
X104924354Y13712545D02*
X105224354Y13712545D01*
G75*
G02*
X105374354Y13562545I0J-150000D01*
G01*
X105374354Y11362545D01*
G75*
G02*
X105224354Y11212545I-150000J0D01*
G01*
X104924354Y11212545D01*
G75*
G02*
X104774354Y11362545I0J150000D01*
G01*
X104774354Y13562545D01*
G75*
G02*
X104924354Y13712545I150000J0D01*
G01*
G37*
G36*
G01*
X106194354Y13712545D02*
X106494354Y13712545D01*
G75*
G02*
X106644354Y13562545I0J-150000D01*
G01*
X106644354Y11362545D01*
G75*
G02*
X106494354Y11212545I-150000J0D01*
G01*
X106194354Y11212545D01*
G75*
G02*
X106044354Y11362545I0J150000D01*
G01*
X106044354Y13562545D01*
G75*
G02*
X106194354Y13712545I150000J0D01*
G01*
G37*
G36*
G01*
X107244354Y14762545D02*
X109444354Y14762545D01*
G75*
G02*
X109594354Y14612545I0J-150000D01*
G01*
X109594354Y14312545D01*
G75*
G02*
X109444354Y14162545I-150000J0D01*
G01*
X107244354Y14162545D01*
G75*
G02*
X107094354Y14312545I0J150000D01*
G01*
X107094354Y14612545D01*
G75*
G02*
X107244354Y14762545I150000J0D01*
G01*
G37*
G36*
G01*
X107244354Y16032545D02*
X109444354Y16032545D01*
G75*
G02*
X109594354Y15882545I0J-150000D01*
G01*
X109594354Y15582545D01*
G75*
G02*
X109444354Y15432545I-150000J0D01*
G01*
X107244354Y15432545D01*
G75*
G02*
X107094354Y15582545I0J150000D01*
G01*
X107094354Y15882545D01*
G75*
G02*
X107244354Y16032545I150000J0D01*
G01*
G37*
G36*
G01*
X107244354Y17302545D02*
X109444354Y17302545D01*
G75*
G02*
X109594354Y17152545I0J-150000D01*
G01*
X109594354Y16852545D01*
G75*
G02*
X109444354Y16702545I-150000J0D01*
G01*
X107244354Y16702545D01*
G75*
G02*
X107094354Y16852545I0J150000D01*
G01*
X107094354Y17152545D01*
G75*
G02*
X107244354Y17302545I150000J0D01*
G01*
G37*
G36*
G01*
X13655573Y12366723D02*
X13655573Y13466723D01*
G75*
G02*
X13905573Y13716723I250000J0D01*
G01*
X16405573Y13716723D01*
G75*
G02*
X16655573Y13466723I0J-250000D01*
G01*
X16655573Y12366723D01*
G75*
G02*
X16405573Y12116723I-250000J0D01*
G01*
X13905573Y12116723D01*
G75*
G02*
X13655573Y12366723I0J250000D01*
G01*
G37*
G36*
G01*
X18055573Y12366723D02*
X18055573Y13466723D01*
G75*
G02*
X18305573Y13716723I250000J0D01*
G01*
X20805573Y13716723D01*
G75*
G02*
X21055573Y13466723I0J-250000D01*
G01*
X21055573Y12366723D01*
G75*
G02*
X20805573Y12116723I-250000J0D01*
G01*
X18305573Y12116723D01*
G75*
G02*
X18055573Y12366723I0J250000D01*
G01*
G37*
G36*
G01*
X42135772Y21814045D02*
X42335772Y21814045D01*
G75*
G02*
X42435772Y21714045I0J-100000D01*
G01*
X42435772Y20439045D01*
G75*
G02*
X42335772Y20339045I-100000J0D01*
G01*
X42135772Y20339045D01*
G75*
G02*
X42035772Y20439045I0J100000D01*
G01*
X42035772Y21714045D01*
G75*
G02*
X42135772Y21814045I100000J0D01*
G01*
G37*
G36*
G01*
X41485772Y21814045D02*
X41685772Y21814045D01*
G75*
G02*
X41785772Y21714045I0J-100000D01*
G01*
X41785772Y20439045D01*
G75*
G02*
X41685772Y20339045I-100000J0D01*
G01*
X41485772Y20339045D01*
G75*
G02*
X41385772Y20439045I0J100000D01*
G01*
X41385772Y21714045D01*
G75*
G02*
X41485772Y21814045I100000J0D01*
G01*
G37*
G36*
G01*
X40835772Y21814045D02*
X41035772Y21814045D01*
G75*
G02*
X41135772Y21714045I0J-100000D01*
G01*
X41135772Y20439045D01*
G75*
G02*
X41035772Y20339045I-100000J0D01*
G01*
X40835772Y20339045D01*
G75*
G02*
X40735772Y20439045I0J100000D01*
G01*
X40735772Y21714045D01*
G75*
G02*
X40835772Y21814045I100000J0D01*
G01*
G37*
G36*
G01*
X40185772Y21814045D02*
X40385772Y21814045D01*
G75*
G02*
X40485772Y21714045I0J-100000D01*
G01*
X40485772Y20439045D01*
G75*
G02*
X40385772Y20339045I-100000J0D01*
G01*
X40185772Y20339045D01*
G75*
G02*
X40085772Y20439045I0J100000D01*
G01*
X40085772Y21714045D01*
G75*
G02*
X40185772Y21814045I100000J0D01*
G01*
G37*
G36*
G01*
X39535772Y21814045D02*
X39735772Y21814045D01*
G75*
G02*
X39835772Y21714045I0J-100000D01*
G01*
X39835772Y20439045D01*
G75*
G02*
X39735772Y20339045I-100000J0D01*
G01*
X39535772Y20339045D01*
G75*
G02*
X39435772Y20439045I0J100000D01*
G01*
X39435772Y21714045D01*
G75*
G02*
X39535772Y21814045I100000J0D01*
G01*
G37*
G36*
G01*
X38885772Y21814045D02*
X39085772Y21814045D01*
G75*
G02*
X39185772Y21714045I0J-100000D01*
G01*
X39185772Y20439045D01*
G75*
G02*
X39085772Y20339045I-100000J0D01*
G01*
X38885772Y20339045D01*
G75*
G02*
X38785772Y20439045I0J100000D01*
G01*
X38785772Y21714045D01*
G75*
G02*
X38885772Y21814045I100000J0D01*
G01*
G37*
G36*
G01*
X38235772Y21814045D02*
X38435772Y21814045D01*
G75*
G02*
X38535772Y21714045I0J-100000D01*
G01*
X38535772Y20439045D01*
G75*
G02*
X38435772Y20339045I-100000J0D01*
G01*
X38235772Y20339045D01*
G75*
G02*
X38135772Y20439045I0J100000D01*
G01*
X38135772Y21714045D01*
G75*
G02*
X38235772Y21814045I100000J0D01*
G01*
G37*
G36*
G01*
X37585772Y21814045D02*
X37785772Y21814045D01*
G75*
G02*
X37885772Y21714045I0J-100000D01*
G01*
X37885772Y20439045D01*
G75*
G02*
X37785772Y20339045I-100000J0D01*
G01*
X37585772Y20339045D01*
G75*
G02*
X37485772Y20439045I0J100000D01*
G01*
X37485772Y21714045D01*
G75*
G02*
X37585772Y21814045I100000J0D01*
G01*
G37*
G36*
G01*
X36935772Y21814045D02*
X37135772Y21814045D01*
G75*
G02*
X37235772Y21714045I0J-100000D01*
G01*
X37235772Y20439045D01*
G75*
G02*
X37135772Y20339045I-100000J0D01*
G01*
X36935772Y20339045D01*
G75*
G02*
X36835772Y20439045I0J100000D01*
G01*
X36835772Y21714045D01*
G75*
G02*
X36935772Y21814045I100000J0D01*
G01*
G37*
G36*
G01*
X36285772Y21814045D02*
X36485772Y21814045D01*
G75*
G02*
X36585772Y21714045I0J-100000D01*
G01*
X36585772Y20439045D01*
G75*
G02*
X36485772Y20339045I-100000J0D01*
G01*
X36285772Y20339045D01*
G75*
G02*
X36185772Y20439045I0J100000D01*
G01*
X36185772Y21714045D01*
G75*
G02*
X36285772Y21814045I100000J0D01*
G01*
G37*
G36*
G01*
X36285772Y16089045D02*
X36485772Y16089045D01*
G75*
G02*
X36585772Y15989045I0J-100000D01*
G01*
X36585772Y14714045D01*
G75*
G02*
X36485772Y14614045I-100000J0D01*
G01*
X36285772Y14614045D01*
G75*
G02*
X36185772Y14714045I0J100000D01*
G01*
X36185772Y15989045D01*
G75*
G02*
X36285772Y16089045I100000J0D01*
G01*
G37*
G36*
G01*
X36935772Y16089045D02*
X37135772Y16089045D01*
G75*
G02*
X37235772Y15989045I0J-100000D01*
G01*
X37235772Y14714045D01*
G75*
G02*
X37135772Y14614045I-100000J0D01*
G01*
X36935772Y14614045D01*
G75*
G02*
X36835772Y14714045I0J100000D01*
G01*
X36835772Y15989045D01*
G75*
G02*
X36935772Y16089045I100000J0D01*
G01*
G37*
G36*
G01*
X37585772Y16089045D02*
X37785772Y16089045D01*
G75*
G02*
X37885772Y15989045I0J-100000D01*
G01*
X37885772Y14714045D01*
G75*
G02*
X37785772Y14614045I-100000J0D01*
G01*
X37585772Y14614045D01*
G75*
G02*
X37485772Y14714045I0J100000D01*
G01*
X37485772Y15989045D01*
G75*
G02*
X37585772Y16089045I100000J0D01*
G01*
G37*
G36*
G01*
X38235772Y16089045D02*
X38435772Y16089045D01*
G75*
G02*
X38535772Y15989045I0J-100000D01*
G01*
X38535772Y14714045D01*
G75*
G02*
X38435772Y14614045I-100000J0D01*
G01*
X38235772Y14614045D01*
G75*
G02*
X38135772Y14714045I0J100000D01*
G01*
X38135772Y15989045D01*
G75*
G02*
X38235772Y16089045I100000J0D01*
G01*
G37*
G36*
G01*
X38885772Y16089045D02*
X39085772Y16089045D01*
G75*
G02*
X39185772Y15989045I0J-100000D01*
G01*
X39185772Y14714045D01*
G75*
G02*
X39085772Y14614045I-100000J0D01*
G01*
X38885772Y14614045D01*
G75*
G02*
X38785772Y14714045I0J100000D01*
G01*
X38785772Y15989045D01*
G75*
G02*
X38885772Y16089045I100000J0D01*
G01*
G37*
G36*
G01*
X39535772Y16089045D02*
X39735772Y16089045D01*
G75*
G02*
X39835772Y15989045I0J-100000D01*
G01*
X39835772Y14714045D01*
G75*
G02*
X39735772Y14614045I-100000J0D01*
G01*
X39535772Y14614045D01*
G75*
G02*
X39435772Y14714045I0J100000D01*
G01*
X39435772Y15989045D01*
G75*
G02*
X39535772Y16089045I100000J0D01*
G01*
G37*
G36*
G01*
X40185772Y16089045D02*
X40385772Y16089045D01*
G75*
G02*
X40485772Y15989045I0J-100000D01*
G01*
X40485772Y14714045D01*
G75*
G02*
X40385772Y14614045I-100000J0D01*
G01*
X40185772Y14614045D01*
G75*
G02*
X40085772Y14714045I0J100000D01*
G01*
X40085772Y15989045D01*
G75*
G02*
X40185772Y16089045I100000J0D01*
G01*
G37*
G36*
G01*
X40835772Y16089045D02*
X41035772Y16089045D01*
G75*
G02*
X41135772Y15989045I0J-100000D01*
G01*
X41135772Y14714045D01*
G75*
G02*
X41035772Y14614045I-100000J0D01*
G01*
X40835772Y14614045D01*
G75*
G02*
X40735772Y14714045I0J100000D01*
G01*
X40735772Y15989045D01*
G75*
G02*
X40835772Y16089045I100000J0D01*
G01*
G37*
G36*
G01*
X41485772Y16089045D02*
X41685772Y16089045D01*
G75*
G02*
X41785772Y15989045I0J-100000D01*
G01*
X41785772Y14714045D01*
G75*
G02*
X41685772Y14614045I-100000J0D01*
G01*
X41485772Y14614045D01*
G75*
G02*
X41385772Y14714045I0J100000D01*
G01*
X41385772Y15989045D01*
G75*
G02*
X41485772Y16089045I100000J0D01*
G01*
G37*
G36*
G01*
X42135772Y16089045D02*
X42335772Y16089045D01*
G75*
G02*
X42435772Y15989045I0J-100000D01*
G01*
X42435772Y14714045D01*
G75*
G02*
X42335772Y14614045I-100000J0D01*
G01*
X42135772Y14614045D01*
G75*
G02*
X42035772Y14714045I0J100000D01*
G01*
X42035772Y15989045D01*
G75*
G02*
X42135772Y16089045I100000J0D01*
G01*
G37*
G36*
G01*
X10373172Y24562845D02*
X10373172Y25037845D01*
G75*
G02*
X10610672Y25275345I237500J0D01*
G01*
X11110672Y25275345D01*
G75*
G02*
X11348172Y25037845I0J-237500D01*
G01*
X11348172Y24562845D01*
G75*
G02*
X11110672Y24325345I-237500J0D01*
G01*
X10610672Y24325345D01*
G75*
G02*
X10373172Y24562845I0J237500D01*
G01*
G37*
G36*
G01*
X12198172Y24562845D02*
X12198172Y25037845D01*
G75*
G02*
X12435672Y25275345I237500J0D01*
G01*
X12935672Y25275345D01*
G75*
G02*
X13173172Y25037845I0J-237500D01*
G01*
X13173172Y24562845D01*
G75*
G02*
X12935672Y24325345I-237500J0D01*
G01*
X12435672Y24325345D01*
G75*
G02*
X12198172Y24562845I0J237500D01*
G01*
G37*
G36*
G01*
X43501300Y34734745D02*
X43976300Y34734745D01*
G75*
G02*
X44213800Y34497245I0J-237500D01*
G01*
X44213800Y33997245D01*
G75*
G02*
X43976300Y33759745I-237500J0D01*
G01*
X43501300Y33759745D01*
G75*
G02*
X43263800Y33997245I0J237500D01*
G01*
X43263800Y34497245D01*
G75*
G02*
X43501300Y34734745I237500J0D01*
G01*
G37*
G36*
G01*
X43501300Y32909745D02*
X43976300Y32909745D01*
G75*
G02*
X44213800Y32672245I0J-237500D01*
G01*
X44213800Y32172245D01*
G75*
G02*
X43976300Y31934745I-237500J0D01*
G01*
X43501300Y31934745D01*
G75*
G02*
X43263800Y32172245I0J237500D01*
G01*
X43263800Y32672245D01*
G75*
G02*
X43501300Y32909745I237500J0D01*
G01*
G37*
G36*
G01*
X112025054Y12306547D02*
X112500054Y12306547D01*
G75*
G02*
X112737554Y12069047I0J-237500D01*
G01*
X112737554Y11469047D01*
G75*
G02*
X112500054Y11231547I-237500J0D01*
G01*
X112025054Y11231547D01*
G75*
G02*
X111787554Y11469047I0J237500D01*
G01*
X111787554Y12069047D01*
G75*
G02*
X112025054Y12306547I237500J0D01*
G01*
G37*
G36*
G01*
X112025054Y10581547D02*
X112500054Y10581547D01*
G75*
G02*
X112737554Y10344047I0J-237500D01*
G01*
X112737554Y9744047D01*
G75*
G02*
X112500054Y9506547I-237500J0D01*
G01*
X112025054Y9506547D01*
G75*
G02*
X111787554Y9744047I0J237500D01*
G01*
X111787554Y10344047D01*
G75*
G02*
X112025054Y10581547I237500J0D01*
G01*
G37*
G36*
G01*
X12990454Y32321747D02*
X13465454Y32321747D01*
G75*
G02*
X13702954Y32084247I0J-237500D01*
G01*
X13702954Y31584247D01*
G75*
G02*
X13465454Y31346747I-237500J0D01*
G01*
X12990454Y31346747D01*
G75*
G02*
X12752954Y31584247I0J237500D01*
G01*
X12752954Y32084247D01*
G75*
G02*
X12990454Y32321747I237500J0D01*
G01*
G37*
G36*
G01*
X12990454Y30496747D02*
X13465454Y30496747D01*
G75*
G02*
X13702954Y30259247I0J-237500D01*
G01*
X13702954Y29759247D01*
G75*
G02*
X13465454Y29521747I-237500J0D01*
G01*
X12990454Y29521747D01*
G75*
G02*
X12752954Y29759247I0J237500D01*
G01*
X12752954Y30259247D01*
G75*
G02*
X12990454Y30496747I237500J0D01*
G01*
G37*
D16*
X3111116Y38688946D03*
D17*
X3111116Y36148946D03*
G36*
G01*
X88047142Y21788259D02*
X87711266Y22124135D01*
G75*
G02*
X87711266Y22460011I167938J167938D01*
G01*
X88135530Y22884275D01*
G75*
G02*
X88471406Y22884275I167938J-167938D01*
G01*
X88807282Y22548399D01*
G75*
G02*
X88807282Y22212523I-167938J-167938D01*
G01*
X88383018Y21788259D01*
G75*
G02*
X88047142Y21788259I-167938J167938D01*
G01*
G37*
G36*
G01*
X89266902Y23008019D02*
X88931026Y23343895D01*
G75*
G02*
X88931026Y23679771I167938J167938D01*
G01*
X89355290Y24104035D01*
G75*
G02*
X89691166Y24104035I167938J-167938D01*
G01*
X90027042Y23768159D01*
G75*
G02*
X90027042Y23432283I-167938J-167938D01*
G01*
X89602778Y23008019D01*
G75*
G02*
X89266902Y23008019I-167938J167938D01*
G01*
G37*
D20*
X119552354Y17685747D03*
X119552354Y19985747D03*
D21*
X113252354Y19985747D03*
D20*
X119552354Y22285747D03*
D16*
X127241572Y15681745D03*
D17*
X127241572Y18221745D03*
X127241572Y20761745D03*
X127241572Y23301745D03*
X127241572Y25841745D03*
X127241572Y28381745D03*
G36*
G01*
X76793642Y23749735D02*
X76457766Y23413859D01*
G75*
G02*
X76121890Y23413859I-167938J167938D01*
G01*
X75697626Y23838123D01*
G75*
G02*
X75697626Y24173999I167938J167938D01*
G01*
X76033502Y24509875D01*
G75*
G02*
X76369378Y24509875I167938J-167938D01*
G01*
X76793642Y24085611D01*
G75*
G02*
X76793642Y23749735I-167938J-167938D01*
G01*
G37*
G36*
G01*
X75573882Y24969495D02*
X75238006Y24633619D01*
G75*
G02*
X74902130Y24633619I-167938J167938D01*
G01*
X74477866Y25057883D01*
G75*
G02*
X74477866Y25393759I167938J167938D01*
G01*
X74813742Y25729635D01*
G75*
G02*
X75149618Y25729635I167938J-167938D01*
G01*
X75573882Y25305371D01*
G75*
G02*
X75573882Y24969495I-167938J-167938D01*
G01*
G37*
G36*
G01*
X29862972Y15114045D02*
X29862972Y15589045D01*
G75*
G02*
X30100472Y15826545I237500J0D01*
G01*
X30700472Y15826545D01*
G75*
G02*
X30937972Y15589045I0J-237500D01*
G01*
X30937972Y15114045D01*
G75*
G02*
X30700472Y14876545I-237500J0D01*
G01*
X30100472Y14876545D01*
G75*
G02*
X29862972Y15114045I0J237500D01*
G01*
G37*
G36*
G01*
X31587972Y15114045D02*
X31587972Y15589045D01*
G75*
G02*
X31825472Y15826545I237500J0D01*
G01*
X32425472Y15826545D01*
G75*
G02*
X32662972Y15589045I0J-237500D01*
G01*
X32662972Y15114045D01*
G75*
G02*
X32425472Y14876545I-237500J0D01*
G01*
X31825472Y14876545D01*
G75*
G02*
X31587972Y15114045I0J237500D01*
G01*
G37*
D22*
X126860000Y4319445D03*
X124320000Y4319445D03*
X121780000Y4319445D03*
X119240000Y4319445D03*
X116700000Y4319445D03*
X114160000Y4319445D03*
X111620000Y4319445D03*
X109080000Y4319445D03*
X106540000Y4319445D03*
X104000000Y4319445D03*
X101460000Y4319445D03*
X98920000Y4319445D03*
X96380000Y4319445D03*
X93840000Y4319445D03*
X91300000Y4319445D03*
X88760000Y4319445D03*
X86220000Y4319445D03*
X83680000Y4319445D03*
X81140000Y4319445D03*
X78600000Y4319445D03*
X76060000Y4319445D03*
X73520000Y4319445D03*
X70980000Y4319445D03*
X68440000Y4319445D03*
X65900000Y4319445D03*
X63360000Y4319445D03*
X60820000Y4319445D03*
X58280000Y4319445D03*
X55740000Y4319445D03*
X53200000Y4319445D03*
X50660000Y4319445D03*
X48120000Y4319445D03*
X45580000Y4319445D03*
X43040000Y4319445D03*
X40500000Y4319445D03*
X37960000Y4319445D03*
X35420000Y4319445D03*
X32880000Y4319445D03*
X30340000Y4319445D03*
X27800000Y4319445D03*
X25260000Y4319445D03*
X22720000Y4319445D03*
X20180000Y4319445D03*
X17640000Y4319445D03*
X15100000Y4319445D03*
X12560000Y4319445D03*
X10020000Y4319445D03*
X7480000Y4319445D03*
X4940000Y4319445D03*
X2400000Y4319445D03*
G36*
G01*
X62281772Y35669945D02*
X62681772Y35669945D01*
G75*
G02*
X62881772Y35469945I0J-200000D01*
G01*
X62881772Y33969945D01*
G75*
G02*
X62681772Y33769945I-200000J0D01*
G01*
X62281772Y33769945D01*
G75*
G02*
X62081772Y33969945I0J200000D01*
G01*
X62081772Y35469945D01*
G75*
G02*
X62281772Y35669945I200000J0D01*
G01*
G37*
G36*
G01*
X60381772Y35669945D02*
X60781772Y35669945D01*
G75*
G02*
X60981772Y35469945I0J-200000D01*
G01*
X60981772Y33969945D01*
G75*
G02*
X60781772Y33769945I-200000J0D01*
G01*
X60381772Y33769945D01*
G75*
G02*
X60181772Y33969945I0J200000D01*
G01*
X60181772Y35469945D01*
G75*
G02*
X60381772Y35669945I200000J0D01*
G01*
G37*
G36*
G01*
X61331772Y32669945D02*
X61731772Y32669945D01*
G75*
G02*
X61931772Y32469945I0J-200000D01*
G01*
X61931772Y30969945D01*
G75*
G02*
X61731772Y30769945I-200000J0D01*
G01*
X61331772Y30769945D01*
G75*
G02*
X61131772Y30969945I0J200000D01*
G01*
X61131772Y32469945D01*
G75*
G02*
X61331772Y32669945I200000J0D01*
G01*
G37*
G36*
G01*
X55597772Y21814045D02*
X55797772Y21814045D01*
G75*
G02*
X55897772Y21714045I0J-100000D01*
G01*
X55897772Y20439045D01*
G75*
G02*
X55797772Y20339045I-100000J0D01*
G01*
X55597772Y20339045D01*
G75*
G02*
X55497772Y20439045I0J100000D01*
G01*
X55497772Y21714045D01*
G75*
G02*
X55597772Y21814045I100000J0D01*
G01*
G37*
G36*
G01*
X54947772Y21814045D02*
X55147772Y21814045D01*
G75*
G02*
X55247772Y21714045I0J-100000D01*
G01*
X55247772Y20439045D01*
G75*
G02*
X55147772Y20339045I-100000J0D01*
G01*
X54947772Y20339045D01*
G75*
G02*
X54847772Y20439045I0J100000D01*
G01*
X54847772Y21714045D01*
G75*
G02*
X54947772Y21814045I100000J0D01*
G01*
G37*
G36*
G01*
X54297772Y21814045D02*
X54497772Y21814045D01*
G75*
G02*
X54597772Y21714045I0J-100000D01*
G01*
X54597772Y20439045D01*
G75*
G02*
X54497772Y20339045I-100000J0D01*
G01*
X54297772Y20339045D01*
G75*
G02*
X54197772Y20439045I0J100000D01*
G01*
X54197772Y21714045D01*
G75*
G02*
X54297772Y21814045I100000J0D01*
G01*
G37*
G36*
G01*
X53647772Y21814045D02*
X53847772Y21814045D01*
G75*
G02*
X53947772Y21714045I0J-100000D01*
G01*
X53947772Y20439045D01*
G75*
G02*
X53847772Y20339045I-100000J0D01*
G01*
X53647772Y20339045D01*
G75*
G02*
X53547772Y20439045I0J100000D01*
G01*
X53547772Y21714045D01*
G75*
G02*
X53647772Y21814045I100000J0D01*
G01*
G37*
G36*
G01*
X52997772Y21814045D02*
X53197772Y21814045D01*
G75*
G02*
X53297772Y21714045I0J-100000D01*
G01*
X53297772Y20439045D01*
G75*
G02*
X53197772Y20339045I-100000J0D01*
G01*
X52997772Y20339045D01*
G75*
G02*
X52897772Y20439045I0J100000D01*
G01*
X52897772Y21714045D01*
G75*
G02*
X52997772Y21814045I100000J0D01*
G01*
G37*
G36*
G01*
X52347772Y21814045D02*
X52547772Y21814045D01*
G75*
G02*
X52647772Y21714045I0J-100000D01*
G01*
X52647772Y20439045D01*
G75*
G02*
X52547772Y20339045I-100000J0D01*
G01*
X52347772Y20339045D01*
G75*
G02*
X52247772Y20439045I0J100000D01*
G01*
X52247772Y21714045D01*
G75*
G02*
X52347772Y21814045I100000J0D01*
G01*
G37*
G36*
G01*
X51697772Y21814045D02*
X51897772Y21814045D01*
G75*
G02*
X51997772Y21714045I0J-100000D01*
G01*
X51997772Y20439045D01*
G75*
G02*
X51897772Y20339045I-100000J0D01*
G01*
X51697772Y20339045D01*
G75*
G02*
X51597772Y20439045I0J100000D01*
G01*
X51597772Y21714045D01*
G75*
G02*
X51697772Y21814045I100000J0D01*
G01*
G37*
G36*
G01*
X51047772Y21814045D02*
X51247772Y21814045D01*
G75*
G02*
X51347772Y21714045I0J-100000D01*
G01*
X51347772Y20439045D01*
G75*
G02*
X51247772Y20339045I-100000J0D01*
G01*
X51047772Y20339045D01*
G75*
G02*
X50947772Y20439045I0J100000D01*
G01*
X50947772Y21714045D01*
G75*
G02*
X51047772Y21814045I100000J0D01*
G01*
G37*
G36*
G01*
X50397772Y21814045D02*
X50597772Y21814045D01*
G75*
G02*
X50697772Y21714045I0J-100000D01*
G01*
X50697772Y20439045D01*
G75*
G02*
X50597772Y20339045I-100000J0D01*
G01*
X50397772Y20339045D01*
G75*
G02*
X50297772Y20439045I0J100000D01*
G01*
X50297772Y21714045D01*
G75*
G02*
X50397772Y21814045I100000J0D01*
G01*
G37*
G36*
G01*
X49747772Y21814045D02*
X49947772Y21814045D01*
G75*
G02*
X50047772Y21714045I0J-100000D01*
G01*
X50047772Y20439045D01*
G75*
G02*
X49947772Y20339045I-100000J0D01*
G01*
X49747772Y20339045D01*
G75*
G02*
X49647772Y20439045I0J100000D01*
G01*
X49647772Y21714045D01*
G75*
G02*
X49747772Y21814045I100000J0D01*
G01*
G37*
G36*
G01*
X49747772Y16089045D02*
X49947772Y16089045D01*
G75*
G02*
X50047772Y15989045I0J-100000D01*
G01*
X50047772Y14714045D01*
G75*
G02*
X49947772Y14614045I-100000J0D01*
G01*
X49747772Y14614045D01*
G75*
G02*
X49647772Y14714045I0J100000D01*
G01*
X49647772Y15989045D01*
G75*
G02*
X49747772Y16089045I100000J0D01*
G01*
G37*
G36*
G01*
X50397772Y16089045D02*
X50597772Y16089045D01*
G75*
G02*
X50697772Y15989045I0J-100000D01*
G01*
X50697772Y14714045D01*
G75*
G02*
X50597772Y14614045I-100000J0D01*
G01*
X50397772Y14614045D01*
G75*
G02*
X50297772Y14714045I0J100000D01*
G01*
X50297772Y15989045D01*
G75*
G02*
X50397772Y16089045I100000J0D01*
G01*
G37*
G36*
G01*
X51047772Y16089045D02*
X51247772Y16089045D01*
G75*
G02*
X51347772Y15989045I0J-100000D01*
G01*
X51347772Y14714045D01*
G75*
G02*
X51247772Y14614045I-100000J0D01*
G01*
X51047772Y14614045D01*
G75*
G02*
X50947772Y14714045I0J100000D01*
G01*
X50947772Y15989045D01*
G75*
G02*
X51047772Y16089045I100000J0D01*
G01*
G37*
G36*
G01*
X51697772Y16089045D02*
X51897772Y16089045D01*
G75*
G02*
X51997772Y15989045I0J-100000D01*
G01*
X51997772Y14714045D01*
G75*
G02*
X51897772Y14614045I-100000J0D01*
G01*
X51697772Y14614045D01*
G75*
G02*
X51597772Y14714045I0J100000D01*
G01*
X51597772Y15989045D01*
G75*
G02*
X51697772Y16089045I100000J0D01*
G01*
G37*
G36*
G01*
X52347772Y16089045D02*
X52547772Y16089045D01*
G75*
G02*
X52647772Y15989045I0J-100000D01*
G01*
X52647772Y14714045D01*
G75*
G02*
X52547772Y14614045I-100000J0D01*
G01*
X52347772Y14614045D01*
G75*
G02*
X52247772Y14714045I0J100000D01*
G01*
X52247772Y15989045D01*
G75*
G02*
X52347772Y16089045I100000J0D01*
G01*
G37*
G36*
G01*
X52997772Y16089045D02*
X53197772Y16089045D01*
G75*
G02*
X53297772Y15989045I0J-100000D01*
G01*
X53297772Y14714045D01*
G75*
G02*
X53197772Y14614045I-100000J0D01*
G01*
X52997772Y14614045D01*
G75*
G02*
X52897772Y14714045I0J100000D01*
G01*
X52897772Y15989045D01*
G75*
G02*
X52997772Y16089045I100000J0D01*
G01*
G37*
G36*
G01*
X53647772Y16089045D02*
X53847772Y16089045D01*
G75*
G02*
X53947772Y15989045I0J-100000D01*
G01*
X53947772Y14714045D01*
G75*
G02*
X53847772Y14614045I-100000J0D01*
G01*
X53647772Y14614045D01*
G75*
G02*
X53547772Y14714045I0J100000D01*
G01*
X53547772Y15989045D01*
G75*
G02*
X53647772Y16089045I100000J0D01*
G01*
G37*
G36*
G01*
X54297772Y16089045D02*
X54497772Y16089045D01*
G75*
G02*
X54597772Y15989045I0J-100000D01*
G01*
X54597772Y14714045D01*
G75*
G02*
X54497772Y14614045I-100000J0D01*
G01*
X54297772Y14614045D01*
G75*
G02*
X54197772Y14714045I0J100000D01*
G01*
X54197772Y15989045D01*
G75*
G02*
X54297772Y16089045I100000J0D01*
G01*
G37*
G36*
G01*
X54947772Y16089045D02*
X55147772Y16089045D01*
G75*
G02*
X55247772Y15989045I0J-100000D01*
G01*
X55247772Y14714045D01*
G75*
G02*
X55147772Y14614045I-100000J0D01*
G01*
X54947772Y14614045D01*
G75*
G02*
X54847772Y14714045I0J100000D01*
G01*
X54847772Y15989045D01*
G75*
G02*
X54947772Y16089045I100000J0D01*
G01*
G37*
G36*
G01*
X55597772Y16089045D02*
X55797772Y16089045D01*
G75*
G02*
X55897772Y15989045I0J-100000D01*
G01*
X55897772Y14714045D01*
G75*
G02*
X55797772Y14614045I-100000J0D01*
G01*
X55597772Y14614045D01*
G75*
G02*
X55497772Y14714045I0J100000D01*
G01*
X55497772Y15989045D01*
G75*
G02*
X55597772Y16089045I100000J0D01*
G01*
G37*
D16*
X126034800Y36148946D03*
D17*
X126034800Y38688946D03*
G36*
G01*
X74221722Y15404111D02*
X74557598Y15068235D01*
G75*
G02*
X74557598Y14732359I-167938J-167938D01*
G01*
X74133334Y14308095D01*
G75*
G02*
X73797458Y14308095I-167938J167938D01*
G01*
X73461582Y14643971D01*
G75*
G02*
X73461582Y14979847I167938J167938D01*
G01*
X73885846Y15404111D01*
G75*
G02*
X74221722Y15404111I167938J-167938D01*
G01*
G37*
G36*
G01*
X73001962Y14184351D02*
X73337838Y13848475D01*
G75*
G02*
X73337838Y13512599I-167938J-167938D01*
G01*
X72913574Y13088335D01*
G75*
G02*
X72577698Y13088335I-167938J167938D01*
G01*
X72241822Y13424211D01*
G75*
G02*
X72241822Y13760087I167938J167938D01*
G01*
X72666086Y14184351D01*
G75*
G02*
X73001962Y14184351I167938J-167938D01*
G01*
G37*
G36*
G01*
X86712841Y13588895D02*
X87048717Y13924771D01*
G75*
G02*
X87384593Y13924771I167938J-167938D01*
G01*
X87808857Y13500507D01*
G75*
G02*
X87808857Y13164631I-167938J-167938D01*
G01*
X87472981Y12828755D01*
G75*
G02*
X87137105Y12828755I-167938J167938D01*
G01*
X86712841Y13253019D01*
G75*
G02*
X86712841Y13588895I167938J167938D01*
G01*
G37*
G36*
G01*
X87932601Y12369135D02*
X88268477Y12705011D01*
G75*
G02*
X88604353Y12705011I167938J-167938D01*
G01*
X89028617Y12280747D01*
G75*
G02*
X89028617Y11944871I-167938J-167938D01*
G01*
X88692741Y11608995D01*
G75*
G02*
X88356865Y11608995I-167938J167938D01*
G01*
X87932601Y12033259D01*
G75*
G02*
X87932601Y12369135I167938J167938D01*
G01*
G37*
G36*
G01*
X5394772Y33320646D02*
X5394772Y33795646D01*
G75*
G02*
X5632272Y34033146I237500J0D01*
G01*
X6207272Y34033146D01*
G75*
G02*
X6444772Y33795646I0J-237500D01*
G01*
X6444772Y33320646D01*
G75*
G02*
X6207272Y33083146I-237500J0D01*
G01*
X5632272Y33083146D01*
G75*
G02*
X5394772Y33320646I0J237500D01*
G01*
G37*
G36*
G01*
X7144772Y33320646D02*
X7144772Y33795646D01*
G75*
G02*
X7382272Y34033146I237500J0D01*
G01*
X7957272Y34033146D01*
G75*
G02*
X8194772Y33795646I0J-237500D01*
G01*
X8194772Y33320646D01*
G75*
G02*
X7957272Y33083146I-237500J0D01*
G01*
X7382272Y33083146D01*
G75*
G02*
X7144772Y33320646I0J237500D01*
G01*
G37*
G36*
G01*
X43324972Y15114045D02*
X43324972Y15589045D01*
G75*
G02*
X43562472Y15826545I237500J0D01*
G01*
X44162472Y15826545D01*
G75*
G02*
X44399972Y15589045I0J-237500D01*
G01*
X44399972Y15114045D01*
G75*
G02*
X44162472Y14876545I-237500J0D01*
G01*
X43562472Y14876545D01*
G75*
G02*
X43324972Y15114045I0J237500D01*
G01*
G37*
G36*
G01*
X45049972Y15114045D02*
X45049972Y15589045D01*
G75*
G02*
X45287472Y15826545I237500J0D01*
G01*
X45887472Y15826545D01*
G75*
G02*
X46124972Y15589045I0J-237500D01*
G01*
X46124972Y15114045D01*
G75*
G02*
X45887472Y14876545I-237500J0D01*
G01*
X45287472Y14876545D01*
G75*
G02*
X45049972Y15114045I0J237500D01*
G01*
G37*
%LPD*%
M02*
