G04 #@! TF.GenerationSoftware,KiCad,Pcbnew,8.0.1+dfsg-1*
G04 #@! TF.CreationDate,2024-09-12T23:53:00+00:00*
G04 #@! TF.ProjectId,RIPPLE,52495050-4c45-42e6-9b69-6361645f7063,rev?*
G04 #@! TF.SameCoordinates,Original*
G04 #@! TF.FileFunction,Legend,Bot*
G04 #@! TF.FilePolarity,Positive*
%FSLAX46Y46*%
G04 Gerber Fmt 4.6, Leading zero omitted, Abs format (unit mm)*
G04 Created by KiCad (PCBNEW 8.0.1+dfsg-1) date 2024-09-12 23:53:00*
%MOMM*%
%LPD*%
G01*
G04 APERTURE LIST*
%ADD10C,0.127000*%
%ADD11C,0.000000*%
%ADD12C,0.100000*%
%ADD13R,1.700000X1.700000*%
%ADD14O,1.700000X1.700000*%
%ADD15C,1.700000*%
%ADD16R,1.600000X1.600000*%
%ADD17C,1.600000*%
%ADD18R,1.524000X6.754000*%
G04 APERTURE END LIST*
D10*
X7912096Y10183424D02*
X8166096Y10546281D01*
X8347525Y10183424D02*
X8347525Y10945424D01*
X8347525Y10945424D02*
X8057239Y10945424D01*
X8057239Y10945424D02*
X7984668Y10909138D01*
X7984668Y10909138D02*
X7948382Y10872852D01*
X7948382Y10872852D02*
X7912096Y10800281D01*
X7912096Y10800281D02*
X7912096Y10691424D01*
X7912096Y10691424D02*
X7948382Y10618852D01*
X7948382Y10618852D02*
X7984668Y10582567D01*
X7984668Y10582567D02*
X8057239Y10546281D01*
X8057239Y10546281D02*
X8347525Y10546281D01*
X7585525Y10582567D02*
X7331525Y10582567D01*
X7222668Y10183424D02*
X7585525Y10183424D01*
X7585525Y10183424D02*
X7585525Y10945424D01*
X7585525Y10945424D02*
X7222668Y10945424D01*
X7004953Y10945424D02*
X6750953Y10183424D01*
X6750953Y10183424D02*
X6496953Y10945424D01*
X5698668Y10401138D02*
X5335811Y10401138D01*
X5771239Y10183424D02*
X5517239Y10945424D01*
X5517239Y10945424D02*
X5263239Y10183424D01*
X5081810Y10945424D02*
X4610096Y10945424D01*
X4610096Y10945424D02*
X4864096Y10655138D01*
X4864096Y10655138D02*
X4755239Y10655138D01*
X4755239Y10655138D02*
X4682668Y10618852D01*
X4682668Y10618852D02*
X4646382Y10582567D01*
X4646382Y10582567D02*
X4610096Y10509995D01*
X4610096Y10509995D02*
X4610096Y10328567D01*
X4610096Y10328567D02*
X4646382Y10255995D01*
X4646382Y10255995D02*
X4682668Y10219709D01*
X4682668Y10219709D02*
X4755239Y10183424D01*
X4755239Y10183424D02*
X4972953Y10183424D01*
X4972953Y10183424D02*
X5045525Y10219709D01*
X5045525Y10219709D02*
X5081810Y10255995D01*
X8837381Y9718647D02*
X8837381Y9174361D01*
X8837381Y9174361D02*
X8873666Y9065504D01*
X8873666Y9065504D02*
X8946238Y8992932D01*
X8946238Y8992932D02*
X9055095Y8956647D01*
X9055095Y8956647D02*
X9127666Y8956647D01*
X8474524Y9718647D02*
X8474524Y9101790D01*
X8474524Y9101790D02*
X8438238Y9029218D01*
X8438238Y9029218D02*
X8401953Y8992932D01*
X8401953Y8992932D02*
X8329381Y8956647D01*
X8329381Y8956647D02*
X8184238Y8956647D01*
X8184238Y8956647D02*
X8111667Y8992932D01*
X8111667Y8992932D02*
X8075381Y9029218D01*
X8075381Y9029218D02*
X8039095Y9101790D01*
X8039095Y9101790D02*
X8039095Y9718647D01*
X7313381Y8956647D02*
X7676238Y8956647D01*
X7676238Y8956647D02*
X7676238Y9718647D01*
X6515096Y9646075D02*
X6478810Y9682361D01*
X6478810Y9682361D02*
X6406239Y9718647D01*
X6406239Y9718647D02*
X6224810Y9718647D01*
X6224810Y9718647D02*
X6152239Y9682361D01*
X6152239Y9682361D02*
X6115953Y9646075D01*
X6115953Y9646075D02*
X6079667Y9573504D01*
X6079667Y9573504D02*
X6079667Y9500932D01*
X6079667Y9500932D02*
X6115953Y9392075D01*
X6115953Y9392075D02*
X6551381Y8956647D01*
X6551381Y8956647D02*
X6079667Y8956647D01*
X5607953Y9718647D02*
X5535382Y9718647D01*
X5535382Y9718647D02*
X5462810Y9682361D01*
X5462810Y9682361D02*
X5426525Y9646075D01*
X5426525Y9646075D02*
X5390239Y9573504D01*
X5390239Y9573504D02*
X5353953Y9428361D01*
X5353953Y9428361D02*
X5353953Y9246932D01*
X5353953Y9246932D02*
X5390239Y9101790D01*
X5390239Y9101790D02*
X5426525Y9029218D01*
X5426525Y9029218D02*
X5462810Y8992932D01*
X5462810Y8992932D02*
X5535382Y8956647D01*
X5535382Y8956647D02*
X5607953Y8956647D01*
X5607953Y8956647D02*
X5680525Y8992932D01*
X5680525Y8992932D02*
X5716810Y9029218D01*
X5716810Y9029218D02*
X5753096Y9101790D01*
X5753096Y9101790D02*
X5789382Y9246932D01*
X5789382Y9246932D02*
X5789382Y9428361D01*
X5789382Y9428361D02*
X5753096Y9573504D01*
X5753096Y9573504D02*
X5716810Y9646075D01*
X5716810Y9646075D02*
X5680525Y9682361D01*
X5680525Y9682361D02*
X5607953Y9718647D01*
X5063668Y9646075D02*
X5027382Y9682361D01*
X5027382Y9682361D02*
X4954811Y9718647D01*
X4954811Y9718647D02*
X4773382Y9718647D01*
X4773382Y9718647D02*
X4700811Y9682361D01*
X4700811Y9682361D02*
X4664525Y9646075D01*
X4664525Y9646075D02*
X4628239Y9573504D01*
X4628239Y9573504D02*
X4628239Y9500932D01*
X4628239Y9500932D02*
X4664525Y9392075D01*
X4664525Y9392075D02*
X5099953Y8956647D01*
X5099953Y8956647D02*
X4628239Y8956647D01*
X3975097Y9464647D02*
X3975097Y8956647D01*
X4156525Y9754932D02*
X4337954Y9210647D01*
X4337954Y9210647D02*
X3866239Y9210647D01*
D11*
G36*
X8172899Y13753434D02*
G01*
X7881444Y13751884D01*
X7796178Y13826298D01*
X7768272Y13955747D01*
X7758971Y14158060D01*
X7765172Y14379752D01*
X7807030Y14480521D01*
X7895396Y14530131D01*
X8172899Y14531681D01*
X8172899Y13753434D01*
G37*
G36*
X6540440Y14513078D02*
G01*
X6569896Y14503776D01*
X6580748Y14465018D01*
X6591600Y14427811D01*
X6591600Y12646525D01*
X6580748Y12617069D01*
X6569896Y12584513D01*
X6521837Y12562809D01*
X6275340Y12562809D01*
X6219530Y12584513D01*
X6208678Y12612418D01*
X6210228Y14437113D01*
X6221080Y14469669D01*
X6231932Y14503776D01*
X6270689Y14513078D01*
X6307896Y14520829D01*
X6512535Y14520829D01*
X6540440Y14513078D01*
G37*
G36*
X10172777Y15605517D02*
G01*
X10834235Y15605517D01*
X12206417Y15605517D01*
X10834235Y13547245D01*
X12206417Y11488973D01*
X10834235Y11488973D01*
X10172777Y11488973D01*
X2619749Y11488973D01*
X1958291Y11488973D01*
X586109Y13547245D01*
X1517319Y14944059D01*
X2619749Y14944059D01*
X2627501Y14531681D01*
X3024376Y14531681D01*
X3025926Y12150431D01*
X3438304Y12150431D01*
X3436754Y14531681D01*
X3827428Y14531681D01*
X3825877Y14944059D01*
X4213450Y14944059D01*
X4213450Y12150431D01*
X4625828Y12150431D01*
X4625828Y12714738D01*
X5205638Y13874357D01*
X5205638Y12150431D01*
X5618016Y12150431D01*
X7382249Y12150431D01*
X7794627Y12150431D01*
X7789589Y12417081D01*
X7799278Y12600016D01*
X7843074Y12810856D01*
X7924852Y13021696D01*
X8079881Y13341056D01*
X8172899Y13341056D01*
X8172899Y12150431D01*
X8585277Y12150431D01*
X8585277Y14531681D01*
X8966649Y14531681D01*
X9760399Y14531681D01*
X9760399Y13753434D01*
X9363524Y13753434D01*
X9363524Y13341056D01*
X9760399Y13341056D01*
X9760399Y12150431D01*
X10172777Y12153532D01*
X10172777Y14944059D01*
X8966649Y14944059D01*
X8966649Y14531681D01*
X8585277Y14531681D01*
X8585277Y14944059D01*
X7788426Y14944059D01*
X7593089Y14840189D01*
X7447362Y14680509D01*
X7382249Y14429362D01*
X7383800Y13871256D01*
X7405504Y13793742D01*
X7445811Y13640263D01*
X7538441Y13478257D01*
X7661302Y13358109D01*
X7590376Y13189902D01*
X7489220Y12955033D01*
X7405504Y12787601D01*
X7382249Y12606217D01*
X7382249Y12150431D01*
X5618016Y12150431D01*
X5618016Y12610868D01*
X5800950Y12610868D01*
X5830406Y12525602D01*
X5950166Y12290733D01*
X6107909Y12162833D01*
X6676866Y12162833D01*
X6791200Y12233372D01*
X6886156Y12336466D01*
X6958244Y12479093D01*
X7003978Y12626371D01*
X7003978Y14471220D01*
X6985374Y14606870D01*
X6929564Y14768876D01*
X6813292Y14894450D01*
X6710972Y14944059D01*
X6129613Y14944059D01*
X6013341Y14899100D01*
X5864513Y14711515D01*
X5800950Y14482072D01*
X5800950Y12610868D01*
X5618016Y12610868D01*
X5618016Y14944059D01*
X5303306Y14944059D01*
X4625828Y13567399D01*
X4625828Y14944059D01*
X4213450Y14944059D01*
X3825877Y14944059D01*
X2619749Y14944059D01*
X1517319Y14944059D01*
X1958291Y15605517D01*
X2619749Y15605517D01*
X10172777Y15605517D01*
G37*
G36*
X5508766Y18176232D02*
G01*
X5307081Y18176232D01*
X5307081Y18379445D01*
X5508766Y18379445D01*
X5508766Y18176232D01*
G37*
G36*
X8048154Y17590278D02*
G01*
X7453797Y17589514D01*
X7453797Y17792727D01*
X8048154Y17793491D01*
X8048154Y17590278D01*
G37*
G36*
X10310283Y19578897D02*
G01*
X9711604Y19578128D01*
X9711604Y19782817D01*
X10310283Y19783587D01*
X10310283Y19578897D01*
G37*
G36*
X12535630Y18176232D02*
G01*
X12333946Y18176232D01*
X12333946Y18379445D01*
X12535630Y18379445D01*
X12535630Y18176232D01*
G37*
G36*
X14782159Y22162115D02*
G01*
X14577521Y22162115D01*
X14577521Y22368304D01*
X14782159Y22368304D01*
X14782159Y22162115D01*
G37*
G36*
X16636545Y17590278D02*
G01*
X16042187Y17589514D01*
X16042187Y17792727D01*
X16636545Y17793491D01*
X16636545Y17590278D01*
G37*
G36*
X13455272Y19912095D02*
G01*
X13455272Y19775122D01*
X13259047Y19775122D01*
X13259047Y18987144D01*
X13054357Y18987144D01*
X13054357Y20373801D01*
X13222880Y20373801D01*
X13455272Y19912095D01*
G37*
G36*
X11809473Y22162115D02*
G01*
X11614136Y22162115D01*
X11614911Y20971490D01*
X11408722Y20971490D01*
X11407947Y22162115D01*
X11209509Y22162115D01*
X11205633Y22368304D01*
X11808697Y22368304D01*
X11809473Y22162115D01*
G37*
G36*
X3947240Y17289280D02*
G01*
X3939601Y17190729D01*
X3895970Y17104742D01*
X3838419Y17042352D01*
X3766947Y17003560D01*
X3653117Y17006616D01*
X3653117Y17209064D01*
X3745556Y17206009D01*
X3745556Y18379445D01*
X3948768Y18379445D01*
X3947240Y17289280D01*
G37*
G36*
X4728003Y17289280D02*
G01*
X4720363Y17190729D01*
X4676733Y17104742D01*
X4619182Y17042352D01*
X4547709Y17003560D01*
X4433880Y17006616D01*
X4433880Y17209064D01*
X4526319Y17206009D01*
X4526319Y18379445D01*
X4729531Y18379445D01*
X4728003Y17289280D01*
G37*
G36*
X5508766Y17289280D02*
G01*
X5501126Y17190729D01*
X5457496Y17104742D01*
X5399944Y17042352D01*
X5328472Y17003560D01*
X5214643Y17006616D01*
X5214643Y17209064D01*
X5307081Y17206009D01*
X5307081Y17988299D01*
X5508766Y17988299D01*
X5508766Y17289280D01*
G37*
G36*
X11171205Y17785087D02*
G01*
X10783116Y17785087D01*
X11174261Y17203717D01*
X11174261Y17002796D01*
X10579140Y17002796D01*
X10579140Y17206009D01*
X10964937Y17206009D01*
X10579140Y17785087D01*
X10579140Y17986007D01*
X11173497Y17986007D01*
X11171205Y17785087D01*
G37*
G36*
X12535630Y17289280D02*
G01*
X12527991Y17190729D01*
X12484360Y17104742D01*
X12426809Y17042352D01*
X12355337Y17003560D01*
X12241507Y17006616D01*
X12241507Y17209064D01*
X12333946Y17206009D01*
X12333946Y17988299D01*
X12535630Y17988299D01*
X12535630Y17289280D01*
G37*
G36*
X13197760Y21262170D02*
G01*
X13190008Y21162176D01*
X13145739Y21074929D01*
X13087345Y21011626D01*
X13014825Y20972266D01*
X12899329Y20975366D01*
X12899329Y21180780D01*
X12993121Y21177679D01*
X12993121Y22368304D01*
X13199310Y22368304D01*
X13197760Y21262170D01*
G37*
G36*
X14782159Y21262170D02*
G01*
X14774408Y21162176D01*
X14730138Y21074929D01*
X14671744Y21011626D01*
X14599225Y20972266D01*
X14483728Y20975366D01*
X14483728Y21180780D01*
X14577521Y21177679D01*
X14577521Y21971429D01*
X14782159Y21971429D01*
X14782159Y21262170D01*
G37*
G36*
X14136289Y19795130D02*
G01*
X14136289Y20373801D01*
X14340978Y20373801D01*
X14340978Y18987144D01*
X14136289Y18987144D01*
X14136289Y19565815D01*
X13846953Y18987144D01*
X13641494Y18987144D01*
X13984695Y19687398D01*
X13641494Y20373801D01*
X13846953Y20373801D01*
X14136289Y19795130D01*
G37*
G36*
X14829025Y17894333D02*
G01*
X15068908Y18379445D01*
X15172806Y18379445D01*
X15172806Y17002796D01*
X14969593Y17002796D01*
X14969593Y17772864D01*
X14823678Y17486380D01*
X14683874Y17772100D01*
X14683874Y17002796D01*
X14480662Y17002796D01*
X14480662Y18379445D01*
X14584560Y18379445D01*
X14829025Y17894333D01*
G37*
G36*
X1802052Y17002796D02*
G01*
X1598840Y17002796D01*
X1598840Y17386302D01*
X1310829Y17002796D01*
X1207695Y17002796D01*
X1207695Y17203717D01*
X1420075Y17494784D01*
X1207695Y17787379D01*
X1207695Y17988299D01*
X1310829Y17988299D01*
X1598840Y17604793D01*
X1598840Y18379445D01*
X1802052Y18379445D01*
X1802052Y17002796D01*
G37*
G36*
X8644549Y20971490D02*
G01*
X8438360Y20971490D01*
X8438360Y21360614D01*
X8146130Y20971490D01*
X8041485Y20971490D01*
X8041485Y21175354D01*
X8256976Y21470685D01*
X8041485Y21767566D01*
X8041485Y21971429D01*
X8146130Y21971429D01*
X8438360Y21582306D01*
X8438360Y22368304D01*
X8644549Y22368304D01*
X8644549Y20971490D01*
G37*
G36*
X9435199Y20973041D02*
G01*
X9229010Y20973041D01*
X9229010Y21765240D01*
X9129016Y21765240D01*
X9056152Y21731134D01*
X9046850Y21697028D01*
X9038324Y21666022D01*
X9039099Y20972266D01*
X8832910Y20972266D01*
X8832910Y21724933D01*
X8854227Y21796440D01*
X8918176Y21913293D01*
X9034448Y21971429D01*
X9436749Y21971429D01*
X9435199Y20973041D01*
G37*
G36*
X7164524Y18987144D02*
G01*
X6958295Y18988683D01*
X6958295Y19775122D01*
X6859029Y19775122D01*
X6785925Y19742033D01*
X6777461Y19708944D01*
X6768996Y19677394D01*
X6770535Y19578128D01*
X6565845Y19578128D01*
X6565076Y19735108D01*
X6600473Y19843609D01*
X6651453Y19919213D01*
X6722825Y19964422D01*
X6765148Y19979812D01*
X7163755Y19979812D01*
X7164524Y18987144D01*
G37*
G36*
X18978833Y17002796D02*
G01*
X18774093Y17004324D01*
X18774093Y17785087D01*
X18675543Y17785087D01*
X18602967Y17752237D01*
X18594563Y17719387D01*
X18586160Y17688065D01*
X18587688Y17589514D01*
X18384475Y17589514D01*
X18383711Y17745361D01*
X18418853Y17853079D01*
X18469465Y17928138D01*
X18540322Y17973020D01*
X18582340Y17988299D01*
X18978069Y17988299D01*
X18978833Y17002796D01*
G37*
G36*
X2384187Y17982188D02*
G01*
X2450651Y17975312D01*
X2516351Y17934822D01*
X2566199Y17865111D01*
X2582815Y17788907D01*
X2582815Y17202189D01*
X2564862Y17138780D01*
X2511003Y17063149D01*
X2446067Y17027243D01*
X2381895Y17006616D01*
X2086244Y17002796D01*
X2086244Y17206009D01*
X2378075Y17207536D01*
X2378075Y17785087D01*
X2086244Y17785087D01*
X2086244Y17988299D01*
X2384187Y17982188D01*
G37*
G36*
X7750891Y19973656D02*
G01*
X7817839Y19966730D01*
X7884017Y19925946D01*
X7934227Y19855728D01*
X7950964Y19778970D01*
X7950964Y19187986D01*
X7932880Y19124116D01*
X7878630Y19047935D01*
X7813222Y19011768D01*
X7748583Y18990991D01*
X7450782Y18987144D01*
X7450782Y19191833D01*
X7744735Y19193372D01*
X7744735Y19775122D01*
X7450782Y19775122D01*
X7450782Y19979812D01*
X7750891Y19973656D01*
G37*
G36*
X11020373Y20972266D02*
G01*
X10814184Y20972266D01*
X10814184Y21765240D01*
X10714191Y21765240D01*
X10640552Y21731134D01*
X10632025Y21697803D01*
X10623498Y21666022D01*
X10624274Y20971490D01*
X10418085Y20971490D01*
X10418085Y21724158D01*
X10451416Y21821826D01*
X10503351Y21913293D01*
X10619623Y21971429D01*
X10814184Y21971429D01*
X10814184Y22368304D01*
X11020373Y22368304D01*
X11020373Y20972266D01*
G37*
G36*
X11981660Y19609678D02*
G01*
X11981660Y19381133D01*
X11586131Y19381133D01*
X11585362Y18987144D01*
X11382980Y18987144D01*
X11382980Y19381133D01*
X11284483Y19381133D01*
X11284483Y19585823D01*
X11382980Y19585823D01*
X11382980Y19959805D01*
X11587670Y19959805D01*
X11587670Y19585823D01*
X11774661Y19585823D01*
X11587670Y19959805D01*
X11382980Y19959805D01*
X11382980Y20373801D01*
X11596904Y20374571D01*
X11981660Y19609678D01*
G37*
G36*
X15572809Y21965228D02*
G01*
X15640246Y21958252D01*
X15706909Y21917169D01*
X15757487Y21846437D01*
X15774347Y21769116D01*
X15774347Y21173804D01*
X15756131Y21109466D01*
X15701483Y21032727D01*
X15635596Y20996295D01*
X15570483Y20975366D01*
X15270502Y20971490D01*
X15270502Y21177679D01*
X15566608Y21179230D01*
X15566608Y21765240D01*
X15270502Y21765240D01*
X15270502Y21971429D01*
X15572809Y21965228D01*
G37*
G36*
X17952076Y17600210D02*
G01*
X18191959Y17988299D01*
X18294329Y17988299D01*
X18295093Y17788143D01*
X18112507Y17500132D01*
X18295093Y17202953D01*
X18294329Y17002796D01*
X18191959Y17002796D01*
X17952840Y17390886D01*
X17707611Y17002796D01*
X17603713Y17002796D01*
X17603713Y17203717D01*
X17798521Y17494784D01*
X17603713Y17787379D01*
X17603713Y17988299D01*
X17707611Y17988299D01*
X17952076Y17600210D01*
G37*
G36*
X4552036Y19745111D02*
G01*
X4700552Y19979812D01*
X4903703Y19979812D01*
X4903703Y18987144D01*
X4699013Y18987144D01*
X4699013Y19565815D01*
X4606672Y19381133D01*
X4503557Y19381133D01*
X4411216Y19565815D01*
X4411216Y18987144D01*
X4206526Y18987144D01*
X4206526Y19732030D01*
X4214606Y19790705D01*
X4238846Y19871311D01*
X4284632Y19929601D01*
X4341960Y19979812D01*
X4409677Y19979812D01*
X4552036Y19745111D01*
G37*
G36*
X13311093Y18343586D02*
G01*
X13370061Y18272682D01*
X13405442Y18172842D01*
X13417235Y18044068D01*
X13415707Y17988299D01*
X13510438Y17988299D01*
X13510438Y17785087D01*
X13415707Y17785087D01*
X13415707Y17002796D01*
X13212495Y17002796D01*
X13212495Y17785087D01*
X13016922Y17785087D01*
X13016922Y17988299D01*
X13212495Y17988299D01*
X13212495Y18176232D01*
X13016922Y18176232D01*
X13016922Y18379445D01*
X13228538Y18385556D01*
X13311093Y18343586D01*
G37*
G36*
X6168732Y21971429D02*
G01*
X6267950Y21971429D01*
X6267950Y21765240D01*
X6168732Y21765240D01*
X6168732Y21273798D01*
X6156911Y21160432D01*
X6121448Y21071484D01*
X6056335Y21004047D01*
X6009827Y20986993D01*
X5966418Y20971490D01*
X5764105Y20971490D01*
X5764105Y21177679D01*
X5962543Y21177679D01*
X5962543Y21765240D01*
X5764105Y21765240D01*
X5764105Y21971429D01*
X5962543Y21971429D01*
X5962543Y22368304D01*
X6168732Y22368304D01*
X6168732Y21971429D01*
G37*
G36*
X11854182Y17988299D02*
G01*
X11951968Y17988299D01*
X11951968Y17785087D01*
X11854182Y17785087D01*
X11854182Y17300739D01*
X11842532Y17189011D01*
X11807581Y17101347D01*
X11743408Y17034882D01*
X11697571Y17018075D01*
X11654789Y17002796D01*
X11455397Y17002796D01*
X11455397Y17206009D01*
X11650970Y17206009D01*
X11650970Y17785087D01*
X11455397Y17785087D01*
X11455397Y17988299D01*
X11650970Y17988299D01*
X11650970Y18379445D01*
X11854182Y18379445D01*
X11854182Y17988299D01*
G37*
G36*
X15716863Y19979812D02*
G01*
X15815360Y19979812D01*
X15815360Y19775122D01*
X15716863Y19775122D01*
X15716863Y19287253D01*
X15705128Y19174712D01*
X15669923Y19086410D01*
X15605284Y19019463D01*
X15559113Y19002534D01*
X15516021Y18987144D01*
X15315179Y18987144D01*
X15315179Y19191833D01*
X15512173Y19191833D01*
X15512173Y19775122D01*
X15315179Y19775122D01*
X15315179Y19979812D01*
X15512173Y19979812D01*
X15512173Y20373801D01*
X15716863Y20373801D01*
X15716863Y19979812D01*
G37*
G36*
X14634162Y19232617D02*
G01*
X14648013Y19203376D01*
X14661095Y19198759D01*
X14673407Y19194142D01*
X14784216Y19194142D01*
X14799607Y19198759D01*
X14815766Y19203376D01*
X14822692Y20373801D01*
X15030460Y20373801D01*
X15029690Y19274940D01*
X15017378Y19178559D01*
X14980442Y19077176D01*
X14905030Y19012537D01*
X14866554Y19000225D01*
X14830387Y18989452D01*
X14633392Y18989452D01*
X14551055Y19013307D01*
X14472565Y19079485D01*
X14441977Y19172980D01*
X14431781Y19274940D01*
X14431781Y20373801D01*
X14634931Y20373801D01*
X14634162Y19232617D01*
G37*
G36*
X17780690Y19979812D02*
G01*
X17973837Y19979812D01*
X18090033Y19922099D01*
X18144668Y19831297D01*
X18175449Y19716639D01*
X18175449Y19242621D01*
X18143129Y19117960D01*
X18070795Y19038701D01*
X17973837Y18987144D01*
X17576000Y18987144D01*
X17576000Y19191833D01*
X17780690Y19191833D01*
X17918432Y19192603D01*
X17985380Y19228000D01*
X17985380Y19674316D01*
X17976915Y19705097D01*
X17968451Y19738955D01*
X17926897Y19779739D01*
X17780690Y19775122D01*
X17780690Y19191833D01*
X17576000Y19191833D01*
X17576000Y20373801D01*
X17780690Y20373801D01*
X17780690Y19979812D01*
G37*
G36*
X6487393Y17002796D02*
G01*
X6284181Y17002796D01*
X6284181Y17589514D01*
X6092428Y17589514D01*
X5978598Y17646811D01*
X5923594Y17744597D01*
X5893035Y17850787D01*
X5892640Y17992883D01*
X6077913Y17992883D01*
X6082878Y17892614D01*
X6097775Y17828632D01*
X6140557Y17791963D01*
X6284181Y17792727D01*
X6284181Y18176232D01*
X6147433Y18175468D01*
X6103887Y18151022D01*
X6080968Y18101365D01*
X6077913Y17992883D01*
X5892640Y17992883D01*
X5892271Y18125811D01*
X5924358Y18249572D01*
X5996169Y18328260D01*
X6092428Y18379445D01*
X6487393Y18379445D01*
X6487393Y17002796D01*
G37*
G36*
X17359521Y20773828D02*
G01*
X17153332Y20773828D01*
X17153332Y21169928D01*
X16958771Y21169928D01*
X16841724Y21228064D01*
X16786688Y21319531D01*
X16755682Y21435028D01*
X16755706Y21477661D01*
X16947143Y21477661D01*
X16955670Y21446655D01*
X16964197Y21412549D01*
X17006055Y21371466D01*
X17153332Y21376117D01*
X17153332Y21765240D01*
X17015356Y21764465D01*
X16947919Y21728809D01*
X16947143Y21477661D01*
X16755706Y21477661D01*
X16755768Y21585923D01*
X16756027Y21678941D01*
X16756457Y21714081D01*
X16789014Y21839654D01*
X16861102Y21919495D01*
X16958771Y21971429D01*
X17359521Y21971429D01*
X17359521Y20773828D01*
G37*
G36*
X20541122Y16807988D02*
G01*
X20337910Y16807988D01*
X20337910Y17198369D01*
X20146157Y17198369D01*
X20030800Y17255666D01*
X19976559Y17345812D01*
X19946001Y17459642D01*
X19946025Y17501659D01*
X20134698Y17501659D01*
X20143101Y17471101D01*
X20151505Y17437487D01*
X20192759Y17396998D01*
X20337910Y17401581D01*
X20337910Y17785087D01*
X20201926Y17784323D01*
X20135462Y17749181D01*
X20134698Y17501659D01*
X19946025Y17501659D01*
X19946086Y17608359D01*
X19946340Y17700033D01*
X19946765Y17734666D01*
X19978851Y17858427D01*
X20049899Y17937114D01*
X20146157Y17988299D01*
X20541122Y17988299D01*
X20541122Y16807988D01*
G37*
G36*
X3248985Y17954685D02*
G01*
X3314685Y17889749D01*
X3349636Y17792727D01*
X3361286Y17701816D01*
X3361286Y17286224D01*
X3337603Y17185382D01*
X3295586Y17105930D01*
X3238289Y17040230D01*
X3152726Y17004324D01*
X2962501Y17004324D01*
X2854699Y17073420D01*
X2790017Y17160511D01*
X2768456Y17265597D01*
X2769220Y17713275D01*
X2779013Y17785087D01*
X2970905Y17785087D01*
X2972433Y17206009D01*
X3160366Y17206009D01*
X3158838Y17785087D01*
X2970905Y17785087D01*
X2779013Y17785087D01*
X2782972Y17814117D01*
X2828427Y17890131D01*
X2888397Y17949337D01*
X2985420Y17988299D01*
X3163422Y17988299D01*
X3248985Y17954685D01*
G37*
G36*
X3903339Y19945954D02*
G01*
X3969517Y19880545D01*
X4004722Y19782817D01*
X4016457Y19691246D01*
X4016457Y19272632D01*
X3992602Y19171057D01*
X3950279Y19091027D01*
X3892566Y19024850D01*
X3806381Y18988683D01*
X3614773Y18988683D01*
X3506186Y19058281D01*
X3441034Y19146005D01*
X3419317Y19251855D01*
X3420087Y19702788D01*
X3429951Y19775122D01*
X3623237Y19775122D01*
X3624776Y19191833D01*
X3814076Y19191833D01*
X3812537Y19775122D01*
X3623237Y19775122D01*
X3429951Y19775122D01*
X3433938Y19804364D01*
X3479724Y19880930D01*
X3540130Y19940567D01*
X3637858Y19979812D01*
X3817154Y19979812D01*
X3903339Y19945954D01*
G37*
G36*
X5359479Y21937323D02*
G01*
X5426141Y21871435D01*
X5461604Y21772992D01*
X5473425Y21680749D01*
X5473425Y21259070D01*
X5449396Y21156750D01*
X5406763Y21076135D01*
X5348627Y21009473D01*
X5261810Y20973041D01*
X5068799Y20973041D01*
X4959417Y21043148D01*
X4893788Y21131515D01*
X4871912Y21238141D01*
X4872687Y21692377D01*
X4882622Y21765240D01*
X5077325Y21765240D01*
X5078876Y21177679D01*
X5269562Y21177679D01*
X5268011Y21765240D01*
X5077325Y21765240D01*
X4882622Y21765240D01*
X4886639Y21794696D01*
X4932761Y21871823D01*
X4993610Y21931897D01*
X5092053Y21971429D01*
X5272662Y21971429D01*
X5359479Y21937323D01*
G37*
G36*
X5488531Y19928255D02*
G01*
X5549130Y19843224D01*
X5583180Y19758963D01*
X5590106Y19662004D01*
X5590106Y19271093D01*
X5573946Y19204146D01*
X5536582Y19115224D01*
X5471687Y19043403D01*
X5379260Y18988683D01*
X5091463Y18988683D01*
X5091463Y19193372D01*
X5385416Y19193372D01*
X5385416Y19381902D01*
X4992196Y19381902D01*
X4992966Y19585053D01*
X4996621Y19693554D01*
X5006048Y19766658D01*
X5009179Y19775122D01*
X5196117Y19775122D01*
X5196117Y19587362D01*
X5385416Y19586592D01*
X5385416Y19775122D01*
X5196117Y19775122D01*
X5009179Y19775122D01*
X5037213Y19850919D01*
X5089155Y19928255D01*
X5181496Y19979812D01*
X5390033Y19979812D01*
X5488531Y19928255D01*
G37*
G36*
X6274970Y19928255D02*
G01*
X6335569Y19843224D01*
X6369620Y19758963D01*
X6376546Y19662004D01*
X6376546Y19271093D01*
X6360386Y19204146D01*
X6323022Y19115224D01*
X6258127Y19043403D01*
X6165700Y18988683D01*
X5877903Y18988683D01*
X5877903Y19193372D01*
X6171856Y19193372D01*
X6171856Y19381902D01*
X5778636Y19381902D01*
X5779406Y19585053D01*
X5783061Y19693554D01*
X5792487Y19766658D01*
X5795618Y19775122D01*
X5982556Y19775122D01*
X5982556Y19587362D01*
X6171856Y19586592D01*
X6171856Y19775122D01*
X5982556Y19775122D01*
X5795618Y19775122D01*
X5823652Y19850919D01*
X5875594Y19928255D01*
X5967936Y19979812D01*
X6176473Y19979812D01*
X6274970Y19928255D01*
G37*
G36*
X9507310Y17937114D02*
G01*
X9567471Y17852697D01*
X9601276Y17769044D01*
X9608152Y17672786D01*
X9608152Y17284696D01*
X9592109Y17218232D01*
X9555015Y17129953D01*
X9490588Y17058650D01*
X9398828Y17004324D01*
X9113109Y17004324D01*
X9113109Y17207536D01*
X9404940Y17207536D01*
X9404940Y17394706D01*
X9014558Y17394706D01*
X9015322Y17596390D01*
X9018951Y17704108D01*
X9028310Y17776684D01*
X9031418Y17785087D01*
X9217007Y17785087D01*
X9217007Y17598682D01*
X9404940Y17597918D01*
X9404940Y17785087D01*
X9217007Y17785087D01*
X9031418Y17785087D01*
X9059250Y17860337D01*
X9110817Y17937114D01*
X9202492Y17988299D01*
X9409524Y17988299D01*
X9507310Y17937114D01*
G37*
G36*
X10288073Y17937114D02*
G01*
X10348234Y17852697D01*
X10382039Y17769044D01*
X10388915Y17672786D01*
X10388915Y17284696D01*
X10372872Y17218232D01*
X10335777Y17129953D01*
X10271350Y17058650D01*
X10179591Y17004324D01*
X9893871Y17004324D01*
X9893871Y17207536D01*
X10185703Y17207536D01*
X10185703Y17394706D01*
X9795321Y17394706D01*
X9796085Y17596390D01*
X9799714Y17704108D01*
X9809072Y17776684D01*
X9812180Y17785087D01*
X9997769Y17785087D01*
X9997769Y17598682D01*
X10185703Y17597918D01*
X10185703Y17785087D01*
X9997769Y17785087D01*
X9812180Y17785087D01*
X9840013Y17860337D01*
X9891580Y17937114D01*
X9983254Y17988299D01*
X10190286Y17988299D01*
X10288073Y17937114D01*
G37*
G36*
X16462677Y21919495D02*
G01*
X16523720Y21833841D01*
X16558020Y21748962D01*
X16564996Y21651294D01*
X16564996Y21257519D01*
X16548718Y21190082D01*
X16511080Y21100509D01*
X16445710Y21028162D01*
X16352606Y20973041D01*
X16062701Y20973041D01*
X16062701Y21179230D01*
X16358807Y21179230D01*
X16358807Y21369141D01*
X15962707Y21369141D01*
X15963483Y21573779D01*
X15967165Y21683075D01*
X15976660Y21756714D01*
X15979813Y21765240D01*
X16168121Y21765240D01*
X16168121Y21576105D01*
X16358807Y21575330D01*
X16358807Y21765240D01*
X16168121Y21765240D01*
X15979813Y21765240D01*
X16008053Y21841592D01*
X16060376Y21919495D01*
X16153393Y21971429D01*
X16363458Y21971429D01*
X16462677Y21919495D01*
G37*
G36*
X16498686Y19928255D02*
G01*
X16559285Y19843224D01*
X16593335Y19758963D01*
X16600261Y19662004D01*
X16600261Y19271093D01*
X16584101Y19204146D01*
X16546737Y19115224D01*
X16481842Y19043403D01*
X16389415Y18988683D01*
X16101618Y18988683D01*
X16101618Y19193372D01*
X16395571Y19193372D01*
X16395571Y19381902D01*
X16002351Y19381902D01*
X16003121Y19585053D01*
X16006776Y19693554D01*
X16016203Y19766658D01*
X16019334Y19775122D01*
X16206272Y19775122D01*
X16206272Y19587362D01*
X16395571Y19586592D01*
X16395571Y19775122D01*
X16206272Y19775122D01*
X16019334Y19775122D01*
X16047368Y19850919D01*
X16099310Y19928255D01*
X16191651Y19979812D01*
X16400188Y19979812D01*
X16498686Y19928255D01*
G37*
G36*
X10129730Y21764465D02*
G01*
X10052215Y21766016D01*
X9975476Y21766791D01*
X9884784Y21763496D01*
X9839050Y21755163D01*
X9833624Y21721832D01*
X9833624Y21574554D01*
X10028961Y21574554D01*
X10115002Y21540448D01*
X10180696Y21466034D01*
X10225848Y21357513D01*
X10225848Y21185431D01*
X10174689Y21071484D01*
X10111514Y21012961D01*
X10025860Y20972266D01*
X9625885Y20971490D01*
X9625885Y21368365D01*
X9833624Y21368365D01*
X9833624Y21177679D01*
X9984003Y21177679D01*
X10017334Y21207910D01*
X10029736Y21268371D01*
X10017334Y21339685D01*
X9987878Y21368365D01*
X9833624Y21368365D01*
X9625885Y21368365D01*
X9625885Y21769116D01*
X9646814Y21841980D01*
X9685571Y21907092D01*
X9745257Y21949725D01*
X9786340Y21960577D01*
X9825098Y21970654D01*
X10129730Y21970654D01*
X10129730Y21764465D01*
G37*
G36*
X14090729Y21764465D02*
G01*
X14013214Y21766016D01*
X13936475Y21766791D01*
X13845782Y21763496D01*
X13800049Y21755163D01*
X13794623Y21721832D01*
X13794623Y21574554D01*
X13989960Y21574554D01*
X14076001Y21540448D01*
X14141695Y21466034D01*
X14186847Y21357513D01*
X14186847Y21185431D01*
X14135687Y21071484D01*
X14072513Y21012961D01*
X13986859Y20972266D01*
X13586883Y20971490D01*
X13586883Y21368365D01*
X13794623Y21368365D01*
X13794623Y21177679D01*
X13945001Y21177679D01*
X13978332Y21207910D01*
X13990735Y21268371D01*
X13978332Y21339685D01*
X13948877Y21368365D01*
X13794623Y21368365D01*
X13586883Y21368365D01*
X13586883Y21769116D01*
X13607812Y21841980D01*
X13646570Y21907092D01*
X13706256Y21949725D01*
X13747339Y21960577D01*
X13786096Y21970654D01*
X14090729Y21970654D01*
X14090729Y21764465D01*
G37*
G36*
X14196470Y17784323D02*
G01*
X14120075Y17785851D01*
X14044443Y17786615D01*
X13955060Y17783368D01*
X13909987Y17775156D01*
X13904639Y17742305D01*
X13904639Y17597154D01*
X14097156Y17597154D01*
X14181955Y17563540D01*
X14246700Y17490200D01*
X14291201Y17383246D01*
X14291201Y17213648D01*
X14240780Y17101347D01*
X14178517Y17043668D01*
X14094100Y17003560D01*
X13699899Y17002796D01*
X13699899Y17393942D01*
X13904639Y17393942D01*
X13904639Y17206009D01*
X14052846Y17206009D01*
X14085697Y17235803D01*
X14097920Y17295391D01*
X14085697Y17365675D01*
X14056666Y17393942D01*
X13904639Y17393942D01*
X13699899Y17393942D01*
X13699899Y17788907D01*
X13720526Y17860719D01*
X13758723Y17924891D01*
X13817548Y17966908D01*
X13858038Y17977604D01*
X13896236Y17987535D01*
X14196470Y17987535D01*
X14196470Y17784323D01*
G37*
G36*
X18862622Y19774353D02*
G01*
X18785671Y19775892D01*
X18709489Y19776661D01*
X18619456Y19773391D01*
X18574055Y19765119D01*
X18568669Y19732030D01*
X18568669Y19585823D01*
X18762585Y19585823D01*
X18848001Y19551964D01*
X18913217Y19478091D01*
X18958041Y19370360D01*
X18958041Y19199528D01*
X18907253Y19086410D01*
X18844538Y19028312D01*
X18759507Y18987913D01*
X18362440Y18987144D01*
X18362440Y19381133D01*
X18568669Y19381133D01*
X18568669Y19191833D01*
X18717954Y19191833D01*
X18751043Y19221844D01*
X18763355Y19281866D01*
X18751043Y19352661D01*
X18721801Y19381133D01*
X18568669Y19381133D01*
X18362440Y19381133D01*
X18362440Y19778970D01*
X18383217Y19851304D01*
X18421692Y19915943D01*
X18480945Y19958266D01*
X18521729Y19969039D01*
X18560204Y19979043D01*
X18862622Y19979043D01*
X18862622Y19774353D01*
G37*
G36*
X19661809Y17784323D02*
G01*
X19585414Y17785851D01*
X19509782Y17786615D01*
X19420399Y17783368D01*
X19375326Y17775156D01*
X19369978Y17742305D01*
X19369978Y17597154D01*
X19562495Y17597154D01*
X19647294Y17563540D01*
X19712039Y17490200D01*
X19756540Y17383246D01*
X19756540Y17213648D01*
X19706119Y17101347D01*
X19643856Y17043668D01*
X19559439Y17003560D01*
X19165238Y17002796D01*
X19165238Y17393942D01*
X19369978Y17393942D01*
X19369978Y17206009D01*
X19518186Y17206009D01*
X19551036Y17235803D01*
X19563259Y17295391D01*
X19551036Y17365675D01*
X19522005Y17393942D01*
X19369978Y17393942D01*
X19165238Y17393942D01*
X19165238Y17788907D01*
X19185865Y17860719D01*
X19224063Y17924891D01*
X19282887Y17966908D01*
X19323377Y17977604D01*
X19361575Y17987535D01*
X19661809Y17987535D01*
X19661809Y17784323D01*
G37*
G36*
X19639250Y20316088D02*
G01*
X19692154Y20255297D01*
X19728321Y20169881D01*
X19746789Y20081387D01*
X19747559Y19290331D01*
X19737940Y19216073D01*
X19709083Y19139507D01*
X19666952Y19071982D01*
X19614433Y19015615D01*
X19552873Y18990222D01*
X19155036Y18988683D01*
X19155036Y19782817D01*
X19458223Y19782817D01*
X19458223Y19579667D01*
X19360495Y19579667D01*
X19360495Y19238773D01*
X19365882Y19223383D01*
X19372038Y19207224D01*
X19405896Y19193372D01*
X19449758Y19191833D01*
X19529018Y19204915D01*
X19545947Y19238004D01*
X19545947Y20122941D01*
X19540560Y20154491D01*
X19499776Y20170651D01*
X19449758Y20172959D01*
X19369729Y20159108D01*
X19358956Y20131406D01*
X19359725Y19972117D01*
X19155036Y19972117D01*
X19161577Y20108128D01*
X19187355Y20208357D01*
X19249301Y20300121D01*
X19348952Y20373801D01*
X19554412Y20373801D01*
X19639250Y20316088D01*
G37*
G36*
X7754681Y21918719D02*
G01*
X7829095Y21812524D01*
X7841498Y21759039D01*
X7852350Y21710205D01*
X7852350Y21594708D01*
X7823669Y21492389D01*
X7743829Y21396271D01*
X7667865Y21368365D01*
X7492682Y21368365D01*
X7466327Y21357513D01*
X7455475Y21328058D01*
X7455475Y21228064D01*
X7456250Y21224188D01*
X7460901Y21208685D01*
X7466327Y21188531D01*
X7527370Y21178261D01*
X7648486Y21175354D01*
X7794214Y21176129D01*
X7852350Y21177451D01*
X7852350Y20976141D01*
X7433771Y20976141D01*
X7336877Y21027301D01*
X7271765Y21104816D01*
X7260138Y21155975D01*
X7249286Y21203259D01*
X7249286Y21336584D01*
X7265564Y21400146D01*
X7284167Y21468359D01*
X7340753Y21531921D01*
X7439197Y21574554D01*
X7578529Y21577074D01*
X7635309Y21584631D01*
X7640735Y21601684D01*
X7646161Y21617963D01*
X7646161Y21729584D01*
X7635309Y21754388D01*
X7608954Y21765240D01*
X7348505Y21765240D01*
X7348505Y21971429D01*
X7662439Y21971429D01*
X7754681Y21918719D01*
G37*
G36*
X7862427Y21177679D02*
G01*
X7852350Y21177451D01*
X7852350Y21177679D01*
X7862427Y21177679D01*
G37*
G36*
X17208174Y19963652D02*
G01*
X17250497Y19949801D01*
X17320908Y19874581D01*
X17369002Y19782817D01*
X17382084Y19719717D01*
X17388240Y19687398D01*
X17388240Y19451158D01*
X17348033Y19349006D01*
X17312058Y19285714D01*
X17246650Y19226269D01*
X17158156Y19186447D01*
X16992711Y19181830D01*
X16992711Y19032545D01*
X17003485Y19007151D01*
X17031187Y18995608D01*
X17286664Y18995608D01*
X17286664Y18791688D01*
X16998867Y18791688D01*
X16926341Y18834973D01*
X16861125Y18890955D01*
X16814185Y18979833D01*
X16791100Y19074098D01*
X16790569Y19386519D01*
X16992711Y19386519D01*
X17145844Y19386519D01*
X17176624Y19398062D01*
X17182780Y19451928D01*
X17184319Y19555042D01*
X17183550Y19641227D01*
X17182780Y19728182D01*
X17178163Y19744342D01*
X17172777Y19760502D01*
X17156617Y19765888D01*
X17141227Y19771275D01*
X16994250Y19771275D01*
X16992711Y19386519D01*
X16790569Y19386519D01*
X16789561Y19979812D01*
X16837847Y19980004D01*
X16925764Y19982121D01*
X17038113Y19985968D01*
X17096567Y19988618D01*
X17208174Y19963652D01*
G37*
G36*
X17101789Y19988854D02*
G01*
X17096567Y19988618D01*
X17091209Y19989816D01*
X17101789Y19988854D01*
G37*
G36*
X12369493Y20363798D02*
G01*
X12419511Y20352255D01*
X12507235Y20274535D01*
X12578800Y20180654D01*
X12621892Y20076770D01*
X12643438Y20023674D01*
X12654212Y19924407D01*
X12664215Y19823601D01*
X12664215Y19284175D01*
X12636513Y19164131D01*
X12567257Y19061401D01*
X12463373Y18993300D01*
X12277152Y18993300D01*
X12202680Y19031775D01*
X12140350Y19089745D01*
X12090160Y19167209D01*
X12070923Y19238004D01*
X12070923Y19279558D01*
X12275613Y19279558D01*
X12286386Y19230309D01*
X12305623Y19224153D01*
X12323322Y19218766D01*
X12415663Y19218766D01*
X12454139Y19235695D01*
X12464912Y19278788D01*
X12464912Y19569663D01*
X12346215Y19574857D01*
X12341021Y19576589D01*
X12302545Y19565046D01*
X12286386Y19558890D01*
X12280999Y19541191D01*
X12275613Y19525031D01*
X12275613Y19279558D01*
X12070923Y19279558D01*
X12070923Y19538883D01*
X12092469Y19618912D01*
X12129406Y19693554D01*
X12197892Y19758963D01*
X12266378Y19780316D01*
X12365645Y19787434D01*
X12464912Y19782817D01*
X12467221Y19835144D01*
X12460637Y19946039D01*
X12440886Y20032481D01*
X12407968Y20094469D01*
X12352179Y20143141D01*
X12277152Y20170651D01*
X12169420Y20169112D01*
X12169420Y20373801D01*
X12323322Y20373801D01*
X12369493Y20363798D01*
G37*
G36*
X8565803Y20363798D02*
G01*
X8598122Y20352255D01*
X8678921Y20269148D01*
X8722783Y20169881D01*
X8737404Y20061380D01*
X8728939Y19972117D01*
X8721244Y19884393D01*
X8674881Y19781663D01*
X8655835Y19741264D01*
X8587349Y19659696D01*
X8521364Y19616795D01*
X8472692Y19588131D01*
X8386507Y19511180D01*
X8354187Y19442694D01*
X8343414Y19384980D01*
X8343222Y19292447D01*
X8343087Y19282292D01*
X8359574Y19202606D01*
X8384968Y19197220D01*
X8408823Y19191833D01*
X8489621Y19191833D01*
X8544256Y19243391D01*
X8561570Y19313224D01*
X8567342Y19388828D01*
X8737404Y19388828D01*
X8738943Y19341888D01*
X8723937Y19205107D01*
X8678921Y19097953D01*
X8609665Y19021772D01*
X8537331Y18993300D01*
X8338797Y18993300D01*
X8261846Y19022541D01*
X8205672Y19091412D01*
X8177200Y19134890D01*
X8162772Y19179714D01*
X8141033Y19269554D01*
X8138724Y19287253D01*
X8139302Y19386519D01*
X8141033Y19428843D01*
X8191051Y19583514D01*
X8274928Y19682781D01*
X8312441Y19712792D01*
X8401897Y19778200D01*
X8469999Y19834952D01*
X8509629Y19888240D01*
X8521941Y19934411D01*
X8532714Y19975964D01*
X8533069Y20071760D01*
X8516554Y20152182D01*
X8471922Y20169112D01*
X8391124Y20169112D01*
X8372656Y20163725D01*
X8353418Y20158338D01*
X8303592Y20079848D01*
X8284931Y19972117D01*
X8138724Y19972117D01*
X8137185Y20018288D01*
X8143855Y20106268D01*
X8163862Y20191684D01*
X8197207Y20274535D01*
X8280314Y20351486D01*
X8338797Y20373801D01*
X8536561Y20373801D01*
X8565803Y20363798D01*
G37*
G36*
X17978088Y22358227D02*
G01*
X18010644Y22346600D01*
X18092035Y22262884D01*
X18136218Y22162891D01*
X18150946Y22053595D01*
X18142419Y21963678D01*
X18134668Y21875311D01*
X18087965Y21771829D01*
X18068780Y21731134D01*
X17999792Y21648968D01*
X17933324Y21605754D01*
X17884296Y21576880D01*
X17797479Y21499365D01*
X17764923Y21430377D01*
X17754071Y21372241D01*
X17753877Y21279030D01*
X17753741Y21268797D01*
X17770349Y21188531D01*
X17795929Y21183105D01*
X17819958Y21177679D01*
X17901349Y21177679D01*
X17956384Y21229614D01*
X17973825Y21299959D01*
X17979639Y21376117D01*
X18150946Y21376117D01*
X18152496Y21328833D01*
X18137381Y21191051D01*
X18092035Y21083111D01*
X18022272Y21006372D01*
X17949408Y20977692D01*
X17749420Y20977692D01*
X17671905Y21007147D01*
X17615320Y21076523D01*
X17586639Y21120319D01*
X17572105Y21165471D01*
X17550207Y21255969D01*
X17547882Y21273798D01*
X17548463Y21373791D01*
X17550207Y21416424D01*
X17600592Y21572229D01*
X17685083Y21672223D01*
X17722871Y21702454D01*
X17812982Y21768341D01*
X17881583Y21825508D01*
X17921503Y21879187D01*
X17933905Y21925696D01*
X17944757Y21967554D01*
X17945115Y22064049D01*
X17928479Y22145062D01*
X17883520Y22162115D01*
X17802130Y22162115D01*
X17783527Y22156689D01*
X17764148Y22151263D01*
X17713957Y22072198D01*
X17695160Y21963678D01*
X17547882Y21963678D01*
X17546332Y22010187D01*
X17553050Y22098812D01*
X17573203Y22184853D01*
X17606793Y22268310D01*
X17690509Y22345825D01*
X17749420Y22368304D01*
X17948633Y22368304D01*
X17978088Y22358227D01*
G37*
G36*
X21150759Y18369513D02*
G01*
X21182845Y18358054D01*
X21263061Y18275547D01*
X21306606Y18176996D01*
X21321121Y18069279D01*
X21312718Y17980660D01*
X21305078Y17893569D01*
X21259050Y17791581D01*
X21240142Y17751473D01*
X21172150Y17670494D01*
X21106641Y17627903D01*
X21058320Y17599446D01*
X20972757Y17523050D01*
X20940671Y17455058D01*
X20929976Y17397761D01*
X20929785Y17305896D01*
X20929651Y17295813D01*
X20946019Y17216704D01*
X20971230Y17211356D01*
X20994912Y17206009D01*
X21075127Y17206009D01*
X21129368Y17257194D01*
X21146557Y17326523D01*
X21152287Y17401581D01*
X21321121Y17401581D01*
X21322649Y17354980D01*
X21307752Y17219187D01*
X21263061Y17112806D01*
X21194305Y17037174D01*
X21122493Y17008908D01*
X20925392Y17008908D01*
X20848997Y17037938D01*
X20793228Y17106312D01*
X20764961Y17149476D01*
X20750637Y17193976D01*
X20729056Y17283168D01*
X20726764Y17300739D01*
X20727337Y17399289D01*
X20729056Y17441307D01*
X20778713Y17594862D01*
X20861984Y17693412D01*
X20899227Y17723207D01*
X20988037Y17788143D01*
X21055647Y17844485D01*
X21094990Y17897389D01*
X21107214Y17943226D01*
X21117909Y17984479D01*
X21118261Y18079585D01*
X21101866Y18159425D01*
X21057557Y18176232D01*
X20977341Y18176232D01*
X20959006Y18170885D01*
X20939907Y18165537D01*
X20890441Y18087613D01*
X20871915Y17980660D01*
X20726764Y17980660D01*
X20725236Y18026497D01*
X20731857Y18113843D01*
X20751720Y18198642D01*
X20784824Y18280894D01*
X20867332Y18357290D01*
X20925392Y18379445D01*
X21121729Y18379445D01*
X21150759Y18369513D01*
G37*
%LPC*%
D12*
X130670000Y-1133555D02*
X-1410000Y-1133555D01*
X-1410000Y7756445D01*
X130670000Y7756445D01*
X130670000Y-1133555D01*
G36*
X130670000Y-1133555D02*
G01*
X-1410000Y-1133555D01*
X-1410000Y7756445D01*
X130670000Y7756445D01*
X130670000Y-1133555D01*
G37*
D13*
X8166372Y24774945D03*
D14*
X5626372Y24774945D03*
D13*
X2984772Y29925946D03*
D14*
X5524772Y29925946D03*
X8064772Y29925946D03*
X10604772Y29925946D03*
G36*
G01*
X11280972Y35785845D02*
X10080972Y35785845D01*
G75*
G02*
X9830972Y36035845I0J250000D01*
G01*
X9830972Y37235845D01*
G75*
G02*
X10080972Y37485845I250000J0D01*
G01*
X11280972Y37485845D01*
G75*
G02*
X11530972Y37235845I0J-250000D01*
G01*
X11530972Y36035845D01*
G75*
G02*
X11280972Y35785845I-250000J0D01*
G01*
G37*
D15*
X10680972Y39175845D03*
X13220972Y36635845D03*
X13220972Y39175845D03*
X15760972Y36635845D03*
X15760972Y39175845D03*
X18300972Y36635845D03*
X18300972Y39175845D03*
X20840972Y36635845D03*
X20840972Y39175845D03*
X23380972Y36635845D03*
X23380972Y39175845D03*
X25920972Y36635845D03*
X25920972Y39175845D03*
X28460972Y36635845D03*
X28460972Y39175845D03*
X31000972Y36635845D03*
X31000972Y39175845D03*
X33540972Y36635845D03*
X33540972Y39175845D03*
X36080972Y36635845D03*
X36080972Y39175845D03*
X38620972Y36635845D03*
X38620972Y39175845D03*
X41160972Y36635845D03*
X41160972Y39175845D03*
X43700972Y36635845D03*
X43700972Y39175845D03*
X46240972Y36635845D03*
X46240972Y39175845D03*
X48780972Y36635845D03*
X48780972Y39175845D03*
X51320972Y36635845D03*
X51320972Y39175845D03*
X53860972Y36635845D03*
X53860972Y39175845D03*
X56400972Y36635845D03*
X56400972Y39175845D03*
X58940972Y36635845D03*
X58940972Y39175845D03*
G36*
G01*
X70885800Y35785845D02*
X69685800Y35785845D01*
G75*
G02*
X69435800Y36035845I0J250000D01*
G01*
X69435800Y37235845D01*
G75*
G02*
X69685800Y37485845I250000J0D01*
G01*
X70885800Y37485845D01*
G75*
G02*
X71135800Y37235845I0J-250000D01*
G01*
X71135800Y36035845D01*
G75*
G02*
X70885800Y35785845I-250000J0D01*
G01*
G37*
X70285800Y39175845D03*
X72825800Y36635845D03*
X72825800Y39175845D03*
X75365800Y36635845D03*
X75365800Y39175845D03*
X77905800Y36635845D03*
X77905800Y39175845D03*
X80445800Y36635845D03*
X80445800Y39175845D03*
X82985800Y36635845D03*
X82985800Y39175845D03*
X85525800Y36635845D03*
X85525800Y39175845D03*
X88065800Y36635845D03*
X88065800Y39175845D03*
X90605800Y36635845D03*
X90605800Y39175845D03*
X93145800Y36635845D03*
X93145800Y39175845D03*
X95685800Y36635845D03*
X95685800Y39175845D03*
X98225800Y36635845D03*
X98225800Y39175845D03*
X100765800Y36635845D03*
X100765800Y39175845D03*
X103305800Y36635845D03*
X103305800Y39175845D03*
X105845800Y36635845D03*
X105845800Y39175845D03*
X108385800Y36635845D03*
X108385800Y39175845D03*
X110925800Y36635845D03*
X110925800Y39175845D03*
X113465800Y36635845D03*
X113465800Y39175845D03*
X116005800Y36635845D03*
X116005800Y39175845D03*
X118545800Y36635845D03*
X118545800Y39175845D03*
X127241572Y32445745D03*
D16*
X121742888Y11770145D03*
D17*
X124242888Y11770145D03*
D16*
X13761354Y11770145D03*
D17*
X16261354Y11770145D03*
D13*
X3111116Y38688946D03*
D14*
X3111116Y36148946D03*
D13*
X127241572Y15681745D03*
D14*
X127241572Y18221745D03*
X127241572Y20761745D03*
X127241572Y23301745D03*
X127241572Y25841745D03*
X127241572Y28381745D03*
D18*
X126860000Y4319445D03*
X124320000Y4319445D03*
X121780000Y4319445D03*
X119240000Y4319445D03*
X116700000Y4319445D03*
X114160000Y4319445D03*
X111620000Y4319445D03*
X109080000Y4319445D03*
X106540000Y4319445D03*
X104000000Y4319445D03*
X101460000Y4319445D03*
X98920000Y4319445D03*
X96380000Y4319445D03*
X93840000Y4319445D03*
X91300000Y4319445D03*
X88760000Y4319445D03*
X86220000Y4319445D03*
X83680000Y4319445D03*
X81140000Y4319445D03*
X78600000Y4319445D03*
X76060000Y4319445D03*
X73520000Y4319445D03*
X70980000Y4319445D03*
X68440000Y4319445D03*
X65900000Y4319445D03*
X63360000Y4319445D03*
X60820000Y4319445D03*
X58280000Y4319445D03*
X55740000Y4319445D03*
X53200000Y4319445D03*
X50660000Y4319445D03*
X48120000Y4319445D03*
X45580000Y4319445D03*
X43040000Y4319445D03*
X40500000Y4319445D03*
X37960000Y4319445D03*
X35420000Y4319445D03*
X32880000Y4319445D03*
X30340000Y4319445D03*
X27800000Y4319445D03*
X25260000Y4319445D03*
X22720000Y4319445D03*
X20180000Y4319445D03*
X17640000Y4319445D03*
X15100000Y4319445D03*
X12560000Y4319445D03*
X10020000Y4319445D03*
X7480000Y4319445D03*
X4940000Y4319445D03*
X2400000Y4319445D03*
D13*
X126034800Y36148946D03*
D14*
X126034800Y38688946D03*
%LPD*%
M02*
